<svg width="20" height="12" viewBox="0 0 20 12" fill="none" xmlns="http://www.w3.org/2000/svg">
    <path d="M10.0113 12C9.77238 12 9.54842 11.9622 9.33939 11.8866C9.13036 11.811 8.93626 11.6812 8.75709 11.4972L0.470477 3.04136C0.141999 2.70618 -0.0144763 2.28689 0.00105169 1.7835C0.0165797 1.28011 0.187985 0.861432 0.515269 0.527465C0.843747 0.192278 1.26181 0.024684 1.76946 0.0246839C2.27711 0.0246838 2.69517 0.192278 3.02365 0.527464L10.0113 7.65779L17.0437 0.481753C17.3722 0.146567 17.7831 -0.0137121 18.2764 0.000914138C18.7697 0.0155404 19.18 0.191056 19.5073 0.527461C19.8358 0.862647 20 1.28925 20 1.80726C20 2.32528 19.8358 2.75188 19.5073 3.08706L11.2655 11.4972C11.0863 11.68 10.8922 11.8098 10.6832 11.8866C10.4741 11.9634 10.2502 12.0012 10.0113 12Z" fill="#202124"/>
</svg>
