<svg width="19" height="18" viewBox="0 0 19 18" fill="none" xmlns="http://www.w3.org/2000/svg">
<path d="M18.2473 16.0149L14.9102 12.9094C16.2056 11.3941 16.8329 9.47076 16.6631 7.53488C16.4934 5.599 15.5396 3.7977 13.9978 2.50137C12.4559 1.20504 10.4433 0.512213 8.37376 0.565345C6.30419 0.618476 4.33498 1.41353 2.87103 2.78703C1.40708 4.16053 0.559663 6.00807 0.503032 7.94976C0.446401 9.89145 1.18486 11.7797 2.56656 13.2263C3.94826 14.6728 5.86819 15.5677 7.93156 15.7269C9.99493 15.8862 12.0449 15.2977 13.66 14.0824L16.97 17.1879C17.0536 17.267 17.1531 17.3298 17.2627 17.3726C17.3723 17.4154 17.4899 17.4375 17.6086 17.4375C17.7274 17.4375 17.8449 17.4154 17.9546 17.3726C18.0642 17.3298 18.1636 17.267 18.2473 17.1879C18.4094 17.0305 18.5 16.8202 18.5 16.6014C18.5 16.3825 18.4094 16.1722 18.2473 16.0149ZM8.61399 14.0824C7.3687 14.0824 6.15139 13.7359 5.11597 13.0868C4.08056 12.4377 3.27355 11.5151 2.797 10.4357C2.32045 9.35633 2.19577 8.16859 2.43871 7.0227C2.68165 5.87681 3.28131 4.82424 4.16186 3.9981C5.04241 3.17196 6.16429 2.60935 7.38565 2.38142C8.607 2.15349 9.87297 2.27047 11.0235 2.71758C12.174 3.16468 13.1573 3.92182 13.8491 4.89326C14.541 5.8647 14.9102 7.0068 14.9102 8.17514C14.9102 9.74183 14.2469 11.2444 13.0661 12.3522C11.8853 13.46 10.2839 14.0824 8.61399 14.0824Z" fill="#A3A3A3"/>
</svg>
