<svg width="535" height="310" viewBox="0 0 535 310" fill="none" xmlns="http://www.w3.org/2000/svg">
<path fill-rule="evenodd" clip-rule="evenodd" d="M443.942 0.961914H296.452C290.848 0.961914 285.504 5.50207 284.516 11.1028L237.719 276.344C236.731 281.945 240.473 286.485 246.077 286.485H393.566C399.17 286.485 404.514 281.945 405.503 276.344L452.301 11.1028C453.289 5.50207 449.545 0.961914 443.942 0.961914Z" fill="#4965CC"/>
<mask id="mask0_565_3984" style="mask-type:alpha" maskUnits="userSpaceOnUse" x="215" y="0" width="216" height="287">
<path fill-rule="evenodd" clip-rule="evenodd" d="M215.621 0.961914H430.529V286.485H215.621V0.961914Z" fill="white"/>
</mask>
<g mask="url(#mask0_565_3984)">
<path fill-rule="evenodd" clip-rule="evenodd" d="M422.012 0.961914H274.515C268.911 0.961914 263.567 5.50207 262.578 11.1028L215.779 276.344C214.791 281.945 218.533 286.485 224.137 286.485H371.634C377.238 286.485 382.582 281.945 383.57 276.344L430.371 11.1028C431.357 5.50207 427.615 0.961914 422.012 0.961914Z" fill="#B6CCFC"/>
</g>
<path fill-rule="evenodd" clip-rule="evenodd" d="M363.386 13.3356H316.134C315.686 13.3356 315.322 12.9483 315.322 12.4703C315.322 11.9928 315.686 11.6055 316.134 11.6055H363.386C363.835 11.6055 364.199 11.9928 364.199 12.4703C364.199 12.9483 363.835 13.3356 363.386 13.3356Z" fill="#21211D"/>
<path fill-rule="evenodd" clip-rule="evenodd" d="M371.966 12.3626C371.852 13.0194 371.235 13.5518 370.588 13.5518C369.941 13.5518 369.51 13.0194 369.624 12.3626C369.738 11.7053 370.355 11.1729 371.001 11.1729C371.648 11.1729 372.08 11.7053 371.966 12.3626Z" fill="#21211D"/>
<path fill-rule="evenodd" clip-rule="evenodd" d="M434.873 49.8852C434.826 49.8852 434.778 49.8808 434.731 49.8724C434.285 49.7945 433.989 49.3713 434.067 48.9279L439.134 20.281C439.212 19.8377 439.638 19.5425 440.081 19.6197C440.527 19.6978 440.823 20.1208 440.745 20.5641L435.678 49.211C435.609 49.6068 435.263 49.8852 434.873 49.8852Z" fill="#21211D"/>
<path fill-rule="evenodd" clip-rule="evenodd" d="M428.385 87.3C428.338 87.3 428.29 87.2956 428.242 87.2872C427.797 87.2093 427.498 86.7861 427.578 86.3427L432.646 57.6956C432.723 57.2521 433.15 56.9579 433.593 57.0343C434.038 57.1123 434.335 57.5354 434.257 57.9787L429.19 86.6258C429.118 87.0216 428.774 87.3 428.385 87.3Z" fill="#21211D"/>
<path fill-rule="evenodd" clip-rule="evenodd" d="M379.149 15.3352C377.278 18.1467 374.106 19.9299 370.976 19.9299H314.963C311.832 19.9299 309.29 18.1467 308.411 15.3352C307.532 12.5235 304.99 10.7404 301.859 10.7404H282.485C278.725 10.7404 275.14 13.787 274.477 17.5446L230.218 268.435C229.554 272.191 232.065 275.239 235.825 275.239H363.73C367.49 275.239 371.075 272.191 371.738 268.435L415.997 17.5446C416.66 13.787 414.15 10.7404 410.39 10.7404H387.322C384.191 10.7404 381.019 12.5235 379.149 15.3352Z" fill="white"/>
<path fill-rule="evenodd" clip-rule="evenodd" d="M310.238 83.8395H296.798C287.925 83.8395 281.999 76.6708 283.564 67.8278L285.934 54.4346C287.498 45.5916 295.96 38.4229 304.834 38.4229H318.273C327.147 38.4229 333.072 45.5916 331.507 54.4346L329.138 67.8278C327.573 76.6708 319.111 83.8395 310.238 83.8395Z" fill="#EDC829"/>
<path fill-rule="evenodd" clip-rule="evenodd" d="M371.01 83.8395H357.57C348.696 83.8395 342.771 76.6708 344.336 67.8278L346.706 54.4346C348.27 45.5916 356.732 38.4229 365.606 38.4229H379.045C387.919 38.4229 393.844 45.5916 392.279 54.4346L389.91 67.8278C388.345 76.6708 379.883 83.8395 371.01 83.8395Z" fill="#F73132"/>
<path fill-rule="evenodd" clip-rule="evenodd" d="M300.289 139.853H286.85C277.976 139.853 272.051 132.685 273.616 123.842L275.986 110.448C277.55 101.605 286.012 94.4368 294.885 94.4368H308.325C317.199 94.4368 323.124 101.605 321.559 110.448L319.189 123.842C317.625 132.685 309.163 139.853 300.289 139.853Z" fill="#4965CC"/>
<path fill-rule="evenodd" clip-rule="evenodd" d="M361.278 139.853H347.838C338.965 139.853 333.039 132.685 334.604 123.842L336.974 110.448C338.539 101.605 347 94.4368 355.874 94.4368H369.314C378.187 94.4368 384.112 101.605 382.547 110.448L380.178 123.842C378.613 132.685 370.151 139.853 361.278 139.853Z" fill="#963716"/>
<path fill-rule="evenodd" clip-rule="evenodd" d="M290.341 196.084H276.901C268.028 196.084 262.103 188.914 263.668 180.073L266.037 166.679C267.602 157.835 276.064 150.667 284.937 150.667H298.377C307.25 150.667 313.175 157.835 311.611 166.679L309.241 180.073C307.676 188.914 299.215 196.084 290.341 196.084Z" fill="#B6CCFC"/>
<path fill-rule="evenodd" clip-rule="evenodd" d="M351.329 196.084H337.889C329.016 196.084 323.091 188.914 324.655 180.073L327.025 166.679C328.59 157.835 337.052 150.667 345.925 150.667H359.365C368.238 150.667 374.163 157.835 372.599 166.679L370.229 180.073C368.664 188.914 360.203 196.084 351.329 196.084Z" fill="#D5962F"/>
<path fill-rule="evenodd" clip-rule="evenodd" d="M280.393 252.098H266.953C258.079 252.098 252.154 244.928 253.719 236.085L256.089 222.694C257.653 213.85 266.115 206.681 274.988 206.681H288.428C297.302 206.681 303.227 213.85 301.662 222.694L299.292 236.085C297.728 244.928 289.266 252.098 280.393 252.098Z" fill="#963716"/>
<path fill-rule="evenodd" clip-rule="evenodd" d="M341.381 252.098H327.941C319.068 252.098 313.142 244.928 314.707 236.085L317.077 222.694C318.642 213.85 327.103 206.681 335.977 206.681H349.417C358.29 206.681 364.215 213.85 362.65 222.694L360.281 236.085C358.716 244.928 350.254 252.098 341.381 252.098Z" fill="#066952"/>
<mask id="mask1_565_3984" style="mask-type:alpha" maskUnits="userSpaceOnUse" x="216" y="1" width="215" height="286">
<path fill-rule="evenodd" clip-rule="evenodd" d="M275.051 1.63965C269.462 1.63965 264.133 6.16985 263.148 11.7585L216.48 276.424C215.495 282.012 219.226 286.543 224.815 286.543H371.896C377.484 286.543 382.814 282.012 383.799 276.424L430.466 11.7585C431.452 6.16985 427.722 1.63965 422.133 1.63965H275.051Z" fill="white"/>
</mask>
<g mask="url(#mask1_565_3984)">
<path opacity="0.5" fill-rule="evenodd" clip-rule="evenodd" d="M388.746 -25.8628L458.402 -13.714L215.495 265.867L185.255 249.63L388.746 -25.8628Z" fill="white"/>
</g>
<mask id="mask2_565_3984" style="mask-type:alpha" maskUnits="userSpaceOnUse" x="216" y="1" width="215" height="286">
<path fill-rule="evenodd" clip-rule="evenodd" d="M275.051 1.63965C269.462 1.63965 264.133 6.16985 263.148 11.7585L216.48 276.424C215.495 282.012 219.226 286.543 224.815 286.543H371.896C377.484 286.543 382.814 282.012 383.799 276.424L430.466 11.7585C431.452 6.16985 427.722 1.63965 422.133 1.63965H275.051Z" fill="white"/>
</mask>
<g mask="url(#mask2_565_3984)">
<path opacity="0.5" fill-rule="evenodd" clip-rule="evenodd" d="M452.562 25.7633L458.402 42.4306L252.143 273.411L232.885 272.957L452.562 25.7633Z" fill="white"/>
</g>
<path fill-rule="evenodd" clip-rule="evenodd" d="M463.09 140.333H417.492V166.784C417.492 172.578 422.189 177.274 427.981 177.274H452.599C458.393 177.274 463.09 172.578 463.09 166.784V140.333Z" fill="#F73132"/>
<path fill-rule="evenodd" clip-rule="evenodd" d="M493.294 103.511C493.294 132.77 469.576 156.489 440.317 156.489C411.058 156.489 387.339 132.77 387.339 103.511C387.339 74.2528 411.058 50.5341 440.317 50.5341C469.576 50.5341 493.294 74.2528 493.294 103.511Z" fill="#EDC829"/>
<path fill-rule="evenodd" clip-rule="evenodd" d="M431.043 88.1624C430.078 88.1624 429.205 89.0002 428.818 89.8757C428.353 90.9341 428.324 92.1647 428.426 93.6857C428.707 98.0916 429.644 102.419 431.212 106.551C431.588 107.536 432.023 108.479 432.503 109.35C432.602 108.826 432.704 108.302 432.803 107.778C433.056 106.461 433.31 105.144 433.56 103.829C434.322 99.8695 435.269 94.9427 433.69 90.7777C433.472 90.2014 432.646 88.3097 431.207 88.1706C431.151 88.1652 431.097 88.1624 431.043 88.1624ZM448.416 85.4943C446.917 85.4943 445.568 86.7642 444.966 88.1085C444.235 89.7377 444.212 91.6125 444.255 93.7177C444.389 100.019 444.832 106.393 445.572 112.69C446.846 111.46 447.808 110.019 448.444 108.908C451.422 103.705 452.819 97.5507 452.38 91.5777C452.08 87.3892 450.228 85.6935 448.734 85.5133C448.628 85.5003 448.522 85.4943 448.416 85.4943ZM454.121 155.632C453.723 155.632 453.349 155.381 453.213 154.982C448.909 142.418 445.836 129.361 444.069 116.149C442.802 116.802 441.491 117.132 440.154 117.132C440.137 117.132 440.118 117.132 440.1 117.132C437.732 117.113 435.5 116.059 433.556 114.063C431.618 124.147 429.685 134.234 427.751 144.317L425.822 154.386C425.721 154.907 425.219 155.25 424.698 155.148C424.176 155.048 423.835 154.545 423.934 154.024L425.865 143.955C427.898 133.349 429.931 122.74 431.971 112.133C430.985 110.726 430.107 109.042 429.415 107.234C427.78 102.921 426.802 98.4056 426.508 93.8105C426.404 92.2531 426.4 90.6026 427.059 89.0999C427.879 87.2525 429.661 86.0838 431.396 86.2579C433.132 86.426 434.624 87.8248 435.487 90.0958C437.259 94.7705 436.255 99.9939 435.448 104.191C435.198 105.506 434.945 106.823 434.691 108.14C434.467 109.316 434.239 110.493 434.015 111.668C435.833 114.001 437.884 115.192 440.116 115.21C440.129 115.21 440.141 115.21 440.157 115.21C441.389 115.21 442.613 114.833 443.803 114.089C442.972 107.35 442.477 100.512 442.332 93.7579C442.287 91.5016 442.319 89.3127 443.213 87.3228C444.112 85.3072 446.299 83.2814 448.963 83.6054C452.514 84.0331 454.056 88.0923 454.296 91.438C454.764 97.7875 453.278 104.331 450.114 109.862C449.249 111.374 447.828 113.441 445.855 114.991C447.583 128.386 450.67 141.628 455.032 154.36C455.203 154.862 454.934 155.408 454.433 155.58C454.331 155.615 454.225 155.632 454.121 155.632Z" fill="#21211D"/>
<path fill-rule="evenodd" clip-rule="evenodd" d="M477.645 94.0011C477.169 94.0011 476.756 93.6483 476.694 93.1643C475.368 82.9867 469.003 73.5073 460.086 68.4252C459.626 68.1624 459.466 67.5755 459.727 67.1146C459.991 66.6533 460.577 66.493 461.038 66.7556C470.467 72.1295 477.198 82.1538 478.599 92.9158C478.668 93.4422 478.296 93.9245 477.771 93.9931C477.73 93.9985 477.686 94.0011 477.645 94.0011Z" fill="white"/>
<path fill-rule="evenodd" clip-rule="evenodd" d="M417.492 161.872H463.09V160.677H417.492V161.872Z" fill="white"/>
<path fill-rule="evenodd" clip-rule="evenodd" d="M417.492 168.752H463.09V167.556H417.492V168.752Z" fill="white"/>
<path d="M119.381 116.929H62.9341V125.363H119.381V116.929Z" fill="#B6CCFC"/>
<path fill-rule="evenodd" clip-rule="evenodd" d="M174.406 265.896L120.487 280.453C117.366 267.566 114.005 254.745 110.389 242.013L109.029 237.24L107.627 232.478C106.708 229.299 105.724 226.148 104.773 222.979C102.813 216.671 100.83 210.364 98.7322 204.114C96.8874 198.567 94.9864 193.043 93.0184 187.554C91.1001 193.262 89.1515 198.963 87.1683 204.663C84.9537 211.033 82.7001 217.404 80.386 223.771C78.0784 230.138 75.7233 236.505 73.2816 242.874C70.8442 249.243 68.3528 255.617 65.7251 262.007C63.1018 268.394 60.3789 274.795 57.4593 281.251L7.49658 257.109C10.3405 251.592 13.1131 245.897 15.8316 240.123C18.5566 234.355 21.2081 228.477 23.8206 222.56C26.4375 216.647 29.0003 210.669 31.5285 204.666C34.061 198.666 36.546 192.622 39.0071 186.559C43.9294 174.433 48.7133 162.207 53.4064 149.936C55.7507 143.799 58.067 137.648 60.3551 131.488L63.1061 124.025H119.503C120.249 125.478 120.984 126.93 121.711 128.381C124.899 134.774 127.942 141.18 130.872 147.609C136.724 160.475 142.166 173.438 147.272 186.503C149.845 193.03 152.289 199.592 154.709 206.167C155.886 209.46 157.101 212.745 158.248 216.048L159.982 220.998L161.679 225.962C166.19 239.2 170.427 252.515 174.406 265.896Z" fill="#B6CCFC"/>
<mask id="mask3_565_3984" style="mask-type:alpha" maskUnits="userSpaceOnUse" x="7" y="124" width="168" height="158">
<path fill-rule="evenodd" clip-rule="evenodd" d="M63.0111 124.025L60.3543 131.489C58.0661 137.647 55.7492 143.799 53.4057 149.936C48.7133 162.208 43.9279 174.433 39.0058 186.559C36.5464 192.621 34.0606 198.665 31.5283 204.666C28.999 210.67 26.4377 216.647 23.8211 222.56C21.2074 228.477 18.556 234.355 15.8318 240.123C13.1135 245.897 10.3401 251.593 7.49658 257.108L57.4584 281.25C60.3776 274.796 63.1015 268.394 65.724 262.007C68.3521 255.616 70.8436 249.244 73.2803 242.874C75.7222 236.504 78.0772 230.137 80.3856 223.77C82.6997 217.403 84.953 211.033 87.1683 204.663C89.151 198.962 91.0988 193.261 93.0177 187.554C94.986 193.043 96.8872 198.566 98.7305 204.114C100.83 210.364 102.812 216.67 104.772 222.979C105.723 226.148 106.708 229.3 107.627 232.477L109.028 237.239L110.389 242.013C114.006 254.744 117.366 267.565 120.486 280.454L174.409 265.897C170.427 252.514 166.192 239.199 161.679 225.962L159.982 220.999L158.246 216.048C157.1 212.745 155.885 209.46 154.708 206.166C152.289 199.593 149.844 193.031 147.271 186.504C142.166 173.439 136.723 160.475 130.871 147.61C127.94 141.179 124.899 134.774 121.71 128.381C120.396 125.756 120.88 126.656 119.502 124.025" fill="white"/>
</mask>
<g mask="url(#mask3_565_3984)">
<path fill-rule="evenodd" clip-rule="evenodd" d="M96.4654 180.578C99.2738 187.376 101.952 194.227 104.495 201.128C107.038 208.03 109.447 214.98 111.721 221.975C113.994 228.97 116.131 236.009 118.132 243.087C120.132 250.165 121.995 257.281 123.719 264.431C125.443 271.581 127.028 278.765 128.473 285.976C128.654 286.882 128.833 287.788 129.011 288.695C129.226 289.795 130.907 289.33 130.693 288.231C129.282 281.013 127.733 273.821 126.044 266.663C124.355 259.504 122.527 252.379 120.561 245.292C118.595 238.204 116.492 231.155 114.253 224.149C112.013 217.143 109.638 210.181 107.129 203.267C104.62 196.353 101.976 189.489 99.1997 182.678C98.851 181.822 98.5 180.968 98.1473 180.114C97.9676 179.679 97.5688 179.369 97.0744 179.505C96.6633 179.618 96.2843 180.14 96.4654 180.578Z" fill="white"/>
</g>
<mask id="mask4_565_3984" style="mask-type:alpha" maskUnits="userSpaceOnUse" x="7" y="124" width="168" height="158">
<path fill-rule="evenodd" clip-rule="evenodd" d="M63.0111 124.025L60.3543 131.489C58.0661 137.647 55.7492 143.799 53.4057 149.936C48.7133 162.208 43.9279 174.433 39.0058 186.559C36.5464 192.621 34.0606 198.665 31.5283 204.666C28.999 210.67 26.4377 216.647 23.8211 222.56C21.2074 228.477 18.556 234.355 15.8318 240.123C13.1135 245.897 10.3401 251.593 7.49658 257.108L57.4584 281.25C60.3776 274.796 63.1015 268.394 65.724 262.007C68.3521 255.616 70.8436 249.244 73.2803 242.874C75.7222 236.504 78.0772 230.137 80.3856 223.77C82.6997 217.403 84.953 211.033 87.1683 204.663C89.151 198.962 91.0988 193.261 93.0177 187.554C94.986 193.043 96.8872 198.566 98.7305 204.114C100.83 210.364 102.812 216.67 104.772 222.979C105.723 226.148 106.708 229.3 107.627 232.477L109.028 237.239L110.389 242.013C114.006 254.744 117.366 267.565 120.486 280.454L174.409 265.897C170.427 252.514 166.192 239.199 161.679 225.962L159.982 220.999L158.246 216.048C157.1 212.745 155.885 209.46 154.708 206.166C152.289 199.593 149.844 193.031 147.271 186.504C142.166 173.439 136.723 160.475 130.871 147.61C127.94 141.179 124.899 134.774 121.71 128.381C120.396 125.756 120.88 126.656 119.502 124.025" fill="white"/>
</mask>
<g mask="url(#mask4_565_3984)">
<path fill-rule="evenodd" clip-rule="evenodd" d="M100.766 162.958C104.079 170.47 107.248 178.045 110.268 185.678C113.289 193.312 116.162 201.004 118.888 208.747C121.613 216.491 124.189 224.287 126.616 232.13C129.042 239.972 131.318 247.862 133.441 255.791C135.565 263.721 137.536 271.692 139.353 279.698C139.579 280.694 139.803 281.691 140.024 282.688C140.268 283.783 141.95 283.32 141.706 282.224C139.918 274.173 137.977 266.156 135.88 258.18C133.783 250.204 131.533 242.268 129.13 234.379C126.739 226.525 124.197 218.718 121.505 210.962C118.802 203.171 115.949 195.431 112.947 187.75C109.946 180.068 106.796 172.445 103.502 164.885C103.094 163.948 102.684 163.012 102.272 162.078C102.08 161.644 101.454 161.551 101.079 161.765C100.631 162.02 100.577 162.53 100.766 162.958Z" fill="white"/>
</g>
<mask id="mask5_565_3984" style="mask-type:alpha" maskUnits="userSpaceOnUse" x="7" y="124" width="168" height="158">
<path fill-rule="evenodd" clip-rule="evenodd" d="M63.0111 124.025L60.3543 131.489C58.0661 137.647 55.7492 143.799 53.4057 149.936C48.7133 162.208 43.9279 174.433 39.0058 186.559C36.5464 192.621 34.0606 198.665 31.5283 204.666C28.999 210.67 26.4377 216.647 23.8211 222.56C21.2074 228.477 18.556 234.355 15.8318 240.123C13.1135 245.897 10.3401 251.593 7.49658 257.108L57.4584 281.25C60.3776 274.796 63.1015 268.394 65.724 262.007C68.3521 255.616 70.8436 249.244 73.2803 242.874C75.7222 236.504 78.0772 230.137 80.3856 223.77C82.6997 217.403 84.953 211.033 87.1683 204.663C89.151 198.962 91.0988 193.261 93.0177 187.554C94.986 193.043 96.8872 198.566 98.7305 204.114C100.83 210.364 102.812 216.67 104.772 222.979C105.723 226.148 106.708 229.3 107.627 232.477L109.028 237.239L110.389 242.013C114.006 254.744 117.366 267.565 120.486 280.454L174.409 265.897C170.427 252.514 166.192 239.199 161.679 225.962L159.982 220.999L158.246 216.048C157.1 212.745 155.885 209.46 154.708 206.166C152.289 199.593 149.844 193.031 147.271 186.504C142.166 173.439 136.723 160.475 130.871 147.61C127.94 141.179 124.899 134.774 121.71 128.381C120.396 125.756 120.88 126.656 119.502 124.025" fill="white"/>
</mask>
<g mask="url(#mask5_565_3984)">
<path fill-rule="evenodd" clip-rule="evenodd" d="M101.544 132.937C106.023 142.056 110.291 151.278 114.397 160.571C118.701 170.313 122.825 180.133 126.797 190.014C130.834 200.056 134.714 210.161 138.445 220.321C142.126 230.345 145.661 240.422 149.04 250.551C152.267 260.229 155.352 269.955 158.26 279.733C158.611 280.912 158.959 282.092 159.304 283.273C159.619 284.348 161.303 283.891 160.987 282.809C158.132 273.056 155.099 263.356 151.92 253.704C148.578 243.557 145.077 233.463 141.429 223.422C137.718 213.206 133.856 203.046 129.838 192.947C125.88 182.999 121.77 173.111 117.487 163.298C113.39 153.911 109.134 144.592 104.668 135.374C104.132 134.267 103.592 133.161 103.05 132.057C102.555 131.049 101.05 131.932 101.544 132.937Z" fill="white"/>
</g>
<mask id="mask6_565_3984" style="mask-type:alpha" maskUnits="userSpaceOnUse" x="7" y="124" width="168" height="158">
<path fill-rule="evenodd" clip-rule="evenodd" d="M63.0111 124.025L60.3543 131.489C58.0661 137.647 55.7492 143.799 53.4057 149.936C48.7133 162.208 43.9279 174.433 39.0058 186.559C36.5464 192.621 34.0606 198.665 31.5283 204.666C28.999 210.67 26.4377 216.647 23.8211 222.56C21.2074 228.477 18.556 234.355 15.8318 240.123C13.1135 245.897 10.3401 251.593 7.49658 257.108L57.4584 281.25C60.3776 274.796 63.1015 268.394 65.724 262.007C68.3521 255.616 70.8436 249.244 73.2803 242.874C75.7222 236.504 78.0772 230.137 80.3856 223.77C82.6997 217.403 84.953 211.033 87.1683 204.663C89.151 198.962 91.0988 193.261 93.0177 187.554C94.986 193.043 96.8872 198.566 98.7305 204.114C100.83 210.364 102.812 216.67 104.772 222.979C105.723 226.148 106.708 229.3 107.627 232.477L109.028 237.239L110.389 242.013C114.006 254.744 117.366 267.565 120.486 280.454L174.409 265.897C170.427 252.514 166.192 239.199 161.679 225.962L159.982 220.999L158.246 216.048C157.1 212.745 155.885 209.46 154.708 206.166C152.289 199.593 149.844 193.031 147.271 186.504C142.166 173.439 136.723 160.475 130.871 147.61C127.94 141.179 124.899 134.774 121.71 128.381C120.396 125.756 120.88 126.656 119.502 124.025" fill="white"/>
</mask>
<g mask="url(#mask6_565_3984)">
<path fill-rule="evenodd" clip-rule="evenodd" d="M105.586 119.632C110.35 129.718 114.978 139.868 119.485 150.072C124.11 160.543 128.609 171.07 132.987 181.647C137.417 192.352 141.727 203.107 145.914 213.91C150.05 224.583 154.066 235.302 157.954 246.067C161.761 256.605 165.444 267.188 168.985 277.819C169.409 279.096 169.832 280.373 170.254 281.652C170.602 282.713 172.289 282.258 171.935 281.188C168.444 270.594 164.811 260.046 161.054 249.544C157.171 238.695 153.157 227.894 149.021 217.139C144.862 206.325 140.581 195.559 136.178 184.842C131.818 174.231 127.341 163.669 122.738 153.162C118.222 142.853 113.585 132.597 108.811 122.406C108.24 121.187 107.667 119.969 107.092 118.752C106.613 117.737 105.108 118.622 105.586 119.632Z" fill="white"/>
</g>
<mask id="mask7_565_3984" style="mask-type:alpha" maskUnits="userSpaceOnUse" x="7" y="124" width="168" height="158">
<path fill-rule="evenodd" clip-rule="evenodd" d="M63.0111 124.025L60.3543 131.489C58.0661 137.647 55.7492 143.799 53.4057 149.936C48.7133 162.208 43.9279 174.433 39.0058 186.559C36.5464 192.621 34.0606 198.665 31.5283 204.666C28.999 210.67 26.4377 216.647 23.8211 222.56C21.2074 228.477 18.556 234.355 15.8318 240.123C13.1135 245.897 10.3401 251.593 7.49658 257.108L57.4584 281.25C60.3776 274.796 63.1015 268.394 65.724 262.007C68.3521 255.616 70.8436 249.244 73.2803 242.874C75.7222 236.504 78.0772 230.137 80.3856 223.77C82.6997 217.403 84.953 211.033 87.1683 204.663C89.151 198.962 91.0988 193.261 93.0177 187.554C94.986 193.043 96.8872 198.566 98.7305 204.114C100.83 210.364 102.812 216.67 104.772 222.979C105.723 226.148 106.708 229.3 107.627 232.477L109.028 237.239L110.389 242.013C114.006 254.744 117.366 267.565 120.486 280.454L174.409 265.897C170.427 252.514 166.192 239.199 161.679 225.962L159.982 220.999L158.246 216.048C157.1 212.745 155.885 209.46 154.708 206.166C152.289 199.593 149.844 193.031 147.271 186.504C142.166 173.439 136.723 160.475 130.871 147.61C127.94 141.179 124.899 134.774 121.71 128.381C120.396 125.756 120.88 126.656 119.502 124.025" fill="white"/>
</mask>
<g mask="url(#mask7_565_3984)">
<path fill-rule="evenodd" clip-rule="evenodd" d="M112.57 118.504C117.201 127.961 121.778 137.444 126.301 146.952C130.823 156.461 135.292 165.995 139.706 175.555C144.12 185.114 148.48 194.699 152.785 204.308C157.09 213.918 161.339 223.551 165.535 233.209C169.739 242.886 173.887 252.586 177.979 262.311C178.483 263.507 178.985 264.704 179.486 265.901C179.67 266.339 180.062 266.642 180.559 266.51C180.97 266.402 181.351 265.872 181.169 265.438C177.088 255.702 172.953 245.988 168.761 236.299C164.564 226.59 160.308 216.906 155.998 207.247C151.708 197.631 147.363 188.039 142.963 178.473C138.543 168.863 134.069 159.279 129.539 149.72C125.01 140.161 120.425 130.629 115.787 121.123C115.218 119.956 114.647 118.79 114.077 117.624C113.583 116.616 112.078 117.499 112.57 118.504Z" fill="white"/>
</g>
<mask id="mask8_565_3984" style="mask-type:alpha" maskUnits="userSpaceOnUse" x="7" y="124" width="168" height="158">
<path fill-rule="evenodd" clip-rule="evenodd" d="M63.0111 124.025L60.3543 131.489C58.0661 137.647 55.7492 143.799 53.4057 149.936C48.7133 162.208 43.9279 174.433 39.0058 186.559C36.5464 192.621 34.0606 198.665 31.5283 204.666C28.999 210.67 26.4377 216.647 23.8211 222.56C21.2074 228.477 18.556 234.355 15.8318 240.123C13.1135 245.897 10.3401 251.593 7.49658 257.108L57.4584 281.25C60.3776 274.796 63.1015 268.394 65.724 262.007C68.3521 255.616 70.8436 249.244 73.2803 242.874C75.7222 236.504 78.0772 230.137 80.3856 223.77C82.6997 217.403 84.953 211.033 87.1683 204.663C89.151 198.962 91.0988 193.261 93.0177 187.554C94.986 193.043 96.8872 198.566 98.7305 204.114C100.83 210.364 102.812 216.67 104.772 222.979C105.723 226.148 106.708 229.3 107.627 232.477L109.028 237.239L110.389 242.013C114.006 254.744 117.366 267.565 120.486 280.454L174.409 265.897C170.427 252.514 166.192 239.199 161.679 225.962L159.982 220.999L158.246 216.048C157.1 212.745 155.885 209.46 154.708 206.166C152.289 199.593 149.844 193.031 147.271 186.504C142.166 173.439 136.723 160.475 130.871 147.61C127.94 141.179 124.899 134.774 121.71 128.381C120.396 125.756 120.88 126.656 119.502 124.025" fill="white"/>
</mask>
<g mask="url(#mask8_565_3984)">
<path fill-rule="evenodd" clip-rule="evenodd" d="M106.981 115.371C104.143 124.117 101.244 132.844 98.35 141.571C94.7855 152.319 91.2103 163.063 87.6445 173.811C84.6889 182.72 81.7301 191.628 78.8258 200.554C74.2524 214.609 69.712 228.678 64.6632 242.572C59.4511 256.916 53.7015 271.081 46.8908 284.747C46.0625 286.408 45.2177 288.062 44.3587 289.708C43.8399 290.702 45.3449 291.585 45.865 290.588C52.9221 277.065 58.8877 263.001 64.2447 248.726C69.6054 234.441 74.3635 219.94 79.0752 205.431C82.0173 196.371 85.0006 187.324 87.9976 178.282C91.5669 167.514 95.1486 156.75 98.7218 145.983C101.781 136.767 104.842 127.552 107.854 118.32C108.124 117.492 108.394 116.664 108.663 115.835C109.01 114.765 107.326 114.306 106.981 115.371Z" fill="white"/>
</g>
<mask id="mask9_565_3984" style="mask-type:alpha" maskUnits="userSpaceOnUse" x="7" y="124" width="168" height="158">
<path fill-rule="evenodd" clip-rule="evenodd" d="M63.0111 124.025L60.3543 131.489C58.0661 137.647 55.7492 143.799 53.4057 149.936C48.7133 162.208 43.9279 174.433 39.0058 186.559C36.5464 192.621 34.0606 198.665 31.5283 204.666C28.999 210.67 26.4377 216.647 23.8211 222.56C21.2074 228.477 18.556 234.355 15.8318 240.123C13.1135 245.897 10.3401 251.593 7.49658 257.108L57.4584 281.25C60.3776 274.796 63.1015 268.394 65.724 262.007C68.3521 255.616 70.8436 249.244 73.2803 242.874C75.7222 236.504 78.0772 230.137 80.3856 223.77C82.6997 217.403 84.953 211.033 87.1683 204.663C89.151 198.962 91.0988 193.261 93.0177 187.554C94.986 193.043 96.8872 198.566 98.7305 204.114C100.83 210.364 102.812 216.67 104.772 222.979C105.723 226.148 106.708 229.3 107.627 232.477L109.028 237.239L110.389 242.013C114.006 254.744 117.366 267.565 120.486 280.454L174.409 265.897C170.427 252.514 166.192 239.199 161.679 225.962L159.982 220.999L158.246 216.048C157.1 212.745 155.885 209.46 154.708 206.166C152.289 199.593 149.844 193.031 147.271 186.504C142.166 173.439 136.723 160.475 130.871 147.61C127.94 141.179 124.899 134.774 121.71 128.381C120.396 125.756 120.88 126.656 119.502 124.025" fill="white"/>
</mask>
<g mask="url(#mask9_565_3984)">
<path fill-rule="evenodd" clip-rule="evenodd" d="M99.3219 117.366C95.5862 128.084 91.7812 138.778 87.9173 149.45C83.8929 160.566 79.8054 171.659 75.6606 182.731C71.4808 193.896 67.2425 205.039 62.9468 216.16C58.6934 227.172 54.3833 238.161 50.0121 249.126C45.7838 259.732 41.4982 270.316 37.1447 280.871C36.6113 282.164 36.0769 283.457 35.5415 284.75C35.1124 285.786 36.7993 286.237 37.2236 285.213C41.5678 274.727 45.8439 264.213 50.062 253.675C54.4553 242.7 58.7864 231.699 63.0603 220.677C67.3701 209.562 71.6222 198.424 75.8163 187.264C79.9689 176.214 84.0649 165.143 88.0987 154.05C92.0009 143.319 95.8451 132.567 99.6197 121.791C100.082 120.471 100.544 119.151 101.004 117.83C101.374 116.768 99.6895 116.311 99.3219 117.366Z" fill="white"/>
</g>
<mask id="mask10_565_3984" style="mask-type:alpha" maskUnits="userSpaceOnUse" x="7" y="124" width="168" height="158">
<path fill-rule="evenodd" clip-rule="evenodd" d="M63.0111 124.025L60.3543 131.489C58.0661 137.647 55.7492 143.799 53.4057 149.936C48.7133 162.208 43.9279 174.433 39.0058 186.559C36.5464 192.621 34.0606 198.665 31.5283 204.666C28.999 210.67 26.4377 216.647 23.8211 222.56C21.2074 228.477 18.556 234.355 15.8318 240.123C13.1135 245.897 10.3401 251.593 7.49658 257.108L57.4584 281.25C60.3776 274.796 63.1015 268.394 65.724 262.007C68.3521 255.616 70.8436 249.244 73.2803 242.874C75.7222 236.504 78.0772 230.137 80.3856 223.77C82.6997 217.403 84.953 211.033 87.1683 204.663C89.151 198.962 91.0988 193.261 93.0177 187.554C94.986 193.043 96.8872 198.566 98.7305 204.114C100.83 210.364 102.812 216.67 104.772 222.979C105.723 226.148 106.708 229.3 107.627 232.477L109.028 237.239L110.389 242.013C114.006 254.744 117.366 267.565 120.486 280.454L174.409 265.897C170.427 252.514 166.192 239.199 161.679 225.962L159.982 220.999L158.246 216.048C157.1 212.745 155.885 209.46 154.708 206.166C152.289 199.593 149.844 193.031 147.271 186.504C142.166 173.439 136.723 160.475 130.871 147.61C127.94 141.179 124.899 134.774 121.71 128.381C120.396 125.756 120.88 126.656 119.502 124.025" fill="white"/>
</mask>
<g mask="url(#mask10_565_3984)">
<path fill-rule="evenodd" clip-rule="evenodd" d="M87.2473 117.832C84.5392 127.646 81.5994 137.395 78.4583 147.079C75.2273 157.041 71.7845 166.933 68.1483 176.754C64.4756 186.674 60.6059 196.522 56.5428 206.288C52.5228 215.951 48.3092 225.535 43.8984 235.026C39.5881 244.3 35.0884 253.487 30.3744 262.563C29.7982 263.672 29.2184 264.78 28.636 265.886C28.1133 266.879 29.6183 267.762 30.1421 266.767C34.9065 257.719 39.4562 248.559 43.8128 239.309C48.2714 229.841 52.5278 220.277 56.5973 210.635C60.7251 200.855 64.661 190.994 68.3979 181.057C72.0929 171.232 75.5951 161.335 78.8881 151.368C82.1105 141.615 85.1331 131.795 87.9217 121.909C88.261 120.705 88.5969 119.501 88.9295 118.296C89.2286 117.212 87.546 116.75 87.2473 117.832Z" fill="white"/>
</g>
<mask id="mask11_565_3984" style="mask-type:alpha" maskUnits="userSpaceOnUse" x="7" y="124" width="168" height="158">
<path fill-rule="evenodd" clip-rule="evenodd" d="M63.0111 124.025L60.3543 131.489C58.0661 137.647 55.7492 143.799 53.4057 149.936C48.7133 162.208 43.9279 174.433 39.0058 186.559C36.5464 192.621 34.0606 198.665 31.5283 204.666C28.999 210.67 26.4377 216.647 23.8211 222.56C21.2074 228.477 18.556 234.355 15.8318 240.123C13.1135 245.897 10.3401 251.593 7.49658 257.108L57.4584 281.25C60.3776 274.796 63.1015 268.394 65.724 262.007C68.3521 255.616 70.8436 249.244 73.2803 242.874C75.7222 236.504 78.0772 230.137 80.3856 223.77C82.6997 217.403 84.953 211.033 87.1683 204.663C89.151 198.962 91.0988 193.261 93.0177 187.554C94.986 193.043 96.8872 198.566 98.7305 204.114C100.83 210.364 102.812 216.67 104.772 222.979C105.723 226.148 106.708 229.3 107.627 232.477L109.028 237.239L110.389 242.013C114.006 254.744 117.366 267.565 120.486 280.454L174.409 265.897C170.427 252.514 166.192 239.199 161.679 225.962L159.982 220.999L158.246 216.048C157.1 212.745 155.885 209.46 154.708 206.166C152.289 199.593 149.844 193.031 147.271 186.504C142.166 173.439 136.723 160.475 130.871 147.61C127.94 141.179 124.899 134.774 121.71 128.381C120.396 125.756 120.88 126.656 119.502 124.025" fill="white"/>
</mask>
<g mask="url(#mask11_565_3984)">
<path fill-rule="evenodd" clip-rule="evenodd" d="M72.3849 117.832C68.6123 127.453 64.8399 137.073 61.0673 146.693L49.4078 176.427C45.5037 186.383 41.5996 196.339 37.6955 206.295C33.8011 216.226 29.9069 226.157 26.0126 236.088C22.2246 245.748 18.4366 255.408 14.6486 265.067C14.1845 266.251 13.7204 267.435 13.2561 268.619C12.8463 269.664 14.5323 270.117 14.9382 269.082C18.7106 259.462 22.4832 249.841 26.2559 240.221C30.1422 230.31 34.0288 220.399 37.9154 210.487C41.8195 200.531 45.7236 190.575 49.6277 180.619C53.5219 170.688 57.4163 160.757 61.3104 150.826C65.0986 141.166 68.8866 131.507 72.6745 121.847C73.1386 120.663 73.6028 119.48 74.0669 118.296C74.4769 117.25 72.7907 116.797 72.3849 117.832Z" fill="white"/>
</g>
<path fill-rule="evenodd" clip-rule="evenodd" d="M162.983 278.023C159.275 279.866 154.865 281.538 150.039 282.837C146.097 283.899 142.267 284.605 138.747 284.969C128.961 285.989 121.527 284.387 120.477 280.483C119.451 276.671 124.798 271.7 133.415 267.717C134.691 267.127 136.04 266.56 137.447 266.019C138.907 265.461 140.433 264.932 142.015 264.443C142.945 264.152 143.899 263.879 144.867 263.617C148.864 262.542 152.745 261.829 156.307 261.469C166.017 260.48 173.384 262.085 174.428 265.969C175.393 269.557 170.715 274.171 162.983 278.023Z" fill="#21211D"/>
<mask id="mask12_565_3984" style="mask-type:alpha" maskUnits="userSpaceOnUse" x="6" y="254" width="53" height="31">
<path fill-rule="evenodd" clip-rule="evenodd" d="M6.92041 254.496H58.0042V284.018H6.92041V254.496Z" fill="white"/>
</mask>
<g mask="url(#mask12_565_3984)">
<path fill-rule="evenodd" clip-rule="evenodd" d="M57.6596 280.904C56.2902 283.881 51.0746 284.681 44.1378 283.486C43.9896 283.46 43.8411 283.434 43.6901 283.405C43.1114 283.3 42.5184 283.181 41.9167 283.047C37.7446 282.125 33.0756 280.555 28.3191 278.366C24.9525 276.816 21.8445 275.09 19.1058 273.29C18.9168 273.168 18.7308 273.043 18.5476 272.918C18.2016 272.685 17.8644 272.453 17.5331 272.22C9.92452 266.868 5.63351 261.074 7.2644 257.527C8.96817 253.826 16.6434 253.611 26.1677 256.358C26.2551 256.381 26.3422 256.407 26.4322 256.433C26.8189 256.547 27.2086 256.663 27.5981 256.785C27.9355 256.89 28.2726 257 28.6157 257.111C29.421 257.378 30.2381 257.663 31.0608 257.969C31.3893 258.091 31.7178 258.216 32.0492 258.344C32.462 258.501 32.8749 258.666 33.2905 258.835C33.5842 258.954 33.8779 259.076 34.1744 259.198C34.7065 259.422 35.2385 259.655 35.7735 259.893C36.0612 260.018 36.349 260.149 36.6369 260.283C36.8638 260.387 37.0934 260.492 37.3173 260.6C40.4629 262.082 43.3674 263.708 45.946 265.391C46.0654 265.469 46.1843 265.548 46.3009 265.626C46.3037 265.626 46.3037 265.629 46.3065 265.629C46.7077 265.897 47.1033 266.161 47.4869 266.432C55.0402 271.706 59.2849 277.366 57.6596 280.904Z" fill="#21211D"/>
</g>
<path fill-rule="evenodd" clip-rule="evenodd" d="M160.896 303.376L150.399 292.027L155.255 309.038H145.757L138.904 285.512L138.747 284.969L137.006 279L133.416 267.717C136.794 266.155 140.672 264.745 144.867 263.617C148.865 262.542 152.746 261.829 156.307 261.469C157.279 264.187 158.616 268.051 159.779 270.903C160.636 273.017 161.558 275.13 162.529 277.116C162.678 277.421 162.829 277.724 162.983 278.023C164.233 280.491 165.561 282.724 166.954 284.463C169.78 287.989 175.405 292.646 179.625 294.885C194.411 302.736 198.92 309.038 198.92 309.038H175.52C171.378 309.038 167.33 307.901 163.811 305.77C162.73 305.116 161.754 304.304 160.896 303.376Z" fill="#F1A596"/>
<mask id="mask13_565_3984" style="mask-type:alpha" maskUnits="userSpaceOnUse" x="7" y="256" width="63" height="54">
<path fill-rule="evenodd" clip-rule="evenodd" d="M7.75244 256.358H69.9106V309.038H7.75244V256.358Z" fill="white"/>
</mask>
<g mask="url(#mask13_565_3984)">
<path fill-rule="evenodd" clip-rule="evenodd" d="M69.9106 309.038L39.3977 309.022C37.482 309.021 35.61 308.45 34.0197 307.382L32.1477 306.125C28.1675 303.453 25.4753 299.243 24.7225 294.507L22.7136 281.901L14.9538 294.647L7.75244 289.925L17.1518 272.918L17.5326 272.22L26.1674 256.358C26.2546 256.381 26.3417 256.407 26.4319 256.433C26.8186 256.547 27.2081 256.663 27.5978 256.785C27.935 256.89 28.2752 257 28.6154 257.111C29.4205 257.378 30.2376 257.663 31.0603 257.969C31.3888 258.091 31.7173 258.216 32.0489 258.344C32.4617 258.501 32.8744 258.666 33.2902 258.835C33.5839 258.954 33.8774 259.076 34.1741 259.198C34.7062 259.422 35.2382 259.655 35.773 259.893C36.0609 260.018 36.3487 260.149 36.6366 260.283C36.8632 260.387 37.0929 260.492 37.3168 260.599C40.4624 262.082 43.3669 263.708 45.9457 265.391C46.0649 265.469 46.1841 265.548 46.3004 265.626C46.3034 265.626 46.3034 265.629 46.3062 265.629C46.2829 265.682 46.2539 265.748 46.2132 265.833C45.024 268.661 41.8522 276.502 41.8842 282.169C41.8872 282.468 41.8959 282.762 41.9162 283.047C41.925 283.169 41.9337 283.288 41.9452 283.405C43.2216 297.173 64.2716 297.543 69.9106 309.038Z" fill="#F1A596"/>
</g>
<path fill-rule="evenodd" clip-rule="evenodd" d="M93.0195 187.565C93.0195 187.565 97.4725 171.727 102.545 153.904C102.692 153.388 103.46 153.546 103.391 154.078L97.3936 199.855L93.0195 187.565Z" fill="#21211D"/>
<path d="M73.8692 123.952C73.9094 123.797 74.0681 123.703 74.2236 123.743C74.3791 123.784 74.4726 123.942 74.4323 124.098L74.1462 125.197C73.5366 127.523 72.8127 130.193 71.9878 133.134L71.8267 133.706C67.367 149.562 61.7025 167.33 54.8229 186.06C45.5709 211.248 35.0788 235.513 23.334 257.91C23.2594 258.052 23.0836 258.107 22.9415 258.033C22.7992 257.958 22.7445 257.782 22.8189 257.64C34.5511 235.267 45.0333 211.025 54.2771 185.859L54.7096 184.678C61.3171 166.594 66.7861 149.43 71.126 134.05L71.586 132.411C72.4755 129.228 73.2424 126.377 73.8692 123.952Z" fill="#21211D"/>
<path d="M102.965 153.696C103.107 153.622 103.283 153.678 103.357 153.82L103.653 154.401L103.886 154.864C104.317 155.722 104.816 156.734 105.379 157.894L105.867 158.903C107.305 161.894 108.88 165.281 110.562 169.033L110.706 169.356C116.216 181.675 121.726 195.339 126.868 209.976C133.173 227.921 138.481 246.089 142.469 264.153C142.504 264.309 142.405 264.464 142.248 264.499C142.091 264.534 141.936 264.435 141.901 264.278C137.919 246.239 132.617 228.093 126.32 210.168C121.183 195.548 115.679 181.899 110.175 169.593L109.744 168.632C108.03 164.821 106.429 161.398 104.977 158.397L104.51 157.436C104.228 156.86 103.965 156.325 103.72 155.832L103.223 154.839L102.84 154.088C102.766 153.946 102.822 153.77 102.965 153.696Z" fill="#21211D"/>
<path d="M145.345 255.854C153.193 254.211 161.782 253.939 171.119 255.285C171.279 255.308 171.389 255.455 171.365 255.614C171.342 255.773 171.195 255.883 171.037 255.861C161.765 254.525 153.245 254.794 145.464 256.424C139.056 257.766 133.369 259.981 128.395 262.825C125.407 264.534 122.86 266.363 120.748 268.192C120.057 268.791 119.459 269.35 118.956 269.855L118.725 270.091C118.598 270.222 118.486 270.341 118.389 270.446L118.26 270.589C118.251 270.6 118.243 270.609 118.237 270.616C118.133 270.738 117.949 270.752 117.827 270.647C117.705 270.543 117.691 270.359 117.796 270.237L117.838 270.189C117.872 270.15 117.913 270.105 117.96 270.054L118.066 269.94C118.176 269.821 118.302 269.69 118.442 269.548C118.976 269.005 119.618 268.402 120.367 267.752C122.506 265.9 125.084 264.048 128.106 262.32C133.132 259.447 138.876 257.209 145.345 255.854Z" fill="#21211D"/>
<path d="M12.732 247.485L12.8032 247.482C15.7358 247.372 19.6542 247.562 24.2028 248.295C31.0639 249.399 37.8425 251.532 44.1816 254.937C51.0879 258.646 57.1318 263.696 62.0669 270.252C62.1633 270.38 62.1376 270.562 62.0093 270.659C61.8811 270.755 61.6988 270.73 61.6021 270.601C56.7194 264.115 50.7408 259.12 43.9065 255.449C37.6284 252.077 30.9112 249.964 24.1104 248.869C19.6799 248.156 15.8554 247.962 12.9757 248.058L12.825 248.063C12.7303 248.067 12.644 248.071 12.5661 248.074L12.333 248.088C12.1727 248.099 12.0337 247.978 12.0222 247.818C12.011 247.658 12.1316 247.519 12.2917 247.507L12.4243 247.499C12.5134 247.495 12.6161 247.49 12.732 247.485Z" fill="#21211D"/>
<path d="M102.183 123.734C102.334 123.731 102.461 123.843 102.478 123.99L102.48 124.019L102.774 136.985C102.915 139.539 100.88 141.689 98.3207 141.689C98.16 141.689 98.0298 141.559 98.0298 141.398C98.0298 141.237 98.16 141.107 98.3207 141.107C100.522 141.107 102.278 139.277 102.196 137.079L102.193 137.008L101.899 124.032C101.895 123.871 102.023 123.738 102.183 123.734Z" fill="#21211D"/>
<path d="M82.7472 123.891C82.8209 123.749 82.9965 123.693 83.1391 123.767C83.2816 123.841 83.3374 124.016 83.2634 124.159C81.6996 127.175 79.2654 129.616 76.3082 131.536C75.2517 132.221 74.1937 132.796 73.1766 133.267C72.8515 133.417 72.5466 133.549 72.2652 133.664L72.1461 133.712C72.0053 133.768 71.8846 133.814 71.7845 133.851L71.6493 133.9C71.6261 133.908 71.6069 133.914 71.5918 133.918C71.436 133.957 71.2782 133.862 71.2392 133.707C71.2027 133.561 71.2836 133.413 71.4222 133.363L71.4466 133.355L71.5829 133.306C71.6798 133.27 71.7953 133.226 71.9304 133.172C72.2349 133.05 72.5706 132.906 72.9324 132.739C73.9255 132.28 74.9593 131.718 75.9913 131.048C78.8705 129.179 81.2346 126.808 82.7472 123.891Z" fill="#21211D"/>
<path d="M154.52 305.681C154.681 305.681 154.811 305.811 154.811 305.971C154.811 306.122 154.696 306.247 154.548 306.261L154.52 306.262H144.864C144.703 306.262 144.573 306.132 144.573 305.971C144.573 305.82 144.688 305.696 144.836 305.682L144.864 305.681H154.52Z" fill="#21211D"/>
<path d="M195.73 305.681C195.89 305.681 196.02 305.811 196.02 305.971C196.02 306.122 195.906 306.247 195.759 306.261L195.73 306.262H164.151C163.991 306.262 163.861 306.132 163.861 305.971C163.861 305.82 163.975 305.696 164.123 305.682L164.151 305.681H195.73Z" fill="#21211D"/>
<path d="M159.006 268.862C159.16 268.818 159.321 268.909 159.365 269.063C159.405 269.208 159.329 269.358 159.192 269.412L159.163 269.422L154.599 270.706C154.444 270.75 154.284 270.66 154.24 270.505C154.199 270.36 154.276 270.21 154.413 270.156L154.441 270.147L159.006 268.862Z" fill="#21211D"/>
<path d="M160.638 272.895C160.794 272.851 160.954 272.941 160.997 273.096C161.039 273.241 160.961 273.391 160.824 273.445L160.796 273.455L156.232 274.739C156.077 274.783 155.916 274.693 155.873 274.538C155.832 274.393 155.909 274.243 156.046 274.189L156.074 274.179L160.638 272.895Z" fill="#21211D"/>
<path d="M162.49 277.469C162.643 277.425 162.803 277.516 162.847 277.67C162.888 277.815 162.812 277.965 162.674 278.019L162.645 278.029L158.081 279.313C157.927 279.357 157.766 279.267 157.723 279.112C157.682 278.967 157.759 278.817 157.896 278.763L157.924 278.754L162.49 277.469Z" fill="#21211D"/>
<path d="M164.845 281.52C165.001 281.476 165.161 281.567 165.204 281.721C165.245 281.866 165.169 282.016 165.031 282.07L165.003 282.08L160.44 283.364C160.284 283.408 160.124 283.318 160.081 283.163C160.039 283.018 160.115 282.868 160.254 282.814L160.282 282.805L164.845 281.52Z" fill="#21211D"/>
<path d="M167.652 285.671C167.806 285.628 167.966 285.718 168.011 285.873C168.05 286.017 167.974 286.168 167.838 286.222L167.81 286.231L163.245 287.516C163.089 287.559 162.929 287.469 162.885 287.315C162.844 287.17 162.922 287.019 163.059 286.966L163.087 286.956L167.652 285.671Z" fill="#21211D"/>
<path d="M39.4548 269.184C39.511 269.045 39.6633 268.973 39.8049 269.013L39.833 269.023L44.232 270.794C44.381 270.854 44.453 271.024 44.3931 271.173C44.3369 271.312 44.1844 271.384 44.0429 271.344L44.0148 271.334L39.6159 269.563C39.4669 269.503 39.3947 269.333 39.4548 269.184Z" fill="#21211D"/>
<path d="M38.2839 273.375C38.3401 273.235 38.4924 273.163 38.634 273.204L38.6621 273.214L43.0611 274.985C43.2101 275.045 43.2821 275.214 43.2222 275.363C43.166 275.503 43.0135 275.575 42.872 275.534L42.8439 275.524L38.445 273.753C38.296 273.693 38.2238 273.524 38.2839 273.375Z" fill="#21211D"/>
<path d="M36.9664 278.954C36.9977 278.806 37.1353 278.709 37.2819 278.725L37.3113 278.73L42.0059 279.728C42.1629 279.761 42.2632 279.916 42.2297 280.073C42.1986 280.22 42.0608 280.317 41.9144 280.301L41.885 280.297L37.1904 279.299C37.0332 279.265 36.933 279.111 36.9664 278.954Z" fill="#21211D"/>
<path d="M41.9678 284.15C42.1283 284.144 42.2635 284.269 42.2698 284.43C42.2756 284.581 42.1651 284.709 42.0184 284.729L41.9903 284.731L37.2516 284.916C37.0912 284.922 36.956 284.797 36.9499 284.637C36.9439 284.486 37.0544 284.357 37.2013 284.337L37.2292 284.335L41.9678 284.15Z" fill="#21211D"/>
<path d="M43.5431 288.667C43.6962 288.619 43.8595 288.703 43.9082 288.856C43.9536 289 43.882 289.152 43.7466 289.211L43.7187 289.221L39.198 290.654C39.0449 290.702 38.8816 290.617 38.833 290.464C38.7876 290.321 38.8591 290.168 38.9945 290.11L39.0224 290.099L43.5431 288.667Z" fill="#21211D"/>
<path d="M8.85998 287.181C8.94064 287.054 9.10372 287.011 9.23543 287.077L9.26138 287.092L16.637 291.782C16.7724 291.868 16.8124 292.048 16.7264 292.183C16.6457 292.31 16.4826 292.353 16.3509 292.287L16.325 292.273L8.9493 287.583C8.8137 287.497 8.77368 287.317 8.85998 287.181Z" fill="#21211D"/>
<path d="M26.5912 299.76C26.6693 299.632 26.8315 299.585 26.9645 299.649L26.9907 299.663L31.7049 302.528C35.2152 304.575 39.1985 305.669 43.26 305.704L43.4566 305.704H67.6451C67.8056 305.704 67.9358 305.834 67.9358 305.995C67.9358 306.146 67.8205 306.27 67.673 306.285L67.6451 306.286H43.4566C39.2904 306.286 35.1977 305.197 31.5793 303.127L31.4073 303.028L26.6885 300.16C26.5514 300.076 26.5077 299.897 26.5912 299.76Z" fill="#21211D"/>
<path d="M29.8662 257.688C29.9456 257.548 30.1231 257.5 30.2626 257.579C30.3935 257.654 30.4445 257.814 30.3848 257.949L30.3714 257.976L24.5481 268.203C23.9097 269.325 24.3085 270.754 25.4366 271.384C25.7887 271.579 26.1777 271.679 26.569 271.679C27.4027 271.679 28.1771 271.236 28.5948 270.501L28.6289 270.439L34.4057 259.481C34.4805 259.339 34.6564 259.285 34.7985 259.36C34.9317 259.43 34.9879 259.589 34.9325 259.725L34.92 259.753L29.143 270.71C28.6324 271.675 27.6393 272.261 26.569 272.261C26.0795 272.261 25.5934 272.136 25.1537 271.892C23.7637 271.116 23.2592 269.371 24.0085 267.978L24.0429 267.916L29.8662 257.688Z" fill="#21211D"/>
<path d="M141.916 264.257C142.057 264.206 142.213 264.271 142.277 264.404L142.288 264.432L146.497 276.091C146.614 276.41 146.672 276.746 146.672 277.084C146.672 278.321 145.882 279.438 144.688 279.837C143.176 280.343 141.544 279.54 141.021 278.045L140.999 277.979L137.171 266.196C137.121 266.043 137.205 265.879 137.357 265.83C137.5 265.783 137.654 265.854 137.713 265.988L137.724 266.016L141.552 277.8C141.95 279.029 143.276 279.696 144.504 279.285C145.459 278.966 146.09 278.073 146.09 277.084C146.09 276.843 146.054 276.605 145.98 276.375L145.951 276.29L141.741 264.629C141.687 264.478 141.765 264.311 141.916 264.257Z" fill="#21211D"/>
<path fill-rule="evenodd" clip-rule="evenodd" d="M164.718 66.5779C164.864 67.5634 164.938 68.5427 164.991 69.52C165.043 70.4971 165.064 71.4714 165.065 72.4442C165.067 73.417 165.038 74.387 165.002 75.3563C164.957 76.3247 164.897 77.2921 164.837 78.2593C164.602 82.1286 164.339 85.9953 163.991 89.8544C163.646 93.7137 163.215 97.5655 162.764 101.416C162.652 102.378 162.541 103.341 162.412 104.302C162.28 105.263 162.134 106.222 161.965 107.18C161.795 108.137 161.606 109.092 161.388 110.046C161.169 110.999 160.931 111.95 160.624 112.895C158.805 118.509 152.779 121.585 147.165 119.766C143.135 118.46 140.414 114.974 139.872 111.041C139.738 110.057 139.671 109.078 139.625 108.101C139.58 107.125 139.563 106.151 139.565 105.178C139.569 104.206 139.595 103.236 139.635 102.267C139.679 101.298 139.74 100.331 139.801 99.364C140.04 95.4951 140.298 91.6278 140.643 87.7685C140.984 83.9087 141.411 80.0565 141.866 76.2069C141.978 75.2445 142.09 74.2819 142.218 73.3208C142.354 72.3603 142.498 71.4007 142.672 70.4437C142.846 69.4865 143.039 68.5312 143.263 67.5788C143.488 66.6263 143.735 65.6758 144.053 64.7316C145.934 59.1477 151.986 56.1459 157.57 58.027C161.495 59.3493 164.144 62.7454 164.718 66.5779Z" fill="#DE8857"/>
<path fill-rule="evenodd" clip-rule="evenodd" d="M130.593 122.254H54.5674L55.2071 91.3027L55.5324 75.4465C56.2099 69.8325 59.5357 65.1401 64.1468 62.5293C66.8301 61.0087 69.95 60.1947 73.2382 60.3138L73.6623 60.3255L103.974 61.1454L105.163 61.1774C107.373 61.2559 109.492 61.7559 111.431 62.602C116.24 64.7039 119.953 68.9486 121.264 74.2719L123.02 83.3077L130.593 122.254Z" fill="#DE8857"/>
<path fill-rule="evenodd" clip-rule="evenodd" d="M164.664 67.9456C164.216 73.1001 160.103 77.0512 155.116 77.4612L155.012 77.4668C153.651 77.5804 152.238 77.6792 150.846 77.7664C149.447 77.8507 148.046 77.9409 146.648 78.0077L144.546 78.1211L142.443 78.2112C141.042 78.2811 139.641 78.3421 138.24 78.3886C132.637 78.6183 127.032 78.7374 121.435 78.9148C119.921 78.9585 118.406 79.0078 116.891 79.0601C115.609 79.1066 114.324 79.1531 113.042 79.1996C110.248 79.2986 107.454 79.3975 104.663 79.5136L98.5056 79.7811L96.299 79.8772L92.127 80.0748L91.083 80.1241C90.7286 80.1389 90.4232 80.162 90.0919 80.1823L88.1409 80.3015C87.01 80.3858 85.8791 80.4788 84.7424 80.5865C80.6199 80.9674 76.4595 81.4964 72.2874 82.1564C68.5196 82.7378 64.7431 83.4268 60.9635 84.177C59.4053 84.488 57.8441 84.8079 56.2856 85.1336C50.9507 86.2673 45.6159 87.532 40.3102 88.9188C39.7113 89.0758 39.1123 89.2328 38.5134 89.3926L46.7498 103.321L24.6163 109.252L11.2894 88.4683C7.91403 83.206 9.44609 76.2023 14.7084 72.8298C15.4731 72.3384 16.2783 71.9489 17.1012 71.6639L17.482 71.5361L19.6683 70.8267L21.7761 70.1638C23.1773 69.7276 24.5729 69.3091 25.9713 68.8933C28.7653 68.0647 31.5679 67.2855 34.3764 66.5268C39.9962 65.0121 45.6508 63.6253 51.3549 62.3634C55.5036 61.4449 59.6815 60.6103 63.897 59.8748C64.4407 59.779 64.9842 59.686 65.531 59.5958C66.5747 59.4154 67.6214 59.2439 68.6708 59.0811C70.1505 58.8458 71.6391 58.6248 73.1307 58.4184C73.1452 58.4154 73.1568 58.4154 73.1713 58.4126C77.5497 57.8079 81.9833 57.3252 86.478 56.9878L88.7545 56.8455L89.8797 56.7787L90.9524 56.7263L95.2434 56.514C96.6738 56.4471 98.1014 56.392 99.5318 56.3396C100.962 56.2843 102.39 56.2378 103.817 56.1971C103.971 56.1913 104.122 56.1885 104.276 56.1826C106.457 56.1128 108.635 56.0518 110.812 56.0023C111.335 55.985 111.856 55.9733 112.379 55.9616C115.231 55.9065 118.083 55.8541 120.932 55.8221C126.634 55.7466 132.329 55.6941 138.024 55.8191C139.449 55.8366 140.874 55.8803 142.298 55.9268L144.435 55.9936L146.569 56.0866C147.997 56.1476 149.421 56.2291 150.849 56.3135C152.279 56.4006 153.692 56.5053 155.154 56.6331C160.905 57.1303 165.161 62.1977 164.664 67.9456Z" fill="#DE8857"/>
<path fill-rule="evenodd" clip-rule="evenodd" d="M130.593 122.254H54.5674L55.2071 91.3027C56.6754 90.2417 59.0182 88.0902 60.9633 84.177C63.2164 79.6561 66.5048 71.9082 65.717 61.657C65.6674 60.9855 65.6036 60.2993 65.531 59.5958C66.5745 59.4156 67.621 59.2441 68.6706 59.0813C70.1503 58.8457 71.6391 58.6247 73.1305 58.4184C73.1452 58.4154 73.1564 58.4154 73.1709 58.4126C73.3338 59.0782 73.5286 59.8691 73.6623 60.3255C75.1654 65.4279 78.7764 73.9113 84.7424 78.8421C86.8093 80.5517 89.1615 81.6216 91.8071 81.6216C94.6273 81.6216 96.8133 80.226 98.5054 78.0367C102.052 73.455 102.738 67.1343 103.276 61.1453C103.451 59.2121 103.535 57.4967 103.578 56.1826C105.759 56.1127 108.634 56.0518 110.812 56.0024C110.955 58.4067 111.167 60.6016 111.431 62.6019C112.556 71.0447 114.679 76.0742 116.891 79.0601C119.179 82.1594 121.56 83.0634 123.02 83.3076L130.593 122.254Z" fill="#2448CD"/>
<mask id="mask14_565_3984" style="mask-type:alpha" maskUnits="userSpaceOnUse" x="54" y="56" width="77" height="67">
<path fill-rule="evenodd" clip-rule="evenodd" d="M103.578 56.1826C103.535 57.4967 103.451 59.2121 103.276 61.1456C102.739 67.1345 102.052 73.455 98.5054 78.0369C96.8133 80.226 94.6273 81.6216 91.8071 81.6216C89.1615 81.6216 86.8096 80.5517 84.7424 78.8423C78.7766 73.9113 75.1656 65.4279 73.6625 60.3257C73.5288 59.8691 73.334 59.0784 73.1709 58.4125C73.1566 58.4154 73.1452 58.4154 73.1305 58.4184C71.6391 58.6249 70.1503 58.8457 68.6708 59.0813C67.6212 59.2441 66.5745 59.4156 65.531 59.5958C65.6036 60.2993 65.6674 60.9855 65.717 61.657C66.5048 71.9082 63.2167 79.6563 60.9633 84.177C59.0182 88.0904 56.6754 90.2416 55.2071 91.3029L54.5674 122.254H130.593L123.02 83.3078C121.56 83.0634 119.179 82.1594 116.891 79.0603C114.679 76.0745 112.556 71.0449 111.431 62.6019C111.167 60.6019 110.955 58.4067 110.812 56.0024C108.634 56.052 105.759 56.1127 103.578 56.1826Z" fill="white"/>
</mask>
<g mask="url(#mask14_565_3984)">
<path fill-rule="evenodd" clip-rule="evenodd" d="M62.0204 127.116C61.9702 126.592 56.9828 74.367 56.6616 46.1237L58.4058 46.1038C58.7264 74.2736 63.7066 126.426 63.7568 126.95L62.0204 127.116Z" fill="#B6CCFC"/>
</g>
<mask id="mask15_565_3984" style="mask-type:alpha" maskUnits="userSpaceOnUse" x="54" y="56" width="77" height="67">
<path fill-rule="evenodd" clip-rule="evenodd" d="M103.578 56.1826C103.535 57.4967 103.451 59.2121 103.276 61.1456C102.739 67.1345 102.052 73.455 98.5054 78.0369C96.8133 80.226 94.6273 81.6216 91.8071 81.6216C89.1615 81.6216 86.8096 80.5517 84.7424 78.8423C78.7766 73.9113 75.1656 65.4279 73.6625 60.3257C73.5288 59.8691 73.334 59.0784 73.1709 58.4125C73.1566 58.4154 73.1452 58.4154 73.1305 58.4184C71.6391 58.6249 70.1503 58.8457 68.6708 59.0813C67.6212 59.2441 66.5745 59.4156 65.531 59.5958C65.6036 60.2993 65.6674 60.9855 65.717 61.657C66.5048 71.9082 63.2167 79.6563 60.9633 84.177C59.0182 88.0904 56.6754 90.2416 55.2071 91.3029L54.5674 122.254H130.593L123.02 83.3078C121.56 83.0634 119.179 82.1594 116.891 79.0603C114.679 76.0745 112.556 71.0449 111.431 62.6019C111.167 60.6019 110.955 58.4067 110.812 56.0024C108.634 56.052 105.759 56.1127 103.578 56.1826Z" fill="white"/>
</mask>
<g mask="url(#mask15_565_3984)">
<path fill-rule="evenodd" clip-rule="evenodd" d="M73.0608 132.141C73.0271 131.562 69.6556 73.9687 67.5708 44.9653L69.3107 44.8403C71.3964 73.8551 74.7685 131.46 74.8022 132.039L73.0608 132.141Z" fill="#B6CCFC"/>
</g>
<mask id="mask16_565_3984" style="mask-type:alpha" maskUnits="userSpaceOnUse" x="54" y="56" width="77" height="67">
<path fill-rule="evenodd" clip-rule="evenodd" d="M103.578 56.1826C103.535 57.4967 103.451 59.2121 103.276 61.1456C102.739 67.1345 102.052 73.455 98.5054 78.0369C96.8133 80.226 94.6273 81.6216 91.8071 81.6216C89.1615 81.6216 86.8096 80.5517 84.7424 78.8423C78.7766 73.9113 75.1656 65.4279 73.6625 60.3257C73.5288 59.8691 73.334 59.0784 73.1709 58.4125C73.1566 58.4154 73.1452 58.4154 73.1305 58.4184C71.6391 58.6249 70.1503 58.8457 68.6708 59.0813C67.6212 59.2441 66.5745 59.4156 65.531 59.5958C65.6036 60.2993 65.6674 60.9855 65.717 61.657C66.5048 71.9082 63.2167 79.6563 60.9633 84.177C59.0182 88.0904 56.6754 90.2416 55.2071 91.3029L54.5674 122.254H130.593L123.02 83.3078C121.56 83.0634 119.179 82.1594 116.891 79.0603C114.679 76.0745 112.556 71.0449 111.431 62.6019C111.167 60.6019 110.955 58.4067 110.812 56.0024C108.634 56.052 105.759 56.1127 103.578 56.1826Z" fill="white"/>
</mask>
<g mask="url(#mask16_565_3984)">
<path fill-rule="evenodd" clip-rule="evenodd" d="M82.374 126.898C82.3297 126.473 77.9262 84.0092 75.8398 54.9865L77.5797 54.8615C79.6641 83.857 84.0648 126.293 84.1089 126.718L82.374 126.898Z" fill="#B6CCFC"/>
</g>
<mask id="mask17_565_3984" style="mask-type:alpha" maskUnits="userSpaceOnUse" x="54" y="56" width="77" height="67">
<path fill-rule="evenodd" clip-rule="evenodd" d="M103.578 56.1826C103.535 57.4967 103.451 59.2121 103.276 61.1456C102.739 67.1345 102.052 73.455 98.5054 78.0369C96.8133 80.226 94.6273 81.6216 91.8071 81.6216C89.1615 81.6216 86.8096 80.5517 84.7424 78.8423C78.7766 73.9113 75.1656 65.4279 73.6625 60.3257C73.5288 59.8691 73.334 59.0784 73.1709 58.4125C73.1566 58.4154 73.1452 58.4154 73.1305 58.4184C71.6391 58.6249 70.1503 58.8457 68.6708 59.0813C67.6212 59.2441 66.5745 59.4156 65.531 59.5958C65.6036 60.2993 65.6674 60.9855 65.717 61.657C66.5048 71.9082 63.2167 79.6563 60.9633 84.177C59.0182 88.0904 56.6754 90.2416 55.2071 91.3029L54.5674 122.254H130.593L123.02 83.3078C121.56 83.0634 119.179 82.1594 116.891 79.0603C114.679 76.0745 112.556 71.0449 111.431 62.6019C111.167 60.6019 110.955 58.4067 110.812 56.0024C108.634 56.052 105.759 56.1127 103.578 56.1826Z" fill="white"/>
</mask>
<g mask="url(#mask17_565_3984)">
<path fill-rule="evenodd" clip-rule="evenodd" d="M92.0177 129.23C91.963 128.732 86.54 79.073 85.7368 53.213L87.4804 53.1587C88.2814 78.9515 93.6971 128.542 93.7518 129.04L92.0177 129.23Z" fill="#B6CCFC"/>
</g>
<mask id="mask18_565_3984" style="mask-type:alpha" maskUnits="userSpaceOnUse" x="54" y="56" width="77" height="67">
<path fill-rule="evenodd" clip-rule="evenodd" d="M103.578 56.1826C103.535 57.4967 103.451 59.2121 103.276 61.1456C102.739 67.1345 102.052 73.455 98.5054 78.0369C96.8133 80.226 94.6273 81.6216 91.8071 81.6216C89.1615 81.6216 86.8096 80.5517 84.7424 78.8423C78.7766 73.9113 75.1656 65.4279 73.6625 60.3257C73.5288 59.8691 73.334 59.0784 73.1709 58.4125C73.1566 58.4154 73.1452 58.4154 73.1305 58.4184C71.6391 58.6249 70.1503 58.8457 68.6708 59.0813C67.6212 59.2441 66.5745 59.4156 65.531 59.5958C65.6036 60.2993 65.6674 60.9855 65.717 61.657C66.5048 71.9082 63.2167 79.6563 60.9633 84.177C59.0182 88.0904 56.6754 90.2416 55.2071 91.3029L54.5674 122.254H130.593L123.02 83.3078C121.56 83.0634 119.179 82.1594 116.891 79.0603C114.679 76.0745 112.556 71.0449 111.431 62.6019C111.167 60.6019 110.955 58.4067 110.812 56.0024C108.634 56.052 105.759 56.1127 103.578 56.1826Z" fill="white"/>
</mask>
<g mask="url(#mask18_565_3984)">
<path fill-rule="evenodd" clip-rule="evenodd" d="M101.16 129.565C101.122 129.122 97.2553 84.8503 93.9507 48.1753L95.688 48.0187C98.993 84.6963 102.859 128.97 102.898 129.413L101.16 129.565Z" fill="#B6CCFC"/>
</g>
<mask id="mask19_565_3984" style="mask-type:alpha" maskUnits="userSpaceOnUse" x="54" y="56" width="77" height="67">
<path fill-rule="evenodd" clip-rule="evenodd" d="M103.578 56.1826C103.535 57.4967 103.451 59.2121 103.276 61.1456C102.739 67.1345 102.052 73.455 98.5054 78.0369C96.8133 80.226 94.6273 81.6216 91.8071 81.6216C89.1615 81.6216 86.8096 80.5517 84.7424 78.8423C78.7766 73.9113 75.1656 65.4279 73.6625 60.3257C73.5288 59.8691 73.334 59.0784 73.1709 58.4125C73.1566 58.4154 73.1452 58.4154 73.1305 58.4184C71.6391 58.6249 70.1503 58.8457 68.6708 59.0813C67.6212 59.2441 66.5745 59.4156 65.531 59.5958C65.6036 60.2993 65.6674 60.9855 65.717 61.657C66.5048 71.9082 63.2167 79.6563 60.9633 84.177C59.0182 88.0904 56.6754 90.2416 55.2071 91.3029L54.5674 122.254H130.593L123.02 83.3078C121.56 83.0634 119.179 82.1594 116.891 79.0603C114.679 76.0745 112.556 71.0449 111.431 62.6019C111.167 60.6019 110.955 58.4067 110.812 56.0024C108.634 56.052 105.759 56.1127 103.578 56.1826Z" fill="white"/>
</mask>
<g mask="url(#mask19_565_3984)">
<path fill-rule="evenodd" clip-rule="evenodd" d="M110.899 130.559C110.858 130.062 106.839 80.4422 103.534 43.7698L105.271 43.6134C108.577 80.2937 112.597 129.921 112.637 130.418L110.899 130.559Z" fill="#B6CCFC"/>
</g>
<mask id="mask20_565_3984" style="mask-type:alpha" maskUnits="userSpaceOnUse" x="54" y="56" width="77" height="67">
<path fill-rule="evenodd" clip-rule="evenodd" d="M103.578 56.1826C103.535 57.4967 103.451 59.2121 103.276 61.1456C102.739 67.1345 102.052 73.455 98.5054 78.0369C96.8133 80.226 94.6273 81.6216 91.8071 81.6216C89.1615 81.6216 86.8096 80.5517 84.7424 78.8423C78.7766 73.9113 75.1656 65.4279 73.6625 60.3257C73.5288 59.8691 73.334 59.0784 73.1709 58.4125C73.1566 58.4154 73.1452 58.4154 73.1305 58.4184C71.6391 58.6249 70.1503 58.8457 68.6708 59.0813C67.6212 59.2441 66.5745 59.4156 65.531 59.5958C65.6036 60.2993 65.6674 60.9855 65.717 61.657C66.5048 71.9082 63.2167 79.6563 60.9633 84.177C59.0182 88.0904 56.6754 90.2416 55.2071 91.3029L54.5674 122.254H130.593L123.02 83.3078C121.56 83.0634 119.179 82.1594 116.891 79.0603C114.679 76.0745 112.556 71.0449 111.431 62.6019C111.167 60.6019 110.955 58.4067 110.812 56.0024C108.634 56.052 105.759 56.1127 103.578 56.1826Z" fill="white"/>
</mask>
<g mask="url(#mask20_565_3984)">
<path fill-rule="evenodd" clip-rule="evenodd" d="M121.239 129.652C121.2 129.209 117.334 84.9372 114.029 48.2622L115.767 48.1056C119.071 84.7832 122.938 129.057 122.977 129.5L121.239 129.652Z" fill="#B6CCFC"/>
</g>
<path fill-rule="evenodd" clip-rule="evenodd" d="M146.002 78.4632H139.727C139.567 78.4632 139.437 78.333 139.437 78.1725C139.437 78.0118 139.567 77.8818 139.727 77.8818H146.002C146.162 77.8818 146.292 78.0118 146.292 78.1725C146.292 78.333 146.162 78.4632 146.002 78.4632Z" fill="#21211D"/>
<path fill-rule="evenodd" clip-rule="evenodd" d="M39.9251 92.5945C39.8271 92.5945 39.7313 92.5449 39.6766 92.4552L36.4933 87.2381C36.4096 87.101 36.4529 86.9221 36.59 86.8384C36.7269 86.7547 36.906 86.798 36.9897 86.9351L40.173 92.1522C40.2567 92.2893 40.2134 92.4681 40.0763 92.5518C40.0289 92.5808 39.9768 92.5945 39.9251 92.5945Z" fill="#21211D"/>
<path fill-rule="evenodd" clip-rule="evenodd" d="M185.445 116.602L17.6991 147.263L12.5278 118.898L180.274 88.2368L185.445 116.602Z" fill="#ECE557"/>
<mask id="mask21_565_3984" style="mask-type:alpha" maskUnits="userSpaceOnUse" x="179" y="88" width="27" height="29">
<path fill-rule="evenodd" clip-rule="evenodd" d="M179.214 88.2382H205.887V116.602H179.214V88.2382Z" fill="white"/>
</mask>
<g mask="url(#mask21_565_3984)">
<path fill-rule="evenodd" clip-rule="evenodd" d="M185.447 116.602C185.447 116.602 176.133 105.607 180.276 88.2382L197.041 94.4254L205.21 97.4381C205.95 97.7108 206.125 98.6764 205.53 99.1927L198.951 104.896L185.447 116.602Z" fill="#FBC4AB"/>
</g>
<mask id="mask22_565_3984" style="mask-type:alpha" maskUnits="userSpaceOnUse" x="0" y="118" width="18" height="31">
<path fill-rule="evenodd" clip-rule="evenodd" d="M0 118.898H17.6987V148.804H0V118.898Z" fill="white"/>
</mask>
<g mask="url(#mask22_565_3984)">
<path fill-rule="evenodd" clip-rule="evenodd" d="M3.264 144.231L0.0913195 126.828C-0.460601 123.801 1.54617 120.9 4.57308 120.348L12.5277 118.898L17.6987 147.263L9.74431 148.713C6.71718 149.265 3.81592 147.258 3.264 144.231Z" fill="#FBC4AB"/>
</g>
<path fill-rule="evenodd" clip-rule="evenodd" d="M13.4408 124.2C13.3031 124.2 13.1809 124.101 13.1552 123.961C13.1264 123.803 13.2308 123.652 13.3889 123.623L179.281 93.3C179.439 93.2714 179.591 93.3759 179.619 93.5338C179.647 93.6919 179.543 93.8433 179.385 93.872L13.4934 124.195C13.4759 124.198 13.4582 124.2 13.4408 124.2Z" fill="#21211D"/>
<path fill-rule="evenodd" clip-rule="evenodd" d="M16.8349 142.817C16.6971 142.817 16.5749 142.719 16.5492 142.579C16.5204 142.421 16.6249 142.269 16.783 142.24L182.674 111.918C182.832 111.889 182.984 111.994 183.014 112.151C183.042 112.309 182.938 112.461 182.78 112.49L16.8874 142.812C16.8699 142.816 16.8522 142.817 16.8349 142.817Z" fill="#21211D"/>
<path fill-rule="evenodd" clip-rule="evenodd" d="M14.5717 130.405C14.4339 130.405 14.3117 130.307 14.286 130.167C14.2572 130.009 14.3619 129.858 14.5198 129.829L179.125 99.7405C179.281 99.7113 179.435 99.8164 179.463 99.9743C179.491 100.132 179.387 100.284 179.229 100.313L14.6243 130.401C14.6067 130.404 14.589 130.405 14.5717 130.405Z" fill="#21211D"/>
<path fill-rule="evenodd" clip-rule="evenodd" d="M15.7031 136.611C15.5653 136.611 15.4431 136.513 15.4174 136.373C15.3886 136.215 15.4931 136.063 15.6511 136.034L180.257 105.946C180.412 105.917 180.566 106.022 180.594 106.18C180.622 106.338 180.518 106.49 180.36 106.518L15.7556 136.606C15.7381 136.61 15.7204 136.611 15.7031 136.611Z" fill="#21211D"/>
<mask id="mask23_565_3984" style="mask-type:alpha" maskUnits="userSpaceOnUse" x="195" y="94" width="11" height="11">
<path fill-rule="evenodd" clip-rule="evenodd" d="M195.869 94.4254H205.887V104.896H195.869V94.4254Z" fill="white"/>
</mask>
<g mask="url(#mask23_565_3984)">
<path fill-rule="evenodd" clip-rule="evenodd" d="M198.951 104.896C197.454 103.733 196.367 102.037 195.999 100.023C195.633 98.0127 196.051 96.0422 197.041 94.4254L205.21 97.4381C205.95 97.7108 206.125 98.6764 205.53 99.1926L198.951 104.896Z" fill="#21211D"/>
</g>
<path fill-rule="evenodd" clip-rule="evenodd" d="M14.8872 147.978C14.7494 147.978 14.627 147.879 14.6015 147.739L9.47741 119.631C9.44865 119.473 9.55332 119.322 9.7112 119.293C9.86994 119.264 10.0205 119.369 10.0494 119.527L15.1735 147.635C15.2023 147.793 15.0976 147.944 14.9397 147.973C14.922 147.976 14.9045 147.978 14.8872 147.978Z" fill="#21211D"/>
<path fill-rule="evenodd" clip-rule="evenodd" d="M132.766 91.6301C137.964 91.5127 137.373 105.658 134.796 106.041C131.783 106.487 127.087 91.7584 132.766 91.6301Z" fill="#DE8857"/>
<path fill-rule="evenodd" clip-rule="evenodd" d="M127.747 92.1659C132.945 92.0487 132.354 106.194 129.777 106.576C126.764 107.023 122.068 92.2941 127.747 92.1659Z" fill="#DE8857"/>
<path fill-rule="evenodd" clip-rule="evenodd" d="M137.795 91.0531C142.992 90.9359 141.767 105.216 139.824 105.464C136.777 105.852 132.116 91.1813 137.795 91.0531Z" fill="#DE8857"/>
<path fill-rule="evenodd" clip-rule="evenodd" d="M136.746 102.362C136.625 102.362 136.512 102.286 136.471 102.166C135.637 99.7366 134.332 94.5958 135.366 92.5259C135.437 92.3823 135.612 92.3239 135.755 92.3957C135.899 92.4673 135.957 92.6418 135.886 92.7856C135.007 94.5454 136.083 99.2465 137.021 101.977C137.073 102.129 136.992 102.294 136.84 102.346C136.809 102.357 136.777 102.362 136.746 102.362Z" fill="#21211D"/>
<path fill-rule="evenodd" clip-rule="evenodd" d="M131.566 103.047C131.445 103.047 131.332 102.971 131.291 102.851C130.457 100.422 129.152 95.281 130.185 93.2108C130.257 93.067 130.432 93.0088 130.575 93.0804C130.719 93.1522 130.777 93.3267 130.706 93.4704C129.827 95.2306 130.903 99.9314 131.841 102.662C131.893 102.814 131.812 102.979 131.66 103.031C131.629 103.042 131.597 103.047 131.566 103.047Z" fill="#21211D"/>
<path fill-rule="evenodd" clip-rule="evenodd" d="M143.17 91.3126C148.368 91.1954 147.875 105.317 145.2 105.723C142.572 106.122 137.491 91.4409 143.17 91.3126Z" fill="#DE8857"/>
<path fill-rule="evenodd" clip-rule="evenodd" d="M141.577 101.331C141.455 101.331 141.342 101.254 141.301 101.132C140.877 99.8672 139.59 95.5505 140.809 93.1064C140.881 92.9628 141.056 92.9044 141.199 92.976C141.343 93.0478 141.401 93.2223 141.33 93.3662C140.44 95.1491 141.016 98.4513 141.852 100.947C141.903 101.1 141.821 101.264 141.669 101.315C141.638 101.326 141.607 101.331 141.577 101.331Z" fill="#21211D"/>
<path fill-rule="evenodd" clip-rule="evenodd" d="M44.4554 140.195C47.4587 144.864 53.6512 146.376 58.4714 143.527C62.8208 140.954 64.6059 135.7 62.9603 131.112C62.7453 130.499 62.4631 129.897 62.1201 129.316L52.1626 112.48L46.7485 103.322L24.6147 109.251L44.4554 140.195Z" fill="#DE8857"/>
<path fill-rule="evenodd" clip-rule="evenodd" d="M43.2333 118.475L53.5565 143.593C54.1895 145.133 53.4542 146.895 51.9141 147.528C50.5415 148.092 48.9928 147.568 48.2241 146.357L33.6478 123.445C32.0413 120.919 32.7861 117.569 35.3115 115.963C37.8371 114.356 41.1867 115.101 42.7932 117.626C42.9621 117.892 43.1156 118.195 43.2333 118.475Z" fill="#DE8857"/>
<path fill-rule="evenodd" clip-rule="evenodd" d="M50.791 122.721L58.0017 142.146C58.5665 143.668 57.791 145.359 56.2695 145.923C54.9605 146.409 53.5249 145.901 52.7902 144.781L41.423 127.457C39.8226 125.018 40.5026 121.743 42.9415 120.143C45.3806 118.543 48.6549 119.223 50.2553 121.662C50.4726 121.993 50.6565 122.366 50.791 122.721Z" fill="#DE8857"/>
<path fill-rule="evenodd" clip-rule="evenodd" d="M54.5141 120.962L62.7373 139.803C63.3678 141.247 62.7077 142.93 61.2634 143.56C60.016 144.104 58.591 143.685 57.8196 142.631L45.6741 126.045C44.0001 123.759 44.4962 120.549 46.782 118.875C49.0678 117.202 52.2776 117.698 53.9514 119.983C54.1735 120.287 54.3675 120.632 54.5141 120.962Z" fill="#DE8857"/>
<path fill-rule="evenodd" clip-rule="evenodd" d="M57.8929 120.476L66.303 137.633C66.9354 138.923 66.4021 140.482 65.112 141.114C63.9948 141.662 62.6755 141.334 61.9316 140.398L50.0352 125.446C48.4272 123.425 48.762 120.483 50.783 118.875C52.8039 117.268 55.7456 117.602 57.3533 119.623C57.5625 119.886 57.7489 120.187 57.8929 120.476Z" fill="#DE8857"/>
<path fill-rule="evenodd" clip-rule="evenodd" d="M51.6636 115.244C51.6636 115.244 71.8876 125.269 69.2627 129.743C67.1591 133.329 51.3735 122.811 51.3735 122.811L51.6636 115.244Z" fill="#DE8857"/>
<path fill-rule="evenodd" clip-rule="evenodd" d="M53.6564 145.872C53.5461 145.872 53.4397 145.811 53.3874 145.705L51.4585 141.808C51.3849 141.659 51.4457 141.48 51.5941 141.406C51.7427 141.333 51.9226 141.393 51.9961 141.542L53.925 145.439C53.9986 145.587 53.9378 145.767 53.7892 145.841C53.7466 145.862 53.7012 145.872 53.6564 145.872Z" fill="#21211D"/>
<path fill-rule="evenodd" clip-rule="evenodd" d="M58.1587 143.296C58.0476 143.296 57.9407 143.234 57.8888 143.127L56.1109 139.471C56.0384 139.322 56.1003 139.143 56.2493 139.07C56.3981 138.998 56.5778 139.06 56.6503 139.209L58.4282 142.865C58.5007 143.013 58.4386 143.193 58.2896 143.265C58.2474 143.286 58.2029 143.296 58.1587 143.296Z" fill="#21211D"/>
<path fill-rule="evenodd" clip-rule="evenodd" d="M62.9074 141.448C62.7969 141.448 62.6907 141.387 62.6384 141.281L60.7094 137.384C60.6359 137.236 60.6967 137.056 60.8453 136.983C60.9936 136.909 61.1736 136.97 61.2471 137.118L63.176 141.015C63.2495 141.164 63.1888 141.344 63.0402 141.417C62.9976 141.438 62.9522 141.448 62.9074 141.448Z" fill="#21211D"/>
<path fill-rule="evenodd" clip-rule="evenodd" d="M62.431 129.427C62.3291 129.427 62.2296 129.375 62.1736 129.282L59.6312 125.046C59.5459 124.903 59.592 124.719 59.7341 124.634C59.876 124.549 60.0602 124.595 60.1454 124.737L62.6877 128.973C62.7731 129.115 62.7271 129.299 62.585 129.384C62.5367 129.413 62.4835 129.427 62.431 129.427Z" fill="#21211D"/>
<mask id="mask24_565_3984" style="mask-type:alpha" maskUnits="userSpaceOnUse" x="77" y="23" width="31" height="31">
<path fill-rule="evenodd" clip-rule="evenodd" d="M77.502 23.8881H107.727V53.8642H77.502V23.8881Z" fill="white"/>
</mask>
<g mask="url(#mask24_565_3984)">
<path fill-rule="evenodd" clip-rule="evenodd" d="M105.445 51.9188C103.592 53.8495 101.059 54.1676 98.3833 53.6311C91.5531 52.2618 83.7529 45.3287 83.7529 45.3287C82.2059 44.1154 80.559 42.4531 79.5205 40.6192L79.4675 40.5225C79.1931 40.0329 78.9653 39.5277 78.7938 39.0192C78.7127 38.7759 78.6442 38.5296 78.591 38.2832C78.2575 36.7611 78.0202 36.8889 77.618 34.3471C77.0598 30.8228 78.5319 27.704 81.6882 26.0011C85.9392 23.7056 91.4471 23.116 95.9882 25.0529C96.0007 25.0592 96.013 25.0622 96.0256 25.0685C101.384 27.3796 104.203 33.4831 106.19 38.6137C107.815 42.8087 108.906 48.3104 105.445 51.9188Z" fill="#DE8857"/>
</g>
<path fill-rule="evenodd" clip-rule="evenodd" d="M95.8066 37.9725L98.6184 61.8891C99.1738 66.6125 95.7948 70.8918 91.0714 71.447C86.3481 72.0024 82.069 68.6236 81.5136 63.9002C81.4556 63.4061 81.4446 62.8691 81.4697 62.3883L82.8854 38.3486C83.0962 34.7713 86.1668 32.0422 89.7442 32.253C92.9339 32.4407 95.4485 34.9051 95.8066 37.9725Z" fill="#DE8857"/>
<path fill-rule="evenodd" clip-rule="evenodd" d="M97.6384 53.4568C97.6384 53.4568 95.6158 53.1192 92.9362 51.7422C92.6086 51.5739 92.2848 51.9725 92.5208 52.2554L98.2414 58.9624L97.6384 53.4568Z" fill="#21211D"/>
<path fill-rule="evenodd" clip-rule="evenodd" d="M82.3538 46.6819C82.3538 46.6819 82.9985 46.2973 83.4628 45.6167C83.5337 45.5129 83.694 45.5426 83.7184 45.6658C83.8836 46.5067 84.0712 48.6653 82.1699 50.4971L82.3538 46.6819Z" fill="#21211D"/>
<mask id="mask25_565_3984" style="mask-type:alpha" maskUnits="userSpaceOnUse" x="59" y="16" width="21" height="20">
<path fill-rule="evenodd" clip-rule="evenodd" d="M59.8325 16.3634H79.4194V35.9501H59.8325V16.3634Z" fill="white"/>
</mask>
<g mask="url(#mask25_565_3984)">
<path fill-rule="evenodd" clip-rule="evenodd" d="M77.5296 31.9385C74.3364 36.3035 68.2092 37.2536 63.844 34.0603C59.479 30.8671 58.5291 24.74 61.7221 20.3748C64.9154 16.0098 71.0425 15.0598 75.4078 18.2529C79.773 21.4462 80.7228 27.5735 77.5296 31.9385Z" fill="#21211D"/>
</g>
<path fill-rule="evenodd" clip-rule="evenodd" d="M61.6317 36.8785C59.2802 40.0927 54.7686 40.7922 51.5544 38.4409C48.3402 36.0896 47.6408 31.578 49.9921 28.3638C52.3434 25.1496 56.855 24.4499 60.0692 26.8012C63.2834 29.1525 63.983 33.6643 61.6317 36.8785Z" fill="#21211D"/>
<path fill-rule="evenodd" clip-rule="evenodd" d="M50.2523 41.2783C48.6384 43.4845 45.5415 43.9648 43.3353 42.3508C41.1289 40.7368 40.6488 37.64 42.2628 35.4336C43.8766 33.2275 46.9736 32.7474 49.1798 34.3612C51.3862 35.9752 51.8663 39.0722 50.2523 41.2783Z" fill="#21211D"/>
<path fill-rule="evenodd" clip-rule="evenodd" d="M86.7294 37.4201C94.2487 32.9635 95.741 27.4453 96.0256 25.0687C96.0193 25.0655 96.0132 25.0633 96.007 25.061C96.0007 25.0586 95.9944 25.0562 95.9882 25.0532C91.4471 23.1163 85.939 23.7058 81.6882 26.0013C78.5317 27.7042 77.0598 30.823 77.618 34.3474C77.8654 35.911 78.0503 36.4644 78.2337 37.0131C78.3485 37.3563 78.4625 37.6976 78.591 38.2835C78.644 38.5298 78.7127 38.7761 78.7938 39.0194C78.9653 39.5279 79.1929 40.0331 79.4673 40.5227L79.5205 40.6194C80.8127 40.1944 82.0044 39.7396 83.1032 39.2619C83.4205 39.5975 83.6908 39.9948 83.8552 40.4587L84.655 41.9793C85.0295 42.7287 85.9143 43.0719 86.6983 42.7698C87.3439 42.5211 87.7405 41.9038 87.7405 41.2522C87.7405 41.0695 87.7089 40.8837 87.646 40.7042C87.646 40.7042 87.3893 39.3994 86.7294 37.4201Z" fill="#21211D"/>
<path fill-rule="evenodd" clip-rule="evenodd" d="M84.5296 42.992C84.3745 45.6651 82.0818 47.7065 79.4087 47.5517C76.7354 47.3966 74.694 45.1039 74.8491 42.4308C75.0042 39.7575 77.2968 37.7161 79.9699 37.8712C82.643 38.0263 84.6846 40.3189 84.5296 42.992Z" fill="#DE8857"/>
<path fill-rule="evenodd" clip-rule="evenodd" d="M81.4249 43.3138C81.3847 43.3138 81.3438 43.306 81.3044 43.2896L77.4977 41.6946C77.3387 41.6282 77.2639 41.4455 77.3305 41.2865C77.3969 41.1276 77.5798 41.0529 77.7386 41.1193L81.5456 42.7141C81.7043 42.7807 81.7792 42.9635 81.7128 43.1224C81.6626 43.2418 81.5467 43.3138 81.4249 43.3138Z" fill="#21211D"/>
<path fill-rule="evenodd" clip-rule="evenodd" d="M79.0585 43.9828C79.0215 43.9828 78.9839 43.9761 78.9473 43.9622C78.7864 43.9006 78.7057 43.7204 78.7672 43.5595L79.3139 42.1285C79.3753 41.9676 79.5555 41.8869 79.7166 41.9483C79.8775 42.0097 79.9582 42.1901 79.8965 42.351L79.35 43.7821C79.3024 43.9064 79.1841 43.9828 79.0585 43.9828Z" fill="#21211D"/>
<path fill-rule="evenodd" clip-rule="evenodd" d="M79.3153 45.8081C79.3153 45.8081 75.7538 56.5429 79.3153 56.5429C82.6826 56.5429 79.3153 45.8081 79.3153 45.8081Z" fill="#EDC829"/>
<path fill-rule="evenodd" clip-rule="evenodd" d="M80.3999 45.67C80.3999 46.2688 79.9144 46.7545 79.3156 46.7545C78.7165 46.7545 78.231 46.2688 78.231 45.67C78.231 45.0711 78.7165 44.5856 79.3156 44.5856C79.9144 44.5856 80.3999 45.0711 80.3999 45.67Z" fill="#DE8857"/>
<path fill-rule="evenodd" clip-rule="evenodd" d="M77.1334 33.3698C77.1179 33.3698 77.1021 33.3689 77.0865 33.3674C76.8293 33.3417 76.6418 33.1124 76.6674 32.8555C77.0478 29.0472 79.257 26.6964 79.3508 26.5982C79.5295 26.4113 79.8256 26.4046 80.0124 26.583C80.1991 26.7614 80.206 27.0573 80.0278 27.2442C80.0007 27.2727 77.9451 29.4784 77.5984 32.9485C77.5744 33.1896 77.3709 33.3698 77.1334 33.3698Z" fill="#F98ADF"/>
<path fill-rule="evenodd" clip-rule="evenodd" d="M108.542 38.5078C108.542 38.5078 106.933 40.4964 104.318 40.4032C103.209 40.3619 101.919 39.9519 100.5 38.8504C100.5 38.8504 101.882 37.2643 104.183 37.1109C105.402 37.0257 106.876 37.3391 108.542 38.5078Z" fill="white"/>
<path fill-rule="evenodd" clip-rule="evenodd" d="M108.542 38.5078C108.542 38.5078 106.933 40.4964 104.318 40.4032C103.95 39.9594 103.727 39.4045 103.701 38.7859C103.674 38.1672 103.854 37.5841 104.183 37.1109C105.402 37.0257 106.876 37.3391 108.542 38.5078Z" fill="#21211D"/>
<path d="M98.3211 37.3343C98.484 37.2896 98.6521 37.3771 98.7109 37.5319L98.7206 37.5617L100.07 42.4764C100.312 43.3599 99.6623 44.2315 98.7552 44.2599L98.7055 44.2607L97.5824 44.2574C97.4029 44.2569 97.2578 44.1109 97.2583 43.9314C97.2588 43.7619 97.389 43.623 97.5547 43.6085L97.5843 43.6073L98.7073 43.6106C99.1966 43.6119 99.5561 43.1591 99.4525 42.6879L99.4428 42.6485L98.0937 37.7338C98.0462 37.5607 98.148 37.3818 98.3211 37.3343Z" fill="#21211D"/>
<path d="M101.592 34.6108C103.522 33.8547 105.69 33.8592 107.878 35.1307C108.033 35.2209 108.085 35.4199 107.995 35.5751C107.905 35.7303 107.706 35.7829 107.551 35.6927C105.553 34.5311 103.588 34.527 101.829 35.2161C101.575 35.3157 101.349 35.4222 101.154 35.5281L101.052 35.5849C100.993 35.6191 100.951 35.6454 100.927 35.6615C100.778 35.7621 100.576 35.723 100.476 35.5743C100.375 35.4255 100.414 35.2235 100.563 35.1229L100.604 35.096C100.659 35.061 100.74 35.0135 100.843 34.9571C101.061 34.8386 101.311 34.7206 101.592 34.6108Z" fill="#21211D"/>
<path fill-rule="evenodd" clip-rule="evenodd" d="M97.2255 38.5078C97.2255 38.5078 95.6169 40.4964 93.0011 40.4032C91.8925 40.3619 90.6023 39.9519 89.1831 38.8504C89.1831 38.8504 90.5653 37.2643 92.8664 37.1109C94.0857 37.0257 95.56 37.3391 97.2255 38.5078Z" fill="white"/>
<path fill-rule="evenodd" clip-rule="evenodd" d="M97.2251 38.5078C97.2251 38.5078 95.6165 40.4964 93.0007 40.4032C92.6333 39.9594 92.4103 39.4045 92.3839 38.7859C92.3575 38.1672 92.5374 37.5841 92.866 37.1109C94.0853 37.0257 95.5596 37.3391 97.2251 38.5078Z" fill="#21211D"/>
<path d="M89.2648 35.1307C91.4517 33.8592 93.6206 33.8547 95.5504 34.6108C95.8309 34.7206 96.0814 34.8386 96.2991 34.9571L96.3821 35.0032C96.4721 35.0542 96.5383 35.0953 96.5792 35.1229C96.728 35.2235 96.767 35.4255 96.6665 35.5743C96.566 35.723 96.3639 35.7621 96.2152 35.6615L96.1658 35.63C96.124 35.6043 96.0645 35.5696 95.9883 35.5281C95.7937 35.4222 95.5676 35.3157 95.3133 35.2161C93.5546 34.527 91.5894 34.5311 89.5915 35.6927C89.4363 35.7829 89.2373 35.7303 89.1471 35.5751C89.0569 35.4199 89.1096 35.2209 89.2648 35.1307Z" fill="#21211D"/>
<path d="M95.5447 44.9265C95.704 44.8704 95.8778 44.9458 95.9475 45.096L95.9704 45.153C95.9827 45.182 96.0027 45.2246 96.031 45.2771C96.0991 45.4035 96.1864 45.5305 96.2939 45.6483C96.6481 46.0369 97.128 46.2383 97.7837 46.1601C97.962 46.1389 98.1237 46.2662 98.145 46.4445C98.1662 46.6227 98.0389 46.7845 97.8606 46.8057C96.986 46.9099 96.3029 46.6233 95.8134 46.0863C95.5634 45.812 95.4154 45.5374 95.3462 45.3412C95.2865 45.1719 95.3754 44.9862 95.5447 44.9265Z" fill="#21211D"/>
<path opacity="0.01" d="M93.2649 44.0931C94.3242 43.328 95.5849 43.1974 96.9759 43.6842C98.4091 44.1855 99.3893 44.6228 99.8878 46.2331C99.9937 46.5755 99.8021 46.9388 99.4598 47.0448C99.1176 47.1508 98.7541 46.9591 98.6481 46.6168C98.267 45.3854 97.5763 45.2688 96.5475 44.9089C95.5397 44.5564 94.7226 44.641 94.0249 45.1451C93.7345 45.3549 93.3289 45.2895 93.1192 44.9991C92.9092 44.7086 92.9745 44.3031 93.2649 44.0931Z" fill="#21211D"/>
<path fill-rule="evenodd" clip-rule="evenodd" d="M351.006 292.764L471.589 182.242V292.821L351.006 292.764Z" fill="#B6CCFC"/>
<path fill-rule="evenodd" clip-rule="evenodd" d="M535 247.938C535 272.927 514.742 293.185 489.752 293.185C464.762 293.185 444.504 272.927 444.504 247.938C444.504 222.948 464.762 202.69 489.752 202.69C514.742 202.69 535 222.948 535 247.938Z" fill="#2448CD"/>
<mask id="mask26_565_3984" style="mask-type:alpha" maskUnits="userSpaceOnUse" x="444" y="202" width="91" height="92">
<path fill-rule="evenodd" clip-rule="evenodd" d="M444.504 247.938C444.504 272.928 464.762 293.186 489.752 293.186C514.742 293.186 535 272.928 535 247.938C535 222.948 514.742 202.69 489.752 202.69C464.762 202.69 444.504 222.948 444.504 247.938Z" fill="white"/>
</mask>
<g mask="url(#mask26_565_3984)">
<path fill-rule="evenodd" clip-rule="evenodd" d="M469.392 188.291L459.568 214.792L464.107 215.117L463.084 224.646L471.005 212.116L471.519 219.136L471.631 218.91L474.983 212.125L489.906 190.007L469.392 188.291Z" fill="#FF6D7B"/>
</g>
<mask id="mask27_565_3984" style="mask-type:alpha" maskUnits="userSpaceOnUse" x="444" y="202" width="91" height="92">
<path fill-rule="evenodd" clip-rule="evenodd" d="M444.504 247.938C444.504 272.928 464.762 293.186 489.752 293.186C514.742 293.186 535 272.928 535 247.938C535 222.948 514.742 202.69 489.752 202.69C464.762 202.69 444.504 222.948 444.504 247.938Z" fill="white"/>
</mask>
<g mask="url(#mask27_565_3984)">
<path fill-rule="evenodd" clip-rule="evenodd" d="M496.392 196.179L471.68 227.627L438.851 240.059L444.425 273.37L517.753 198.6L496.392 196.179Z" fill="#FF6D7B"/>
</g>
<mask id="mask28_565_3984" style="mask-type:alpha" maskUnits="userSpaceOnUse" x="444" y="202" width="91" height="92">
<path fill-rule="evenodd" clip-rule="evenodd" d="M444.504 247.938C444.504 272.928 464.762 293.186 489.752 293.186C514.742 293.186 535 272.928 535 247.938C535 222.948 514.742 202.69 489.752 202.69C464.762 202.69 444.504 222.948 444.504 247.938Z" fill="white"/>
</mask>
<g mask="url(#mask28_565_3984)">
<path fill-rule="evenodd" clip-rule="evenodd" d="M528.603 208.292L488.585 221.221L471.587 242.408L520.871 223.061L470.585 296.254L492.456 302.086L538.8 222.324L528.603 208.292Z" fill="#FF6D7B"/>
</g>
<mask id="mask29_565_3984" style="mask-type:alpha" maskUnits="userSpaceOnUse" x="444" y="202" width="91" height="92">
<path fill-rule="evenodd" clip-rule="evenodd" d="M444.504 247.938C444.504 272.928 464.762 293.186 489.752 293.186C514.742 293.186 535 272.928 535 247.938C535 222.948 514.742 202.69 489.752 202.69C464.762 202.69 444.504 222.948 444.504 247.938Z" fill="white"/>
</mask>
<g mask="url(#mask29_565_3984)">
<path fill-rule="evenodd" clip-rule="evenodd" d="M443.104 270.724L540.506 235.481L540.128 248.04L446.128 286.926L443.104 270.724Z" fill="#FF6D7B"/>
</g>
<mask id="mask30_565_3984" style="mask-type:alpha" maskUnits="userSpaceOnUse" x="444" y="202" width="91" height="92">
<path fill-rule="evenodd" clip-rule="evenodd" d="M444.504 247.938C444.504 272.928 464.762 293.186 489.752 293.186C514.742 293.186 535 272.928 535 247.938C535 222.948 514.742 202.69 489.752 202.69C464.762 202.69 444.504 222.948 444.504 247.938Z" fill="white"/>
</mask>
<g mask="url(#mask30_565_3984)">
<path fill-rule="evenodd" clip-rule="evenodd" d="M537.706 263.583L458.697 290.207L479.569 301.226L537.226 290.66L537.706 263.583Z" fill="#FF6D7B"/>
</g>
<path fill-rule="evenodd" clip-rule="evenodd" d="M535 247.938C535 272.927 514.742 293.185 489.752 293.185C464.762 293.185 444.504 272.927 444.504 247.938C444.504 222.948 464.762 202.69 489.752 202.69C514.742 202.69 535 222.948 535 247.938Z" fill="#4965CC"/>
<mask id="mask31_565_3984" style="mask-type:alpha" maskUnits="userSpaceOnUse" x="444" y="202" width="91" height="92">
<path fill-rule="evenodd" clip-rule="evenodd" d="M444.504 247.938C444.504 272.928 464.762 293.186 489.752 293.186C514.742 293.186 535 272.928 535 247.938C535 222.948 514.742 202.69 489.752 202.69C464.762 202.69 444.504 222.948 444.504 247.938Z" fill="white"/>
</mask>
<g mask="url(#mask31_565_3984)">
<path fill-rule="evenodd" clip-rule="evenodd" d="M469.392 188.291L459.568 214.792L464.107 215.117L463.084 224.646L471.005 212.116L471.519 219.136L471.631 218.91L474.983 212.125L489.906 190.007L469.392 188.291Z" fill="#FF6D7B"/>
</g>
<mask id="mask32_565_3984" style="mask-type:alpha" maskUnits="userSpaceOnUse" x="444" y="202" width="91" height="92">
<path fill-rule="evenodd" clip-rule="evenodd" d="M444.504 247.938C444.504 272.928 464.762 293.186 489.752 293.186C514.742 293.186 535 272.928 535 247.938C535 222.948 514.742 202.69 489.752 202.69C464.762 202.69 444.504 222.948 444.504 247.938Z" fill="white"/>
</mask>
<g mask="url(#mask32_565_3984)">
<path fill-rule="evenodd" clip-rule="evenodd" d="M496.392 196.179L471.68 227.627L438.851 240.059L444.425 273.37L517.753 198.6L496.392 196.179Z" fill="#FF6D7B"/>
</g>
<mask id="mask33_565_3984" style="mask-type:alpha" maskUnits="userSpaceOnUse" x="444" y="202" width="91" height="92">
<path fill-rule="evenodd" clip-rule="evenodd" d="M444.504 247.938C444.504 272.928 464.762 293.186 489.752 293.186C514.742 293.186 535 272.928 535 247.938C535 222.948 514.742 202.69 489.752 202.69C464.762 202.69 444.504 222.948 444.504 247.938Z" fill="white"/>
</mask>
<g mask="url(#mask33_565_3984)">
<path fill-rule="evenodd" clip-rule="evenodd" d="M528.603 208.292L488.585 221.221L471.587 242.408L520.871 223.061L470.585 296.254L492.456 302.086L538.8 222.324L528.603 208.292Z" fill="#FF6D7B"/>
</g>
<mask id="mask34_565_3984" style="mask-type:alpha" maskUnits="userSpaceOnUse" x="444" y="202" width="91" height="92">
<path fill-rule="evenodd" clip-rule="evenodd" d="M444.504 247.938C444.504 272.928 464.762 293.186 489.752 293.186C514.742 293.186 535 272.928 535 247.938C535 222.948 514.742 202.69 489.752 202.69C464.762 202.69 444.504 222.948 444.504 247.938Z" fill="white"/>
</mask>
<g mask="url(#mask34_565_3984)">
<path fill-rule="evenodd" clip-rule="evenodd" d="M443.104 270.724L540.506 235.481L540.128 248.04L446.128 286.926L443.104 270.724Z" fill="#FF6D7B"/>
</g>
<mask id="mask35_565_3984" style="mask-type:alpha" maskUnits="userSpaceOnUse" x="444" y="202" width="91" height="92">
<path fill-rule="evenodd" clip-rule="evenodd" d="M444.504 247.938C444.504 272.928 464.762 293.186 489.752 293.186C514.742 293.186 535 272.928 535 247.938C535 222.948 514.742 202.69 489.752 202.69C464.762 202.69 444.504 222.948 444.504 247.938Z" fill="white"/>
</mask>
<g mask="url(#mask35_565_3984)">
<path fill-rule="evenodd" clip-rule="evenodd" d="M537.706 263.583L458.697 290.207L479.569 301.226L537.226 290.66L537.706 263.583Z" fill="#FF6D7B"/>
</g>
<path fill-rule="evenodd" clip-rule="evenodd" d="M372.664 217.927H329.246L307.536 255.529L329.246 293.13H372.664L394.374 255.529L372.664 217.927Z" fill="#EDE761"/>
<path fill-rule="evenodd" clip-rule="evenodd" d="M313.254 245.624V265.433L318.67 274.812V236.245L313.254 245.624Z" fill="#F73132"/>
<path fill-rule="evenodd" clip-rule="evenodd" d="M331.145 293.13H336.56V217.927H331.145V293.13Z" fill="#F73132"/>
<path fill-rule="evenodd" clip-rule="evenodd" d="M348.247 293.13H353.662V217.927H348.247V293.13Z" fill="#F73132"/>
<path fill-rule="evenodd" clip-rule="evenodd" d="M366.974 293.13H372.39V217.927H366.974V293.13Z" fill="#F73132"/>
<path fill-rule="evenodd" clip-rule="evenodd" d="M384.191 273.166L389.606 263.786V247.271L384.191 237.892V273.166Z" fill="#F73132"/>
<path fill-rule="evenodd" clip-rule="evenodd" d="M320.205 277.471L323.331 282.886H378.579L381.705 277.471H320.205Z" fill="#F73132"/>
<path fill-rule="evenodd" clip-rule="evenodd" d="M310.331 260.368L313.457 265.784H388.453L391.58 260.368H310.331Z" fill="#F73132"/>
<path fill-rule="evenodd" clip-rule="evenodd" d="M315.554 241.641L312.427 247.057H389.482L386.356 241.641H315.554Z" fill="#F73132"/>
<path fill-rule="evenodd" clip-rule="evenodd" d="M325.494 224.425L322.368 229.84H379.543L376.416 224.425H325.494Z" fill="#F73132"/>
</svg>
