<svg width="463" height="303" viewBox="0 0 463 303" fill="none" xmlns="http://www.w3.org/2000/svg">
<path opacity="0.5" fill-rule="evenodd" clip-rule="evenodd" d="M295.906 147.953C295.906 229.666 229.666 295.906 147.953 295.906C66.2407 295.906 0 229.666 0 147.953C0 66.2412 66.2407 0 147.953 0C229.666 0 295.906 66.2412 295.906 147.953Z" fill="#F9F4E5"/>
<path fill-rule="evenodd" clip-rule="evenodd" d="M437.216 73.0335L429.987 95.9177L388.296 227.899H125.294L166.984 95.9177L174.454 72.2722C175.175 69.9882 177.391 68.4229 179.906 68.4229H433.597C436.125 68.4229 437.942 70.7363 437.216 73.0335Z" fill="#B6CCFC"/>
<path fill-rule="evenodd" clip-rule="evenodd" d="M437.217 73.0335L429.987 95.9177H166.984L174.454 72.2722C175.175 69.9882 177.391 68.4229 179.907 68.4229H433.598C436.128 68.4229 437.942 70.7363 437.217 73.0335Z" fill="#F73132"/>
<path fill-rule="evenodd" clip-rule="evenodd" d="M197.347 82.6089C196.424 85.8754 192.884 88.5231 189.439 88.5231C185.994 88.5231 183.95 85.8754 184.873 82.6089C185.796 79.3425 189.337 76.6945 192.781 76.6945C196.226 76.6945 198.27 79.3425 197.347 82.6089Z" fill="#963716"/>
<path fill-rule="evenodd" clip-rule="evenodd" d="M220.9 82.6089C219.976 85.8754 216.437 88.5231 212.992 88.5231C209.547 88.5231 207.503 85.8754 208.426 82.6089C209.349 79.3425 212.89 76.6945 216.334 76.6945C219.778 76.6945 221.822 79.3425 220.9 82.6089Z" fill="#EDC829"/>
<path fill-rule="evenodd" clip-rule="evenodd" d="M413.956 87.8904C413.891 87.8904 413.827 87.8665 413.779 87.8188L403.02 77.272C402.924 77.179 402.928 77.0302 403.026 76.94C403.124 76.8502 403.281 76.852 403.377 76.9456L414.136 87.4922C414.229 87.5854 414.227 87.7341 414.129 87.8243C414.081 87.8684 414.019 87.8904 413.956 87.8904Z" fill="white"/>
<path fill-rule="evenodd" clip-rule="evenodd" d="M400.219 87.8904C400.138 87.8904 400.061 87.8536 400.013 87.7856C399.935 87.6776 399.967 87.532 400.081 87.46L416.8 76.9134C416.914 76.8414 417.067 76.8704 417.144 76.9788C417.219 77.0868 417.188 77.2324 417.075 77.3042L400.355 87.851C400.313 87.8777 400.265 87.8904 400.219 87.8904Z" fill="white"/>
<path fill-rule="evenodd" clip-rule="evenodd" d="M407.74 111.354L380.773 199.297L376.458 213.371C375.075 217.879 370.72 220.978 365.77 220.978H220.567C216.337 220.978 213.291 217.129 214.471 213.278L246.163 109.918C247.471 105.652 251.593 102.718 256.278 102.718H400.904C405.648 102.718 409.064 107.034 407.74 111.354Z" fill="#DCE9FF"/>
<path fill-rule="evenodd" clip-rule="evenodd" d="M177.847 109.574L146.024 213.359C144.856 217.171 147.871 220.98 152.057 220.98H193.093C197.78 220.98 201.903 218.043 203.212 213.776L234.473 111.818C235.871 107.267 232.269 102.718 227.271 102.718H187.478C183.017 102.718 179.092 105.512 177.847 109.574Z" fill="#DCE9FF"/>
<path fill-rule="evenodd" clip-rule="evenodd" d="M211.17 149.476H177.62C176.854 149.476 176.233 148.887 176.233 148.161C176.233 147.434 176.854 146.846 177.62 146.846H211.17C211.936 146.846 212.557 147.434 212.557 148.161C212.557 148.887 211.936 149.476 211.17 149.476Z" fill="#4965CC"/>
<path fill-rule="evenodd" clip-rule="evenodd" d="M386.715 118.739H284.14C283.372 118.739 282.753 118.15 282.753 117.424C282.753 116.697 283.372 116.108 284.14 116.108H386.715C387.481 116.108 388.102 116.697 388.102 117.424C388.102 118.15 387.481 118.739 386.715 118.739Z" fill="#4965CC"/>
<path fill-rule="evenodd" clip-rule="evenodd" d="M354.313 149.476H278.157C277.392 149.476 276.77 148.887 276.77 148.161C276.77 147.434 277.392 146.846 278.157 146.846H354.313C355.078 146.846 355.698 147.434 355.698 148.161C355.698 148.887 355.078 149.476 354.313 149.476Z" fill="#4965CC"/>
<path fill-rule="evenodd" clip-rule="evenodd" d="M326.371 126.628H281.944C281.176 126.628 280.557 126.039 280.557 125.312C280.557 124.586 281.176 123.997 281.944 123.997H326.371C327.136 123.997 327.758 124.586 327.758 125.312C327.758 126.039 327.136 126.628 326.371 126.628Z" fill="#4965CC"/>
<path fill-rule="evenodd" clip-rule="evenodd" d="M372.639 172.383H270.064C269.296 172.383 268.677 171.796 268.677 171.068C268.677 170.342 269.296 169.752 270.064 169.752H372.639C373.405 169.752 374.026 170.342 374.026 171.068C374.026 171.796 373.405 172.383 372.639 172.383Z" fill="#4965CC"/>
<path fill-rule="evenodd" clip-rule="evenodd" d="M312.295 180.273H267.868C267.1 180.273 266.481 179.684 266.481 178.958C266.481 178.23 267.1 177.642 267.868 177.642H312.295C313.061 177.642 313.682 178.23 313.682 178.958C313.682 179.684 313.061 180.273 312.295 180.273Z" fill="#4965CC"/>
<path fill-rule="evenodd" clip-rule="evenodd" d="M197.083 168.51H178.445C178.308 168.51 178.197 168.405 178.197 168.277C178.197 168.146 178.308 168.041 178.445 168.041H197.083C197.22 168.041 197.331 168.146 197.331 168.277C197.331 168.405 197.22 168.51 197.083 168.51Z" fill="#4965CC"/>
<path fill-rule="evenodd" clip-rule="evenodd" d="M193.595 179.437H174.956C174.819 179.437 174.708 179.332 174.708 179.203C174.708 179.073 174.819 178.968 174.956 178.968H193.595C193.731 178.968 193.842 179.073 193.842 179.203C193.842 179.332 193.731 179.437 193.595 179.437Z" fill="#4965CC"/>
<path fill-rule="evenodd" clip-rule="evenodd" d="M190.796 190.363H172.157C172.02 190.363 171.909 190.258 171.909 190.13C171.909 189.999 172.02 189.894 172.157 189.894H190.796C190.933 189.894 191.043 189.999 191.043 190.13C191.043 190.258 190.933 190.363 190.796 190.363Z" fill="#4965CC"/>
<path fill-rule="evenodd" clip-rule="evenodd" d="M191.731 209.324H158.181C158.044 209.324 157.934 209.219 157.934 209.089C157.934 208.958 158.044 208.853 158.181 208.853H191.731C191.868 208.853 191.979 208.958 191.979 209.089C191.979 209.219 191.868 209.324 191.731 209.324Z" fill="#4965CC"/>
<path fill-rule="evenodd" clip-rule="evenodd" d="M380.775 199.533H218.758C218.622 199.533 218.51 199.428 218.51 199.298C218.51 199.167 218.622 199.062 218.758 199.062H380.775C380.912 199.062 381.023 199.167 381.023 199.298C381.023 199.428 380.912 199.533 380.775 199.533Z" fill="#4965CC"/>
<path fill-rule="evenodd" clip-rule="evenodd" d="M329.295 205.554H233.376C231.507 205.554 229.859 206.715 229.321 208.41C228.499 210.989 230.535 213.588 233.376 213.588H329.295C331.164 213.588 332.812 212.427 333.35 210.73C334.172 208.153 332.136 205.554 329.295 205.554Z" fill="white"/>
<path fill-rule="evenodd" clip-rule="evenodd" d="M380.775 199.298L376.459 213.371C375.076 217.879 370.721 220.978 365.771 220.978H342.922L349.777 199.298H380.775Z" fill="#F73132"/>
<path fill-rule="evenodd" clip-rule="evenodd" d="M358.111 213.822C358.013 213.822 357.921 213.769 357.882 213.678C357.829 213.559 357.89 213.42 358.015 213.371L366.325 210.092L359.371 205.75C359.256 205.679 359.225 205.532 359.3 205.425C359.375 205.317 359.529 205.287 359.644 205.358L366.989 209.943C367.064 209.991 367.107 210.074 367.099 210.161C367.089 210.248 367.03 210.323 366.947 210.355L358.207 213.804C358.176 213.816 358.142 213.822 358.111 213.822Z" fill="white"/>
<path fill-rule="evenodd" clip-rule="evenodd" d="M259.287 174.436C258.056 178.794 253.334 182.326 248.738 182.326C244.145 182.326 241.417 178.794 242.65 174.436C243.88 170.081 248.603 166.548 253.196 166.548C257.791 166.548 260.517 170.081 259.287 174.436Z" fill="#B6CCFC"/>
<path fill-rule="evenodd" clip-rule="evenodd" d="M215.525 125.538C213.389 133.096 205.196 139.223 197.225 139.223C189.255 139.223 184.525 133.096 186.661 125.538C188.796 117.98 196.989 111.853 204.959 111.853C212.93 111.853 217.661 117.98 215.525 125.538Z" fill="white"/>
<path fill-rule="evenodd" clip-rule="evenodd" d="M215.525 125.538C213.389 133.096 205.196 139.223 197.225 139.223C189.255 139.223 184.525 133.096 186.661 125.538C188.796 117.98 196.989 111.853 204.959 111.853C212.93 111.853 217.661 117.98 215.525 125.538Z" fill="#B6CCFC"/>
<mask id="mask0_627_685" style="mask-type:alpha" maskUnits="userSpaceOnUse" x="186" y="111" width="31" height="29">
<path fill-rule="evenodd" clip-rule="evenodd" d="M186.661 125.538C184.525 133.096 189.255 139.223 197.225 139.223C205.196 139.223 213.389 133.096 215.525 125.538C217.661 117.98 212.93 111.853 204.959 111.853C196.989 111.853 188.796 117.98 186.661 125.538Z" fill="white"/>
</mask>
<g mask="url(#mask0_627_685)">
<path fill-rule="evenodd" clip-rule="evenodd" d="M204.014 127.964H204.012C206.056 126.808 207.791 124.982 208.579 122.927C209.921 119.432 208.02 116.599 204.334 116.599C200.648 116.599 196.573 119.432 195.231 122.927C194.442 124.982 194.775 126.808 195.932 127.964H195.931C191.865 128.944 187.927 132.156 186.465 135.966L184.839 140.201H205.711L207.336 135.966C208.799 132.156 207.327 128.944 204.014 127.964Z" fill="#ED7AD8"/>
</g>
<path fill-rule="evenodd" clip-rule="evenodd" d="M273.362 120.792C272.131 125.149 267.409 128.681 262.814 128.681C258.22 128.681 255.492 125.149 256.725 120.792C257.956 116.436 262.678 112.904 267.271 112.904C271.866 112.904 274.593 116.436 273.362 120.792Z" fill="#B6CCFC"/>
<mask id="mask1_627_685" style="mask-type:alpha" maskUnits="userSpaceOnUse" x="256" y="112" width="18" height="17">
<path fill-rule="evenodd" clip-rule="evenodd" d="M256.725 120.792C255.492 125.149 258.22 128.681 262.814 128.681C267.409 128.681 272.131 125.149 273.362 120.792C274.593 116.436 271.866 112.904 267.271 112.904C262.678 112.904 257.956 116.436 256.725 120.792Z" fill="white"/>
</mask>
<g mask="url(#mask1_627_685)">
<path fill-rule="evenodd" clip-rule="evenodd" d="M266.651 122.867H266.649C267.861 122.182 268.89 121.099 269.357 119.881C270.151 117.809 269.025 116.129 266.841 116.129C264.655 116.129 262.238 117.809 261.443 119.881C260.976 121.099 261.174 122.182 261.858 122.867C259.447 123.448 257.113 125.353 256.245 127.611L255.281 130.122H267.657L268.62 127.611C269.488 125.353 268.614 123.448 266.651 122.867Z" fill="#D5962F"/>
</g>
<path fill-rule="evenodd" clip-rule="evenodd" d="M383.194 148.161C381.963 152.518 377.241 156.049 372.648 156.049C368.053 156.049 365.326 152.518 366.557 148.161C367.788 143.804 372.51 140.272 377.105 140.272C381.699 140.272 384.425 143.804 383.194 148.161Z" fill="#B6CCFC"/>
<mask id="mask2_627_685" style="mask-type:alpha" maskUnits="userSpaceOnUse" x="366" y="140" width="18" height="17">
<path fill-rule="evenodd" clip-rule="evenodd" d="M366.557 148.161C365.326 152.518 368.053 156.049 372.648 156.049C377.241 156.049 381.963 152.518 383.194 148.161C384.425 143.804 381.699 140.273 377.105 140.273C372.51 140.273 367.788 143.804 366.557 148.161Z" fill="white"/>
</mask>
<g mask="url(#mask2_627_685)">
<path fill-rule="evenodd" clip-rule="evenodd" d="M376.339 150.305H376.337C377.549 149.619 378.577 148.537 379.047 147.319C379.841 145.246 378.715 143.567 376.529 143.567C374.343 143.567 371.928 145.246 371.133 147.319C370.664 148.537 370.862 149.619 371.548 150.305H371.546C369.137 150.886 366.801 152.791 365.935 155.05L364.971 157.56H377.345L378.308 155.05C379.176 152.791 378.304 150.886 376.339 150.305Z" fill="#ED7AD8"/>
</g>
<mask id="mask3_627_685" style="mask-type:alpha" maskUnits="userSpaceOnUse" x="242" y="166" width="18" height="17">
<path fill-rule="evenodd" clip-rule="evenodd" d="M242.647 174.438C241.416 178.794 244.143 182.326 248.738 182.326C253.331 182.326 258.055 178.794 259.286 174.438C260.517 170.081 257.79 166.548 253.195 166.548C248.602 166.548 243.88 170.081 242.647 174.438Z" fill="white"/>
</mask>
<g mask="url(#mask3_627_685)">
<path fill-rule="evenodd" clip-rule="evenodd" d="M252.574 176.513C253.786 175.827 254.814 174.745 255.282 173.526C256.076 171.453 254.95 169.774 252.764 169.774C250.58 169.774 248.162 171.453 247.368 173.526C246.901 174.745 247.097 175.827 247.783 176.513C245.372 177.093 243.037 178.997 242.17 181.256L241.206 183.766H253.582L254.545 181.256C255.411 178.997 254.539 177.093 252.574 176.513Z" fill="#D5962F"/>
</g>
<mask id="mask4_627_685" style="mask-type:alpha" maskUnits="userSpaceOnUse" x="125" y="95" width="305" height="133">
<path fill-rule="evenodd" clip-rule="evenodd" d="M166.984 95.8578L125.294 227.838H388.297L429.987 95.8578H166.984Z" fill="white"/>
</mask>
<g mask="url(#mask4_627_685)">
<path opacity="0.5" fill-rule="evenodd" clip-rule="evenodd" d="M0.618164 248.397L29.5042 267.424L394.202 52.0769L313.224 39.8436L0.618164 248.397Z" fill="white"/>
</g>
<mask id="mask5_627_685" style="mask-type:alpha" maskUnits="userSpaceOnUse" x="125" y="95" width="305" height="133">
<path fill-rule="evenodd" clip-rule="evenodd" d="M166.984 95.8578L125.294 227.838H388.297L429.987 95.8578H166.984Z" fill="white"/>
</mask>
<g mask="url(#mask5_627_685)">
<path opacity="0.5" fill-rule="evenodd" clip-rule="evenodd" d="M18.1902 206.098L301.622 46.0496L274.264 54.7114L11.5454 196.993L18.1902 206.098Z" fill="white"/>
</g>
<path fill-rule="evenodd" clip-rule="evenodd" d="M417.143 256.048C416.998 256.048 416.863 255.957 416.813 255.813L401.413 211.447C401.35 211.265 401.447 211.066 401.629 211.003C401.811 210.94 402.01 211.037 402.074 211.219L417.473 255.585C417.536 255.767 417.439 255.965 417.257 256.029C417.219 256.041 417.181 256.048 417.143 256.048Z" fill="#21211D"/>
<path fill-rule="evenodd" clip-rule="evenodd" d="M423.237 265.313C423.044 265.313 422.887 265.156 422.887 264.964V167.197C422.887 167.004 423.044 166.848 423.237 166.848C423.429 166.848 423.586 167.004 423.586 167.197V264.964C423.586 265.156 423.429 265.313 423.237 265.313Z" fill="#21211D"/>
<path fill-rule="evenodd" clip-rule="evenodd" d="M426.739 270.953C426.704 270.953 426.668 270.948 426.633 270.937C426.449 270.878 426.348 270.682 426.406 270.498L445.659 210.184C445.717 210 445.914 209.899 446.098 209.957C446.281 210.016 446.383 210.212 446.324 210.395L427.072 270.71C427.025 270.858 426.887 270.953 426.739 270.953Z" fill="#21211D"/>
<path fill-rule="evenodd" clip-rule="evenodd" d="M427.827 299.77H419.174C411.381 299.77 404.712 294.186 403.356 286.527L395.975 244.825H451.027L443.645 286.527C442.289 294.186 435.62 299.77 427.827 299.77Z" fill="#4965CC"/>
<path fill-rule="evenodd" clip-rule="evenodd" d="M453.827 236.735C457.406 227.649 461.849 218.172 462.07 208.236C462.131 205.486 461.8 202.635 460.412 200.258C457.319 194.957 450.08 194.051 445.201 197.377C442.792 199.018 441.058 201.675 441.014 204.117C441.021 203.735 439.007 202.988 438.685 202.871C437.805 202.551 436.877 202.361 435.942 202.303C434.175 202.193 432.355 202.549 430.814 203.435C427.797 205.169 425.808 208.619 425.93 212.105C426.063 215.896 428.412 219.245 431.014 222.01C437.343 228.735 445.648 232.723 453.827 236.735Z" fill="#F1A596"/>
<path fill-rule="evenodd" clip-rule="evenodd" d="M390.687 239.497C397.607 234.181 405.369 228.962 410.109 221.456C411.422 219.379 412.48 217.044 412.512 214.588C412.582 209.112 407.457 205.101 402.191 205.411C399.592 205.563 397.041 206.803 395.885 208.653C396.066 208.363 394.867 206.868 394.675 206.631C394.148 205.983 393.525 205.412 392.836 204.939C391.534 204.045 389.977 203.483 388.39 203.455C385.282 203.4 382.171 205.13 380.66 207.855C379.018 210.818 379.276 214.459 379.996 217.768C381.747 225.818 386.27 232.677 390.687 239.497Z" fill="#F1A596"/>
<path fill-rule="evenodd" clip-rule="evenodd" d="M415.076 203.016C424.936 197.145 435.88 191.53 443.232 182.463C445.267 179.953 447.011 177.069 447.433 173.868C448.375 166.729 442.306 160.7 435.382 160.291C431.965 160.089 428.443 161.313 426.646 163.549C426.928 163.199 425.594 161.062 425.38 160.723C424.793 159.795 424.068 158.954 423.242 158.23C421.68 156.862 419.734 155.888 417.667 155.606C413.618 155.054 409.288 156.832 406.893 160.156C404.289 163.771 404.062 168.564 404.488 172.995C405.526 183.776 410.368 193.43 415.076 203.016Z" fill="#F1A596"/>
<path fill-rule="evenodd" clip-rule="evenodd" d="M415.077 203.365C415.045 203.365 415.012 203.361 414.979 203.351C414.794 203.297 414.688 203.104 414.742 202.919L426.312 163.452C426.366 163.267 426.56 163.16 426.745 163.215C426.93 163.269 427.036 163.463 426.982 163.647L415.412 203.115C415.368 203.267 415.228 203.365 415.077 203.365Z" fill="#21211D"/>
<path fill-rule="evenodd" clip-rule="evenodd" d="M390.688 239.846C390.668 239.846 390.649 239.844 390.629 239.841C390.439 239.809 390.311 239.629 390.343 239.439L395.541 208.595C395.573 208.405 395.753 208.277 395.943 208.309C396.134 208.341 396.262 208.521 396.23 208.711L391.032 239.555C391.003 239.725 390.855 239.846 390.688 239.846Z" fill="#21211D"/>
<path fill-rule="evenodd" clip-rule="evenodd" d="M453.827 237.084C453.688 237.084 453.556 237 453.502 236.862L440.689 204.245C440.618 204.065 440.707 203.863 440.887 203.793C441.066 203.723 441.269 203.811 441.339 203.99L454.152 236.608C454.223 236.787 454.134 236.989 453.955 237.059C453.913 237.076 453.87 237.084 453.827 237.084Z" fill="#21211D"/>
<path fill-rule="evenodd" clip-rule="evenodd" d="M455.735 211.682C455.721 211.682 455.707 211.681 455.692 211.679L443.208 210.156C443.017 210.132 442.881 209.959 442.904 209.767C442.927 209.576 443.102 209.44 443.293 209.464L455.777 210.987C455.969 211.01 456.105 211.184 456.081 211.375C456.06 211.552 455.909 211.682 455.735 211.682Z" fill="#21211D"/>
<path fill-rule="evenodd" clip-rule="evenodd" d="M439.628 224.009C439.551 224.009 439.474 223.984 439.41 223.933C439.259 223.812 439.235 223.593 439.356 223.443L445.442 215.863C445.562 215.712 445.782 215.688 445.933 215.809C446.083 215.929 446.108 216.149 445.987 216.299L439.901 223.879C439.832 223.965 439.73 224.009 439.628 224.009Z" fill="#21211D"/>
<path fill-rule="evenodd" clip-rule="evenodd" d="M454.802 227.892C454.786 227.892 454.77 227.891 454.754 227.889L449.912 227.231C449.72 227.205 449.587 227.029 449.613 226.838C449.639 226.647 449.815 226.514 450.006 226.54L454.849 227.198C455.04 227.224 455.174 227.4 455.148 227.59C455.124 227.765 454.974 227.892 454.802 227.892Z" fill="#21211D"/>
<path fill-rule="evenodd" clip-rule="evenodd" d="M410.696 171.992C410.533 171.992 410.386 171.876 410.354 171.71C410.317 171.521 410.44 171.338 410.63 171.301L425.032 168.487C425.222 168.45 425.405 168.573 425.442 168.762C425.479 168.951 425.355 169.134 425.166 169.171L410.764 171.985C410.741 171.989 410.718 171.992 410.696 171.992Z" fill="#21211D"/>
<path fill-rule="evenodd" clip-rule="evenodd" d="M430.531 185.846C430.442 185.846 430.354 185.812 430.286 185.745L422.279 177.857C422.141 177.722 422.14 177.501 422.275 177.364C422.411 177.227 422.632 177.225 422.77 177.361L430.776 185.249C430.914 185.385 430.915 185.605 430.78 185.742C430.711 185.811 430.621 185.846 430.531 185.846Z" fill="#21211D"/>
<path fill-rule="evenodd" clip-rule="evenodd" d="M412.513 190.915C412.376 190.915 412.245 190.834 412.19 190.699C412.116 190.521 412.201 190.318 412.379 190.244L419.448 187.327C419.626 187.254 419.831 187.338 419.904 187.516C419.978 187.694 419.893 187.898 419.715 187.972L412.646 190.888C412.602 190.906 412.557 190.915 412.513 190.915Z" fill="#21211D"/>
<path fill-rule="evenodd" clip-rule="evenodd" d="M404.366 219.239C404.305 219.239 404.243 219.223 404.187 219.19L394.909 213.679C394.744 213.581 394.689 213.367 394.788 213.202C394.887 213.036 395.101 212.982 395.267 213.08L404.545 218.591C404.71 218.689 404.765 218.903 404.666 219.069C404.601 219.178 404.485 219.239 404.366 219.239Z" fill="#21211D"/>
<path fill-rule="evenodd" clip-rule="evenodd" d="M384.328 222.997C384.169 222.997 384.025 222.888 383.988 222.727C383.944 222.539 384.061 222.352 384.249 222.308L393.822 220.086C394.01 220.043 394.198 220.159 394.242 220.347C394.285 220.535 394.168 220.722 393.981 220.766L384.407 222.988C384.38 222.994 384.354 222.997 384.328 222.997Z" fill="#21211D"/>
<path fill-rule="evenodd" clip-rule="evenodd" d="M395.973 231.483C395.909 231.483 395.844 231.465 395.786 231.428L392.283 229.201C392.121 229.098 392.073 228.882 392.176 228.72C392.28 228.557 392.496 228.509 392.659 228.613L396.161 230.84C396.324 230.943 396.372 231.159 396.268 231.321C396.201 231.426 396.089 231.483 395.973 231.483Z" fill="#21211D"/>
<mask id="mask6_627_685" style="mask-type:alpha" maskUnits="userSpaceOnUse" x="395" y="244" width="57" height="56">
<path fill-rule="evenodd" clip-rule="evenodd" d="M395.974 244.825L403.355 286.527C404.711 294.186 411.38 299.77 419.174 299.77H427.827C435.62 299.77 442.289 294.186 443.645 286.527L451.026 244.825" fill="white"/>
</mask>
<g mask="url(#mask6_627_685)">
<path fill-rule="evenodd" clip-rule="evenodd" d="M409.258 312.773C408.54 312.773 407.814 312.622 407.094 312.271C405.132 311.315 403.908 308.858 404.116 306.297C404.307 303.953 405.499 301.829 406.64 300.061C412.406 291.127 420.954 284.393 429.222 277.881C437.043 271.72 445.131 265.35 450.815 257.142C451.447 256.23 452.079 255.247 452.266 254.153C452.425 253.217 452.187 252.018 451.295 251.448C450.562 250.978 449.559 251.043 448.586 251.184C443.065 251.979 437.462 254.2 431.933 257.784C427.369 260.743 422.786 264.641 417.921 269.7C415.32 272.405 412.773 275.266 410.309 278.033C404.729 284.301 398.959 290.782 392.144 295.923C389.592 297.849 387.336 298.301 385.79 297.195C383.673 295.68 384.321 292.533 385.633 290.092C390.895 280.307 399.312 272.706 407.452 265.356C413.506 259.89 419.766 254.237 424.713 247.711C425.611 246.525 426.515 245.244 426.823 243.773C427.082 242.536 426.81 240.831 425.601 240.011C424.028 238.944 421.764 239.826 420.197 240.582C404.335 248.24 391.256 260.405 378.608 272.17C378.439 272.327 378.174 272.318 378.017 272.149C377.859 271.981 377.868 271.717 378.037 271.559C390.731 259.752 403.857 247.544 419.833 239.831C421.586 238.985 424.14 238.011 426.071 239.32C427.607 240.362 427.966 242.393 427.641 243.944C427.298 245.584 426.294 247.008 425.379 248.214C420.386 254.803 414.096 260.483 408.013 265.975C399.926 273.278 391.564 280.829 386.37 290.486C385.278 292.517 384.598 295.316 386.278 296.517C387.927 297.697 390.346 296.234 391.64 295.258C398.389 290.166 404.131 283.716 409.684 277.479C412.153 274.706 414.706 271.838 417.318 269.122C422.228 264.016 426.859 260.079 431.477 257.084C437.109 253.433 442.824 251.17 448.466 250.358C449.6 250.194 450.782 250.128 451.747 250.745C452.96 251.521 453.295 253.086 453.09 254.292C452.875 255.555 452.158 256.67 451.503 257.617C445.747 265.928 437.61 272.337 429.74 278.536C421.526 285.006 413.033 291.696 407.343 300.513C406.258 302.194 405.125 304.204 404.95 306.365C404.801 308.186 405.524 310.577 407.461 311.521C408.543 312.048 411.526 312.767 415.849 308.058C419.968 303.572 423.518 298.474 426.952 293.544C429.857 289.373 432.861 285.06 436.206 281.116C441.308 275.102 451.825 265.033 465.03 265.033C465.067 265.033 465.104 265.033 465.141 265.033C465.268 265.034 465.388 265.092 465.467 265.191C465.545 265.29 465.575 265.42 465.547 265.543C464.179 271.522 459.841 276.138 455.646 280.602C454.78 281.522 453.886 282.474 453.04 283.416C447.894 289.144 443.673 295.603 440.495 302.612C439.432 304.956 439.322 306.609 440.159 307.668C441.634 309.535 444.89 308.293 446.221 307.673C453.579 304.242 460.287 299.663 466.159 294.063C466.326 293.904 466.591 293.91 466.75 294.077C466.91 294.244 466.904 294.508 466.737 294.667C460.799 300.33 454.016 304.96 446.575 308.429C445.063 309.133 441.348 310.521 439.502 308.185C439.117 307.697 437.944 306.213 439.733 302.268C442.946 295.181 447.214 288.65 452.418 282.858C453.269 281.91 454.168 280.955 455.036 280.031C459.032 275.779 463.16 271.387 464.606 265.871C451.935 266.084 441.797 275.816 436.844 281.655C433.525 285.569 430.532 289.865 427.638 294.021C424.189 298.973 420.623 304.094 416.466 308.622C414.906 310.32 412.152 312.772 409.258 312.773Z" fill="#EDC829"/>
</g>
<path fill-rule="evenodd" clip-rule="evenodd" d="M124.906 251.781H76.23V215.047H119.775L122.23 225.519L124.906 251.781Z" fill="#72222B"/>
<path fill-rule="evenodd" clip-rule="evenodd" d="M267.655 299.756L65.8389 295.396V250.303L267.655 244.505V299.756Z" fill="#72222B"/>
<path opacity="0.2" fill-rule="evenodd" clip-rule="evenodd" d="M267.655 299.756L65.8389 295.396V250.303L267.655 244.505V299.756Z" fill="#343434"/>
<path fill-rule="evenodd" clip-rule="evenodd" d="M193.287 274.885H107.97C107.771 274.885 107.609 274.724 107.609 274.525C107.609 274.326 107.771 274.164 107.97 274.164H193.287C193.486 274.164 193.647 274.326 193.647 274.525C193.647 274.724 193.486 274.885 193.287 274.885Z" fill="#21211D"/>
<path fill-rule="evenodd" clip-rule="evenodd" d="M276.389 272.234C276.389 286.843 272.785 298.832 268.224 299.757C268.035 299.798 267.845 299.818 267.655 299.818C267.465 299.818 267.275 299.798 267.085 299.757C262.745 298.876 259.271 287.955 258.952 274.295C258.931 273.614 258.925 272.929 258.925 272.234C258.925 257.021 262.8 244.564 267.621 244.564C272.151 244.564 275.907 255.556 276.348 269.501C276.375 270.4 276.389 271.312 276.389 272.234Z" fill="#21211D"/>
<path fill-rule="evenodd" clip-rule="evenodd" d="M306.315 239.32V299.757H267.085C262.745 298.876 259.27 287.955 258.951 274.295C263.128 273.624 268.858 273.285 276.347 269.501C276.778 269.284 277.215 269.054 277.656 268.813C281.711 266.602 285.217 263.222 287.831 259.038C288.532 257.913 289.225 256.852 289.906 255.848C295.17 248.057 299.634 243.826 302.57 241.605C304.943 239.808 306.315 239.32 306.315 239.32Z" fill="#EDE8D6"/>
<path fill-rule="evenodd" clip-rule="evenodd" d="M306.315 239.32V299.757H302.569V241.605C304.943 239.808 306.315 239.32 306.315 239.32Z" fill="#98B1E7"/>
<path fill-rule="evenodd" clip-rule="evenodd" d="M279.78 274.308C279.64 274.308 279.508 274.22 279.46 274.079L277.539 268.509C277.478 268.332 277.571 268.139 277.748 268.078C277.926 268.017 278.119 268.111 278.18 268.288L280.101 273.858C280.162 274.035 280.068 274.228 279.891 274.289C279.854 274.302 279.817 274.308 279.78 274.308Z" fill="#21211D"/>
<path fill-rule="evenodd" clip-rule="evenodd" d="M284.062 272.373C283.924 272.373 283.794 272.287 283.744 272.15L281.45 265.852C281.386 265.676 281.477 265.481 281.653 265.417C281.827 265.353 282.023 265.444 282.087 265.62L284.381 271.918C284.445 272.094 284.354 272.288 284.179 272.352C284.14 272.366 284.101 272.373 284.062 272.373Z" fill="#21211D"/>
<path fill-rule="evenodd" clip-rule="evenodd" d="M288.027 268.839C287.893 268.839 287.765 268.759 287.712 268.626L285.21 262.354C285.141 262.18 285.225 261.983 285.399 261.913C285.573 261.844 285.77 261.928 285.84 262.102L288.342 268.374C288.413 268.549 288.327 268.746 288.153 268.815C288.113 268.831 288.07 268.839 288.027 268.839Z" fill="#21211D"/>
<path fill-rule="evenodd" clip-rule="evenodd" d="M289.593 299.844C289.585 299.844 289.578 299.844 289.568 299.843C289.381 299.831 289.24 299.669 289.255 299.482C289.986 288.865 302.385 285.741 302.511 285.711C302.693 285.666 302.877 285.778 302.92 285.96C302.965 286.142 302.852 286.325 302.67 286.37C302.549 286.399 290.63 289.411 289.931 299.528C289.918 299.708 289.77 299.844 289.593 299.844Z" fill="#21211D"/>
<path fill-rule="evenodd" clip-rule="evenodd" d="M302.304 277.462C300.44 277.462 298.639 276.697 297.346 275.352C296.021 273.976 295.325 272.095 295.434 270.189L295.969 260.869C296.057 259.315 295.267 257.881 293.905 257.126C292.546 256.373 290.914 256.462 289.646 257.358C289.598 257.393 289.547 257.428 289.499 257.464C289.348 257.575 289.136 257.542 289.025 257.391C288.914 257.24 288.947 257.028 289.098 256.917C289.151 256.879 289.204 256.841 289.255 256.804C290.738 255.756 292.644 255.653 294.233 256.533C295.825 257.416 296.748 259.092 296.644 260.908L296.112 270.227C296.011 271.971 296.624 273.623 297.835 274.882C299.045 276.14 300.685 276.816 302.417 276.783C302.597 276.778 302.76 276.928 302.763 277.115C302.768 277.303 302.619 277.457 302.433 277.461C302.39 277.462 302.347 277.462 302.304 277.462Z" fill="#21211D"/>
<path fill-rule="evenodd" clip-rule="evenodd" d="M272.328 242.308C272.205 242.308 272.08 242.316 271.951 242.334C271.185 242.437 270.649 242.808 270.313 243.467C269.222 245.605 270.247 250.625 273.276 257.983C274.922 261.981 276.757 265.673 277.688 267.489C277.765 265.532 277.864 261.659 277.663 257.546C277.29 249.877 276.066 244.869 274.123 243.064C273.577 242.557 272.987 242.308 272.328 242.308ZM277.985 269.198C277.855 269.198 277.732 269.127 277.668 269.008C277.641 268.958 274.937 263.909 272.61 258.257C269.454 250.591 268.465 245.505 269.671 243.14C270.116 242.267 270.851 241.755 271.855 241.62C272.882 241.481 273.81 241.789 274.613 242.536C279.606 247.175 278.398 267.976 278.345 268.86C278.335 269.02 278.22 269.155 278.062 269.189C278.037 269.195 278.011 269.198 277.985 269.198Z" fill="#21211D"/>
<path fill-rule="evenodd" clip-rule="evenodd" d="M283.303 246.951C282.791 246.951 282.323 247.117 281.887 247.448C280.114 248.799 278.929 252.875 278.459 259.236C278.206 262.67 278.229 265.925 278.265 267.56C280.436 264.339 287.467 253.385 285.957 248.818C285.672 247.956 285.096 247.395 284.199 247.104C283.886 247.002 283.587 246.951 283.303 246.951ZM277.939 269.033C277.905 269.033 277.871 269.028 277.837 269.018C277.69 268.975 277.586 268.843 277.579 268.689C277.545 267.944 276.809 250.411 281.45 246.875C282.318 246.214 283.317 246.061 284.422 246.419C285.535 246.781 286.282 247.512 286.64 248.592C288.527 254.293 278.654 268.288 278.232 268.881C278.164 268.978 278.054 269.033 277.939 269.033Z" fill="#21211D"/>
<path fill-rule="evenodd" clip-rule="evenodd" d="M251.948 253.259L227.265 302.689L156.298 259.935C154.023 258.566 151.201 258.47 148.838 259.68L87.8489 290.957C76.2221 297.118 62.5625 296.778 51.246 290.029C39.8462 283.227 33.0391 271.242 33.0391 257.965V256.195V212.807L85.2008 215.047L80.6232 243.985L115.511 226.094L130.876 218.215C144.679 211.138 160.977 210.833 175.035 217.39L251.948 253.259Z" fill="#72222B"/>
<path fill-rule="evenodd" clip-rule="evenodd" d="M254.194 259.883C254.123 261.893 253.757 264.256 253.12 266.857C252.014 271.366 250.078 276.591 247.414 281.924C246.495 283.768 245.532 285.528 244.549 287.196C243.165 289.532 241.738 291.681 240.314 293.59C235.235 300.378 230.177 304.144 227.264 302.69C224.03 301.073 224.369 293.458 227.614 284.009C228.315 281.958 229.16 279.818 230.133 277.638C230.648 276.472 231.204 275.299 231.794 274.115C234.303 269.098 237.113 264.65 239.88 261.144C241.467 259.133 243.04 257.431 244.532 256.113C247.495 253.485 250.136 252.352 251.947 253.258C253.594 254.082 254.313 256.479 254.194 259.883Z" fill="#21211D"/>
<path fill-rule="evenodd" clip-rule="evenodd" d="M301.553 252.6L267.879 302.788L264.766 300.707L245.641 287.918L244.549 287.196L230.133 277.638C230.649 276.472 231.205 275.299 231.795 274.116C234.303 269.098 237.114 264.65 239.881 261.144C241.468 259.134 243.041 257.431 244.532 256.113C247.068 257.337 250.123 258.811 254.195 259.883C255.049 260.11 255.951 260.317 256.904 260.5C257.836 260.679 258.819 260.839 259.853 260.968C260.331 261.029 260.823 261.076 261.322 261.123C265.922 261.547 270.716 260.693 275.219 258.676C276.429 258.133 277.592 257.638 278.718 257.184C287.432 253.644 293.492 252.617 297.172 252.41C300.138 252.241 301.553 252.6 301.553 252.6Z" fill="#EDE8D6"/>
<path fill-rule="evenodd" clip-rule="evenodd" d="M252.466 236.027C252.22 236.027 251.969 236.065 251.713 236.141C250.972 236.363 250.5 236.812 250.27 237.516C249.525 239.797 251.317 244.597 255.452 251.395C257.699 255.089 260.085 258.451 261.288 260.1C261.06 258.155 260.556 254.314 259.719 250.282C258.159 242.764 256.171 238.007 253.971 236.525C253.477 236.192 252.979 236.027 252.466 236.027ZM261.791 261.747C261.68 261.747 261.573 261.696 261.504 261.604C261.469 261.559 258.014 256.991 254.837 251.769C250.528 244.686 248.761 239.815 249.586 237.292C249.89 236.36 250.537 235.741 251.507 235.451C252.5 235.155 253.464 235.315 254.374 235.928C260.027 239.735 262.065 260.471 262.149 261.352C262.164 261.513 262.072 261.663 261.922 261.722C261.879 261.739 261.835 261.747 261.791 261.747Z" fill="#21211D"/>
<path fill-rule="evenodd" clip-rule="evenodd" d="M264.043 238.91C263.364 238.91 262.797 239.154 262.321 239.651C260.78 241.261 260.242 245.471 260.766 251.827C261.05 255.259 261.578 258.472 261.868 260.081C263.512 256.562 268.757 244.648 266.554 240.372C266.139 239.564 265.483 239.1 264.552 238.952C264.375 238.924 264.206 238.91 264.043 238.91ZM261.718 261.591C261.703 261.591 261.687 261.59 261.672 261.588C261.519 261.568 261.396 261.453 261.365 261.303C261.217 260.572 257.765 243.367 261.801 239.153C262.556 238.365 263.519 238.058 264.665 238.24C265.823 238.425 266.674 239.031 267.195 240.042C269.944 245.381 262.365 260.74 262.041 261.391C261.979 261.515 261.854 261.591 261.718 261.591Z" fill="#21211D"/>
<path fill-rule="evenodd" clip-rule="evenodd" d="M301.553 252.6L267.878 302.788L264.766 300.707L297.172 252.41C300.138 252.241 301.553 252.6 301.553 252.6Z" fill="#98B1E7"/>
<path fill-rule="evenodd" clip-rule="evenodd" d="M260.214 266.928C260.186 266.928 260.157 266.924 260.127 266.917C259.947 266.869 259.839 266.683 259.886 266.502L261.395 260.806C261.443 260.625 261.629 260.517 261.809 260.565C261.99 260.613 262.098 260.799 262.05 260.98L260.542 266.676C260.502 266.828 260.364 266.928 260.214 266.928Z" fill="#21211D"/>
<path fill-rule="evenodd" clip-rule="evenodd" d="M264.848 267.707C264.821 267.707 264.794 267.704 264.767 267.697C264.584 267.652 264.474 267.468 264.518 267.286L266.123 260.779C266.167 260.597 266.351 260.486 266.533 260.531C266.715 260.575 266.826 260.759 266.781 260.941L265.177 267.449C265.139 267.603 265 267.707 264.848 267.707Z" fill="#21211D"/>
<path fill-rule="evenodd" clip-rule="evenodd" d="M270.109 266.982C270.085 266.982 270.062 266.979 270.037 266.974C269.854 266.935 269.738 266.754 269.777 266.571L271.194 259.968C271.233 259.786 271.41 259.669 271.596 259.708C271.779 259.747 271.896 259.928 271.857 260.111L270.44 266.714C270.406 266.873 270.265 266.982 270.109 266.982Z" fill="#21211D"/>
<path fill-rule="evenodd" clip-rule="evenodd" d="M254.206 293.985C254.136 293.985 254.065 293.964 254.004 293.919C253.854 293.807 253.822 293.595 253.934 293.444C260.272 284.895 272.4 288.945 272.522 288.987C272.699 289.048 272.793 289.24 272.732 289.417C272.671 289.595 272.478 289.689 272.301 289.628C272.184 289.588 260.519 285.701 254.479 293.848C254.412 293.938 254.31 293.985 254.206 293.985Z" fill="#21211D"/>
<path fill-rule="evenodd" clip-rule="evenodd" d="M277.336 282.209C277.275 282.209 277.214 282.192 277.159 282.158C275.532 281.16 274.385 279.514 274.011 277.642C273.637 275.77 274.064 273.809 275.183 272.262L280.654 264.699C281.566 263.438 281.673 261.804 280.933 260.434C280.194 259.067 278.765 258.262 277.221 258.335C277.16 258.338 277.1 258.341 277.038 258.345C276.853 258.355 276.69 258.214 276.679 258.027C276.668 257.84 276.81 257.68 276.997 257.668C277.062 257.664 277.126 257.661 277.189 257.658C279.002 257.572 280.666 258.514 281.53 260.112C282.394 261.713 282.269 263.622 281.203 265.096L275.732 272.66C274.709 274.075 274.334 275.797 274.676 277.509C275.018 279.221 276.025 280.667 277.513 281.581C277.673 281.678 277.723 281.887 277.625 282.047C277.561 282.151 277.449 282.209 277.336 282.209Z" fill="#21211D"/>
<path fill-rule="evenodd" clip-rule="evenodd" d="M231.793 274.476C231.733 274.476 231.672 274.461 231.615 274.429L167.253 237.775C160.381 233.861 152.213 233.265 144.845 236.141L72.6744 265.259C67.9243 267.176 62.7227 266.382 58.761 263.135C54.7992 259.888 52.9989 254.944 53.9455 249.91L59.3419 221.203C59.3787 221.007 59.5664 220.878 59.7623 220.915C59.958 220.952 60.0867 221.14 60.0501 221.336L54.6534 250.043C53.7563 254.814 55.4627 259.5 59.2175 262.577C62.9724 265.655 67.9026 266.408 72.4048 264.591L144.579 235.471C152.154 232.515 160.547 233.127 167.61 237.149L231.972 273.803C232.145 273.901 232.205 274.121 232.106 274.294C232.04 274.411 231.918 274.476 231.793 274.476Z" fill="#21211D"/>
<path fill-rule="evenodd" clip-rule="evenodd" d="M84.4029 238.297C84.2576 238.297 84.1209 238.209 84.0662 238.065C83.9953 237.88 84.0886 237.671 84.2745 237.6L117.49 224.955C117.677 224.884 117.885 224.977 117.955 225.163C118.026 225.349 117.933 225.557 117.747 225.628L84.531 238.274C84.4886 238.29 84.4453 238.297 84.4029 238.297Z" fill="#21211D"/>
<path fill-rule="evenodd" clip-rule="evenodd" d="M77.0341 181.051C83.5715 179.561 90.0629 177.883 96.5416 176.148L106.252 173.507L106.858 173.342L107.01 173.3C106.894 173.33 106.746 173.364 106.615 173.39C106.351 173.446 106.05 173.477 105.812 173.507C104.836 173.603 103.827 173.557 102.864 173.341C100.934 172.909 99.1913 171.899 97.8753 170.419C97.2127 169.685 96.6596 168.835 96.2559 167.923C96.1512 167.699 96.0581 167.468 95.9782 167.234C95.9002 167.01 95.8407 166.848 95.7863 166.647L95.7479 166.502L95.73 166.429C95.7282 166.421 95.7222 166.397 95.7237 166.402L95.7295 166.421L95.7767 166.576L95.8702 166.885L96.6208 169.356L99.6269 179.241L102.677 189.111L106.391 205.089L109.5 214.939C111.555 221.448 118.387 225.023 124.76 222.925C130.833 220.924 134.297 214.493 132.832 208.26L132.82 208.212L129.799 192.114L127.382 182.143L124.949 172.18L122.47 162.231L121.85 159.744L121.772 159.433L121.734 159.278L121.585 158.744C121.465 158.339 121.355 157.968 121.199 157.545C121.038 157.112 120.863 156.683 120.676 156.261C119.909 154.575 118.883 153.006 117.653 151.638C115.186 148.912 111.921 146.994 108.337 146.234C106.552 145.852 104.693 145.744 102.882 145.943C102.433 145.985 101.928 146.071 101.456 146.158C101.221 146.202 100.969 146.254 100.75 146.304L100.596 146.34L99.9784 146.483L90.1 148.791C83.5201 150.355 76.9526 151.976 70.4315 153.784C63.1008 155.817 58.7719 163.535 60.7624 171.022C62.6948 178.292 69.8741 182.671 76.999 181.059L77.0341 181.051Z" fill="#24B9CD"/>
<path fill-rule="evenodd" clip-rule="evenodd" d="M27.7437 224.03L45.3042 166.838C46.6043 155.912 55.8341 149.251 66.6407 149.645L86.1942 151.143C95.4913 151.482 103.573 156.194 105.795 165.389L110.972 224.03H27.7437Z" fill="#24B9CD"/>
<mask id="mask7_627_685" style="mask-type:alpha" maskUnits="userSpaceOnUse" x="1" y="144" width="87" height="82">
<path fill-rule="evenodd" clip-rule="evenodd" d="M1.4502 144.072H87.3934V225.691H1.4502V144.072Z" fill="white"/>
</mask>
<g mask="url(#mask7_627_685)">
<path fill-rule="evenodd" clip-rule="evenodd" d="M76.8915 151.548C73.8761 150.796 70.8511 150.087 67.8294 149.364L58.7496 147.259L49.658 145.208L47.3831 144.704L46.8144 144.578L46.5302 144.516L45.9688 144.401L45.3445 144.29C43.6742 144.028 41.9415 143.994 40.2492 144.231C36.8567 144.685 33.6514 146.146 31.0635 148.378C29.7714 149.498 28.6315 150.808 27.6897 152.258C26.755 153.714 26.0322 155.3 25.5361 156.933L26.322 154.909L20.3111 168.236C18.3098 172.679 16.2949 177.115 14.3199 181.572L8.37107 194.929C6.41091 199.393 4.42981 203.846 2.48958 208.32C-0.221661 214.571 2.55414 221.877 8.68986 224.64C14.5237 227.266 21.3162 224.796 24.2985 219.177C26.5704 214.869 28.8014 210.54 31.0534 206.221L37.7415 193.232C39.9788 188.906 42.1763 184.561 44.3874 180.222L51.0132 167.202L51.799 165.178C51.5451 166.06 51.1506 166.924 50.6366 167.715C50.1322 168.511 49.5113 169.227 48.8074 169.831C47.4114 171.051 45.6754 171.836 43.825 172.093C42.9011 172.212 41.9528 172.213 41.0479 172.067C40.9349 172.05 40.8222 172.03 40.7102 172.008L40.435 171.946L40.7183 172.014L41.285 172.15L43.5508 172.694L52.6233 174.832L61.7073 176.916C64.7406 177.589 67.7699 178.277 70.8092 178.921C78.258 180.501 85.5528 175.629 87.1029 168.04C88.6182 160.62 84.0557 153.344 76.8915 151.548Z" fill="#24B9CD"/>
</g>
<path fill-rule="evenodd" clip-rule="evenodd" d="M26.296 155.031C24.126 159.382 22.016 163.763 19.9245 168.153L16.8097 174.75L13.7305 181.364C11.682 185.776 9.62755 190.185 7.6114 194.612C5.57507 199.03 3.58213 203.469 1.58313 207.905L1.1695 208.824C-1.7831 215.376 1.04769 223.122 7.49236 226.124C10.4503 227.502 13.6768 227.634 16.5648 226.748L81.9117 206.59C87.0227 205.014 89.9087 199.523 88.3581 194.326C86.9089 189.469 82.0514 186.598 77.2554 187.529L10.2263 200.801L25.208 219.643C27.4216 215.314 29.6423 210.988 31.8186 206.639C34.0151 202.301 36.1737 197.944 38.3382 193.59L41.5783 187.056L44.7831 180.504C46.9042 176.129 49.0073 171.744 51.05 167.33C54.2896 160.329 51.3342 151.985 44.4492 148.691C37.6943 145.46 29.6562 148.312 26.296 155.031Z" fill="#24B9CD"/>
<path fill-rule="evenodd" clip-rule="evenodd" d="M35.9671 201.836C35.9136 201.836 35.8597 201.823 35.8087 201.797C35.7835 201.783 33.2163 200.453 28.5131 199.049C24.1731 197.754 17.0744 196.13 7.90314 195.75C7.7097 195.742 7.55888 195.573 7.5667 195.373C7.57452 195.174 7.7382 195.017 7.93114 195.026C17.1852 195.411 24.3506 197.052 28.732 198.361C33.4909 199.783 36.0208 201.096 36.1262 201.151C36.2988 201.241 36.3676 201.459 36.2801 201.637C36.2183 201.763 36.095 201.836 35.9671 201.836Z" fill="#21211D"/>
<path fill-rule="evenodd" clip-rule="evenodd" d="M73.6537 169.301C70.7614 169.301 68.0034 168.368 65.6781 166.604C62.3537 164.081 60.3353 159.949 60.2793 155.552C60.267 154.596 60.3676 153.591 60.587 152.481L61.3401 148.158C61.3739 147.964 61.5545 147.834 61.7464 147.869C61.9368 147.903 62.0639 148.089 62.0302 148.282L61.2753 152.613C61.0645 153.682 60.9684 154.637 60.98 155.543C61.0337 159.719 62.9462 163.64 66.0968 166.031C68.3003 167.703 70.9134 168.587 73.6537 168.587C76.2176 168.587 78.6913 167.805 80.8076 166.325C84.2104 163.945 86.2676 159.906 86.311 155.521C86.3203 154.571 86.2104 153.571 85.9745 152.464L85.4368 150.091C85.3932 149.899 85.511 149.708 85.6994 149.663C85.8875 149.619 86.0762 149.739 86.1196 149.931L86.6585 152.308C86.9065 153.473 87.0217 154.524 87.0119 155.528C86.966 160.145 84.795 164.402 81.2043 166.913C78.971 168.475 76.3599 169.301 73.6537 169.301Z" fill="#21211D"/>
<path fill-rule="evenodd" clip-rule="evenodd" d="M34.8988 195.783C34.8766 195.783 34.8542 195.78 34.8315 195.776C34.6444 195.737 34.5223 195.549 34.5594 195.356L39.4169 169.842C39.4537 169.648 39.6353 169.521 39.8227 169.56C40.0098 169.598 40.1319 169.786 40.0948 169.98L35.2373 195.494C35.2048 195.665 35.0603 195.783 34.8988 195.783Z" fill="#21211D"/>
<path fill-rule="evenodd" clip-rule="evenodd" d="M112.749 224.03L104.164 170.973C104.136 170.801 104.383 170.748 104.424 170.918L116.772 221.443L112.749 224.03Z" fill="#21211D"/>
<path fill-rule="evenodd" clip-rule="evenodd" d="M17.707 227.233C20.394 226.425 23.077 225.599 25.7582 224.767L33.8037 222.277C39.1641 220.606 44.5288 218.951 49.8789 217.235C55.2308 215.528 60.566 213.753 65.909 212.01L73.9116 209.345L81.9028 206.635C86.9775 204.915 89.7177 199.341 88.0241 194.185C86.4912 189.521 81.8511 186.8 77.2231 187.598L68.9158 189.023L60.62 190.493C55.0974 191.507 49.5674 192.489 44.0537 193.538C38.5379 194.579 33.037 195.68 27.5323 196.766L19.2793 198.411C16.5277 198.957 13.7779 199.51 11.0321 200.08C3.57124 201.627 -1.2419 209.026 0.281435 216.606C1.80452 224.185 9.08804 229.075 16.5486 227.527C16.9337 227.447 17.3368 227.344 17.707 227.233Z" fill="#FFDDBA"/>
<path fill-rule="evenodd" clip-rule="evenodd" d="M68.8997 199.949C72.1338 198.982 75.357 197.971 78.5757 196.938L83.3979 195.362L84.6017 194.961C84.9921 194.832 85.4451 194.678 85.7197 194.594C86.3606 194.391 86.9636 194.245 87.4022 194.174C87.8536 194.103 88.1533 194.089 88.4728 194.134C88.7886 194.18 89.1671 194.321 89.6136 194.606C90.0572 194.892 90.553 195.274 91.0451 195.754L91.202 195.898L91.3288 196.023C91.4128 196.108 91.494 196.198 91.5732 196.292L91.633 196.362L91.663 196.399L91.7102 196.464L91.8973 196.726L92.2726 197.249C94.2744 200.037 96.3104 202.805 98.4706 205.495C99.2948 206.521 100.779 206.672 101.786 205.833C102.617 205.14 102.861 203.987 102.46 203.03C101.117 199.834 99.6494 196.715 98.1478 193.618L97.8661 193.037L97.7253 192.747L97.6898 192.674L97.6371 192.573L97.5276 192.371C97.3775 192.103 97.2161 191.842 97.0441 191.584C96.9579 191.456 96.8691 191.329 96.7775 191.203L96.6376 191.015L96.5175 190.862C95.8996 190.045 95.1818 189.22 94.3003 188.44C93.4199 187.665 92.32 186.921 91.0312 186.42C89.7482 185.912 88.3432 185.7 87.1094 185.695C85.8587 185.687 84.7913 185.842 83.786 186.017C83.235 186.115 82.8745 186.194 82.4473 186.28L81.2004 186.532L76.2195 187.573C72.903 188.284 69.591 189.017 66.2899 189.794C63.5168 190.447 61.7882 193.266 62.4288 196.092C63.0691 198.918 65.8364 200.679 68.6092 200.026C68.7017 200.005 68.8094 199.975 68.8997 199.949Z" fill="#FFDDBA"/>
<path fill-rule="evenodd" clip-rule="evenodd" d="M65.5359 206.738L87.4218 198.045L84.1067 197.561C84.0765 197.531 84.1489 197.573 84.1804 197.588L84.3171 197.664C84.4109 197.718 84.5103 197.78 84.6097 197.843C84.8086 197.968 85.0094 198.108 85.2086 198.25C85.6071 198.538 85.997 198.851 86.3688 199.18C87.1126 199.84 87.79 200.569 88.3527 201.354C88.6377 201.746 88.8949 202.151 89.1156 202.571C89.3413 202.99 89.5373 203.421 89.6906 203.866C90.0165 204.754 90.1711 205.695 90.1953 206.677L90.1991 206.832C90.2314 208.144 91.3015 209.182 92.5895 209.149C93.7048 209.121 94.617 208.299 94.8218 207.227C95.1012 205.763 95.1704 204.21 94.9583 202.695C94.8629 201.935 94.7 201.186 94.4876 200.457C94.2796 199.726 94.0168 199.017 93.7128 198.333C93.1098 196.96 92.3451 195.692 91.4783 194.518C91.0435 193.93 90.5819 193.367 90.0899 192.822C89.8425 192.55 89.59 192.282 89.3214 192.017C89.1875 191.884 89.0513 191.753 88.906 191.619L88.6818 191.416C88.592 191.339 88.5423 191.291 88.3882 191.173L88.3877 191.172C87.4866 190.515 86.3887 190.342 85.3928 190.603L85.0724 190.689L62.3538 196.776C59.6027 197.514 57.9593 200.383 58.6829 203.185C59.4067 205.988 62.2237 207.662 64.9747 206.925C65.1659 206.873 65.3561 206.81 65.5359 206.738Z" fill="#FFDDBA"/>
<path fill-rule="evenodd" clip-rule="evenodd" d="M61.5039 209.061L83.4009 200.337L80.4574 200.081L80.4571 200.081C80.4137 200.055 80.418 200.055 80.4195 200.054C80.4183 200.051 80.4183 200.048 80.4261 200.051C80.4384 200.054 80.4453 200.053 80.4634 200.06C80.4942 200.07 80.5282 200.082 80.5671 200.099C80.6417 200.129 80.7242 200.167 80.8074 200.209C80.9744 200.293 81.1484 200.387 81.3186 200.494C81.6622 200.703 81.9963 200.949 82.3108 201.216C82.9431 201.75 83.4942 202.38 83.9346 203.096C84.3807 203.809 84.7109 204.616 84.9214 205.499C85.126 206.384 85.213 207.344 85.1744 208.344L85.1709 208.432C85.1202 209.75 86.1252 210.861 87.4158 210.913C88.5331 210.958 89.4978 210.194 89.7699 209.133C90.1089 207.816 90.3031 206.409 90.2894 204.954C90.2708 203.502 90.0322 202 89.5411 200.567C89.0574 199.13 88.3358 197.768 87.435 196.551C86.9848 195.941 86.4927 195.364 85.9512 194.822C85.6826 194.55 85.3979 194.289 85.0972 194.031C84.9464 193.902 84.791 193.775 84.6236 193.647C84.5419 193.584 84.4539 193.518 84.3618 193.452L84.2135 193.349L84.1265 193.292C84.0965 193.273 84.0695 193.255 83.9943 193.211L83.9936 193.211C83.152 192.74 82.2069 192.647 81.3459 192.876L81.05 192.955L58.3203 199.064C55.5677 199.804 53.9233 202.683 54.6474 205.495C55.3717 208.307 58.1902 209.987 60.9425 209.247C61.1339 209.196 61.3238 209.132 61.5039 209.061Z" fill="#FFDDBA"/>
<path fill-rule="evenodd" clip-rule="evenodd" d="M57.901 211.493L80.0935 201.764L76.213 200.988C76.2557 201.007 76.3689 201.094 76.4524 201.156L76.728 201.369C76.9132 201.514 77.098 201.665 77.2809 201.819C77.6458 202.126 78.0007 202.444 78.3381 202.767C79.011 203.41 79.6247 204.09 80.0582 204.702C80.2756 205.005 80.4403 205.289 80.5387 205.475C80.6418 205.67 80.6711 205.714 80.7535 205.651C80.7931 205.626 80.8463 205.597 80.8781 205.608C80.9102 205.617 80.9142 205.662 80.8736 205.731C80.7967 205.87 80.5298 206.066 80.1959 206.232L79.9929 206.333C78.836 206.909 78.3581 208.327 78.9258 209.501C79.4085 210.5 80.4938 210.999 81.519 210.771C82.2242 210.615 82.9836 210.394 83.7952 209.889C84.1972 209.635 84.6085 209.307 84.978 208.881C85.3475 208.458 85.6648 207.937 85.8761 207.388C86.09 206.837 86.2002 206.272 86.2381 205.748C86.2761 205.223 86.2474 204.736 86.1876 204.288C86.064 203.391 85.8262 202.638 85.5624 201.951C85.0259 200.58 84.3682 199.447 83.6726 198.373C83.3233 197.838 82.9614 197.323 82.5848 196.821C82.3964 196.569 82.2045 196.321 82.0065 196.073L81.7031 195.701C81.5919 195.57 81.5087 195.466 81.3513 195.297L81.3505 195.297C80.3629 194.339 78.984 194.054 77.7639 194.429L77.4698 194.52L54.3476 201.683C51.6227 202.527 50.088 205.453 50.9201 208.217C51.7524 210.982 54.6361 212.539 57.3612 211.695C57.5453 211.637 57.7282 211.569 57.901 211.493Z" fill="#FFDDBA"/>
<path fill-rule="evenodd" clip-rule="evenodd" d="M95.7398 202.34C95.6089 202.34 95.4828 202.266 95.4222 202.138C95.396 202.083 92.7514 196.595 89.4981 195.209C89.3188 195.132 89.2343 194.923 89.31 194.74C89.3851 194.559 89.5917 194.473 89.7713 194.55C93.2704 196.041 95.9446 201.592 96.0565 201.827C96.1413 202.005 96.0681 202.218 95.8926 202.304C95.8434 202.328 95.7912 202.34 95.7398 202.34Z" fill="#21211D"/>
<path fill-rule="evenodd" clip-rule="evenodd" d="M90.1207 207.132C90.1048 207.132 90.0891 207.131 90.0732 207.129C89.8826 207.102 89.7492 206.923 89.7751 206.728C89.7835 206.665 90.5691 200.391 86.4929 198.999C86.3103 198.936 86.2119 198.735 86.273 198.548C86.3338 198.362 86.5315 198.261 86.7136 198.323C88.642 198.982 89.9012 200.675 90.3557 203.219C90.6907 205.094 90.4745 206.755 90.4652 206.824C90.4412 207.003 90.2919 207.132 90.1207 207.132Z" fill="#21211D"/>
<path fill-rule="evenodd" clip-rule="evenodd" d="M85.1372 208.897C85.0873 208.897 85.0363 208.887 84.9882 208.864C84.8096 208.781 84.7319 208.568 84.8139 208.388C84.8237 208.366 85.8036 206.176 84.917 204.351C84.3692 203.223 83.2154 202.445 81.4875 202.04C81.2961 201.996 81.1768 201.803 81.2212 201.609C81.2658 201.416 81.4573 201.296 81.6487 201.341C83.5977 201.797 84.9135 202.705 85.5589 204.04C86.5927 206.176 85.5072 208.588 85.4603 208.689C85.4 208.82 85.2717 208.897 85.1372 208.897Z" fill="#21211D"/>
<path fill-rule="evenodd" clip-rule="evenodd" d="M78.29 207.636C78.1394 207.636 77.9992 207.543 77.95 207.397C77.8895 207.215 77.9919 207.02 78.1798 206.961L79.6759 206.489L79.037 206.296C78.8486 206.239 78.7437 206.045 78.8025 205.862C78.861 205.68 79.0607 205.577 79.2494 205.635L80.9601 206.151C81.1089 206.196 81.2103 206.329 81.2113 206.48C81.2123 206.631 81.1125 206.765 80.9647 206.811L78.4002 207.619C78.3636 207.631 78.3266 207.636 78.29 207.636Z" fill="#21211D"/>
<path fill-rule="evenodd" clip-rule="evenodd" d="M106.431 224.282H169.478L186.381 175.858H125.533C124.215 175.858 123.038 176.702 122.595 177.966L106.431 224.282Z" fill="#21211D"/>
<path fill-rule="evenodd" clip-rule="evenodd" d="M111.465 224.282H173.413C173.622 224.282 173.809 224.149 173.877 223.949L189.521 179.082C190.071 177.511 188.926 175.858 187.287 175.858H130.2C128.673 175.858 127.312 176.836 126.799 178.299L111 223.611C110.886 223.938 111.124 224.282 111.465 224.282Z" fill="#2E4C9E"/>
<mask id="mask8_627_685" style="mask-type:alpha" maskUnits="userSpaceOnUse" x="110" y="176" width="80" height="49">
<path fill-rule="evenodd" clip-rule="evenodd" d="M187.166 176.053C188.802 176.053 189.947 177.701 189.398 179.268L173.763 223.999C173.693 224.199 173.509 224.332 173.299 224.332H111.388C111.048 224.332 110.81 223.989 110.924 223.663L126.713 178.487C127.226 177.028 128.586 176.053 130.112 176.053H187.166Z" fill="white"/>
</mask>
<g mask="url(#mask8_627_685)">
<path fill-rule="evenodd" clip-rule="evenodd" d="M183.264 166.116L105.562 220.438L125.345 233.501L197.64 186.99L183.264 166.116Z" fill="#4965CC"/>
</g>
<path fill-rule="evenodd" clip-rule="evenodd" d="M150.221 202.088C148.359 202.088 147.061 200.563 147.323 198.683C147.585 196.802 149.306 195.278 151.168 195.278C153.03 195.278 154.328 196.802 154.066 198.683C153.804 200.563 152.083 202.088 150.221 202.088ZM153.847 224.282H76.6714C76.6714 221.775 78.6285 219.742 81.0424 219.742H153.847V224.282Z" fill="#2E4C9E"/>
<path fill-rule="evenodd" clip-rule="evenodd" d="M174.934 219.995H112.332C112.138 219.995 111.98 219.825 111.98 219.617C111.98 219.408 112.138 219.238 112.332 219.238H174.934C175.128 219.238 175.285 219.408 175.285 219.617C175.285 219.825 175.128 219.995 174.934 219.995Z" fill="#21211D"/>
<path fill-rule="evenodd" clip-rule="evenodd" d="M83.6892 150.326L84.1681 154.449C84.2327 155.037 84.2572 155.697 84.2216 156.308C83.8819 162.146 78.928 166.599 73.157 166.256C67.386 165.912 62.9831 160.901 63.3231 155.062L63.713 148.368C63.713 148.368 70.909 150.762 83.6892 150.326Z" fill="#FFDDBA"/>
<path fill-rule="evenodd" clip-rule="evenodd" d="M69.0087 108.13C69.0087 108.815 68.4539 109.37 67.7691 109.37C67.0846 109.37 66.5298 108.815 66.5298 108.13C66.5298 107.446 67.0846 106.891 67.7691 106.891C68.4539 106.891 69.0087 107.446 69.0087 108.13Z" fill="#21211D"/>
<path fill-rule="evenodd" clip-rule="evenodd" d="M92.0192 140.337C89.8381 142.61 86.8568 142.984 83.7062 142.353C75.665 140.741 66.4819 132.578 66.4819 132.578C64.6607 131.15 62.7222 129.193 61.4995 127.034L61.437 126.92C61.1212 126.358 60.8604 125.778 60.6587 125.194C60.6549 125.18 60.6476 125.165 60.6438 125.15C60.5484 124.864 60.4677 124.574 60.4052 124.284C60.1812 123.27 59.9976 122.877 59.7921 122.184C59.6342 121.655 59.4652 120.946 59.2597 119.65C58.6024 115.501 60.3356 111.829 64.0514 109.824C69.0559 107.122 75.5402 106.428 80.8863 108.708C80.9011 108.715 80.9158 108.719 80.9304 108.727C82.2964 109.314 83.5228 110.111 84.628 111.065C85.6817 111.969 86.629 113.019 87.4845 114.157C89.875 117.326 91.5491 121.192 92.8967 124.673C94.8097 129.612 96.0949 136.089 92.0192 140.337Z" fill="#FFDDBA"/>
<path fill-rule="evenodd" clip-rule="evenodd" d="M80.5818 124.263L83.8607 152.154C84.5084 157.662 80.5679 162.652 75.0597 163.3C69.5515 163.947 64.5613 160.007 63.9136 154.499C63.846 153.923 63.8332 153.296 63.8624 152.736L65.5136 124.701C65.7593 120.53 69.3401 117.347 73.5119 117.593C77.2317 117.812 80.1641 120.686 80.5818 124.263Z" fill="#FFDDBA"/>
<path fill-rule="evenodd" clip-rule="evenodd" d="M82.6893 142.047C82.6893 142.047 80.3082 141.65 77.1539 140.029C76.768 139.831 76.3866 140.3 76.6646 140.633L83.2671 147.321L82.6893 142.047Z" fill="#21211D"/>
<path fill-rule="evenodd" clip-rule="evenodd" d="M64.9374 134.171C64.9374 134.171 65.6965 133.719 66.2431 132.917C66.3265 132.795 66.5152 132.83 66.5437 132.975C66.7384 133.965 66.9127 136.584 64.6743 138.741L64.9374 134.171Z" fill="#21211D"/>
<path fill-rule="evenodd" clip-rule="evenodd" d="M80.9304 108.726C80.9158 108.719 80.9012 108.715 80.8863 108.708C75.5402 106.428 69.0559 107.122 64.0511 109.824C60.3353 111.829 58.6024 115.501 59.2597 119.65C59.7333 122.642 60.0123 122.492 60.4052 124.283C60.4675 124.574 60.5485 124.864 60.6438 125.15C60.6476 125.165 60.6549 125.18 60.6587 125.194L65.1086 125.646C65.8247 125.87 66.4196 126.369 66.7684 127.034L67.7011 128.807C68.1379 129.681 69.1697 130.081 70.0839 129.729C70.8368 129.439 71.2993 128.719 71.2993 127.959C71.2993 127.746 71.2625 127.529 71.1891 127.32L67.7939 117.818" fill="#21211D"/>
<path fill-rule="evenodd" clip-rule="evenodd" d="M67.397 129.828C67.2144 132.975 64.5152 135.378 61.3682 135.195C58.2211 135.013 55.8181 132.314 56.0005 129.167C56.183 126.02 58.8822 123.616 62.0292 123.799C65.1763 123.981 67.5793 126.68 67.397 129.828Z" fill="#FFDDBA"/>
<path fill-rule="evenodd" clip-rule="evenodd" d="M63.5988 130.178L59.1171 128.3C58.93 128.222 58.8419 128.007 58.9201 127.819C58.9986 127.633 59.2137 127.544 59.4008 127.623L63.8826 129.5C64.0697 129.579 64.1577 129.794 64.0795 129.981C64.0205 130.121 63.8841 130.206 63.7406 130.206C63.6934 130.206 63.6452 130.197 63.5988 130.178Z" fill="#21211D"/>
<path fill-rule="evenodd" clip-rule="evenodd" d="M60.9552 130.993C60.9116 130.993 60.8674 130.986 60.8243 130.969C60.6346 130.897 60.5398 130.685 60.6122 130.495L61.2561 128.81C61.3282 128.621 61.5408 128.526 61.73 128.598C61.9194 128.671 62.0142 128.883 61.9418 129.072L61.2982 130.757C61.2424 130.903 61.103 130.993 60.9552 130.993Z" fill="#21211D"/>
<path fill-rule="evenodd" clip-rule="evenodd" d="M84.6278 111.065L59.7919 122.183C59.6486 121.702 59.4945 121.075 59.3147 119.995C59.2963 119.885 59.2779 119.771 59.2595 119.65C59.1641 119.04 59.1162 118.42 59.1311 117.803C59.1568 116.162 59.579 114.542 60.4564 113.132C61.8262 110.926 64.0365 109.773 66.2983 108.66C67.2053 108.216 68.1306 107.797 69.0815 107.445C72.7937 106.064 76.7408 105.958 80.2694 107.915C81.8079 108.77 83.2949 109.916 84.6278 111.065Z" fill="#F73132"/>
<mask id="mask9_627_685" style="mask-type:alpha" maskUnits="userSpaceOnUse" x="59" y="105" width="38" height="18">
<path fill-rule="evenodd" clip-rule="evenodd" d="M59.4243 105.744H96.5637V122.551H59.4243V105.744Z" fill="white"/>
</mask>
<g mask="url(#mask9_627_685)">
<path fill-rule="evenodd" clip-rule="evenodd" d="M59.7918 122.551C59.6508 122.551 59.5164 122.469 59.4556 122.332C59.3739 122.146 59.4579 121.929 59.6432 121.848L96.0482 105.776C96.2336 105.694 96.4505 105.778 96.5325 105.963C96.6142 106.149 96.5302 106.366 96.3448 106.448L59.9398 122.519C59.8917 122.541 59.8412 122.551 59.7918 122.551Z" fill="#21211D"/>
</g>
<path fill-rule="evenodd" clip-rule="evenodd" d="M63.5114 117.436C63.5114 117.832 63.2802 118.207 62.8983 118.383L59.3147 119.995C59.2963 119.885 59.2779 119.771 59.2595 119.65C59.1641 119.04 59.1162 118.42 59.1311 117.803L62.039 116.485C62.5899 116.235 63.236 116.507 63.4454 117.072C63.4895 117.193 63.5114 117.315 63.5114 117.436Z" fill="#21211D"/>
<path fill-rule="evenodd" clip-rule="evenodd" d="M95.5575 124.759C95.5575 124.759 93.6817 127.078 90.6312 126.969C89.3384 126.921 87.8337 126.443 86.1787 125.158C86.1787 125.158 87.7908 123.309 90.4741 123.13C91.896 123.031 93.6153 123.396 95.5575 124.759Z" fill="white"/>
<path fill-rule="evenodd" clip-rule="evenodd" d="M95.5573 124.759C95.5573 124.759 93.6814 127.078 90.631 126.969C90.2025 126.452 89.9424 125.805 89.9117 125.083C89.8809 124.362 90.0907 123.682 90.4738 123.13C91.8958 123.031 93.6151 123.396 95.5573 124.759Z" fill="#21211D"/>
<path d="M83.6378 123.39C83.8278 123.338 84.0238 123.44 84.0924 123.621L84.1037 123.656L85.677 129.387C85.9599 130.417 85.2019 131.434 84.1441 131.467L84.0861 131.468L82.7764 131.464C82.5671 131.463 82.3978 131.293 82.3984 131.084C82.399 130.886 82.5509 130.724 82.7441 130.707L82.7786 130.706L84.0883 130.71C84.6589 130.711 85.0781 130.183 84.9572 129.634L84.9459 129.588L83.3726 123.856C83.3172 123.654 83.4359 123.446 83.6378 123.39Z" fill="#21211D"/>
<path d="M87.452 120.214C89.7025 119.333 92.2318 119.338 94.7823 120.821C94.9631 120.926 95.0247 121.158 94.9195 121.339C94.8141 121.52 94.5821 121.581 94.4012 121.476C92.0712 120.122 89.7795 120.117 87.7286 120.92C87.432 121.036 87.1684 121.161 86.9414 121.284L86.8229 121.35C86.7538 121.39 86.7048 121.421 86.6768 121.44C86.5034 121.557 86.2677 121.511 86.1505 121.338C86.0333 121.165 86.0788 120.929 86.2523 120.812L86.3004 120.78C86.3648 120.739 86.4582 120.684 86.5789 120.618C86.8328 120.48 87.125 120.342 87.452 120.214Z" fill="#21211D"/>
<path fill-rule="evenodd" clip-rule="evenodd" d="M82.3608 124.759C82.3608 124.759 80.4849 127.078 77.4344 126.969C76.1416 126.921 74.6369 126.443 72.9819 125.158C72.9819 125.158 74.5938 123.309 77.2773 123.13C78.6992 123.031 80.4185 123.396 82.3608 124.759Z" fill="white"/>
<path fill-rule="evenodd" clip-rule="evenodd" d="M82.3606 124.759C82.3606 124.759 80.4846 127.078 77.4342 126.969C77.0057 126.452 76.7457 125.805 76.7149 125.083C76.6841 124.362 76.894 123.682 77.2771 123.13C78.699 123.031 80.4183 123.396 82.3606 124.759Z" fill="#21211D"/>
<path d="M73.0763 120.821C75.6266 119.338 78.1559 119.333 80.4065 120.214C80.7335 120.342 81.0257 120.48 81.2796 120.618L81.3763 120.672C81.4813 120.731 81.5585 120.779 81.6062 120.812C81.7797 120.929 81.8253 121.164 81.708 121.338C81.5908 121.511 81.3552 121.557 81.1817 121.44L81.1241 121.403C81.0753 121.373 81.006 121.332 80.9171 121.284C80.6901 121.161 80.4265 121.036 80.1299 120.92C78.0789 120.117 75.7872 120.121 73.4574 121.476C73.2764 121.581 73.0443 121.52 72.9391 121.339C72.8339 121.158 72.8953 120.926 73.0763 120.821Z" fill="#21211D"/>
<path d="M80.4006 132.244C80.5864 132.179 80.7891 132.267 80.8704 132.442L80.897 132.508C80.9113 132.542 80.9347 132.592 80.9677 132.653C81.0471 132.8 81.149 132.948 81.2742 133.086C81.6873 133.539 82.247 133.774 83.0117 133.683C83.2196 133.658 83.4082 133.806 83.4329 134.014C83.4577 134.222 83.3093 134.411 83.1014 134.436C82.0814 134.557 81.2848 134.223 80.714 133.597C80.4224 133.277 80.2498 132.957 80.1691 132.728C80.0995 132.53 80.2031 132.314 80.4006 132.244Z" fill="#21211D"/>
<path opacity="0.01" d="M77.7412 131.272C78.9766 130.38 80.4467 130.228 82.0689 130.795C83.7403 131.38 84.8833 131.89 85.4646 133.768C85.5882 134.167 85.3647 134.591 84.9655 134.714C84.5665 134.838 84.1425 134.615 84.019 134.215C83.5746 132.779 82.769 132.643 81.5693 132.224C80.394 131.813 79.4411 131.911 78.6275 132.499C78.2888 132.744 77.8159 132.668 77.5713 132.329C77.3264 131.99 77.4025 131.517 77.7412 131.272Z" fill="#21211D"/>
</svg>
