<svg width="499" height="344" viewBox="0 0 499 344" fill="none" xmlns="http://www.w3.org/2000/svg">
<path fill-rule="evenodd" clip-rule="evenodd" d="M104.036 43.501L22.945 145.407C18.5349 150.949 10.4664 151.867 4.92389 147.457C-0.618795 143.046 -1.53628 134.978 2.87426 129.436L83.9652 27.5295C88.3757 21.987 96.444 21.0693 101.986 25.4794C107.529 29.89 108.447 37.9585 104.036 43.501Z" fill="#EDC829"/>
<path fill-rule="evenodd" clip-rule="evenodd" d="M494.758 141.992C469.039 148.883 442.605 133.621 435.714 107.903C428.823 82.1852 444.084 55.7503 469.802 48.8593L494.758 141.992Z" fill="#F73132"/>
<mask id="mask0_565_5007" style="mask-type:alpha" maskUnits="userSpaceOnUse" x="434" y="48" width="61" height="96">
<path fill-rule="evenodd" clip-rule="evenodd" d="M494.758 141.992L469.802 48.8595C444.084 55.7506 428.823 82.1855 435.714 107.903C442.605 133.621 469.039 148.883 494.758 141.992Z" fill="white"/>
</mask>
<g mask="url(#mask0_565_5007)">
<path fill-rule="evenodd" clip-rule="evenodd" d="M452.412 92.7721C455.35 95.1657 458.394 97.4205 461.542 99.5312C465.069 101.895 471.624 105.33 475.908 101.774C477.226 100.679 478.008 99.0808 478.17 97.1513C478.389 94.5038 477.407 91.5621 475.605 89.4736C472.616 86.0099 467.757 84.1637 463.223 84.7697C458.688 85.3759 454.486 88.4343 452.511 92.561C452.478 92.6311 452.445 92.7014 452.412 92.7721ZM505.96 136.318C505.973 136.365 505.977 136.415 505.977 136.466C505.971 136.753 505.732 136.981 505.444 136.974C497.446 136.778 489.54 135.17 481.944 132.195C474.347 129.221 467.45 125.032 461.447 119.745C456.732 115.594 453.683 111.708 451.848 107.516C449.726 102.667 449.485 97.3569 451.149 93.0841C443.684 86.9184 436.927 79.8575 430.974 71.9935C422.515 60.8144 416.06 48.5082 411.786 35.417C411.7 35.1424 411.848 34.8495 412.12 34.7601C412.394 34.6708 412.688 34.8201 412.777 35.0935C417.013 48.0749 423.415 60.2783 431.805 71.3647C437.646 79.0826 444.269 86.0203 451.583 92.0892C453.707 87.6647 458.22 84.3877 463.086 83.7373C467.958 83.0855 473.182 85.0701 476.395 88.7931C478.373 91.0859 479.45 94.3217 479.207 97.2377C479.023 99.4525 478.112 101.298 476.574 102.576C474.511 104.288 469.74 106.281 460.963 100.396C457.875 98.327 454.886 96.1197 452.001 93.7802C450.566 97.7431 450.842 102.619 452.801 107.098C454.574 111.146 457.539 114.916 462.135 118.963C468.049 124.17 474.84 128.295 482.322 131.226C489.805 134.156 497.594 135.739 505.469 135.932C505.705 135.938 505.902 136.101 505.96 136.318Z" fill="#ED7AD8"/>
</g>
<mask id="mask1_565_5007" style="mask-type:alpha" maskUnits="userSpaceOnUse" x="434" y="48" width="61" height="96">
<path fill-rule="evenodd" clip-rule="evenodd" d="M494.758 141.992L469.802 48.8595C444.084 55.7506 428.823 82.1855 435.714 107.903C442.605 133.621 469.039 148.883 494.758 141.992Z" fill="white"/>
</mask>
<g mask="url(#mask1_565_5007)">
<path fill-rule="evenodd" clip-rule="evenodd" d="M494.393 53.2656C494.43 53.4089 494.39 53.5681 494.276 53.6777C487.756 59.8711 479.392 64.055 470.089 65.7772C460.786 67.4992 451.479 66.5861 443.173 63.1369C442.961 63.0482 442.859 62.8032 442.947 62.5899C443.036 62.3763 443.281 62.2751 443.496 62.3637C451.649 65.7509 460.793 66.6465 469.937 64.9539C479.081 63.2613 487.298 59.1523 493.701 53.0706C493.866 52.9117 494.132 52.9183 494.291 53.0859C494.342 53.1383 494.375 53.2002 494.393 53.2656Z" fill="#ED7AD8"/>
</g>
<mask id="mask2_565_5007" style="mask-type:alpha" maskUnits="userSpaceOnUse" x="434" y="48" width="61" height="96">
<path fill-rule="evenodd" clip-rule="evenodd" d="M494.758 141.992L469.802 48.8595C444.084 55.7506 428.823 82.1855 435.714 107.903C442.605 133.621 469.039 148.883 494.758 141.992Z" fill="white"/>
</mask>
<g mask="url(#mask2_565_5007)">
<path fill-rule="evenodd" clip-rule="evenodd" d="M473.485 149.226C473.523 149.37 473.483 149.531 473.366 149.64C473.196 149.798 472.933 149.789 472.773 149.62C452.286 127.645 430.167 106.787 407.026 87.6238C406.85 87.4763 406.825 87.2124 406.971 87.0344C407.119 86.8562 407.382 86.8315 407.561 86.9789C430.728 106.165 452.874 127.048 473.386 149.049C473.434 149.101 473.468 149.162 473.485 149.226Z" fill="#ED7AD8"/>
</g>
<path fill-rule="evenodd" clip-rule="evenodd" d="M109.152 291.031V293.373H16.52V292.884C16.52 289.336 17.9555 286.119 20.2784 283.796C22.6008 281.468 25.808 280.028 29.3515 280.028C33.1335 280.028 36.5313 281.671 38.8798 284.278V280.833C38.8798 275.383 41.0857 270.449 44.6482 266.876C48.2131 263.304 53.137 261.095 58.5762 261.095C67.5541 261.095 75.1249 267.117 77.4978 275.348C80.8146 272.803 84.9566 271.289 89.4538 271.289C100.332 271.289 109.152 280.13 109.152 291.031Z" fill="#B6CCFC"/>
<path fill-rule="evenodd" clip-rule="evenodd" d="M483.219 29.5004V31.3933H408.273V30.9996C408.273 28.1311 409.434 25.5314 411.313 23.6524C413.192 21.771 415.787 20.6084 418.655 20.6084C421.715 20.6084 424.463 21.9355 426.364 24.0424V21.2595C426.364 16.8538 428.148 12.8655 431.031 9.97798C433.914 7.09068 437.898 5.30591 442.299 5.30591C449.564 5.30591 455.688 10.1732 457.607 16.8248C460.291 14.7697 463.642 13.5455 467.281 13.5455C476.082 13.5455 483.219 20.6897 483.219 29.5004Z" fill="#B6CCFC"/>
<path fill-rule="evenodd" clip-rule="evenodd" d="M317.135 63.398C317.135 88.9435 296.427 109.652 270.881 109.652C245.335 109.652 224.626 88.9435 224.626 63.398C224.626 37.8524 245.335 17.1437 270.881 17.1437C296.427 17.1437 317.135 37.8524 317.135 63.398Z" fill="#4965CC"/>
<mask id="mask3_565_5007" style="mask-type:alpha" maskUnits="userSpaceOnUse" x="224" y="17" width="94" height="93">
<path fill-rule="evenodd" clip-rule="evenodd" d="M224.626 63.398C224.626 88.9437 245.335 109.652 270.881 109.652C296.427 109.652 317.135 88.9437 317.135 63.398C317.135 37.8525 296.427 17.1439 270.881 17.1439C245.335 17.1439 224.626 37.8525 224.626 63.398Z" fill="white"/>
</mask>
<g mask="url(#mask3_565_5007)">
<path fill-rule="evenodd" clip-rule="evenodd" d="M250.069 2.42529L240.025 29.5154L244.665 29.8472L243.62 39.5889L251.716 26.7799L252.242 33.9564L252.357 33.7247L255.783 26.7892L271.038 4.1794L250.069 2.42529Z" fill="#FF6D7B"/>
</g>
<mask id="mask4_565_5007" style="mask-type:alpha" maskUnits="userSpaceOnUse" x="224" y="17" width="94" height="93">
<path fill-rule="evenodd" clip-rule="evenodd" d="M224.626 63.398C224.626 88.9437 245.335 109.652 270.881 109.652C296.427 109.652 317.135 88.9437 317.135 63.398C317.135 37.8525 296.427 17.1439 270.881 17.1439C245.335 17.1439 224.626 37.8525 224.626 63.398Z" fill="white"/>
</mask>
<g mask="url(#mask4_565_5007)">
<path fill-rule="evenodd" clip-rule="evenodd" d="M277.668 10.4879L252.405 42.6353L218.848 55.3439L224.545 89.3957L299.504 12.9627L277.668 10.4879Z" fill="#FF6D7B"/>
</g>
<mask id="mask5_565_5007" style="mask-type:alpha" maskUnits="userSpaceOnUse" x="224" y="17" width="94" height="93">
<path fill-rule="evenodd" clip-rule="evenodd" d="M224.626 63.398C224.626 88.9437 245.335 109.652 270.881 109.652C296.427 109.652 317.135 88.9437 317.135 63.398C317.135 37.8525 296.427 17.1439 270.881 17.1439C245.335 17.1439 224.626 37.8525 224.626 63.398Z" fill="white"/>
</mask>
<g mask="url(#mask5_565_5007)">
<path fill-rule="evenodd" clip-rule="evenodd" d="M310.596 22.8704L269.687 36.0874L252.312 57.7455L302.692 37.9679L251.287 112.789L273.644 118.75L321.02 37.2149L310.596 22.8704Z" fill="#FF6D7B"/>
</g>
<mask id="mask6_565_5007" style="mask-type:alpha" maskUnits="userSpaceOnUse" x="224" y="17" width="94" height="93">
<path fill-rule="evenodd" clip-rule="evenodd" d="M224.626 63.398C224.626 88.9437 245.335 109.652 270.881 109.652C296.427 109.652 317.135 88.9437 317.135 63.398C317.135 37.8525 296.427 17.1439 270.881 17.1439C245.335 17.1439 224.626 37.8525 224.626 63.398Z" fill="white"/>
</mask>
<g mask="url(#mask6_565_5007)">
<path fill-rule="evenodd" clip-rule="evenodd" d="M223.196 86.6911L322.762 50.6644L322.377 63.5023L226.287 103.254L223.196 86.6911Z" fill="#FF6D7B"/>
</g>
<mask id="mask7_565_5007" style="mask-type:alpha" maskUnits="userSpaceOnUse" x="224" y="17" width="94" height="93">
<path fill-rule="evenodd" clip-rule="evenodd" d="M224.626 63.398C224.626 88.9437 245.335 109.652 270.881 109.652C296.427 109.652 317.135 88.9437 317.135 63.398C317.135 37.8525 296.427 17.1439 270.881 17.1439C245.335 17.1439 224.626 37.8525 224.626 63.398Z" fill="white"/>
</mask>
<g mask="url(#mask7_565_5007)">
<path fill-rule="evenodd" clip-rule="evenodd" d="M319.901 79.3917L239.136 106.607L260.47 117.872L319.408 107.071L319.901 79.3917Z" fill="#FF6D7B"/>
</g>
<path fill-rule="evenodd" clip-rule="evenodd" d="M297.101 188.802H252.717L230.525 227.241L252.717 265.678H297.101L319.293 227.241L297.101 188.802Z" fill="#EDE761"/>
<path fill-rule="evenodd" clip-rule="evenodd" d="M236.37 217.116V237.364L241.906 246.953V207.527L236.37 217.116Z" fill="#F73132"/>
<path fill-rule="evenodd" clip-rule="evenodd" d="M254.658 265.678H260.194V188.802H254.658V265.678Z" fill="#F73132"/>
<path fill-rule="evenodd" clip-rule="evenodd" d="M272.141 265.678H277.677V188.802H272.141V265.678Z" fill="#F73132"/>
<path fill-rule="evenodd" clip-rule="evenodd" d="M291.284 265.678H296.82V188.802H291.284V265.678Z" fill="#F73132"/>
<path fill-rule="evenodd" clip-rule="evenodd" d="M308.884 245.27L314.42 235.682V218.798L308.884 209.21V245.27Z" fill="#F73132"/>
<path fill-rule="evenodd" clip-rule="evenodd" d="M243.476 249.67L246.67 255.206H303.147L306.344 249.67H243.476Z" fill="#F73132"/>
<path fill-rule="evenodd" clip-rule="evenodd" d="M233.381 232.187L236.578 237.722H313.242L316.437 232.187H233.381Z" fill="#F73132"/>
<path fill-rule="evenodd" clip-rule="evenodd" d="M238.72 213.043L235.526 218.579H314.294L311.098 213.043H238.72Z" fill="#F73132"/>
<path fill-rule="evenodd" clip-rule="evenodd" d="M248.881 195.445L245.687 200.98H304.133L300.937 195.445H248.881Z" fill="#F73132"/>
<path d="M191.836 147.902H126.396V156.082H191.836V147.902Z" fill="#2E4C9E"/>
<path fill-rule="evenodd" clip-rule="evenodd" d="M177.979 224.408C177.975 224.39 177.973 224.37 177.97 224.352C177.973 224.363 177.977 224.372 177.979 224.383C177.981 224.403 177.983 224.414 177.983 224.421C177.981 224.416 177.979 224.41 177.979 224.408ZM218.702 220.43C218.658 219.902 218.615 219.394 218.542 218.804L218.488 218.375L218.421 217.911L218.35 217.443L218.311 217.213L218.28 217.045L218.155 216.369C218.112 216.15 218.067 215.905 218.025 215.719C217.939 215.33 217.851 214.919 217.762 214.546L217.496 213.485L217.231 212.508C216.874 211.256 216.516 210.12 216.159 209.068C215.807 208.012 215.451 207.009 215.095 206.052C214.38 204.129 213.667 202.326 212.948 200.576C212.224 198.831 211.503 197.131 210.775 195.461C209.317 192.122 207.85 188.88 206.366 185.676C204.889 182.472 203.392 179.308 201.898 176.159C198.9 169.859 195.878 163.626 192.815 157.346L191.759 155.198H126.455C126.399 155.717 126.343 156.234 126.282 156.754C126.092 158.422 125.892 160.09 125.671 161.756L125.343 164.253L124.986 166.746C124.021 173.388 122.896 179.986 121.578 186.469C120.261 192.948 118.768 199.341 117.047 205.402C116.185 208.425 115.269 211.371 114.297 214.082C114.222 214.294 114.146 214.506 114.07 214.714C114.068 214.714 114.066 214.712 114.064 214.712C112.788 214.212 111.459 213.669 110.116 213.074C107.422 211.894 104.66 210.549 101.885 209.114C96.3315 206.242 90.7547 202.976 85.2751 199.48C82.5319 197.732 79.8193 195.907 77.1409 194.033L75.143 192.61L73.169 191.161C72.5165 190.675 71.8708 190.18 71.2314 189.689L70.2854 188.947L69.8298 188.575L69.6116 188.394C69.5426 188.337 69.4648 188.273 69.4345 188.237L44.8184 232.27L49.935 234.398L54.8726 236.475L64.6914 240.658L69.616 242.753L74.5686 244.839C77.8817 246.231 81.2253 247.607 84.6271 248.973C88.0332 250.339 91.4976 251.677 95.1133 252.981C96.9255 253.626 98.7678 254.274 100.69 254.888C102.612 255.514 104.604 256.11 106.744 256.68C108.893 257.248 111.168 257.781 113.874 258.214C115.224 258.428 116.708 258.609 118.412 258.711C119.282 258.757 120.185 258.788 121.215 258.771C122.244 258.751 123.362 258.689 124.639 258.532C125.913 258.371 127.373 258.112 129.062 257.617L129.371 257.526L129.708 257.418L130.378 257.193L130.708 257.076L131.159 256.903C131.46 256.786 131.758 256.663 132.056 256.534L132.499 256.338L132.896 256.15C133.157 256.022 133.419 255.889 133.678 255.754L134.064 255.549L134.414 255.352C134.641 255.222 134.868 255.087 135.093 254.95C136.851 253.87 138.144 252.813 139.222 251.839C140.283 250.871 141.099 249.991 141.834 249.15C142.173 248.75 142.529 248.328 142.819 247.954C142.968 247.764 143.127 247.563 143.266 247.38L143.674 246.827C143.814 246.639 143.937 246.467 144.06 246.293L144.428 245.764C144.652 245.431 144.888 245.084 145.097 244.759C145.942 243.453 146.633 242.251 147.253 241.108C148.482 238.824 149.443 236.758 150.318 234.758C151.177 232.765 151.948 230.849 152.661 228.971C154.084 225.216 155.318 221.604 156.48 218.031C158.784 210.893 160.812 203.931 162.776 196.994C163.065 195.965 163.355 194.937 163.642 193.912C164.046 194.628 164.45 195.346 164.849 196.066C166.413 198.868 167.916 201.688 169.368 204.503C170.811 207.322 172.199 210.138 173.476 212.913C174.113 214.301 174.729 215.673 175.297 217.019C175.869 218.362 176.398 219.672 176.85 220.892C177.079 221.506 177.282 222.083 177.463 222.618C177.595 223.013 177.705 223.374 177.791 223.679C177.787 223.74 177.781 223.809 177.772 223.879C177.731 224.244 177.666 224.713 177.582 225.23C177.416 226.27 177.167 227.503 176.867 228.798C176.266 231.401 175.463 234.25 174.566 237.135C172.765 242.929 170.564 248.907 168.178 254.855C166.979 257.829 165.731 260.808 164.43 263.773C163.13 266.741 161.776 269.695 160.387 272.641C158.989 275.582 157.557 278.512 156.063 281.409C155.324 282.861 154.56 284.299 153.791 285.729C153.402 286.44 153.017 287.154 152.622 287.857L152.031 288.902L151.732 289.412C151.635 289.576 151.534 289.755 151.454 289.876L197.299 309.733L198.738 304.562L200.17 299.535C201.127 296.194 202.105 292.868 203.081 289.538L206.023 279.539L208.969 269.483C210.926 262.737 212.855 255.942 214.658 248.803C215.559 245.221 216.421 241.557 217.194 237.586C217.576 235.591 217.937 233.521 218.241 231.233C218.393 230.087 218.529 228.885 218.632 227.574C218.736 226.255 218.814 224.839 218.807 223.177C218.803 222.337 218.775 221.431 218.702 220.43Z" fill="#2E4C9E"/>
<path fill-rule="evenodd" clip-rule="evenodd" d="M197.378 309.585C196.137 312.924 189.544 312.811 180.939 310.454C177.981 309.647 174.785 308.57 171.485 307.279C165.345 304.877 160.159 301.791 156.595 298.732C152.674 295.37 150.71 292.043 151.583 289.692C152.535 287.136 156.636 286.287 162.369 286.963C166.705 287.472 171.975 288.856 177.526 291.028C179.017 291.611 180.452 292.248 181.821 292.927C192.276 298.101 198.854 305.618 197.378 309.585Z" fill="#21211D"/>
<path fill-rule="evenodd" clip-rule="evenodd" d="M71.2041 197.356C71.1866 197.457 71.1662 197.561 71.1486 197.665C70.2399 202.49 67.856 208.492 63.9938 214.445C63.4063 215.349 62.8192 216.235 62.2348 217.098C62.2085 217.136 62.1825 217.175 62.1561 217.214C55.1413 227.538 48.4103 234.526 44.7903 232.09C41.9008 230.147 41.7958 222.741 44.98 214.269C44.9977 214.225 45.0123 214.18 45.0298 214.135C46.1752 211.113 47.738 207.954 49.7452 204.864C53.6077 198.906 57.613 193.994 61.1423 190.934C61.2152 190.868 61.2913 190.803 61.3645 190.741C64.7359 187.864 67.6515 186.713 69.5592 187.998C71.4669 189.28 72.0192 192.763 71.2041 197.356Z" fill="#21211D"/>
<path fill-rule="evenodd" clip-rule="evenodd" d="M192.215 344L145.852 320.148L155.073 301.432L156.404 298.73L158 295.492L162.202 286.961C166.555 287.47 171.846 288.854 177.419 291.026C178.916 291.609 180.357 292.246 181.732 292.924C181.909 293.037 182.081 293.157 182.253 293.279C181.301 297.504 180.459 302.19 180.547 306.585C180.552 306.913 180.564 307.237 180.582 307.561C180.634 308.549 180.722 309.51 180.847 310.45C180.963 311.343 181.112 312.218 181.292 313.078C182 316.476 183.205 319.669 184.903 322.954C187.055 327.117 189.495 331.211 190.741 335.782C191.449 338.382 192.556 341.224 192.215 344Z" fill="white"/>
<path fill-rule="evenodd" clip-rule="evenodd" d="M163.538 193.761L166.803 178.77C166.849 178.559 167.155 178.603 167.142 178.819C166.833 184.035 171.741 202.308 172.823 211.131L163.538 193.761Z" fill="#21211D"/>
<path fill-rule="evenodd" clip-rule="evenodd" d="M114.237 214.734C114.237 214.734 117.948 216.606 122.41 218.401C122.76 218.541 123.029 218.069 122.732 217.836C120.11 215.782 116.051 211.889 116.392 208.036L114.237 214.734Z" fill="#21211D"/>
<path fill-rule="evenodd" clip-rule="evenodd" d="M119.388 215.995C119.35 215.995 119.31 215.987 119.273 215.969C119.127 215.904 119.062 215.728 119.125 215.578C129.096 192.202 133.518 155.386 133.562 155.017C133.581 154.854 133.727 154.739 133.882 154.758C134.039 154.778 134.152 154.926 134.132 155.089C134.089 155.458 129.656 192.36 119.651 215.818C119.604 215.929 119.499 215.995 119.388 215.995Z" fill="#21211D"/>
<path fill-rule="evenodd" clip-rule="evenodd" d="M58.3741 237.661C58.3018 237.661 58.2293 237.634 58.1732 237.579C58.0569 237.465 58.0524 237.278 58.1636 237.159C68.7892 225.824 73.8145 214.972 76.1593 207.864C78.6951 200.177 78.7243 195.118 78.7243 195.068C78.7243 194.904 78.8545 194.771 79.0154 194.771C79.1762 194.771 79.3066 194.904 79.3066 195.068C79.3066 195.119 79.2772 200.275 76.7113 208.053C74.3478 215.218 69.2844 226.154 58.5846 237.569C58.5275 237.63 58.4508 237.661 58.3741 237.661Z" fill="#21211D"/>
<path fill-rule="evenodd" clip-rule="evenodd" d="M201.052 296.689C200.986 296.689 200.92 296.666 200.866 296.62C189.939 287.342 178.535 283.398 170.893 281.723C162.607 279.907 156.832 280.292 156.775 280.296C156.61 280.307 156.475 280.184 156.464 280.02C156.453 279.857 156.574 279.715 156.734 279.704C156.792 279.7 162.632 279.308 170.993 281.138C178.705 282.826 190.212 286.803 201.238 296.164C201.361 296.269 201.378 296.456 201.275 296.582C201.218 296.653 201.135 296.689 201.052 296.689Z" fill="#21211D"/>
<path fill-rule="evenodd" clip-rule="evenodd" d="M196.636 165.589C196.623 165.589 196.608 165.588 196.594 165.585C193.485 165.107 189.321 163.698 187.14 159.701C185.831 157.303 185.865 155.135 185.868 155.044C185.871 154.881 185.992 154.752 186.159 154.756C186.317 154.759 186.441 154.895 186.438 155.058C186.438 155.079 186.408 157.177 187.65 159.436C189.315 162.463 192.352 164.335 196.678 165.001C196.834 165.025 196.941 165.175 196.918 165.336C196.897 165.483 196.775 165.589 196.636 165.589Z" fill="#21211D"/>
<path fill-rule="evenodd" clip-rule="evenodd" d="M132.435 165.81C132.277 165.81 132.148 165.682 132.145 165.522C132.141 165.359 132.268 165.225 132.428 165.221C138.051 165.089 142.167 163.291 144.333 160.022C145.968 157.552 145.935 155.081 145.934 155.057C145.93 154.894 146.058 154.76 146.218 154.756C146.38 154.752 146.51 154.881 146.514 155.043C146.518 155.191 146.568 158.697 143.742 161.703C141.293 164.31 137.491 165.692 132.442 165.81C132.439 165.81 132.437 165.81 132.435 165.81Z" fill="#21211D"/>
<mask id="mask8_565_5007" style="mask-type:alpha" maskUnits="userSpaceOnUse" x="163" y="154" width="6" height="14">
<path fill-rule="evenodd" clip-rule="evenodd" d="M163.359 154.714H168.432V167.86H163.359V154.714Z" fill="white"/>
</mask>
<g mask="url(#mask8_565_5007)">
<path fill-rule="evenodd" clip-rule="evenodd" d="M164.977 167.86H163.657C163.492 167.86 163.359 167.727 163.359 167.563C163.359 167.398 163.492 167.266 163.657 167.266H164.977C166.555 167.266 167.838 165.982 167.838 164.405V155.012C167.838 154.848 167.971 154.714 168.135 154.714C168.299 154.714 168.432 154.848 168.432 155.012V164.405C168.432 166.31 166.883 167.86 164.977 167.86Z" fill="#21211D"/>
</g>
<path fill-rule="evenodd" clip-rule="evenodd" d="M166.038 280.108C165.993 280.108 165.947 280.097 165.905 280.074C165.763 279.999 165.708 279.819 165.782 279.673C165.984 279.275 185.952 239.72 185.952 226.269C185.952 207.419 167.303 179.16 167.115 178.876C167.025 178.741 167.059 178.556 167.19 178.463C167.322 178.371 167.502 178.405 167.592 178.541C167.64 178.612 172.379 185.765 177.055 195.168C184.887 210.917 186.53 220.773 186.53 226.269C186.53 231.984 183.123 242.758 176.404 258.291C171.408 269.841 166.345 279.848 166.295 279.948C166.243 280.05 166.142 280.108 166.038 280.108Z" fill="#21211D"/>
<path fill-rule="evenodd" clip-rule="evenodd" d="M192.215 344L145.852 320.193L147.552 316.75L155.073 301.512L156.404 298.815L158 295.584L180.547 306.656C180.553 306.982 180.565 307.306 180.582 307.63C180.634 308.616 180.722 309.575 180.847 310.514C180.963 311.405 181.112 312.278 181.293 313.136C182 316.528 183.206 319.714 184.903 322.993C187.055 327.148 189.495 331.235 190.742 335.797C191.079 337.033 191.505 338.321 191.825 339.631C192.174 341.078 192.393 342.548 192.215 344Z" fill="#F62A26"/>
<path fill-rule="evenodd" clip-rule="evenodd" d="M192.215 344L145.852 320.242L147.552 316.807L191.825 339.64C192.174 341.084 192.393 342.551 192.215 344Z" fill="#EDE8D6"/>
<path fill-rule="evenodd" clip-rule="evenodd" d="M184.619 320.536C185.932 321.227 188.406 322.488 191.081 323.634C196.207 325.831 199.723 326.619 201.248 325.914C201.671 325.719 201.927 325.411 202.032 324.974C202.175 324.377 202.062 323.855 201.687 323.38C200.547 321.937 197.059 320.992 191.6 320.647C188.765 320.468 186.068 320.498 184.619 320.536ZM199.848 326.756C194.664 326.756 183.879 320.823 183.367 320.54C183.253 320.476 183.193 320.341 183.221 320.209C183.25 320.078 183.359 319.982 183.489 319.976C184.127 319.944 199.158 319.234 202.133 322.999C202.625 323.623 202.78 324.336 202.592 325.119C202.443 325.739 202.07 326.191 201.483 326.462C201.044 326.665 200.488 326.756 199.848 326.756Z" fill="#21211D"/>
<path fill-rule="evenodd" clip-rule="evenodd" d="M184.595 321.145C185.385 322.242 186.833 324.196 188.494 326.158C191.758 330.015 194.342 332.152 195.964 332.337C196.43 332.39 196.803 332.281 197.103 332.001C197.557 331.579 197.734 331.109 197.646 330.564C197.385 328.957 194.892 326.746 190.437 324.172C188.135 322.841 185.85 321.732 184.595 321.145ZM196.183 332.946C196.091 332.946 195.997 332.94 195.9 332.929C191.671 332.447 183.82 321.077 183.488 320.594C183.413 320.485 183.418 320.338 183.499 320.234C183.581 320.13 183.719 320.095 183.838 320.147C184.397 320.392 197.522 326.197 198.217 330.466C198.339 331.217 198.095 331.882 197.491 332.444C197.132 332.778 196.693 332.946 196.183 332.946Z" fill="#21211D"/>
<path fill-rule="evenodd" clip-rule="evenodd" d="M183.588 320.787C183.544 320.787 183.499 320.776 183.458 320.754L179.615 318.711C179.472 318.635 179.415 318.452 179.487 318.302C179.559 318.151 179.733 318.091 179.875 318.166L183.718 320.209C183.861 320.285 183.918 320.469 183.846 320.619C183.795 320.725 183.693 320.787 183.588 320.787Z" fill="#21211D"/>
<path fill-rule="evenodd" clip-rule="evenodd" d="M186.02 325.65C185.976 325.65 185.931 325.64 185.89 325.618L182.047 323.575C181.904 323.499 181.847 323.316 181.919 323.165C181.991 323.015 182.165 322.954 182.307 323.03L186.15 325.073C186.293 325.149 186.35 325.332 186.278 325.483C186.227 325.589 186.126 325.65 186.02 325.65Z" fill="#21211D"/>
<path fill-rule="evenodd" clip-rule="evenodd" d="M188.451 330.293C188.408 330.293 188.363 330.283 188.322 330.26L184.479 328.218C184.336 328.142 184.278 327.958 184.35 327.808C184.422 327.657 184.596 327.597 184.739 327.673L188.582 329.716C188.724 329.791 188.782 329.975 188.71 330.125C188.659 330.232 188.557 330.293 188.451 330.293Z" fill="#21211D"/>
<path fill-rule="evenodd" clip-rule="evenodd" d="M155.569 321.008C155.525 321.008 155.479 320.997 155.437 320.975C155.295 320.9 155.24 320.721 155.313 320.576C156.786 317.66 156.675 314.787 154.985 312.038C153.71 309.962 151.965 308.738 151.947 308.725C151.816 308.634 151.781 308.45 151.871 308.315C151.96 308.18 152.139 308.144 152.271 308.236C152.345 308.287 159.58 313.413 155.826 320.848C155.775 320.949 155.674 321.008 155.569 321.008Z" fill="#21211D"/>
<path fill-rule="evenodd" clip-rule="evenodd" d="M165.085 306.306C165.085 307.954 163.799 309.291 162.211 309.291C160.624 309.291 159.337 307.954 159.337 306.306C159.337 304.658 160.624 303.321 162.211 303.321C163.799 303.321 165.085 304.658 165.085 306.306Z" fill="white"/>
<mask id="mask9_565_5007" style="mask-type:alpha" maskUnits="userSpaceOnUse" x="12" y="177" width="60" height="45">
<path fill-rule="evenodd" clip-rule="evenodd" d="M12.7617 177.526H71.2134V221.984H12.7617V177.526Z" fill="white"/>
</mask>
<g mask="url(#mask9_565_5007)">
<path fill-rule="evenodd" clip-rule="evenodd" d="M71.2134 197.726C70.3094 202.547 67.9381 208.544 64.0962 214.491C63.5119 215.394 62.9278 216.28 62.3466 217.142C62.3205 217.181 62.2944 217.219 62.2683 217.258C58.5077 215.915 54.3866 214.675 50.4169 214.28C50.1001 214.247 49.7833 214.221 49.4665 214.2C48.5017 214.137 47.5601 214.114 46.6329 214.131C46.1622 214.137 45.6944 214.155 45.2324 214.182C44.8284 214.206 44.4303 214.235 44.0321 214.274C40.6522 214.595 37.4148 215.442 34.032 216.776C29.7424 218.471 25.4849 220.465 20.9047 221.193C18.3008 221.606 15.4152 222.393 12.7617 221.725L41.3234 177.526L58.397 189.063L60.8616 190.73L61.2598 191.001L63.8143 192.727L71.2134 197.726Z" fill="white"/>
</g>
<mask id="mask10_565_5007" style="mask-type:alpha" maskUnits="userSpaceOnUse" x="12" y="177" width="52" height="45">
<path fill-rule="evenodd" clip-rule="evenodd" d="M12.7617 177.526H63.8687V221.984H12.7617V177.526Z" fill="white"/>
</mask>
<g mask="url(#mask10_565_5007)">
<path fill-rule="evenodd" clip-rule="evenodd" d="M63.8687 192.727L50.4569 214.28C50.1399 214.247 49.8229 214.22 49.5056 214.2C48.5397 214.137 47.5972 214.113 46.6692 214.131C45.7877 214.143 44.9206 214.194 44.0653 214.274C40.6819 214.595 37.4411 215.442 34.0546 216.776C29.7607 218.471 25.4984 220.465 20.9134 221.193C19.6742 221.389 18.3708 221.668 17.0589 221.838C15.6128 222.025 14.1554 222.075 12.7617 221.725L41.354 177.526L44.5019 179.651L58.4458 189.063L60.9129 190.73L63.8687 192.727Z" fill="#F62A26"/>
</g>
<mask id="mask11_565_5007" style="mask-type:alpha" maskUnits="userSpaceOnUse" x="12" y="177" width="33" height="45">
<path fill-rule="evenodd" clip-rule="evenodd" d="M12.7617 177.526H44.3036V221.984H12.7617V177.526Z" fill="white"/>
</mask>
<g mask="url(#mask11_565_5007)">
<path fill-rule="evenodd" clip-rule="evenodd" d="M44.3036 179.651L17.032 221.838C15.5952 222.025 14.1467 222.076 12.7617 221.725L41.1755 177.526L44.3036 179.651Z" fill="#EDE8D6"/>
</g>
<path fill-rule="evenodd" clip-rule="evenodd" d="M36.6184 216.521C35.7867 217.785 34.2593 220.173 32.8203 222.779C30.0622 227.774 28.8714 231.284 29.377 232.929C29.5169 233.384 29.7864 233.682 30.2007 233.841C30.7664 234.057 31.2889 234.002 31.7982 233.673C33.344 232.672 34.6844 229.208 35.6747 223.654C36.1889 220.771 36.4823 218.009 36.6184 216.521ZM30.8585 234.566C30.5748 234.566 30.2856 234.51 29.992 234.397C29.4049 234.173 29.0087 233.738 28.814 233.105C27.4899 228.797 36.3856 215.79 36.765 215.238C36.8404 215.128 36.9799 215.083 37.1048 215.127C37.23 215.172 37.3102 215.295 37.3011 215.429C37.2558 216.086 36.1484 231.565 32.1162 234.174C31.7127 234.435 31.292 234.566 30.8585 234.566Z" fill="#21211D"/>
<path fill-rule="evenodd" clip-rule="evenodd" d="M35.6766 216.492C34.4669 217.214 32.3591 218.514 30.2446 220.015C26.0328 223.007 23.7069 225.421 23.5187 226.995C23.4637 227.455 23.5989 227.834 23.9322 228.152C24.1847 228.392 24.4953 228.485 24.8813 228.433C26.3866 228.233 28.8374 225.941 31.9689 221.803C33.5335 219.736 34.9073 217.678 35.6766 216.492ZM24.68 229.039C24.2392 229.039 23.8569 228.887 23.5411 228.585C23.0691 228.135 22.8695 227.576 22.9476 226.923C23.4461 222.757 35.903 215.668 36.4329 215.368C36.5481 215.303 36.6916 215.327 36.7814 215.425C36.8711 215.524 36.8846 215.672 36.8143 215.786C36.4933 216.305 28.9123 228.495 24.9551 229.02C24.861 229.032 24.7694 229.039 24.68 229.039Z" fill="#21211D"/>
<path fill-rule="evenodd" clip-rule="evenodd" d="M36.7199 215.774C36.6627 215.774 36.6043 215.758 36.553 215.725C36.4133 215.637 36.375 215.456 36.4672 215.321L38.9561 211.704C39.0485 211.57 39.2365 211.533 39.3762 211.622C39.5159 211.711 39.5542 211.891 39.462 212.026L36.9731 215.643C36.9147 215.728 36.8181 215.774 36.7199 215.774Z" fill="#21211D"/>
<path fill-rule="evenodd" clip-rule="evenodd" d="M31.6354 217.764C31.5781 217.764 31.5198 217.748 31.4685 217.715C31.3289 217.626 31.2905 217.445 31.3827 217.311L33.8716 213.694C33.9638 213.56 34.152 213.523 34.2917 213.611C34.4314 213.7 34.4696 213.881 34.3775 214.015L31.8885 217.633C31.8302 217.718 31.7336 217.764 31.6354 217.764Z" fill="#21211D"/>
<path fill-rule="evenodd" clip-rule="evenodd" d="M26.7715 219.532C26.7143 219.532 26.6561 219.516 26.6047 219.484C26.4651 219.395 26.4268 219.214 26.519 219.08L29.0078 215.462C29.1003 215.328 29.2881 215.291 29.4279 215.38C29.5675 215.469 29.6058 215.65 29.5136 215.784L27.0248 219.401C26.9664 219.486 26.8699 219.532 26.7715 219.532Z" fill="#21211D"/>
<path fill-rule="evenodd" clip-rule="evenodd" d="M44.3648 189.023C42.8332 189.023 41.1576 188.583 39.4181 187.398C39.2864 187.308 39.2519 187.128 39.341 186.996C39.4301 186.863 39.6094 186.828 39.7409 186.918C46.081 191.235 51.5534 184.987 51.6078 184.923C51.7117 184.802 51.8939 184.789 52.0142 184.893C52.1346 184.998 52.1481 185.181 52.044 185.302C52.0009 185.353 48.7853 189.023 44.3648 189.023Z" fill="#21211D"/>
<path fill-rule="evenodd" clip-rule="evenodd" d="M52.6611 198.509C51.0848 198.315 49.958 196.832 50.1441 195.195C50.3303 193.558 51.7589 192.388 53.335 192.581C54.9113 192.775 56.0381 194.258 55.852 195.895C55.666 197.532 54.2374 198.702 52.6611 198.509Z" fill="white"/>
<path fill-rule="evenodd" clip-rule="evenodd" d="M160.29 296.91C160.248 296.91 160.206 296.901 160.165 296.881C160.022 296.811 159.96 296.636 160.029 296.489L164.315 287.35C164.384 287.204 164.556 287.141 164.7 287.211C164.844 287.281 164.905 287.457 164.837 287.603L160.551 296.742C160.501 296.848 160.398 296.91 160.29 296.91Z" fill="#EDC829"/>
<path fill-rule="evenodd" clip-rule="evenodd" d="M163.831 298.679C163.789 298.679 163.747 298.669 163.706 298.65C163.56 298.579 163.497 298.401 163.566 298.251L168.286 288.018C168.355 287.868 168.529 287.804 168.676 287.875C168.822 287.945 168.885 288.124 168.816 288.274L164.097 298.507C164.046 298.615 163.941 298.679 163.831 298.679Z" fill="#EDC829"/>
<path fill-rule="evenodd" clip-rule="evenodd" d="M167.589 300.668C167.546 300.668 167.503 300.659 167.462 300.638C167.316 300.566 167.255 300.387 167.326 300.238L172.488 289.341C172.559 289.192 172.734 289.13 172.879 289.202C173.025 289.275 173.086 289.454 173.015 289.603L167.853 300.499C167.802 300.606 167.698 300.668 167.589 300.668Z" fill="#EDC829"/>
<path fill-rule="evenodd" clip-rule="evenodd" d="M171.57 302.437C171.529 302.437 171.487 302.428 171.447 302.41C171.3 302.341 171.235 302.165 171.303 302.016L176.463 290.672C176.531 290.523 176.705 290.457 176.852 290.526C177 290.594 177.065 290.771 176.997 290.92L171.837 302.264C171.788 302.373 171.681 302.437 171.57 302.437Z" fill="#EDC829"/>
<path fill-rule="evenodd" clip-rule="evenodd" d="M177.424 305.311C177.289 305.311 177.17 305.212 177.143 305.069C177.101 304.849 176.176 299.596 180.245 291.979C180.322 291.834 180.496 291.783 180.635 291.863C180.773 291.944 180.823 292.126 180.746 292.271C176.788 299.68 177.696 304.902 177.706 304.954C177.736 305.117 177.635 305.274 177.479 305.306C177.461 305.309 177.442 305.311 177.424 305.311Z" fill="#EDC829"/>
<path fill-rule="evenodd" clip-rule="evenodd" d="M70.6089 199.856C70.5554 199.856 70.501 199.842 70.4521 199.812L62.4232 194.869C62.2841 194.783 62.2421 194.603 62.3288 194.466C62.4156 194.33 62.5985 194.288 62.7373 194.373L70.7665 199.316C70.9051 199.402 70.9476 199.582 70.8607 199.719C70.8045 199.807 70.7077 199.856 70.6089 199.856Z" fill="#EDC829"/>
<path fill-rule="evenodd" clip-rule="evenodd" d="M69.2889 203.836C69.236 203.836 69.183 203.821 69.135 203.79L60.4302 198.196C60.2944 198.108 60.2531 197.925 60.3382 197.785C60.4233 197.646 60.6024 197.603 60.7384 197.691L69.4432 203.285C69.5789 203.372 69.6202 203.556 69.5351 203.696C69.4801 203.786 69.3855 203.836 69.2889 203.836Z" fill="#EDC829"/>
<path fill-rule="evenodd" clip-rule="evenodd" d="M67.9584 208.036C67.9051 208.036 67.851 208.021 67.8023 207.991L58.2203 201.948C58.083 201.861 58.0419 201.68 58.1281 201.542C58.2143 201.404 58.3956 201.362 58.5331 201.449L68.1151 207.492C68.2526 207.578 68.294 207.76 68.2075 207.898C68.1516 207.987 68.0561 208.036 67.9584 208.036Z" fill="#EDC829"/>
<path fill-rule="evenodd" clip-rule="evenodd" d="M65.5308 211.794C65.4815 211.794 65.4313 211.781 65.3856 211.754L55.5741 205.934C55.4361 205.852 55.389 205.671 55.4695 205.53C55.55 205.389 55.727 205.341 55.8654 205.423L65.677 211.244C65.8149 211.326 65.862 211.507 65.7815 211.648C65.7278 211.742 65.6305 211.794 65.5308 211.794Z" fill="#EDC829"/>
<path fill-rule="evenodd" clip-rule="evenodd" d="M63.5443 215.332C63.488 215.332 63.4312 215.314 63.3812 215.279C59.9136 212.782 57.1872 211.848 55.5108 211.504C53.6997 211.133 52.6929 211.352 52.6831 211.354C52.5284 211.389 52.3761 211.289 52.3418 211.129C52.3078 210.969 52.4041 210.811 52.558 210.775C52.73 210.735 56.8461 209.85 63.7079 214.791C63.8379 214.885 63.8702 215.07 63.7798 215.204C63.7243 215.287 63.635 215.332 63.5443 215.332Z" fill="#EDC829"/>
<mask id="mask12_565_5007" style="mask-type:alpha" maskUnits="userSpaceOnUse" x="77" y="0" width="157" height="74">
<path fill-rule="evenodd" clip-rule="evenodd" d="M77.6743 0H233.613V73.6814H77.6743V0Z" fill="white"/>
</mask>
<g mask="url(#mask12_565_5007)">
<path fill-rule="evenodd" clip-rule="evenodd" d="M213.597 73.0894C213.597 73.0894 212.738 68.5838 210.286 62.2209H233.613C230.59 48.5082 223.508 35.3367 213.196 24.6643C197.825 8.75839 177.042 -0.00012207 154.681 -0.00012207C143.72 -0.00012207 133.045 2.35659 122.949 7.00191C113.727 11.2458 105.403 17.2045 98.2047 24.709C87.8533 35.506 80.7356 48.651 77.6743 62.2209H100.683C98.6324 68.15 97.9787 72.2899 97.9787 72.2899L95.0249 72.0492C94.9384 72.5484 94.9028 72.8159 94.9028 72.8159L109.754 72.4297C109.947 70.9524 110.226 69.4694 110.586 67.9895C110.711 67.4843 110.845 66.982 110.987 66.4767C111.026 66.346 111.061 66.2123 111.103 66.0785C111.127 65.9923 111.154 65.9091 111.177 65.8229C111.537 64.6194 111.953 63.4156 112.426 62.2209C114.77 56.2354 118.429 50.4818 123.125 45.584C131.972 36.3559 143.179 31.2768 154.681 31.2768C160.868 31.2768 166.809 32.4299 172.355 34.7035C172.724 34.8552 173.092 35.0126 173.458 35.1731C179.009 37.622 184.026 41.1409 188.362 45.6284C192.55 49.9647 195.988 55.1507 198.306 60.6309C198.529 61.157 198.743 61.689 198.945 62.2209C199.713 64.2429 200.327 66.2994 200.79 68.3583C203.407 69.3602 205.539 71.2701 206.923 73.6814L216.893 73.1756C216.893 73.1756 216.881 73.0715 216.851 72.8694L213.597 73.0894Z" fill="#2E4C9E"/>
</g>
<path fill-rule="evenodd" clip-rule="evenodd" d="M188.362 45.6284C192.549 49.9644 195.988 55.1505 198.306 60.6309C198.529 61.1568 198.743 61.689 198.945 62.2209C199.959 64.8895 200.705 67.6174 201.182 70.3327C202.698 71.1883 203.999 72.3702 205.022 73.7778L216.893 73.1754C216.893 73.1754 216.881 73.0715 216.851 72.8694L213.597 73.0894C213.597 73.0894 212.738 68.5838 210.286 62.2209H214.319C209.249 46.1961 194.897 18.1942 156.416 17.7337C117.525 17.2701 102.74 46.0891 97.5151 62.2209H100.683C98.6324 68.1498 97.9787 72.2897 97.9787 72.2897L95.0246 72.0492C94.9384 72.5484 94.9028 72.8159 94.9028 72.8159L109.754 72.4295C109.947 70.9524 110.226 69.4694 110.586 67.9895C110.711 67.4841 110.844 66.9818 110.987 66.4767C111.026 66.346 111.061 66.2123 111.103 66.0785C111.127 65.9923 111.154 65.9089 111.177 65.8229C111.204 65.7396 111.231 65.6565 111.257 65.5731C111.311 65.3918 111.367 65.2105 111.427 65.0293C111.489 64.8363 111.552 64.6459 111.617 64.4527C111.867 63.7068 112.14 62.9608 112.434 62.2209C114.782 56.271 118.435 50.5589 123.125 45.67C131.972 36.445 143.179 31.4077 154.681 31.4077C160.868 31.4077 166.809 32.4448 172.355 34.7035C172.724 34.855 173.092 35.0126 173.458 35.1731C179.009 37.622 184.026 41.1407 188.362 45.6284Z" fill="#ECE557"/>
<path fill-rule="evenodd" clip-rule="evenodd" d="M222.977 62.2208H210.286C204.393 46.9153 189.295 20.8541 154.818 20.8541C119.927 20.8541 105.858 47.2482 100.683 62.2208H87.9751C93.3606 45.1944 109.876 10.1401 154.61 10.1401C198.737 10.1401 216.694 44.6448 222.977 62.2208Z" fill="#FF5252"/>
<path fill-rule="evenodd" clip-rule="evenodd" d="M122.647 154.732L123.634 108.344C124.733 99.024 132.599 92.1204 141.735 92.4569L174.368 90.6193C182.228 90.9084 188.947 96.519 190.826 104.362L200.364 154.732H122.647Z" fill="#24B9CD"/>
<path fill-rule="evenodd" clip-rule="evenodd" d="M215.377 89.3533H208.963C208.799 89.3533 208.666 89.2202 208.666 89.0562C208.666 88.8919 208.799 88.759 208.963 88.759H215.377C215.541 88.759 215.674 88.8919 215.674 89.0562C215.674 89.2202 215.541 89.3533 215.377 89.3533Z" fill="#21211D"/>
<mask id="mask13_565_5007" style="mask-type:alpha" maskUnits="userSpaceOnUse" x="76" y="59" width="166" height="76">
<path fill-rule="evenodd" clip-rule="evenodd" d="M76.4146 59.3621H241.442V134.975H76.4146V59.3621Z" fill="white"/>
</mask>
<g mask="url(#mask13_565_5007)">
<path fill-rule="evenodd" clip-rule="evenodd" d="M110.2 72.2548L106.348 87.7947C105.081 92.9785 103.816 98.1483 102.688 103.265C102.403 104.542 102.387 104.711 102.387 104.711C102.387 104.711 105.475 103.101 107.044 102.3C112.031 99.7555 117.175 97.2569 122.546 94.9963C127.921 92.7431 133.516 90.6941 139.46 89.105C142.433 88.3173 145.497 87.6496 148.666 87.1586C151.834 86.6694 155.114 86.3612 158.502 86.3296C165.194 86.2922 171.483 87.2475 177.455 88.6359C183.424 90.0457 189.078 91.9198 194.521 94.009C199.961 96.1048 205.186 98.4476 210.253 100.848C212.785 102.049 213.004 102.744 212.842 102.3C211.213 97.8266 209.416 93.0957 207.653 88.5835C206.669 86.1089 205.706 83.6174 204.706 81.141L201.76 73.7349L201.714 73.6173C199.588 68.2742 202.197 62.2199 207.54 60.0949C212.537 58.1076 218.178 60.3045 220.623 64.962L221.597 66.8339L222.543 68.6828L224.392 72.3896C225.597 74.8732 226.809 77.3548 227.965 79.8683C230.304 84.885 232.536 89.9657 234.669 95.1871C235.728 97.8043 236.758 100.456 237.734 103.209C238.225 104.587 238.701 105.989 239.157 107.448C239.613 108.911 240.054 110.415 240.462 112.084C240.664 112.923 240.856 113.802 241.029 114.79C241.115 115.286 241.196 115.81 241.266 116.388C241.336 116.966 241.397 117.599 241.427 118.346C241.452 119.101 241.463 119.958 241.327 121.164C241.254 121.771 241.147 122.465 240.909 123.353C240.853 123.564 240.779 123.813 240.702 124.048L240.571 124.431C240.527 124.555 240.476 124.692 240.42 124.833C240.363 124.975 240.313 125.101 240.246 125.255C240.181 125.405 240.113 125.553 240.043 125.701C239.89 126.019 239.73 126.327 239.527 126.674C239.132 127.35 238.621 128.091 237.937 128.845C237.26 129.596 236.391 130.36 235.399 130.995C235.154 131.154 234.896 131.305 234.638 131.448C234.345 131.608 234.243 131.654 234.032 131.758C233.669 131.932 233.259 132.108 232.942 132.223C232.773 132.286 232.602 132.346 232.431 132.403C232.26 132.46 232.081 132.516 231.94 132.555C231.64 132.64 231.336 132.716 231.032 132.783C229.917 133.016 229.041 133.076 228.279 133.095H227.759L227.504 133.089L227.277 133.08L226.823 133.054L226.422 133.019C225.371 132.915 224.599 132.76 223.92 132.608C223.246 132.453 222.677 132.294 222.151 132.136C221.103 131.818 220.235 131.504 219.418 131.193C217.798 130.572 216.399 129.962 215.044 129.357C212.351 128.147 209.872 126.956 207.418 125.791C204.972 124.627 202.572 123.49 200.187 122.393C195.421 120.197 190.7 118.17 185.995 116.401C181.295 114.631 176.602 113.138 171.997 112.08C167.403 111.018 162.872 110.403 158.699 110.444C154.615 110.469 150.147 111.197 145.604 112.392C141.051 113.578 136.408 115.219 131.763 117.134C127.112 119.047 122.448 121.218 117.74 123.554C115.383 124.721 113.015 125.928 110.597 127.163C108.172 128.398 105.723 129.658 103.055 130.942C101.709 131.585 100.324 132.233 98.7032 132.9C97.8852 133.234 97.0151 133.573 95.9486 133.92C95.4102 134.093 94.8244 134.269 94.1202 134.441C93.4101 134.61 92.5955 134.787 91.4496 134.902L91.2371 134.922L90.9955 134.939L90.5118 134.965C90.3314 134.972 90.1408 134.975 89.9555 134.975L89.6759 134.974L89.352 134.964C88.5371 134.932 87.4589 134.83 86.1331 134.463C85.7946 134.367 85.4822 134.271 85.0834 134.121C84.8944 134.05 84.7069 133.976 84.5214 133.897C84.3423 133.822 84.1498 133.736 83.9367 133.631C83.7317 133.531 83.5288 133.425 83.3289 133.315C83.1271 133.204 82.9396 133.097 82.7198 132.957C82.2931 132.686 81.8925 132.407 81.4866 132.08C81.0796 131.75 80.6737 131.382 80.322 131.017C80.1502 130.839 79.9829 130.655 79.8208 130.467C79.6625 130.284 79.493 130.077 79.359 129.902C79.1103 129.574 78.8744 129.234 78.6544 128.886C78.5489 128.719 78.4747 128.59 78.3871 128.438C78.3031 128.291 78.2215 128.142 78.1424 127.992C78.0593 127.836 77.9883 127.694 77.9337 127.577L77.7592 127.198L77.5945 126.815L77.4665 126.487C77.3865 126.275 77.3054 126.048 77.2384 125.844C77.1798 125.661 77.1239 125.477 77.0706 125.292L76.9959 125.021L76.9357 124.783L76.8243 124.306L76.7421 123.892C76.7164 123.756 76.6888 123.607 76.6715 123.493C76.5104 122.489 76.4619 121.733 76.4332 121.055C76.4071 120.379 76.4115 119.798 76.4272 119.259C76.4436 118.719 76.4706 118.213 76.5057 117.741C76.5745 116.785 76.6706 115.927 76.7754 115.093C76.9928 113.439 77.2545 111.918 77.534 110.433C77.813 108.951 78.1156 107.515 78.4355 106.1C79.0694 103.271 79.7627 100.527 80.4874 97.8093C81.9547 92.3854 83.5257 87.0751 85.2118 81.8129C86.0393 79.1783 86.9285 76.5678 87.8071 73.9555L89.1718 70.0504C89.3995 69.3991 89.6392 68.7511 89.8744 68.1002C90.1125 67.4438 90.3455 66.8102 90.6024 66.1264C92.5999 60.8101 98.5288 58.1196 103.845 60.117C108.783 61.9721 111.455 67.2186 110.211 72.2158L110.2 72.2548Z" fill="#F0B5AA"/>
</g>
<path fill-rule="evenodd" clip-rule="evenodd" d="M102.589 66.4323C102.589 66.4323 75.1064 66.629 75.106 62.5327C75.1053 57.4538 98.74 59.2686 108.947 59.4355C111.315 59.4742 113.019 61.7206 112.418 64.0121C111.575 67.2271 110.482 71.3889 109.863 73.7098L102.589 66.4323Z" fill="#F0B5AA"/>
<path fill-rule="evenodd" clip-rule="evenodd" d="M102.943 60.4869C102.943 60.4869 76.1021 62.1103 76.4074 66.3071C76.7043 70.3926 104.173 67.3683 104.173 67.3683L102.943 60.4869Z" fill="#F0B5AA"/>
<path fill-rule="evenodd" clip-rule="evenodd" d="M105.321 62.8236C105.321 62.8236 78.4795 64.447 78.7848 68.6438C79.0819 72.7293 106.551 69.7049 106.551 69.7049L105.321 62.8236Z" fill="#F0B5AA"/>
<path fill-rule="evenodd" clip-rule="evenodd" d="M209.076 66.4323C209.076 66.4323 236.56 66.6291 236.56 62.5327C236.561 57.3433 213.165 59.2695 202.062 59.4221C199.255 59.4608 197.345 62.2811 198.352 64.9013C199.593 68.1308 201.075 71.9814 201.828 73.9172L209.076 66.4323Z" fill="#F0B5AA"/>
<path fill-rule="evenodd" clip-rule="evenodd" d="M208.722 60.4869C208.722 60.4869 235.564 62.1103 235.259 66.3071C234.962 70.3926 207.493 67.3683 207.493 67.3683L208.722 60.4869Z" fill="#F0B5AA"/>
<path fill-rule="evenodd" clip-rule="evenodd" d="M206.345 62.8236C206.345 62.8236 233.186 64.447 232.881 68.6438C232.584 72.7293 205.115 69.7049 205.115 69.7049L206.345 62.8236Z" fill="#F0B5AA"/>
<path fill-rule="evenodd" clip-rule="evenodd" d="M210.783 127.387C209.645 126.849 208.527 126.317 207.419 125.791C204.97 124.626 202.571 123.49 200.188 122.391C198.069 121.416 195.959 120.474 193.855 119.57C191.227 118.444 188.559 121.556 185.946 120.569C181.248 118.795 175.622 118.147 171.018 117.086C169.443 116.723 167.963 116.45 166.53 116.248C163.772 115.856 161.187 115.728 158.444 115.76C155.87 115.772 153.632 116.218 151.192 116.845C149.76 117.214 148.259 117.642 146.577 118.082C142.023 119.273 137.509 117.321 132.864 119.244C130.07 120.397 126.165 119.529 123.351 120.845C121.487 121.716 119.615 122.623 117.74 123.553C115.383 124.721 113.014 125.928 110.598 127.164C109.124 127.913 107.641 128.671 106.107 129.44L109.136 101.243C113.469 99.064 117.921 96.9421 122.545 94.9984C127.925 92.7515 133.521 90.7099 139.465 89.1227C140.175 88.9355 140.888 88.7542 141.608 88.5789C146.919 87.2951 152.53 86.3975 158.503 86.3292C164.016 86.3024 169.256 86.9504 174.266 87.9607C175.339 88.1747 176.397 88.4067 177.449 88.6532C183.42 90.059 189.076 91.9254 194.52 94.0117C198.072 95.3757 201.531 96.8528 204.916 98.3776L210.783 127.387Z" fill="#24B9CD"/>
<path fill-rule="evenodd" clip-rule="evenodd" d="M158.925 107.754C150.163 107.754 142.576 93.1767 141.607 88.5791C146.918 87.2953 152.529 86.3977 158.503 86.3294C164.016 86.3027 169.255 86.9504 174.266 87.961C173.52 92.8261 167.686 107.754 158.925 107.754Z" fill="#F0B5AA"/>
<path fill-rule="evenodd" clip-rule="evenodd" d="M123.35 120.846L127.249 118.74C127.565 118.569 127.936 118.845 127.865 119.197L123.04 142.88L123.35 120.846Z" fill="#21211D"/>
<path fill-rule="evenodd" clip-rule="evenodd" d="M193.984 119.691L190.019 117.55C189.762 117.411 189.47 117.663 189.568 117.937L198.08 142.389L193.984 119.691Z" fill="#21211D"/>
<path fill-rule="evenodd" clip-rule="evenodd" d="M98.0459 107.514C97.9422 107.514 97.8417 107.46 97.787 107.363C97.7064 107.22 97.7565 107.039 97.8996 106.958L102.212 104.52C102.355 104.44 102.536 104.49 102.617 104.633C102.698 104.776 102.647 104.957 102.505 105.038L98.1918 107.475C98.1456 107.502 98.0957 107.514 98.0459 107.514Z" fill="#21211D"/>
<path fill-rule="evenodd" clip-rule="evenodd" d="M88.8117 71.0794C88.781 71.0794 88.75 71.0747 88.7193 71.0646C88.5634 71.0135 88.4781 70.8457 88.5294 70.6898L89.6571 67.241C89.8284 66.7172 89.778 66.2483 89.5112 65.8853C89.1787 65.4325 88.5225 65.1659 87.7479 65.1776L78.1574 64.7631C77.9934 64.756 77.8663 64.6174 77.8733 64.4534C77.8806 64.2896 78.0122 64.1629 78.1833 64.1693L87.7571 64.5836C88.7111 64.5725 89.5377 64.9174 89.9903 65.5334C90.3699 66.05 90.4521 66.7221 90.222 67.4258L89.094 70.8744C89.0533 70.9998 88.9366 71.0794 88.8117 71.0794Z" fill="#21211D"/>
<path fill-rule="evenodd" clip-rule="evenodd" d="M87.5937 68.1673H79.3198C79.1558 68.1673 79.0225 68.0342 79.0225 67.8701C79.0225 67.7059 79.1558 67.573 79.3198 67.573H87.5937C87.7578 67.573 87.8911 67.7059 87.8911 67.8701C87.8911 68.0342 87.7578 68.1673 87.5937 68.1673Z" fill="#21211D"/>
<path fill-rule="evenodd" clip-rule="evenodd" d="M223.429 71.0793C223.304 71.0793 223.187 70.9997 223.146 70.8744L222.019 67.4255C221.788 66.722 221.871 66.05 222.25 65.5333C222.703 64.9171 223.53 64.5718 224.5 64.5833L233.79 64.1692C233.949 64.1622 234.092 64.2891 234.1 64.4531C234.107 64.6169 233.98 64.7558 233.816 64.763L224.509 65.1774C223.723 65.1672 223.062 65.4325 222.729 65.8852C222.462 66.2483 222.412 66.7172 222.583 67.2409L223.711 70.6897C223.762 70.8456 223.677 71.0134 223.521 71.0645C223.49 71.0747 223.46 71.0793 223.429 71.0793Z" fill="#21211D"/>
<path fill-rule="evenodd" clip-rule="evenodd" d="M232.654 68.1673H224.38C224.216 68.1673 224.083 68.0342 224.083 67.8701C224.083 67.7059 224.216 67.573 224.38 67.573H232.654C232.818 67.573 232.951 67.7059 232.951 67.8701C232.951 68.0342 232.818 68.1673 232.654 68.1673Z" fill="#21211D"/>
<path fill-rule="evenodd" clip-rule="evenodd" d="M111.673 126.912C111.664 126.912 111.656 126.912 111.647 126.911C111.484 126.897 111.362 126.753 111.376 126.59L113.74 98.81C113.754 98.6464 113.898 98.5251 114.062 98.5392C114.225 98.5531 114.346 98.6968 114.332 98.8604L111.969 126.64C111.955 126.795 111.825 126.912 111.673 126.912Z" fill="#21211D"/>
<path fill-rule="evenodd" clip-rule="evenodd" d="M205.115 124.995C204.975 124.995 204.851 124.896 204.824 124.753L199.426 96.2746C199.395 96.1133 199.501 95.9578 199.662 95.9271C199.823 95.8966 199.979 96.0025 200.009 96.1639L205.407 124.642C205.438 124.804 205.332 124.959 205.171 124.99C205.152 124.993 205.133 124.995 205.115 124.995Z" fill="#21211D"/>
<path fill-rule="evenodd" clip-rule="evenodd" d="M216.893 105.076C216.845 105.076 216.797 105.065 216.752 105.04L212.029 102.502C211.885 102.424 211.831 102.244 211.908 102.1C211.986 101.955 212.166 101.901 212.311 101.979L217.034 104.517C217.178 104.595 217.232 104.775 217.155 104.92C217.101 105.019 216.999 105.076 216.893 105.076Z" fill="#21211D"/>
<path fill-rule="evenodd" clip-rule="evenodd" d="M169.161 51.787C169.161 59.265 163.098 65.3273 155.62 65.3273C148.142 65.3273 142.08 59.265 142.08 51.787C142.08 44.309 148.142 38.2467 155.62 38.2467C163.098 38.2467 169.161 44.309 169.161 51.787Z" fill="#654206"/>
<path fill-rule="evenodd" clip-rule="evenodd" d="M177.014 58.5385C177.014 66.0166 170.951 72.0788 163.473 72.0788C155.995 72.0788 149.933 66.0166 149.933 58.5385C149.933 51.0605 155.995 44.9983 163.473 44.9983C170.951 44.9983 177.014 51.0605 177.014 58.5385Z" fill="#654206"/>
<path fill-rule="evenodd" clip-rule="evenodd" d="M156.831 56.8338C156.831 64.3119 150.769 70.3741 143.291 70.3741C135.813 70.3741 129.751 64.3119 129.751 56.8338C129.751 49.3558 135.813 43.2936 143.291 43.2936C150.769 43.2936 156.831 49.3558 156.831 56.8338Z" fill="#654206"/>
<path fill-rule="evenodd" clip-rule="evenodd" d="M154.141 66.7751C154.141 74.2531 148.079 80.3154 140.6 80.3154C133.122 80.3154 127.06 74.2531 127.06 66.7751C127.06 59.2971 133.122 53.2349 140.6 53.2349C148.079 53.2349 154.141 59.2971 154.141 66.7751Z" fill="#654206"/>
<path fill-rule="evenodd" clip-rule="evenodd" d="M164.273 74.6059C164.273 82.0839 158.211 88.1462 150.733 88.1462C143.255 88.1462 137.192 82.0839 137.192 74.6059C137.192 67.1279 143.255 61.0657 150.733 61.0657C158.211 61.0657 164.273 67.1279 164.273 74.6059Z" fill="#654206"/>
<path fill-rule="evenodd" clip-rule="evenodd" d="M174.163 81.3673C172.294 83.3147 169.74 83.6357 167.04 83.0945C160.15 81.7135 152.281 74.7192 152.281 74.7192C150.72 73.4953 149.059 71.8184 148.011 69.9684L147.958 69.8709C147.681 69.3768 147.451 68.8672 147.278 68.3543C147.196 68.1089 147.127 67.8604 147.074 67.6119C146.737 66.0765 146.498 66.2054 146.092 63.6413C145.529 60.0859 147.014 56.9397 150.198 55.2219C154.486 52.9061 160.043 52.3116 164.624 54.2653C164.636 54.2717 164.649 54.2748 164.661 54.281C170.067 56.6125 172.911 62.7698 174.915 67.9453C176.554 72.177 177.656 77.727 174.163 81.3673Z" fill="#F0B5AA"/>
<path fill-rule="evenodd" clip-rule="evenodd" d="M164.695 67.1872L167.569 91.6358C168.137 96.4641 164.683 100.839 159.855 101.406C155.026 101.974 150.652 98.52 150.084 93.6916C150.025 93.1864 150.014 92.6375 150.039 92.146L151.487 67.5717C151.702 63.9148 154.841 61.125 158.498 61.3406C161.759 61.5325 164.329 64.0517 164.695 67.1872Z" fill="#F0B5AA"/>
<path fill-rule="evenodd" clip-rule="evenodd" d="M166.591 82.9161C166.591 82.9161 164.551 82.5757 161.848 81.1866C161.517 81.0166 161.191 81.4188 161.429 81.7042L167.199 88.4699L166.591 82.9161Z" fill="#21211D"/>
<path fill-rule="evenodd" clip-rule="evenodd" d="M150.958 76.0841C150.958 76.0841 151.608 75.6961 152.077 75.0097C152.148 74.9049 152.31 74.9347 152.334 75.0592C152.501 75.9073 152.65 78.1519 150.732 79.9999L150.958 76.0841Z" fill="#21211D"/>
<path fill-rule="evenodd" clip-rule="evenodd" d="M153.065 72.3621C152.909 75.0588 150.596 77.1179 147.899 76.9616C145.203 76.8053 143.144 74.4924 143.3 71.7959C143.456 69.0992 145.769 67.04 148.466 67.1963C151.162 67.3526 153.222 69.6653 153.065 72.3621Z" fill="#F0B5AA"/>
<path fill-rule="evenodd" clip-rule="evenodd" d="M149.933 72.6866C149.892 72.6866 149.851 72.6786 149.811 72.6621L145.971 71.0533C145.811 70.9861 145.735 70.8017 145.802 70.6416C145.87 70.4811 146.054 70.4057 146.214 70.4729L150.054 72.0817C150.215 72.1489 150.29 72.3331 150.223 72.4934C150.172 72.6141 150.056 72.6866 149.933 72.6866Z" fill="#21211D"/>
<path fill-rule="evenodd" clip-rule="evenodd" d="M147.546 73.3613C147.508 73.3613 147.47 73.3547 147.433 73.3405C147.271 73.2784 147.19 73.0967 147.252 72.9344L147.803 71.4908C147.865 71.3285 148.047 71.2469 148.209 71.309C148.372 71.3709 148.453 71.5529 148.391 71.7152L147.84 73.1588C147.792 73.2842 147.672 73.3613 147.546 73.3613Z" fill="#21211D"/>
<path fill-rule="evenodd" clip-rule="evenodd" d="M148.493 50.7838C153.102 50.7838 156.838 54.5201 156.838 59.1289C156.838 61.2758 156.027 63.2333 154.695 64.7121C155.439 66.5678 155.975 68.3245 156.301 69.9824C156.365 70.1659 156.397 70.3558 156.397 70.5426C156.397 71.2087 155.992 71.8397 155.332 72.0939C154.548 72.3957 153.666 72.0672 153.269 71.3363L153.243 71.2859L152.426 69.7314C151.993 68.5109 150.842 67.7406 150.007 67.3365C149.516 67.4269 149.01 67.474 148.493 67.474C143.884 67.474 140.148 63.7378 140.148 59.1289C140.148 54.5201 143.884 50.7838 148.493 50.7838Z" fill="#654206"/>
<path fill-rule="evenodd" clip-rule="evenodd" d="M168.269 51.7871C168.269 56.3959 164.533 60.1321 159.924 60.1321C155.315 60.1321 151.579 56.3959 151.579 51.7871C151.579 47.1782 155.315 43.4419 159.924 43.4419C164.533 43.4419 168.269 47.1782 168.269 51.7871Z" fill="#654206"/>
<path fill-rule="evenodd" clip-rule="evenodd" d="M177.661 67.7372C177.661 67.7372 176.017 69.77 173.343 69.6747C172.21 69.6325 170.891 69.2133 169.44 68.0874C169.44 68.0874 170.853 66.466 173.205 66.3092C174.452 66.2221 175.959 66.5425 177.661 67.7372Z" fill="white"/>
<path fill-rule="evenodd" clip-rule="evenodd" d="M177.661 67.7372C177.661 67.7372 176.017 69.77 173.343 69.6747C172.967 69.2211 172.74 68.6538 172.713 68.0215C172.686 67.389 172.87 66.7929 173.205 66.3092C174.452 66.2221 175.959 66.5425 177.661 67.7372Z" fill="#21211D"/>
<path d="M167.213 66.5374C167.379 66.4917 167.551 66.5812 167.611 66.7395L167.621 66.7699L169 71.7939C169.248 72.697 168.584 73.588 167.657 73.6171L167.606 73.6178L166.458 73.6145C166.274 73.614 166.126 73.4648 166.126 73.2813C166.127 73.108 166.26 72.966 166.429 72.9512L166.46 72.95L167.608 72.9533C168.108 72.9546 168.475 72.4917 168.369 72.0101L168.36 71.9699L166.98 66.9458C166.932 66.7689 167.036 66.586 167.213 66.5374Z" fill="#21211D"/>
<path d="M170.557 63.7534C172.529 62.9805 174.747 62.9851 176.982 64.2849C177.141 64.3771 177.195 64.5805 177.103 64.7392C177.01 64.8978 176.807 64.9516 176.648 64.8594C174.606 63.672 172.597 63.6678 170.799 64.3722C170.539 64.474 170.308 64.5828 170.109 64.6912L170.005 64.7493C169.945 64.7842 169.902 64.811 169.877 64.8276C169.725 64.9303 169.519 64.8904 169.416 64.7383C169.313 64.5863 169.353 64.3797 169.505 64.277L169.547 64.2495C169.604 64.2136 169.686 64.1651 169.791 64.1075C170.014 63.9863 170.27 63.8657 170.557 63.7534Z" fill="#21211D"/>
<path fill-rule="evenodd" clip-rule="evenodd" d="M166.093 67.7372C166.093 67.7372 164.448 69.77 161.775 69.6747C160.641 69.6325 159.322 69.2133 157.872 68.0874C157.872 68.0874 159.285 66.466 161.637 66.3092C162.883 66.2221 164.39 66.5425 166.093 67.7372Z" fill="white"/>
<path fill-rule="evenodd" clip-rule="evenodd" d="M166.093 67.7372C166.093 67.7372 164.449 69.77 161.775 69.6747C161.399 69.2211 161.171 68.6538 161.144 68.0215C161.117 67.389 161.301 66.7929 161.637 66.3092C162.883 66.2221 164.391 66.5425 166.093 67.7372Z" fill="#21211D"/>
<path d="M157.955 64.2849C160.191 62.9851 162.408 62.9805 164.381 63.7534C164.668 63.8657 164.924 63.9863 165.146 64.1075L165.231 64.1545C165.323 64.2067 165.391 64.2487 165.433 64.277C165.585 64.3797 165.625 64.5863 165.522 64.7383C165.419 64.8904 165.212 64.9303 165.06 64.8276L165.01 64.7953C164.967 64.769 164.906 64.7335 164.828 64.6912C164.629 64.5828 164.398 64.474 164.138 64.3722C162.341 63.6678 160.332 63.672 158.289 64.8594C158.131 64.9516 157.927 64.8978 157.835 64.7392C157.743 64.5805 157.797 64.3771 157.955 64.2849Z" fill="#21211D"/>
<path d="M164.375 74.2985C164.538 74.2411 164.716 74.3182 164.787 74.4717L164.81 74.5301C164.823 74.5597 164.843 74.6032 164.872 74.6569C164.942 74.7861 165.031 74.9159 165.141 75.0363C165.503 75.4336 165.994 75.6395 166.664 75.5596C166.846 75.5379 167.012 75.668 167.033 75.8502C167.055 76.0324 166.925 76.1978 166.743 76.2195C165.849 76.326 165.15 76.033 164.65 75.4841C164.394 75.2037 164.243 74.923 164.172 74.7224C164.111 74.5493 164.202 74.3596 164.375 74.2985Z" fill="#21211D"/>
<path opacity="0.01" d="M162.044 73.4466C163.127 72.6644 164.416 72.5309 165.838 73.0286C167.303 73.541 168.305 73.9881 168.814 75.6342C168.923 75.9842 168.727 76.3556 168.377 76.4639C168.027 76.5723 167.656 76.3764 167.547 76.0264C167.158 74.7676 166.452 74.6484 165.4 74.2805C164.37 73.9202 163.534 74.0066 162.821 74.522C162.524 74.7364 162.11 74.6696 161.895 74.3727C161.681 74.0758 161.747 73.6613 162.044 73.4466Z" fill="#654206"/>
<mask id="mask14_565_5007" style="mask-type:alpha" maskUnits="userSpaceOnUse" x="282" y="327" width="17" height="18">
<path fill-rule="evenodd" clip-rule="evenodd" d="M298.506 327.068H282.008V344H298.506V327.068Z" fill="white"/>
</mask>
<g mask="url(#mask14_565_5007)">
<path fill-rule="evenodd" clip-rule="evenodd" d="M282.008 335.534C282.008 340.21 285.702 344 290.258 344C294.813 344 298.506 340.21 298.506 335.534C298.506 330.859 294.813 327.068 290.258 327.068C285.702 327.068 282.008 330.859 282.008 335.534Z" fill="#F62A26"/>
</g>
<path fill-rule="evenodd" clip-rule="evenodd" d="M290.438 333.1C291.816 333.1 292.937 334.221 292.937 335.599C292.937 336.977 291.816 338.098 290.438 338.098C289.061 338.098 287.94 336.977 287.94 335.599C287.94 334.221 289.061 333.1 290.438 333.1ZM290.438 338.694C292.145 338.694 293.533 337.306 293.533 335.599C293.533 333.892 292.145 332.504 290.438 332.504C288.731 332.504 287.343 333.892 287.343 335.599C287.343 337.306 288.731 338.694 290.438 338.694Z" fill="#21211D"/>
<path fill-rule="evenodd" clip-rule="evenodd" d="M290.507 341.789C292.98 341.789 295.2 340.301 296.163 337.997C296.226 337.847 296.156 337.675 296.009 337.612C295.861 337.549 295.691 337.619 295.628 337.768C294.756 339.854 292.746 341.202 290.507 341.202C290.347 341.202 290.217 341.333 290.217 341.496C290.217 341.658 290.347 341.789 290.507 341.789Z" fill="#EDC829"/>
<path fill-rule="evenodd" clip-rule="evenodd" d="M284.542 335.82C284.705 335.82 284.836 335.685 284.836 335.519C284.836 333.374 285.99 331.42 287.849 330.418C287.993 330.341 288.048 330.159 287.973 330.012C287.895 329.864 287.719 329.808 287.575 329.886C285.521 330.992 284.248 333.15 284.248 335.519C284.248 335.685 284.38 335.82 284.542 335.82Z" fill="#EDC829"/>
<path fill-rule="evenodd" clip-rule="evenodd" d="M409.583 221.335C409.635 221.421 409.652 221.428 409.583 221.335ZM341.75 253.349C341.81 256.647 341.942 259.951 342.066 263.266C342.356 269.892 342.75 276.542 343.289 283.195C343.565 286.521 343.861 289.848 344.216 293.172C344.385 294.834 344.578 296.496 344.775 298.153C344.979 299.804 345.187 301.486 345.436 303.086L295.523 303.764C295.731 302.002 295.906 300.322 296.079 298.609C296.246 296.905 296.413 295.203 296.56 293.504C296.87 290.102 297.138 286.703 297.396 283.304C297.905 276.505 298.327 269.704 298.73 262.881C298.908 259.471 299.129 256.049 299.293 252.621L299.85 242.282C300.049 238.811 300.25 235.317 300.482 231.736C300.545 230.835 300.599 229.952 300.673 229.027L300.774 227.651L300.824 226.962L300.885 226.252C300.969 225.296 301.039 224.384 301.147 223.364L301.294 221.868L301.485 220.248L301.584 219.431C301.599 219.307 301.628 219.13 301.649 218.978L301.721 218.502L301.866 217.552L301.939 217.079L301.983 216.82L302.043 216.484C302.126 216.041 302.217 215.556 302.301 215.187L302.433 214.594L302.5 214.299L302.565 214.034L302.832 212.982L303.1 212.011C303.815 209.539 304.525 207.516 305.238 205.591C305.954 203.674 306.665 201.873 307.382 200.124C308.101 198.376 308.826 196.681 309.56 195.012C311.024 191.675 312.477 188.426 313.978 185.232C315.444 182.019 316.958 178.863 318.45 175.709C321.458 169.413 324.466 163.17 327.548 156.896L328.6 154.756H394.068C394.125 155.28 394.183 155.805 394.244 156.329C394.435 158 394.634 159.671 394.857 161.34C395.069 163.009 395.299 164.675 395.543 166.337C396.513 172.99 397.633 179.6 398.965 186.091C399.29 187.716 399.632 189.333 399.991 190.938C400.347 192.542 400.708 194.142 401.081 195.729C401.85 198.894 402.644 202.021 403.506 205.053C404.385 208.076 405.28 211.033 406.263 213.744C406.339 213.956 406.417 214.166 406.495 214.377C407.772 213.874 409.102 213.319 410.451 212.73C411.803 212.148 413.171 211.511 414.546 210.842C415.921 210.174 417.316 209.495 418.704 208.771C424.272 205.889 429.864 202.621 435.36 199.119C438.11 197.371 440.83 195.543 443.516 193.667C444.856 192.721 446.188 191.765 447.496 190.789C448.152 190.303 448.8 189.807 449.441 189.315L450.387 188.572L450.844 188.2L451.065 188.019C451.132 187.961 451.212 187.897 451.242 187.862L475.924 231.962L470.793 234.093L465.843 236.173L455.996 240.363C449.425 243.162 442.829 245.96 436.01 248.693C434.301 249.37 432.584 250.063 430.834 250.727L428.187 251.721L425.498 252.712C423.685 253.365 421.831 254.002 419.904 254.617C417.977 255.241 415.984 255.852 413.836 256.419C411.681 256.983 409.399 257.512 406.685 257.946C405.33 258.161 403.844 258.342 402.135 258.442C401.263 258.49 400.357 258.521 399.324 258.503C398.293 258.484 397.172 258.422 395.892 258.264C394.614 258.103 393.15 257.844 391.457 257.348L391.147 257.258L390.809 257.149L390.14 256.923L389.807 256.806L389.356 256.634C389.055 256.516 388.754 256.392 388.457 256.264L388.011 256.067L387.615 255.879C387.351 255.75 387.089 255.62 386.829 255.483L386.441 255.277L386.09 255.08C385.863 254.949 385.636 254.814 385.41 254.679C383.648 253.597 382.35 252.539 381.27 251.561C380.209 250.592 379.388 249.711 378.652 248.868C377.242 247.226 376.228 245.776 375.379 244.472C374.532 243.162 373.84 241.961 373.218 240.814C371.986 238.526 371.02 236.459 370.141 234.456C369.272 232.464 368.501 230.541 367.791 228.66C366.373 224.898 365.112 221.286 363.964 217.701C362.806 214.127 361.71 210.601 360.681 207.091C360.153 205.341 359.642 203.594 359.14 201.85L357.65 196.634C357.361 195.61 357.076 194.585 356.79 193.56L355.603 195.658C354.033 198.458 352.543 201.286 351.075 204.095C349.643 206.921 348.238 209.729 346.96 212.509C346.326 213.899 345.713 215.273 345.137 216.619C344.558 217.96 344.021 219.272 343.569 220.496C343.335 221.113 343.136 221.689 342.947 222.233C342.77 222.766 342.627 223.247 342.521 223.623L342.458 223.866L342.421 224.023L342.417 224.037L342.408 224.077L342.406 224.09V224.097C342.41 224.081 342.414 224.063 342.417 224.052L342.414 224.077L342.397 224.225L342.361 224.524L342.339 224.672C342.332 224.727 342.324 224.758 342.317 224.842L342.274 225.28L342.185 226.166L342.103 227.179C342.046 227.832 342.01 228.598 341.964 229.319C341.88 230.793 341.812 232.334 341.767 233.903C341.667 237.041 341.626 240.266 341.635 243.519L341.657 248.421L341.75 253.349Z" fill="#EDC829"/>
<path fill-rule="evenodd" clip-rule="evenodd" d="M295.523 304.237C295.489 305.804 296.648 307.155 298.709 308.274C301.36 309.715 305.501 310.774 310.499 311.425C313.547 311.825 316.922 312.066 320.468 312.147C324.711 312.245 328.689 311.929 332.171 311.303C334.109 310.957 335.893 310.512 337.481 309.993C342.374 308.39 345.431 306.063 345.486 303.542C345.544 300.8 342.041 298.419 336.458 296.823C335.138 296.444 333.704 296.11 332.171 295.823C328.8 295.197 324.956 294.809 320.853 294.713C319.25 294.678 317.677 294.71 316.152 294.809C313.151 295 310.333 295.438 307.801 296.053C300.51 297.825 295.59 301.08 295.523 304.237Z" fill="#21211D"/>
<path fill-rule="evenodd" clip-rule="evenodd" d="M450.116 194.532C450.118 194.571 450.121 194.613 450.124 194.654C450.223 195.87 450.426 197.202 450.73 198.626C451.655 202.989 453.52 208.212 456.179 213.645C456.707 214.722 457.258 215.766 457.835 216.771C457.968 217.009 458.104 217.243 458.244 217.477C458.31 217.596 458.38 217.711 458.449 217.827C464.507 227.953 472.452 233.9 476.149 232.005C478.376 230.863 478.62 227.114 477.428 221.953C477.332 221.535 477.225 221.108 477.109 220.671C476.66 218.963 476.068 217.124 475.354 215.19C474.279 212.26 472.916 209.116 471.335 205.883C468.395 199.874 464.887 194.906 461.566 191.581C460.905 190.92 460.253 190.324 459.615 189.796L459.612 189.793C456.715 187.414 454.097 186.459 452.302 187.379C450.527 188.289 449.843 190.882 450.116 194.532Z" fill="#21211D"/>
<mask id="mask15_565_5007" style="mask-type:alpha" maskUnits="userSpaceOnUse" x="378" y="327" width="17" height="18">
<path fill-rule="evenodd" clip-rule="evenodd" d="M394.799 327.068H378.301V344H394.799V327.068Z" fill="white"/>
</mask>
<g mask="url(#mask15_565_5007)">
<path fill-rule="evenodd" clip-rule="evenodd" d="M378.301 335.534C378.301 340.21 381.995 344 386.55 344C391.106 344 394.799 340.21 394.799 335.534C394.799 330.859 391.106 327.068 386.55 327.068C381.995 327.068 378.301 330.859 378.301 335.534Z" fill="#F62A26"/>
</g>
<path fill-rule="evenodd" clip-rule="evenodd" d="M280.047 325.429H332.001V295.816C328.629 295.194 324.785 294.808 320.681 294.713C319.078 294.678 317.504 294.71 315.98 294.808C312.978 294.998 310.16 295.434 307.627 296.045C306.986 297.501 306.249 298.954 305.4 300.36C303.631 303.296 301.387 306.033 298.534 308.193C298.041 308.566 297.528 308.922 296.998 309.26C296.03 309.874 295.118 310.479 294.255 311.075C294.157 311.143 294.06 311.209 293.964 311.277C287.59 315.699 284.047 319.459 282.134 321.989C281.94 322.247 281.761 322.493 281.597 322.725C280.388 324.445 280.047 325.429 280.047 325.429Z" fill="#74262E"/>
<mask id="mask16_565_5007" style="mask-type:alpha" maskUnits="userSpaceOnUse" x="257" y="320" width="163" height="8">
<path fill-rule="evenodd" clip-rule="evenodd" d="M419.844 320.494H257.236V327.919H419.844V320.494Z" fill="white"/>
</mask>
<g mask="url(#mask16_565_5007)">
<path fill-rule="evenodd" clip-rule="evenodd" d="M267.722 327.919H409.398C411.775 327.919 414.102 327.08 415.95 325.556L419.844 322.346L418.376 320.498L414.483 323.708C413.049 324.89 411.243 325.541 409.398 325.541H267.722C265.894 325.541 264.101 324.9 262.672 323.737L258.695 320.494L257.236 322.35L261.216 325.593C263.055 327.093 265.365 327.919 267.722 327.919Z" fill="#21211D"/>
</g>
<path fill-rule="evenodd" clip-rule="evenodd" d="M356.983 193.54L353.641 178.549C353.594 178.338 353.28 178.382 353.294 178.598C353.61 183.814 348.585 202.087 347.476 210.91L356.983 193.54Z" fill="#21211D"/>
<path fill-rule="evenodd" clip-rule="evenodd" d="M406.505 214.513C406.505 214.513 402.794 216.385 398.332 218.18C397.982 218.32 397.713 217.848 398.011 217.615C400.632 215.561 404.691 211.668 404.351 207.815L406.505 214.513Z" fill="#21211D"/>
<mask id="mask17_565_5007" style="mask-type:alpha" maskUnits="userSpaceOnUse" x="386" y="154" width="16" height="62">
<path fill-rule="evenodd" clip-rule="evenodd" d="M401.518 154.565H386.407V215.886H401.518V154.565Z" fill="white"/>
</mask>
<g mask="url(#mask17_565_5007)">
<path fill-rule="evenodd" clip-rule="evenodd" d="M401.229 215.886C401.268 215.886 401.307 215.878 401.345 215.861C401.491 215.795 401.557 215.619 401.493 215.469C391.471 192.061 387.026 155.196 386.982 154.826C386.963 154.663 386.819 154.547 386.66 154.567C386.502 154.587 386.389 154.735 386.408 154.898C386.452 155.268 390.908 192.22 400.965 215.709C401.012 215.82 401.118 215.886 401.229 215.886Z" fill="#21211D"/>
</g>
<path fill-rule="evenodd" clip-rule="evenodd" d="M388.303 165.589C388.462 165.589 388.594 165.461 388.597 165.301C388.601 165.138 388.472 165.004 388.309 165C382.6 164.868 378.421 163.07 376.222 159.8C374.561 157.331 374.595 154.86 374.595 154.836C374.599 154.673 374.47 154.539 374.308 154.535C374.149 154.531 374.01 154.659 374.006 154.822C374.003 154.97 373.952 158.476 376.821 161.482C379.308 164.089 383.169 165.47 388.296 165.589C388.298 165.589 388.3 165.589 388.303 165.589Z" fill="#21211D"/>
<path fill-rule="evenodd" clip-rule="evenodd" d="M458.167 239.65C458.233 239.65 458.3 239.627 458.355 239.581C458.478 239.475 458.494 239.288 458.39 239.162C450.096 229.14 445.666 217.922 443.41 210.276C440.964 201.985 440.475 195.989 440.47 195.929C440.458 195.765 440.317 195.645 440.156 195.656C439.996 195.669 439.876 195.813 439.889 195.976C439.893 196.036 440.385 202.083 442.847 210.431C445.119 218.135 449.581 229.44 457.944 239.545C458.001 239.614 458.084 239.65 458.167 239.65Z" fill="#21211D"/>
<path fill-rule="evenodd" clip-rule="evenodd" d="M297.14 287.625C297.175 287.625 297.21 287.618 297.244 287.605C308.064 283.417 320.08 283.641 328.256 284.567C337.12 285.571 343.497 287.591 343.56 287.611C343.713 287.66 343.877 287.574 343.925 287.42C343.974 287.265 343.889 287.1 343.736 287.051C343.672 287.03 337.241 284.993 328.321 283.983C320.081 283.05 307.965 282.826 297.036 287.056C296.886 287.114 296.811 287.284 296.868 287.436C296.913 287.553 297.023 287.625 297.14 287.625Z" fill="#21211D"/>
<path fill-rule="evenodd" clip-rule="evenodd" d="M330.65 284.751C330.655 284.751 330.66 284.751 330.666 284.75C330.826 284.742 330.95 284.602 330.941 284.438C330.927 284.155 329.534 255.783 332.426 225.021C334.458 203.405 353.411 179.138 353.602 178.896C353.703 178.768 353.683 178.58 353.558 178.477C353.432 178.374 353.249 178.395 353.148 178.522C353.1 178.583 348.283 184.722 343.278 193.466C334.9 208.103 332.437 218.674 331.846 224.964C328.95 255.771 330.345 284.185 330.36 284.469C330.368 284.627 330.496 284.751 330.65 284.751Z" fill="#21211D"/>
<path fill-rule="evenodd" clip-rule="evenodd" d="M280.047 325.429H332.001V321.892H282.134C280.487 324.127 280.047 325.429 280.047 325.429Z" fill="#EDE8D6"/>
<path fill-rule="evenodd" clip-rule="evenodd" d="M318.515 304.427C318.515 306.503 320.148 308.185 322.163 308.185C324.177 308.185 325.811 306.503 325.811 304.427C325.811 302.351 324.177 300.668 322.163 300.668C320.148 300.668 318.515 302.351 318.515 304.427Z" fill="#EDE8D6"/>
<path fill-rule="evenodd" clip-rule="evenodd" d="M307.828 305.974C307.913 305.974 307.998 305.937 308.056 305.867C308.16 305.741 308.142 305.554 308.017 305.45L304.187 302.284C304.061 302.18 303.874 302.198 303.77 302.324C303.666 302.45 303.684 302.637 303.81 302.741L307.64 305.907C307.695 305.952 307.762 305.974 307.828 305.974Z" fill="#EDE8D6"/>
<path fill-rule="evenodd" clip-rule="evenodd" d="M304.954 309.291C305.039 309.291 305.124 309.254 305.182 309.183C305.286 309.057 305.268 308.87 305.143 308.766L301.313 305.6C301.187 305.496 301 305.514 300.896 305.64C300.792 305.766 300.81 305.953 300.936 306.057L304.766 309.223C304.821 309.268 304.888 309.291 304.954 309.291Z" fill="#EDE8D6"/>
<path fill-rule="evenodd" clip-rule="evenodd" d="M301.638 312.607C301.723 312.607 301.808 312.57 301.866 312.499C301.97 312.373 301.952 312.186 301.827 312.082L297.997 308.916C297.871 308.812 297.684 308.83 297.58 308.956C297.476 309.082 297.494 309.269 297.62 309.373L301.45 312.539C301.505 312.584 301.572 312.607 301.638 312.607Z" fill="#EDE8D6"/>
<path fill-rule="evenodd" clip-rule="evenodd" d="M450.057 194.445C450.06 194.483 450.063 194.525 450.066 194.566C450.165 195.784 450.369 197.117 450.674 198.542C451.603 202.909 453.474 208.137 456.143 213.576C456.673 214.654 457.226 215.699 457.805 216.705C460.093 216.69 464.336 216.759 465.678 216.889C469.043 217.213 472.442 218.056 475.597 219.713C476.124 219.988 476.639 220.288 477.151 220.609C477.172 220.621 477.195 220.633 477.215 220.648C478.182 221.262 479.116 221.829 480.021 222.355C480.123 222.417 480.225 222.474 480.327 222.533C487.027 226.41 491.899 227.996 494.966 228.628C495.281 228.69 495.575 228.747 495.851 228.794C497.9 229.141 498.916 229.017 498.916 229.017L476.06 181.506L459.589 189.7L450.057 194.445Z" fill="#74262E"/>
<path fill-rule="evenodd" clip-rule="evenodd" d="M498.916 229.018L476.078 181.506L473.05 183.024L494.97 228.627C497.608 229.174 498.916 229.018 498.916 229.018Z" fill="#EDE8D6"/>
<path fill-rule="evenodd" clip-rule="evenodd" d="M463.492 203.229C465.3 202.315 466.047 200.064 465.159 198.201C464.272 196.338 462.087 195.569 460.279 196.483C458.471 197.397 457.724 199.648 458.611 201.512C459.499 203.375 461.684 204.143 463.492 203.229Z" fill="#EDE8D6"/>
<path fill-rule="evenodd" clip-rule="evenodd" d="M468.265 217.542C468.401 217.542 468.525 217.449 468.558 217.311L469.725 212.387C469.764 212.225 469.664 212.062 469.503 212.024C469.341 211.985 469.179 212.085 469.141 212.247L467.973 217.171C467.935 217.333 468.034 217.496 468.196 217.534C468.219 217.54 468.243 217.542 468.265 217.542Z" fill="#EDE8D6"/>
<path fill-rule="evenodd" clip-rule="evenodd" d="M472.466 218.648C472.602 218.648 472.725 218.555 472.758 218.416L473.926 213.492C473.964 213.33 473.865 213.168 473.703 213.129C473.542 213.091 473.38 213.19 473.342 213.353L472.174 218.276C472.135 218.438 472.235 218.601 472.397 218.639C472.42 218.645 472.443 218.648 472.466 218.648Z" fill="#EDE8D6"/>
<path fill-rule="evenodd" clip-rule="evenodd" d="M476.667 220.416C476.802 220.416 476.926 220.323 476.959 220.185L478.127 215.261C478.165 215.099 478.065 214.936 477.904 214.898C477.742 214.859 477.58 214.959 477.542 215.121L476.374 220.045C476.336 220.207 476.435 220.37 476.597 220.408C476.62 220.414 476.644 220.416 476.667 220.416Z" fill="#EDE8D6"/>
<path fill-rule="evenodd" clip-rule="evenodd" d="M386.608 333.1C387.985 333.1 389.106 334.221 389.106 335.599C389.106 336.977 387.985 338.098 386.608 338.098C385.23 338.098 384.109 336.977 384.109 335.599C384.109 334.221 385.23 333.1 386.608 333.1ZM386.608 338.694C388.314 338.694 389.703 337.306 389.703 335.599C389.703 333.892 388.314 332.504 386.608 332.504C384.901 332.504 383.512 333.892 383.512 335.599C383.512 337.306 384.901 338.694 386.608 338.694Z" fill="#21211D"/>
<path fill-rule="evenodd" clip-rule="evenodd" d="M386.677 341.789C389.149 341.789 391.369 340.301 392.332 337.997C392.395 337.847 392.326 337.675 392.178 337.612C392.031 337.549 391.86 337.619 391.798 337.768C390.925 339.854 388.915 341.202 386.677 341.202C386.516 341.202 386.386 341.333 386.386 341.496C386.386 341.658 386.516 341.789 386.677 341.789Z" fill="#EDC829"/>
<path fill-rule="evenodd" clip-rule="evenodd" d="M380.712 335.82C380.875 335.82 381.006 335.685 381.006 335.519C381.006 333.374 382.161 331.42 384.019 330.418C384.163 330.341 384.218 330.159 384.142 330.012C384.066 329.864 383.887 329.808 383.744 329.886C381.692 330.992 380.417 333.15 380.417 335.519C380.417 335.685 380.549 335.82 380.712 335.82Z" fill="#EDC829"/>
<path fill-rule="evenodd" clip-rule="evenodd" d="M317.705 322.334C317.836 322.334 317.956 322.246 317.991 322.112C319.81 315.085 332.259 314.313 332.385 314.306C332.548 314.297 332.673 314.157 332.664 313.993C332.655 313.829 332.518 313.703 332.353 313.713C332.32 313.715 329.083 313.905 325.658 314.995C321.07 316.457 318.221 318.866 317.419 321.962C317.378 322.121 317.473 322.283 317.63 322.325C317.655 322.331 317.68 322.334 317.705 322.334Z" fill="#EDE8D6"/>
<path fill-rule="evenodd" clip-rule="evenodd" d="M477.415 196.319C478.037 196.319 478.646 196.241 479.239 196.085C479.398 196.043 479.493 195.881 479.451 195.723C479.409 195.565 479.247 195.47 479.088 195.511C472.078 197.356 465.264 186.835 465.196 186.728C465.108 186.59 464.924 186.55 464.786 186.638C464.648 186.726 464.607 186.909 464.695 187.047C464.713 187.075 466.474 189.815 469.113 192.28C471.968 194.948 474.802 196.319 477.415 196.319Z" fill="#EDE8D6"/>
<path fill-rule="evenodd" clip-rule="evenodd" d="M407.901 303.764H457.505C457.665 303.764 457.795 303.615 457.795 303.432C457.795 303.249 457.665 303.1 457.505 303.1H407.901C407.74 303.1 407.61 303.249 407.61 303.432C407.61 303.615 407.74 303.764 407.901 303.764Z" fill="#21211D"/>
<path fill-rule="evenodd" clip-rule="evenodd" d="M441.505 321.45H471.874C472.035 321.45 472.166 321.301 472.166 321.118C472.166 320.935 472.035 320.787 471.874 320.787H441.505C441.345 320.787 441.214 320.935 441.214 321.118C441.214 321.301 441.345 321.45 441.505 321.45Z" fill="#21211D"/>
<path fill-rule="evenodd" clip-rule="evenodd" d="M358.876 117.082C353.146 115.775 347.456 114.305 341.776 112.784L333.265 110.469L332.733 110.324L332.6 110.287C332.702 110.314 332.831 110.344 332.947 110.366C333.178 110.415 333.441 110.442 333.651 110.468C334.506 110.553 335.39 110.512 336.234 110.323C337.926 109.944 339.454 109.059 340.607 107.762C341.188 107.119 341.673 106.373 342.027 105.574C342.119 105.378 342.2 105.175 342.27 104.97C342.339 104.773 342.391 104.631 342.439 104.455L342.472 104.328L342.488 104.265C342.489 104.258 342.495 104.236 342.493 104.24L342.488 104.257L342.447 104.393L342.365 104.664L341.707 106.83L339.072 115.495L336.398 124.147L333.143 138.153L330.418 146.787C328.616 152.493 322.628 155.627 317.041 153.787C311.718 152.034 308.681 146.396 309.965 140.932L309.976 140.891L312.624 126.779L314.742 118.039L316.875 109.305L319.048 100.584L319.592 98.4042L319.66 98.1316L319.694 97.9957L319.824 97.5277C319.929 97.1728 320.026 96.8476 320.162 96.4764C320.304 96.0973 320.457 95.7214 320.62 95.3513C321.293 93.8737 322.192 92.4979 323.271 91.2992C325.434 88.9095 328.295 87.228 331.437 86.5617C333.002 86.2274 334.631 86.1325 336.219 86.307C336.612 86.3435 337.055 86.4188 337.468 86.4951C337.675 86.534 337.895 86.5798 338.087 86.6229L338.223 86.6545L338.764 86.7803L347.423 88.803C353.191 90.1739 358.948 91.595 364.664 93.1801C371.09 94.9622 374.884 101.727 373.14 108.291C371.446 114.663 365.153 118.502 358.907 117.089L358.876 117.082Z" fill="#FFA4EA"/>
<path fill-rule="evenodd" clip-rule="evenodd" d="M402.083 154.756L386.69 104.622C385.55 95.0448 377.46 89.2063 367.987 89.5519L350.847 90.8647C342.697 91.162 335.613 95.2927 333.665 103.352L329.127 154.756H402.083Z" fill="#FFA4EA"/>
<mask id="mask18_565_5007" style="mask-type:alpha" maskUnits="userSpaceOnUse" x="349" y="84" width="77" height="73">
<path fill-rule="evenodd" clip-rule="evenodd" d="M425.131 84.6667H349.795V156.212H425.131V84.6667Z" fill="white"/>
</mask>
<g mask="url(#mask18_565_5007)">
<path fill-rule="evenodd" clip-rule="evenodd" d="M359.001 91.2199C361.644 90.5607 364.296 89.9394 366.944 89.3052L374.904 87.4605L382.873 85.6622L384.867 85.2209L385.366 85.1106L385.615 85.0556L386.107 84.9548L386.654 84.8579C388.118 84.6284 389.637 84.5979 391.121 84.8064C394.094 85.2041 396.904 86.4849 399.173 88.4407C400.305 89.423 401.304 90.5708 402.13 91.8421C402.949 93.1188 403.583 94.5085 404.018 95.9404L403.329 94.1663L408.598 105.848C410.352 109.743 412.118 113.632 413.85 117.538L419.064 129.247C420.782 133.16 422.519 137.063 424.22 140.985C426.596 146.464 424.163 152.869 418.785 155.29C413.671 157.592 407.717 155.428 405.103 150.502C403.111 146.725 401.155 142.931 399.181 139.145L393.319 127.759C391.358 123.967 389.431 120.158 387.493 116.355L381.685 104.941L380.996 103.167C381.219 103.94 381.565 104.699 382.015 105.391C382.457 106.09 383.002 106.717 383.619 107.247C384.842 108.316 386.364 109.004 387.986 109.229C388.796 109.334 389.627 109.335 390.42 109.206C390.519 109.192 390.618 109.174 390.716 109.154L390.958 109.101L390.709 109.16L390.213 109.279L388.226 109.756L380.274 111.63L372.311 113.457C369.652 114.047 366.997 114.65 364.332 115.215C357.803 116.599 351.408 112.328 350.05 105.676C348.721 99.1724 352.721 92.7947 359.001 91.2199Z" fill="#FFA4EA"/>
</g>
<path fill-rule="evenodd" clip-rule="evenodd" d="M403.351 94.2727C405.254 98.0869 407.103 101.927 408.937 105.776L411.667 111.558L414.366 117.356C416.162 121.223 417.963 125.088 419.73 128.969C421.515 132.841 423.262 136.733 425.014 140.621L425.377 141.427C427.965 147.17 425.483 153.96 419.834 156.591C417.241 157.799 414.413 157.915 411.882 157.138L354.6 139.469C350.12 138.087 347.59 133.274 348.949 128.718C350.22 124.46 354.478 121.944 358.682 122.76L417.438 134.394L404.305 150.911C402.365 147.115 400.418 143.323 398.51 139.512C396.585 135.709 394.693 131.89 392.796 128.073L389.955 122.345L387.146 116.602C385.287 112.767 383.443 108.923 381.653 105.054C378.813 98.9173 381.404 91.6027 387.439 88.7156C393.36 85.8829 400.406 88.3829 403.351 94.2727Z" fill="#FFA4EA"/>
<path fill-rule="evenodd" clip-rule="evenodd" d="M394.874 135.301C394.921 135.301 394.968 135.29 395.013 135.267C395.035 135.255 397.285 134.088 401.408 132.858C405.213 131.723 411.435 130.3 419.474 129.966C419.644 129.959 419.776 129.811 419.769 129.636C419.762 129.461 419.619 129.324 419.45 129.332C411.338 129.669 405.057 131.108 401.216 132.255C397.045 133.502 394.827 134.652 394.735 134.701C394.583 134.78 394.523 134.971 394.6 135.127C394.654 135.237 394.762 135.301 394.874 135.301Z" fill="#21211D"/>
<path fill-rule="evenodd" clip-rule="evenodd" d="M361.839 106.782C364.375 106.782 366.792 105.964 368.831 104.417C371.745 102.206 373.514 98.5844 373.563 94.7297C373.574 93.8915 373.486 93.011 373.293 92.0378L372.633 88.2483C372.604 88.0783 372.445 87.9642 372.277 87.9947C372.11 88.025 371.999 88.1875 372.028 88.3575L372.69 92.1539C372.875 93.0903 372.959 93.9278 372.949 94.7217C372.902 98.3828 371.225 101.82 368.464 103.916C366.532 105.381 364.241 106.156 361.839 106.156C359.592 106.156 357.424 105.47 355.569 104.173C352.586 102.087 350.782 98.5464 350.744 94.7022C350.736 93.8697 350.833 92.9933 351.039 92.0225L351.511 89.9431C351.549 89.7746 351.446 89.6068 351.28 89.5679C351.116 89.529 350.95 89.634 350.912 89.8025L350.44 91.8859C350.222 92.9071 350.121 93.829 350.13 94.7087C350.17 98.7562 352.073 102.487 355.221 104.688C357.178 106.058 359.467 106.782 361.839 106.782Z" fill="#21211D"/>
<path fill-rule="evenodd" clip-rule="evenodd" d="M395.81 129.995C395.83 129.995 395.85 129.993 395.869 129.989C396.033 129.955 396.14 129.79 396.108 129.621L391.85 107.256C391.818 107.086 391.659 106.975 391.494 107.009C391.33 107.042 391.223 107.207 391.256 107.377L395.514 129.742C395.542 129.891 395.669 129.995 395.81 129.995Z" fill="#21211D"/>
<path fill-rule="evenodd" clip-rule="evenodd" d="M327.568 154.756L335.094 108.248C335.118 108.096 334.902 108.05 334.866 108.199L324.042 152.488L327.568 154.756Z" fill="#21211D"/>
<path fill-rule="evenodd" clip-rule="evenodd" d="M410.88 157.564C408.525 156.855 406.173 156.132 403.823 155.402L396.77 153.22C392.072 151.755 387.369 150.303 382.679 148.8C377.988 147.303 373.311 145.747 368.628 144.22L361.613 141.884L354.608 139.508C350.159 138 347.757 133.114 349.242 128.595C350.586 124.506 354.653 122.12 358.71 122.82L365.992 124.07L373.264 125.358C378.105 126.247 382.952 127.108 387.785 128.027C392.62 128.94 397.442 129.905 402.268 130.857L409.502 132.299C411.914 132.777 414.325 133.262 416.731 133.761C423.271 135.118 427.49 141.604 426.155 148.248C424.82 154.892 418.435 159.178 411.896 157.821C411.558 157.751 411.205 157.66 410.88 157.564Z" fill="#963716"/>
<path fill-rule="evenodd" clip-rule="evenodd" d="M366.006 133.647C363.171 132.8 360.345 131.913 357.524 131.008L353.297 129.627L352.242 129.275C351.9 129.161 351.502 129.026 351.262 128.953C350.7 128.775 350.171 128.647 349.787 128.585C349.391 128.522 349.129 128.51 348.848 128.55C348.572 128.59 348.24 128.713 347.848 128.964C347.46 129.214 347.025 129.549 346.594 129.97L346.456 130.096L346.345 130.205C346.271 130.28 346.2 130.359 346.131 130.442L346.078 130.503L346.052 130.535L346.011 130.592L345.847 130.822L345.518 131.28C343.763 133.725 341.978 136.15 340.085 138.509C339.362 139.408 338.061 139.541 337.178 138.805C336.45 138.197 336.236 137.187 336.588 136.348C337.765 133.546 339.051 130.813 340.368 128.097L340.615 127.589L340.738 127.334L340.769 127.27L340.815 127.182L340.911 127.004C341.043 126.77 341.184 126.54 341.335 126.315C341.411 126.203 341.488 126.091 341.569 125.981L341.691 125.816L341.797 125.681C342.338 124.966 342.967 124.242 343.74 123.558C344.512 122.879 345.476 122.227 346.606 121.788C347.73 121.343 348.962 121.157 350.044 121.152C351.14 121.145 352.076 121.281 352.957 121.435C353.44 121.521 353.756 121.59 354.13 121.665L355.223 121.886L359.589 122.798C362.497 123.422 365.4 124.064 368.293 124.746C370.724 125.318 372.24 127.789 371.678 130.266C371.117 132.743 368.691 134.287 366.26 133.715C366.179 133.696 366.085 133.67 366.006 133.647Z" fill="#963716"/>
<path fill-rule="evenodd" clip-rule="evenodd" d="M368.955 139.598L349.77 131.978L352.676 131.554C352.702 131.527 352.639 131.564 352.611 131.577L352.491 131.644C352.409 131.692 352.322 131.746 352.235 131.801C352.06 131.911 351.885 132.033 351.71 132.158C351.361 132.41 351.019 132.684 350.693 132.973C350.041 133.552 349.447 134.191 348.954 134.879C348.704 135.222 348.479 135.578 348.285 135.946C348.087 136.313 347.915 136.691 347.781 137.081C347.495 137.859 347.36 138.684 347.339 139.545L347.335 139.681C347.307 140.831 346.369 141.74 345.24 141.712C344.262 141.687 343.463 140.966 343.283 140.027C343.038 138.744 342.978 137.382 343.164 136.054C343.247 135.388 343.39 134.731 343.576 134.093C343.759 133.452 343.989 132.83 344.255 132.231C344.784 131.027 345.454 129.916 346.214 128.886C346.595 128.371 347 127.877 347.431 127.399C347.648 127.161 347.869 126.926 348.105 126.694C348.222 126.578 348.341 126.463 348.469 126.345L348.665 126.167C348.744 126.1 348.788 126.058 348.923 125.954L348.923 125.953C349.713 125.377 350.675 125.225 351.548 125.454L351.829 125.53L371.744 130.866C374.155 131.512 375.596 134.027 374.962 136.484C374.327 138.94 371.858 140.408 369.446 139.762C369.279 139.717 369.112 139.661 368.955 139.598Z" fill="#963716"/>
<path fill-rule="evenodd" clip-rule="evenodd" d="M372.489 141.634L353.295 133.987L355.875 133.763L355.875 133.763C355.913 133.74 355.909 133.74 355.908 133.739C355.909 133.737 355.909 133.734 355.902 133.737C355.891 133.739 355.885 133.738 355.869 133.745C355.842 133.753 355.813 133.764 355.779 133.779C355.713 133.805 355.641 133.838 355.568 133.875C355.422 133.949 355.269 134.031 355.12 134.125C354.819 134.308 354.526 134.523 354.25 134.757C353.696 135.226 353.213 135.778 352.827 136.405C352.436 137.031 352.146 137.738 351.962 138.513C351.782 139.288 351.706 140.129 351.74 141.006L351.743 141.083C351.787 142.239 350.906 143.212 349.775 143.258C348.796 143.297 347.95 142.627 347.712 141.698C347.414 140.543 347.244 139.31 347.256 138.034C347.273 136.761 347.482 135.445 347.912 134.189C348.336 132.929 348.969 131.735 349.758 130.668C350.153 130.134 350.584 129.628 351.059 129.153C351.294 128.915 351.544 128.686 351.808 128.46C351.94 128.347 352.076 128.235 352.223 128.123C352.294 128.067 352.372 128.01 352.452 127.952L352.582 127.862L352.659 127.811C352.685 127.795 352.708 127.779 352.774 127.741L352.775 127.741C353.513 127.328 354.341 127.246 355.096 127.447L355.355 127.517L375.28 132.871C377.692 133.52 379.134 136.044 378.499 138.509C377.864 140.974 375.394 142.446 372.981 141.798C372.813 141.752 372.647 141.697 372.489 141.634Z" fill="#963716"/>
<path fill-rule="evenodd" clip-rule="evenodd" d="M375.647 143.766L356.194 135.238L359.595 134.558C359.558 134.574 359.459 134.651 359.386 134.705L359.144 134.891C358.982 135.019 358.82 135.151 358.659 135.286C358.339 135.555 358.028 135.834 357.733 136.117C357.143 136.681 356.605 137.277 356.225 137.814C356.034 138.079 355.89 138.328 355.804 138.491C355.713 138.662 355.688 138.701 355.615 138.646C355.581 138.623 355.534 138.598 355.506 138.607C355.478 138.615 355.474 138.655 355.51 138.715C355.577 138.837 355.811 139.009 356.104 139.155L356.282 139.243C357.296 139.748 357.715 140.991 357.217 142.02C356.794 142.895 355.843 143.333 354.944 143.133C354.326 142.996 353.66 142.803 352.949 142.36C352.597 142.138 352.236 141.85 351.912 141.477C351.588 141.106 351.31 140.649 351.125 140.168C350.937 139.685 350.841 139.189 350.808 138.73C350.774 138.27 350.799 137.844 350.852 137.451C350.96 136.664 351.169 136.005 351.4 135.402C351.87 134.201 352.447 133.207 353.056 132.265C353.363 131.797 353.68 131.345 354.01 130.905C354.175 130.684 354.343 130.467 354.517 130.25L354.783 129.924C354.88 129.809 354.953 129.718 355.091 129.57L355.092 129.569C355.958 128.73 357.166 128.48 358.236 128.808L358.494 128.888L378.762 135.167C381.151 135.907 382.496 138.471 381.767 140.895C381.037 143.318 378.509 144.683 376.12 143.943C375.959 143.893 375.799 143.833 375.647 143.766Z" fill="#963716"/>
<path fill-rule="evenodd" clip-rule="evenodd" d="M342.479 135.743C342.594 135.743 342.704 135.678 342.757 135.566C342.78 135.517 345.099 130.707 347.95 129.492C348.108 129.425 348.182 129.241 348.115 129.081C348.049 128.922 347.868 128.847 347.711 128.914C344.644 130.222 342.3 135.087 342.201 135.294C342.127 135.449 342.191 135.636 342.345 135.712C342.388 135.733 342.434 135.743 342.479 135.743Z" fill="#21211D"/>
<path fill-rule="evenodd" clip-rule="evenodd" d="M347.404 139.944C347.418 139.944 347.431 139.943 347.445 139.941C347.613 139.917 347.729 139.76 347.707 139.589C347.699 139.534 347.011 134.035 350.584 132.814C350.744 132.759 350.83 132.582 350.777 132.419C350.723 132.255 350.55 132.167 350.39 132.222C348.7 132.799 347.596 134.283 347.198 136.513C346.904 138.157 347.094 139.613 347.102 139.674C347.123 139.83 347.254 139.944 347.404 139.944Z" fill="#21211D"/>
<path fill-rule="evenodd" clip-rule="evenodd" d="M351.774 141.491C351.817 141.491 351.862 141.482 351.904 141.462C352.061 141.389 352.129 141.202 352.057 141.044C352.048 141.025 351.189 139.106 351.967 137.505C352.447 136.517 353.458 135.835 354.973 135.48C355.141 135.441 355.245 135.272 355.206 135.102C355.167 134.933 354.999 134.828 354.831 134.867C353.123 135.267 351.97 136.063 351.404 137.233C350.498 139.105 351.449 141.22 351.49 141.309C351.543 141.423 351.656 141.491 351.774 141.491Z" fill="#21211D"/>
<path fill-rule="evenodd" clip-rule="evenodd" d="M357.775 140.386C357.907 140.386 358.03 140.304 358.073 140.176C358.126 140.016 358.036 139.845 357.872 139.793L356.56 139.38L357.12 139.211C357.285 139.161 357.377 138.991 357.326 138.83C357.275 138.67 357.099 138.581 356.934 138.631L355.435 139.084C355.304 139.123 355.215 139.24 355.214 139.372C355.213 139.504 355.301 139.622 355.431 139.663L357.678 140.371C357.711 140.381 357.743 140.386 357.775 140.386Z" fill="#21211D"/>
<path fill-rule="evenodd" clip-rule="evenodd" d="M333.106 154.977H277.841L263.024 112.53H316.362C317.518 112.53 318.549 113.269 318.938 114.377L333.106 154.977Z" fill="#21211D"/>
<path fill-rule="evenodd" clip-rule="evenodd" d="M328.694 154.977H274.392C274.209 154.977 274.045 154.86 273.985 154.685L260.272 115.356C259.79 113.978 260.793 112.53 262.23 112.53H312.272C313.61 112.53 314.803 113.386 315.253 114.669L329.101 154.389C329.202 154.675 328.993 154.977 328.694 154.977Z" fill="#2E4C9E"/>
<mask id="mask19_565_5007" style="mask-type:alpha" maskUnits="userSpaceOnUse" x="260" y="112" width="70" height="44">
<path fill-rule="evenodd" clip-rule="evenodd" d="M262.336 112.701C260.902 112.701 259.898 114.145 260.38 115.519L274.085 154.729C274.146 154.904 274.308 155.021 274.491 155.021H328.761C329.06 155.021 329.268 154.72 329.168 154.434L315.328 114.834C314.878 113.555 313.686 112.701 312.349 112.701H262.336Z" fill="white"/>
</mask>
<g mask="url(#mask19_565_5007)">
<path fill-rule="evenodd" clip-rule="evenodd" d="M265.756 103.99L333.868 151.607L316.526 163.058L253.155 122.288L265.756 103.99Z" fill="#4965CC"/>
</g>
<path fill-rule="evenodd" clip-rule="evenodd" d="M294.722 135.522C296.354 135.522 297.492 134.186 297.262 132.537C297.033 130.889 295.524 129.553 293.892 129.553C292.26 129.553 291.122 130.889 291.352 132.537C291.581 134.186 293.09 135.522 294.722 135.522ZM291.543 154.977H359.194C359.194 152.779 357.478 150.997 355.362 150.997H291.543V154.977Z" fill="#2E4C9E"/>
<path fill-rule="evenodd" clip-rule="evenodd" d="M273.059 151.219H327.935C328.105 151.219 328.243 151.07 328.243 150.887C328.243 150.704 328.105 150.555 327.935 150.555H273.059C272.889 150.555 272.752 150.704 272.752 150.887C272.752 151.07 272.889 151.219 273.059 151.219Z" fill="#21211D"/>
<path fill-rule="evenodd" clip-rule="evenodd" d="M353.042 90.1489L352.622 93.7625C352.566 94.278 352.544 94.8568 352.575 95.392C352.873 100.51 357.216 104.414 362.274 104.112C367.333 103.811 371.192 99.4181 370.894 94.3006L370.553 88.432C370.553 88.432 364.245 90.5307 353.042 90.1489Z" fill="#963716"/>
<path fill-rule="evenodd" clip-rule="evenodd" d="M345.962 81.3037C347.888 83.31 350.519 83.6405 353.3 83.0829C360.398 81.6603 368.504 74.4553 368.504 74.4553C370.111 73.1947 371.823 71.4672 372.902 69.5614L372.957 69.4609C373.242 68.9522 373.479 68.4271 373.657 67.8987C373.741 67.646 373.813 67.3898 373.868 67.1338C373.874 67.1079 373.878 67.0851 373.884 67.0626C373.9 66.9912 373.916 66.9231 373.929 66.8616C374.244 65.5588 374.487 65.5199 374.879 63.0436C375.459 59.3812 373.929 56.1401 370.649 54.3706C366.232 51.9852 360.508 51.3728 355.789 53.3853C355.776 53.3919 355.763 53.395 355.75 53.4016C355.199 53.6382 354.671 53.917 354.169 54.2313C353.543 54.6169 352.957 55.0544 352.406 55.5406C348.922 58.5742 346.792 63.3321 345.188 67.4773C343.499 71.8366 342.365 77.5537 345.962 81.3037Z" fill="#963716"/>
<path fill-rule="evenodd" clip-rule="evenodd" d="M355.515 67.0942L352.641 91.543C352.074 96.3713 355.527 100.746 360.356 101.313C365.184 101.881 369.559 98.4269 370.126 93.5986C370.186 93.0934 370.197 92.5447 370.171 92.0532L368.724 67.4787C368.508 63.8218 365.37 61.032 361.713 61.2475C358.452 61.4394 355.881 63.9586 355.515 67.0942Z" fill="#963716"/>
<path fill-rule="evenodd" clip-rule="evenodd" d="M353.659 83.0058C353.659 83.0058 355.401 82.7323 358.185 81.3015C358.525 81.1264 358.862 81.5407 358.617 81.8347L353.171 87.0622L353.659 83.0058Z" fill="#21211D"/>
<path fill-rule="evenodd" clip-rule="evenodd" d="M369.2 75.3436C369.2 75.3436 368.529 74.9441 368.047 74.2366C367.973 74.129 367.807 74.1597 367.782 74.2877C367.61 75.1614 367.456 77.4737 369.432 79.3772L369.2 75.3436Z" fill="#21211D"/>
<path fill-rule="evenodd" clip-rule="evenodd" d="M355.931 53.3258L355.75 53.4014C355.2 53.6382 354.671 53.9167 354.169 54.2311C353.543 54.6169 352.957 55.0544 352.406 55.5406C353.89 57.3004 356.13 58.3538 358.405 58.8269C360.524 59.2673 362.703 59.26 364.875 59.212L366.08 59.1835C366.311 59.1775 366.549 59.1751 366.787 59.1851L366.859 59.1997C367.465 59.3323 367.924 59.6646 367.047 61.5066L366.976 61.6534C365.492 64.6628 364.5 67.4391 364 69.9824C363.935 70.1659 363.903 70.3558 363.903 70.5426C363.903 71.2087 364.308 71.8397 364.968 72.0939C365.752 72.3959 366.634 72.0672 367.031 71.3363L367.057 71.2859L367.875 69.7314C367.897 69.6684 367.921 69.6065 367.947 69.546C368.4 69.8705 369.024 69.9901 369.587 69.8924L369.658 69.8789C370.517 69.6974 372.316 70.0635 372.957 69.4608C373.596 68.8611 374.487 65.5197 374.879 63.0436C375.459 59.3812 373.929 56.1401 370.649 54.3706C366.276 52.009 360.623 51.3852 355.931 53.3258Z" fill="#ED6629"/>
<path fill-rule="evenodd" clip-rule="evenodd" d="M371.419 74.7314C371.419 75.3993 371.96 75.9407 372.628 75.9407C373.296 75.9407 373.837 75.3993 373.837 74.7314C373.837 74.0635 373.296 73.5221 372.628 73.5221C371.96 73.5221 371.419 74.0635 371.419 74.7314Z" fill="white"/>
<path fill-rule="evenodd" clip-rule="evenodd" d="M366.979 72.2162C367.136 74.9171 369.453 76.9798 372.154 76.8233C374.855 76.6665 376.917 74.3501 376.761 71.6491C376.604 68.948 374.288 66.8853 371.587 67.0421C368.886 67.1986 366.823 69.5153 366.979 72.2162Z" fill="#963716"/>
<path fill-rule="evenodd" clip-rule="evenodd" d="M370.117 72.5412C370.157 72.5412 370.198 72.5332 370.238 72.5166L374.085 70.9052C374.245 70.838 374.321 70.6534 374.254 70.4926C374.187 70.3323 374.002 70.2565 373.841 70.3239L369.995 71.9354C369.834 72.0026 369.758 72.1872 369.826 72.3477C369.876 72.4684 369.993 72.5412 370.117 72.5412Z" fill="#21211D"/>
<path fill-rule="evenodd" clip-rule="evenodd" d="M372.508 73.2171C372.545 73.2171 372.583 73.2104 372.62 73.1963C372.783 73.1342 372.864 72.952 372.802 72.7893L372.25 71.3434C372.187 71.1807 372.005 71.0994 371.843 71.1615C371.68 71.2236 371.599 71.4058 371.661 71.5683L372.213 73.0143C372.261 73.1399 372.381 73.2171 372.508 73.2171Z" fill="#21211D"/>
<path fill-rule="evenodd" clip-rule="evenodd" d="M342.639 67.7373C342.639 67.7373 344.283 69.7701 346.957 69.6748C348.09 69.6326 349.409 69.2134 350.86 68.0875C350.86 68.0875 349.447 66.4661 347.095 66.3093C345.848 66.2222 344.341 66.5426 342.639 67.7373Z" fill="white"/>
<path fill-rule="evenodd" clip-rule="evenodd" d="M342.638 67.7373C342.638 67.7373 344.283 69.7701 346.957 69.6748C347.332 69.2212 347.56 68.6539 347.587 68.0216C347.614 67.3891 347.43 66.7931 347.094 66.3093C345.848 66.2222 344.341 66.5426 342.638 67.7373Z" fill="#21211D"/>
<path d="M353.087 66.5376C352.92 66.4919 352.749 66.5813 352.688 66.7396L352.679 66.77L351.299 71.7941C351.051 72.6971 351.716 73.5881 352.643 73.6172L352.694 73.618L353.842 73.6146C354.026 73.6141 354.174 73.4649 354.173 73.2814C354.173 73.1081 354.04 72.9661 353.87 72.9513L353.84 72.9501L352.692 72.9534C352.192 72.9547 351.824 72.4919 351.93 72.0102L351.94 71.97L353.319 66.946C353.368 66.769 353.264 66.5861 353.087 66.5376Z" fill="#21211D"/>
<path d="M349.743 63.7535C347.77 62.9806 345.553 62.9853 343.317 64.285C343.159 64.3773 343.105 64.5806 343.197 64.7393C343.29 64.8979 343.493 64.9518 343.652 64.8595C345.694 63.6721 347.703 63.6679 349.501 64.3723C349.761 64.4741 349.992 64.583 350.191 64.6913L350.294 64.7494C350.355 64.7843 350.398 64.8111 350.423 64.8277C350.575 64.9304 350.781 64.8905 350.884 64.7385C350.987 64.5864 350.947 64.3799 350.795 64.2771L350.753 64.2496C350.696 64.2137 350.614 64.1652 350.508 64.1076C350.286 63.9864 350.03 63.8658 349.743 63.7535Z" fill="#21211D"/>
<path fill-rule="evenodd" clip-rule="evenodd" d="M354.207 67.7373C354.207 67.7373 355.851 69.7701 358.525 69.6748C359.659 69.6326 360.977 69.2134 362.428 68.0875C362.428 68.0875 361.015 66.4661 358.663 66.3093C357.417 66.2222 355.909 66.5426 354.207 67.7373Z" fill="white"/>
<path fill-rule="evenodd" clip-rule="evenodd" d="M354.207 67.7373C354.207 67.7373 355.851 69.7701 358.525 69.6748C358.901 69.2212 359.129 68.6539 359.156 68.0216C359.183 67.3891 358.999 66.7931 358.663 66.3093C357.416 66.2222 355.909 66.5426 354.207 67.7373Z" fill="#21211D"/>
<path d="M362.344 64.285C360.109 62.9853 357.892 62.9806 355.919 63.7535C355.632 63.8658 355.376 63.9864 355.154 64.1076L355.069 64.1546C354.977 64.2068 354.909 64.2488 354.867 64.2771C354.715 64.3798 354.675 64.5864 354.778 64.7385C354.881 64.8905 355.087 64.9304 355.239 64.8277L355.29 64.7954C355.333 64.7691 355.393 64.7337 355.471 64.6913C355.67 64.583 355.901 64.4741 356.161 64.3723C357.959 63.6679 359.968 63.6721 362.01 64.8595C362.169 64.9518 362.372 64.8979 362.465 64.7393C362.557 64.5806 362.503 64.3773 362.344 64.285Z" fill="#21211D"/>
<path d="M355.925 74.2987C355.762 74.2412 355.584 74.3183 355.513 74.4719L355.489 74.5302C355.477 74.5598 355.456 74.6033 355.428 74.657C355.358 74.7862 355.269 74.916 355.159 75.0365C354.797 75.4337 354.306 75.6396 353.636 75.5597C353.454 75.538 353.288 75.6681 353.267 75.8503C353.245 76.0326 353.375 76.1979 353.557 76.2196C354.451 76.3261 355.149 76.0331 355.65 75.4842C355.905 75.2038 356.057 74.9231 356.127 74.7225C356.189 74.5495 356.098 74.3597 355.925 74.2987Z" fill="#21211D"/>
<path opacity="0.01" d="M358.255 73.4468C357.173 72.6646 355.884 72.531 354.462 73.0287C352.997 73.5412 351.995 73.9882 351.485 75.6343C351.377 75.9843 351.573 76.3557 351.923 76.464C352.273 76.5724 352.644 76.3765 352.753 76.0265C353.142 74.7677 353.848 74.6485 354.9 74.2807C355.93 73.9203 356.765 74.0067 357.479 74.5221C357.775 74.7365 358.19 74.6698 358.404 74.3729C358.619 74.0759 358.552 73.6614 358.255 73.4468Z" fill="#ED6629"/>
</svg>
