<svg width="520" height="344" viewBox="0 0 520 344" fill="none" xmlns="http://www.w3.org/2000/svg">
<mask id="mask0_565_6130" style="mask-type:alpha" maskUnits="userSpaceOnUse" x="420" y="0" width="2" height="67">
<path fill-rule="evenodd" clip-rule="evenodd" d="M420.782 0H421.51V66.6358H420.782V0Z" fill="white"/>
</mask>
<g mask="url(#mask0_565_6130)">
<path fill-rule="evenodd" clip-rule="evenodd" d="M421.146 66.6358C420.945 66.6358 420.782 66.473 420.782 66.2718V0.364005C420.782 0.163089 420.945 0 421.146 0C421.347 0 421.51 0.163089 421.51 0.364005V66.2718C421.51 66.473 421.347 66.6358 421.146 66.6358Z" fill="#21211D"/>
</g>
<path fill-rule="evenodd" clip-rule="evenodd" d="M430.75 96.1218C430.75 101.426 426.45 105.726 421.146 105.726C415.842 105.726 411.542 101.426 411.542 96.1218C411.542 90.8176 415.842 86.5177 421.146 86.5177C426.45 86.5177 430.75 90.8176 430.75 96.1218Z" fill="#EDC829"/>
<path fill-rule="evenodd" clip-rule="evenodd" d="M391.296 96.1219C391.296 79.6361 404.66 66.2719 421.146 66.2719C437.632 66.2719 450.996 79.6361 450.996 96.1219H391.296Z" fill="#F73132"/>
<path fill-rule="evenodd" clip-rule="evenodd" d="M422.473 103.317C422.31 103.317 422.162 103.207 422.12 103.041C422.072 102.846 422.19 102.649 422.385 102.6C426.603 101.549 426.66 98.1664 426.661 98.023C426.661 97.8223 426.824 97.6594 427.025 97.6594C427.225 97.6594 427.388 97.8212 427.389 98.0216C427.389 98.0624 427.347 102.114 422.562 103.307C422.532 103.314 422.503 103.317 422.473 103.317Z" fill="white"/>
<mask id="mask1_565_6130" style="mask-type:alpha" maskUnits="userSpaceOnUse" x="391" y="66" width="60" height="31">
<path fill-rule="evenodd" clip-rule="evenodd" d="M391.296 96.1219H450.996C450.996 79.6363 437.632 66.2719 421.146 66.2719C404.66 66.2719 391.296 79.6363 391.296 96.1219Z" fill="white"/>
</mask>
<g mask="url(#mask1_565_6130)">
<path fill-rule="evenodd" clip-rule="evenodd" d="M382.962 98.7197C382.889 98.7197 382.814 98.6975 382.75 98.6518C382.587 98.5347 382.549 98.3073 382.666 98.1439C386.407 92.916 390.58 87.4555 395.739 82.9345C401.314 78.0494 407.46 74.9042 413.512 73.8389C415.835 73.4305 417.427 73.7592 418.378 74.8453C419.433 76.0511 419.415 78.0242 418.331 80.1233C417.916 80.9265 417.422 81.6939 416.944 82.4362C416.311 83.4202 415.656 84.4377 415.204 85.5193C414.532 87.1248 414.243 89.5351 415.636 91.0435C416.451 91.926 417.804 92.4075 419.366 92.3708C422.627 92.2888 425.414 90.3261 428.461 87.9629L457.728 65.2646C457.887 65.1413 458.115 65.1701 458.239 65.3291C458.362 65.4879 458.333 65.7167 458.174 65.8399L428.908 88.5382C426.477 90.423 423.149 93.0039 419.384 93.0986C417.62 93.1439 416.058 92.5738 415.101 91.5375C413.474 89.7757 413.778 87.043 414.532 85.2382C415.009 84.0977 415.682 83.0526 416.332 82.0421C416.801 81.3143 417.285 80.5616 417.684 79.7892C418.037 79.1063 419.09 76.7653 417.83 75.3246C417.061 74.4465 415.69 74.1948 413.639 74.5561C407.718 75.598 401.694 78.6847 396.219 83.482C391.115 87.9543 386.974 93.3754 383.258 98.5675C383.187 98.6667 383.075 98.7197 382.962 98.7197Z" fill="#ED7AD8"/>
</g>
<mask id="mask2_565_6130" style="mask-type:alpha" maskUnits="userSpaceOnUse" x="391" y="66" width="60" height="31">
<path fill-rule="evenodd" clip-rule="evenodd" d="M391.296 96.1219H450.996C450.996 79.6363 437.632 66.2719 421.146 66.2719C404.66 66.2719 391.296 79.6363 391.296 96.1219Z" fill="white"/>
</mask>
<g mask="url(#mask2_565_6130)">
<path fill-rule="evenodd" clip-rule="evenodd" d="M427.17 81.3702C425.781 81.3702 424.4 80.8441 423.631 79.6501C422.793 78.3504 422.936 76.6812 423.154 75.3724C424.079 69.8215 426.75 64.5436 430.674 60.5107C430.814 60.3667 431.044 60.3635 431.189 60.5037C431.333 60.6439 431.336 60.8745 431.196 61.0183C427.374 64.9458 424.773 70.0861 423.872 75.492C423.676 76.6717 423.54 78.1658 424.243 79.2558C425.223 80.7779 427.468 80.9575 429.071 80.2515C430.842 79.4714 432.186 77.8047 433.265 76.4656C439.558 68.6595 445.742 60.5916 451.646 52.4858C451.764 52.3234 451.991 52.2877 452.154 52.4059C452.317 52.5244 452.353 52.752 452.234 52.9146C446.324 61.0299 440.133 69.1073 433.832 76.9227C432.703 78.3232 431.298 80.0662 429.364 80.9177C428.697 81.2117 427.932 81.3702 427.17 81.3702Z" fill="#ED7AD8"/>
</g>
<mask id="mask3_565_6130" style="mask-type:alpha" maskUnits="userSpaceOnUse" x="391" y="66" width="60" height="31">
<path fill-rule="evenodd" clip-rule="evenodd" d="M391.296 96.1219H450.996C450.996 79.6363 437.632 66.2719 421.146 66.2719C404.66 66.2719 391.296 79.6363 391.296 96.1219Z" fill="white"/>
</mask>
<g mask="url(#mask3_565_6130)">
<path fill-rule="evenodd" clip-rule="evenodd" d="M448.417 99.6638C447.207 99.6638 446.042 99.4819 444.966 99.113C441.317 97.8628 438.789 94.199 439.211 90.7719C439.465 88.707 440.713 86.6371 442.82 84.7861C447.171 80.9637 453.386 79.3674 459.04 80.6196C459.237 80.6631 459.361 80.8574 459.317 81.0538C459.274 81.2502 459.08 81.3741 458.883 81.3304C453.452 80.1271 447.48 81.6611 443.3 85.3331C441.926 86.5404 440.227 88.4796 439.934 90.8609C439.552 93.9591 441.866 97.2814 445.201 98.4241C448.083 99.412 451.659 98.9585 455.011 97.1801C458.072 95.556 460.635 93.1185 463.113 90.7614C463.258 90.623 463.489 90.6285 463.627 90.7741C463.766 90.9198 463.76 91.1504 463.614 91.289C461.101 93.6801 458.502 96.1524 455.352 97.8234C453.061 99.0393 450.66 99.6638 448.417 99.6638Z" fill="#ED7AD8"/>
</g>
<mask id="mask4_565_6130" style="mask-type:alpha" maskUnits="userSpaceOnUse" x="391" y="66" width="60" height="31">
<path fill-rule="evenodd" clip-rule="evenodd" d="M391.296 96.1219H450.996C450.996 79.6363 437.632 66.2719 421.146 66.2719C404.66 66.2719 391.296 79.6363 391.296 96.1219Z" fill="white"/>
</mask>
<g mask="url(#mask4_565_6130)">
<path fill-rule="evenodd" clip-rule="evenodd" d="M405.308 112.018C405.279 112.018 405.25 112.015 405.221 112.008C405.026 111.96 404.906 111.763 404.954 111.567C406.407 105.666 407.909 99.5637 407.439 93.4028C407.237 90.7578 406.501 89.0506 405.189 88.1837C403.302 86.9379 400.721 87.7531 398.888 88.6567C392.855 91.6297 388.039 97.2315 386.004 103.641C385.943 103.833 385.738 103.939 385.547 103.878C385.355 103.817 385.249 103.613 385.31 103.421C387.404 96.8261 392.359 91.0625 398.566 88.0036C400.57 87.0161 403.415 86.1397 405.59 87.5762C407.102 88.5751 407.945 90.4631 408.165 93.3475C408.644 99.6244 407.128 105.784 405.661 111.741C405.62 111.907 405.472 112.018 405.308 112.018Z" fill="#ED7AD8"/>
</g>
<mask id="mask5_565_6130" style="mask-type:alpha" maskUnits="userSpaceOnUse" x="391" y="66" width="60" height="31">
<path fill-rule="evenodd" clip-rule="evenodd" d="M391.296 96.1219H450.996C450.996 79.6363 437.632 66.2719 421.146 66.2719C404.66 66.2719 391.296 79.6363 391.296 96.1219Z" fill="white"/>
</mask>
<g mask="url(#mask5_565_6130)">
<path fill-rule="evenodd" clip-rule="evenodd" d="M404.905 72.8527C403.263 72.8527 401.313 72.0789 400.544 70.3167C400.464 70.1323 400.548 69.9175 400.732 69.8374C400.917 69.7567 401.131 69.8412 401.212 70.0256C401.769 71.3038 403.329 72.1627 405.019 72.1231C406.712 72.0796 408.332 71.2497 409.554 70.5312C416.25 66.5971 421.29 60.0828 425.737 54.3351C425.86 54.1763 426.089 54.1471 426.247 54.2701C426.407 54.3931 426.436 54.6216 426.313 54.7806C421.826 60.5803 416.74 67.1536 409.923 71.1591C408.626 71.9217 406.897 72.8033 405.037 72.8509C404.993 72.852 404.949 72.8527 404.905 72.8527Z" fill="#ED7AD8"/>
</g>
<path fill-rule="evenodd" clip-rule="evenodd" d="M471.937 94.9185V28.5405C471.937 28.3394 472.1 28.1765 472.301 28.1765C472.502 28.1765 472.665 28.3394 472.665 28.5405V94.9185C472.665 95.1196 472.502 95.2825 472.301 95.2825C472.1 95.2825 471.937 95.1196 471.937 94.9185Z" fill="#21211D"/>
<path fill-rule="evenodd" clip-rule="evenodd" d="M468.266 97.7943H476.068V90.6766H468.266V97.7943Z" fill="#F73132"/>
<path fill-rule="evenodd" clip-rule="evenodd" d="M492.008 114.626C492.008 125.51 483.185 134.333 472.301 134.333C461.417 134.333 452.594 125.51 452.594 114.626C452.594 103.742 461.417 94.9185 472.301 94.9185C483.185 94.9185 492.008 103.742 492.008 114.626Z" fill="#EDC829"/>
<path fill-rule="evenodd" clip-rule="evenodd" d="M475.02 107.752C474.893 108.407 474.768 109.064 474.642 109.719L474.516 110.379C474.176 112.15 473.753 114.353 474.46 116.221C474.561 116.485 474.942 117.355 475.619 117.421C476.099 117.467 476.554 117.056 476.745 116.626C476.981 116.093 476.963 115.455 476.928 114.898C476.801 112.936 476.382 111.004 475.682 109.158C475.493 108.66 475.269 108.185 475.02 107.752ZM469.281 106.315C468.664 106.884 468.2 107.574 467.899 108.1C466.569 110.423 465.945 113.174 466.141 115.848C466.228 117.036 466.719 118.471 467.819 118.602C468.57 118.694 469.266 118.072 469.563 117.41C469.895 116.671 469.904 115.832 469.883 114.89C469.822 112.038 469.62 109.157 469.281 106.315ZM467.974 119.34C467.894 119.34 467.814 119.335 467.732 119.325C466.193 119.141 465.522 117.365 465.415 115.901C465.208 113.085 465.866 110.186 467.267 107.738C467.655 107.062 468.292 106.135 469.174 105.452C468.757 102.191 468.152 98.9257 467.376 95.7441C467.329 95.5488 467.448 95.352 467.644 95.3042C467.839 95.2562 468.036 95.3765 468.084 95.5719C468.838 98.665 469.432 101.836 469.851 105.007C470.438 104.689 471.045 104.532 471.67 104.536C472.736 104.543 473.745 105.036 474.621 105.97C475.147 103.218 475.676 100.467 476.204 97.7154L476.607 95.612C476.645 95.4143 476.836 95.2843 477.034 95.323C477.231 95.3608 477.36 95.5518 477.322 95.7491L476.919 97.8527C476.352 100.806 475.785 103.757 475.22 106.71C475.663 107.34 476.056 108.094 476.363 108.899C477.088 110.814 477.523 112.817 477.654 114.852C477.695 115.495 477.714 116.237 477.411 116.921C477.059 117.714 476.292 118.216 475.549 118.146C474.799 118.073 474.155 117.465 473.78 116.479C472.999 114.418 473.444 112.103 473.801 110.242L473.927 109.582C474.1 108.684 474.271 107.784 474.445 106.886C473.616 105.816 472.681 105.271 471.664 105.264C471.082 105.263 470.507 105.437 469.951 105.793C470.325 108.8 470.546 111.854 470.61 114.874C470.633 115.867 470.621 116.832 470.228 117.708C469.862 118.523 469.017 119.34 467.974 119.34Z" fill="#21211D"/>
<path fill-rule="evenodd" clip-rule="evenodd" d="M460.016 124.85C459.92 124.85 459.825 124.812 459.754 124.738C455.126 119.918 456.197 113.685 456.244 113.422C456.28 113.224 456.47 113.092 456.667 113.129C456.865 113.164 456.996 113.354 456.961 113.552C456.95 113.613 455.915 119.689 460.279 124.234C460.418 124.379 460.413 124.609 460.268 124.748C460.198 124.816 460.107 124.85 460.016 124.85Z" fill="white"/>
<path fill-rule="evenodd" clip-rule="evenodd" d="M362.618 193.334H239.507C236.447 193.334 233.966 190.853 233.966 187.792V121.632C233.966 118.572 236.447 116.091 239.507 116.091H362.618C365.679 116.091 368.161 118.572 368.161 121.632V187.792C368.161 190.853 365.679 193.334 362.618 193.334Z" fill="#EDE8D6"/>
<mask id="mask6_565_6130" style="mask-type:alpha" maskUnits="userSpaceOnUse" x="228" y="100" width="147" height="114">
<path fill-rule="evenodd" clip-rule="evenodd" d="M228.8 213.947H374.132V100.736H228.8V213.947Z" fill="white"/>
</mask>
<g mask="url(#mask6_565_6130)">
<path fill-rule="evenodd" clip-rule="evenodd" d="M240.463 179.714H361.665V122.149H240.463V179.714Z" fill="#B6CCFC"/>
<path fill-rule="evenodd" clip-rule="evenodd" d="M322.01 213.947H280.116C278.911 213.947 278.7 212.227 279.869 211.935L280.519 211.772C286.492 210.28 290.785 205.144 291.272 199.091C291.304 198.71 291.319 198.326 291.319 197.939V193.335H310.811V197.939C310.811 204.483 315.262 210.185 321.606 211.772L322.259 211.935C323.425 212.227 323.215 213.947 322.01 213.947Z" fill="#EDE8D6"/>
<path fill-rule="evenodd" clip-rule="evenodd" d="M301.064 182.969C299.499 182.969 298.226 184.242 298.226 185.808C298.226 187.373 299.499 188.647 301.064 188.647C302.629 188.647 303.902 187.373 303.902 185.808C303.902 184.242 302.629 182.969 301.064 182.969ZM301.064 189.255C299.164 189.255 297.617 187.708 297.617 185.808C297.617 183.907 299.164 182.36 301.064 182.36C302.965 182.36 304.512 183.907 304.512 185.808C304.512 187.708 302.965 189.255 301.064 189.255Z" fill="#21211D"/>
<path fill-rule="evenodd" clip-rule="evenodd" d="M310.811 193.335V194.778L291.272 199.091C291.304 198.71 291.32 198.326 291.32 197.939V193.335H310.811Z" fill="#21211D"/>
</g>
<mask id="mask7_565_6130" style="mask-type:alpha" maskUnits="userSpaceOnUse" x="253" y="122" width="109" height="58">
<path fill-rule="evenodd" clip-rule="evenodd" d="M253.046 122.04H361.704V179.602H253.046V122.04Z" fill="white"/>
</mask>
<g mask="url(#mask7_565_6130)">
<path fill-rule="evenodd" clip-rule="evenodd" d="M253.046 184.192L294.688 192.552L374.176 131.009L364.945 100.629L341.866 108.725L253.046 184.192Z" fill="#CDDDF9"/>
</g>
<mask id="mask8_565_6130" style="mask-type:alpha" maskUnits="userSpaceOnUse" x="240" y="122" width="79" height="58">
<path fill-rule="evenodd" clip-rule="evenodd" d="M240.463 122.04H318.152V179.602H240.463V122.04Z" fill="white"/>
</mask>
<g mask="url(#mask8_565_6130)">
<path fill-rule="evenodd" clip-rule="evenodd" d="M233.425 184.443L318.152 115.784L299.675 118.828L228.797 173.33L233.425 184.443Z" fill="#CDDDF9"/>
</g>
<path fill-rule="evenodd" clip-rule="evenodd" d="M415.345 253.607C411.564 254.876 411.163 260.056 414.711 261.877C426.332 267.843 438.244 273.351 451.026 275.812C466.378 278.768 483.446 276.744 495.523 266.816C507.092 257.306 512.397 242.189 515.427 227.522C518.554 212.389 519.824 196.875 519.211 181.435C519.031 176.91 515.328 173.326 510.8 173.326C506.541 173.326 502.946 176.505 502.445 180.733C500.056 200.896 498.763 248.724 463.547 248.724C436.525 248.724 422.552 251.186 415.345 253.607Z" fill="#EDC829"/>
<path fill-rule="evenodd" clip-rule="evenodd" d="M412.704 260.16C412.728 260.16 412.752 260.157 412.777 260.151C424.729 257.408 442.128 256.016 464.492 256.016C473.57 256.016 481.406 253.349 487.782 248.086C493.235 243.586 497.773 237.05 501.269 228.66C507.648 213.354 509.522 194.784 510.89 181.225C511.159 178.555 511.414 176.033 511.676 173.82C511.694 173.68 511.713 173.539 511.736 173.4C511.764 173.223 511.643 173.058 511.467 173.03C511.29 173.002 511.125 173.122 511.097 173.298C511.073 173.445 511.053 173.593 511.034 173.741C510.771 175.962 510.516 178.487 510.246 181.16C508.882 194.679 507.013 213.194 500.672 228.411C497.216 236.702 492.741 243.154 487.37 247.587C481.113 252.751 473.416 255.37 464.492 255.37C442.08 255.37 424.632 256.766 412.632 259.521C412.458 259.561 412.349 259.734 412.389 259.908C412.423 260.058 412.557 260.16 412.704 260.16Z" fill="#21211D"/>
<mask id="mask9_565_6130" style="mask-type:alpha" maskUnits="userSpaceOnUse" x="411" y="260" width="109" height="84">
<path fill-rule="evenodd" clip-rule="evenodd" d="M519.685 260.868H411.943V343.615H519.685V260.868Z" fill="white"/>
</mask>
<g mask="url(#mask9_565_6130)">
<path fill-rule="evenodd" clip-rule="evenodd" d="M412.266 343.615C412.393 343.615 412.513 343.54 412.565 343.415L440.21 276.967C444.115 267.58 453.207 261.515 463.374 261.515C468.077 261.515 472.671 262.832 476.66 265.322C480.649 267.813 483.849 271.362 485.914 275.588L519.07 343.433C519.149 343.594 519.343 343.66 519.503 343.582C519.664 343.503 519.73 343.31 519.652 343.149L486.496 275.304C484.377 270.97 481.095 267.328 477.003 264.773C472.911 262.219 468.198 260.868 463.374 260.868C452.945 260.868 443.618 267.09 439.613 276.718L411.967 343.167C411.899 343.332 411.977 343.521 412.142 343.59C412.182 343.607 412.225 343.615 412.266 343.615Z" fill="#21211D"/>
</g>
<path fill-rule="evenodd" clip-rule="evenodd" d="M182.987 124.116C181.955 130.5 185.75 137.349 191.71 139.858C194.642 141.093 197.886 141.334 200.954 142.177C204.021 143.02 207.152 144.717 208.339 147.668C208.312 143.822 205.617 138.414 202.349 136.384C199.081 134.355 195.314 133.307 191.797 131.749C188.28 130.191 184.817 127.911 183.236 124.404" fill="#F1A596"/>
<path fill-rule="evenodd" clip-rule="evenodd" d="M217.418 156.835C219.268 152.746 223.78 149.562 227.789 147.546C231.799 145.531 236.098 143.128 237.738 138.951C239.505 141.785 238.414 147.358 235.806 149.445C233.198 151.532 229.787 152.247 226.525 152.965C223.262 153.683 219.854 154.549 217.418 156.835Z" fill="#F1A596"/>
<path fill-rule="evenodd" clip-rule="evenodd" d="M211.219 179.945C211.032 179.945 210.873 179.802 210.856 179.613L204.282 104.828C204.265 104.628 204.413 104.451 204.613 104.434C204.813 104.416 204.99 104.564 205.008 104.764L211.582 179.549C211.599 179.749 211.451 179.926 211.251 179.944C211.24 179.945 211.229 179.945 211.219 179.945Z" fill="#21211D"/>
<path fill-rule="evenodd" clip-rule="evenodd" d="M214 175.728C213.978 175.728 213.955 175.726 213.933 175.721C213.735 175.684 213.605 175.494 213.642 175.296L222.492 128.32C222.529 128.122 222.72 127.993 222.917 128.029C223.115 128.066 223.245 128.257 223.207 128.454L214.357 175.431C214.325 175.606 214.172 175.728 214 175.728Z" fill="#21211D"/>
<mask id="mask10_565_6130" style="mask-type:alpha" maskUnits="userSpaceOnUse" x="193" y="93" width="23" height="23">
<path fill-rule="evenodd" clip-rule="evenodd" d="M193.772 93.9238H215.517V115.669H193.772V93.9238Z" fill="white"/>
</mask>
<g mask="url(#mask10_565_6130)">
<path fill-rule="evenodd" clip-rule="evenodd" d="M215.517 104.796C215.517 110.801 210.649 115.669 204.645 115.669C198.64 115.669 193.772 110.801 193.772 104.796C193.772 98.7914 198.64 93.9236 204.645 93.9236C210.649 93.9236 215.517 98.7914 215.517 104.796Z" fill="#EDC829"/>
</g>
<path fill-rule="evenodd" clip-rule="evenodd" d="M232.453 128.387C232.453 133.691 228.154 137.991 222.85 137.991C217.546 137.991 213.247 133.691 213.247 128.387C213.247 123.083 217.546 118.784 222.85 118.784C228.154 118.784 232.453 123.083 232.453 128.387Z" fill="#EDC829"/>
<path fill-rule="evenodd" clip-rule="evenodd" d="M222.85 164.238H199.588L205.024 213.775H217.414L222.85 164.238Z" fill="#4965CC"/>
<mask id="mask11_565_6130" style="mask-type:alpha" maskUnits="userSpaceOnUse" x="199" y="164" width="24" height="50">
<path fill-rule="evenodd" clip-rule="evenodd" d="M199.588 164.238L205.024 213.775H217.414L222.85 164.238H199.588Z" fill="white"/>
</mask>
<g mask="url(#mask11_565_6130)">
<path fill-rule="evenodd" clip-rule="evenodd" d="M202.488 173.882C201.074 173.882 199.64 174.278 198.464 175.056C196.466 176.379 195.526 178.541 195.816 181.145C196.267 185.188 199.356 186.894 202.224 186.79C205.208 186.683 208.496 184.63 208.662 180.378C208.762 177.815 207.748 175.802 205.807 174.71C204.822 174.155 203.662 173.882 202.488 173.882ZM201.975 187.701C198.774 187.701 195.417 185.734 194.916 181.246C194.585 178.287 195.668 175.82 197.963 174.301C200.389 172.695 203.797 172.539 206.251 173.92C208.503 175.187 209.681 177.493 209.567 180.414C209.388 185.028 205.753 187.57 202.257 187.696C202.163 187.699 202.069 187.701 201.975 187.701Z" fill="white"/>
</g>
<mask id="mask12_565_6130" style="mask-type:alpha" maskUnits="userSpaceOnUse" x="199" y="164" width="24" height="50">
<path fill-rule="evenodd" clip-rule="evenodd" d="M199.588 164.238L205.024 213.775H217.414L222.85 164.238" fill="white"/>
</mask>
<g mask="url(#mask12_565_6130)">
<path fill-rule="evenodd" clip-rule="evenodd" d="M221.412 179.378C219.778 179.378 218.036 178.81 217 177.395C216.284 176.418 216.032 175.152 216.29 173.831C216.592 172.285 217.54 170.889 218.826 170.094C220.931 168.795 223.929 168.782 226.651 170.06C226.877 170.167 226.975 170.437 226.868 170.663C226.762 170.889 226.492 170.987 226.266 170.88C224.347 169.98 221.511 169.502 219.302 170.865C218.243 171.519 217.43 172.722 217.179 174.004C216.97 175.075 217.166 176.089 217.73 176.86C218.85 178.388 221.03 178.702 222.694 178.335C224.589 177.917 226.317 176.73 227.84 175.682C228.047 175.54 228.329 175.593 228.47 175.799C228.612 176.005 228.56 176.287 228.353 176.429C226.762 177.523 224.957 178.764 222.889 179.219C222.424 179.322 221.923 179.378 221.412 179.378Z" fill="white"/>
</g>
<mask id="mask13_565_6130" style="mask-type:alpha" maskUnits="userSpaceOnUse" x="199" y="164" width="24" height="50">
<path fill-rule="evenodd" clip-rule="evenodd" d="M199.588 164.238L205.024 213.775H217.414L222.85 164.238" fill="white"/>
</mask>
<g mask="url(#mask13_565_6130)">
<path fill-rule="evenodd" clip-rule="evenodd" d="M216.608 208.433C214.403 208.433 212.335 207.612 211.057 206.136C209.964 204.873 209.34 203.1 209.201 200.865C209.025 198.038 209.649 195.326 210.96 193.228C212.461 190.825 214.891 189.198 217.459 188.877C220.251 188.526 223.149 189.861 224.506 192.12C224.634 192.335 224.565 192.613 224.35 192.742C224.136 192.871 223.857 192.801 223.729 192.587C222.551 190.625 220.019 189.469 217.572 189.775C215.271 190.064 213.087 191.534 211.728 193.708C210.517 195.648 209.94 198.169 210.105 200.808C210.232 202.841 210.782 204.434 211.742 205.543C213.481 207.553 216.504 207.846 218.727 207.244C221.399 206.521 223.654 204.646 225.321 203.093C225.504 202.923 225.791 202.933 225.961 203.116C226.132 203.299 226.121 203.586 225.938 203.756C224.195 205.38 221.827 207.344 218.964 208.119C218.181 208.33 217.386 208.433 216.608 208.433Z" fill="white"/>
</g>
<mask id="mask14_565_6130" style="mask-type:alpha" maskUnits="userSpaceOnUse" x="199" y="164" width="24" height="50">
<path fill-rule="evenodd" clip-rule="evenodd" d="M199.588 164.238L205.024 213.775H217.414L222.85 164.238" fill="white"/>
</mask>
<g mask="url(#mask14_565_6130)">
<path fill-rule="evenodd" clip-rule="evenodd" d="M202.278 205.78C201.737 205.78 201.181 205.704 200.627 205.552C200.386 205.486 200.244 205.237 200.31 204.995C200.377 204.754 200.626 204.612 200.867 204.679C202.024 204.997 203.228 204.916 204.17 204.458C205.885 203.623 206.759 201.359 206.04 199.613C205.374 197.993 203.407 197.043 201.734 197.449C201.795 197.675 201.672 197.914 201.447 197.994C201.21 198.077 200.952 197.953 200.869 197.716L200.726 197.309C200.645 197.079 200.76 196.827 200.987 196.737C203.209 195.858 205.962 197.041 206.878 199.268C207.785 201.472 206.726 204.221 204.566 205.272C203.873 205.609 203.092 205.78 202.278 205.78Z" fill="white"/>
</g>
<mask id="mask15_565_6130" style="mask-type:alpha" maskUnits="userSpaceOnUse" x="199" y="164" width="24" height="50">
<path fill-rule="evenodd" clip-rule="evenodd" d="M199.588 164.238L205.024 213.775H217.414L222.85 164.238" fill="white"/>
</mask>
<g mask="url(#mask15_565_6130)">
<path fill-rule="evenodd" clip-rule="evenodd" d="M207.041 170.727C206.894 170.727 206.745 170.717 206.593 170.697C204.616 170.437 203.366 168.494 203.153 166.709C202.936 164.896 203.528 163.122 204.049 161.556C204.128 161.319 204.385 161.19 204.622 161.27C204.86 161.349 204.988 161.605 204.909 161.843C204.417 163.318 203.86 164.99 204.052 166.602C204.22 168.004 205.209 169.602 206.712 169.799C208.312 170.009 209.706 168.615 210.393 167.766C212.585 165.057 213.651 161.374 213.243 157.914C213.214 157.665 213.392 157.44 213.64 157.411C213.888 157.382 214.114 157.559 214.143 157.808C214.585 161.561 213.475 165.398 211.098 168.336C210.351 169.259 208.874 170.726 207.041 170.727Z" fill="white"/>
</g>
<mask id="mask16_565_6130" style="mask-type:alpha" maskUnits="userSpaceOnUse" x="199" y="164" width="24" height="50">
<path fill-rule="evenodd" clip-rule="evenodd" d="M199.588 164.238L205.024 213.775H217.414L222.85 164.238" fill="white"/>
</mask>
<g mask="url(#mask16_565_6130)">
<path fill-rule="evenodd" clip-rule="evenodd" d="M216.501 219.248C216.283 219.248 216.091 219.09 216.054 218.867C215.644 216.343 214.138 213.975 212.025 212.534C210.527 211.512 208.344 211.095 207.249 212.334C206.37 213.331 206.565 214.931 206.817 216.351C206.861 216.598 206.697 216.833 206.45 216.876C206.204 216.92 205.969 216.756 205.925 216.51C205.716 215.333 205.328 213.143 206.57 211.735C207.67 210.489 210.073 210.106 212.536 211.786C214.85 213.364 216.5 215.957 216.949 218.722C216.989 218.969 216.821 219.201 216.574 219.242C216.55 219.246 216.525 219.248 216.501 219.248Z" fill="white"/>
</g>
<mask id="mask17_565_6130" style="mask-type:alpha" maskUnits="userSpaceOnUse" x="193" y="93" width="23" height="23">
<path fill-rule="evenodd" clip-rule="evenodd" d="M204.645 93.9238C198.64 93.9238 193.772 98.7915 193.772 104.796C193.772 110.801 198.64 115.669 204.645 115.669C210.649 115.669 215.517 110.801 215.517 104.796" fill="white"/>
</mask>
<g mask="url(#mask17_565_6130)">
<path fill-rule="evenodd" clip-rule="evenodd" d="M209.258 101.748C208.809 102.711 208.543 103.76 208.493 104.83C208.472 105.292 208.57 105.867 208.916 105.966C209.021 105.996 209.12 105.982 209.229 105.92C209.472 105.783 209.703 105.439 209.804 105.063C210.105 103.945 209.89 102.712 209.258 101.748ZM201.021 104.139C200.661 105.174 200.457 106.312 200.283 107.623C200.202 108.242 200.263 109.04 200.584 109.429C200.699 109.568 200.835 109.638 201.009 109.648C201.414 109.673 201.776 109.25 201.911 109.067C202.84 107.816 202.745 105.857 201.7 104.701C201.502 104.482 201.272 104.295 201.021 104.139ZM194.543 110.694C194.536 110.694 194.529 110.693 194.521 110.693C194.32 110.681 194.167 110.508 194.18 110.308C194.35 107.509 194.81 104.738 197.004 103.428C198.089 102.78 199.457 102.708 200.632 103.141C200.703 102.978 200.78 102.816 200.862 102.657C201.746 100.934 203.155 99.7249 204.727 99.3396C206.262 98.964 207.96 99.4077 209.124 100.473C209.711 99.5296 210.472 98.6933 211.372 98.0251C213.508 96.4411 216.321 95.8855 218.899 96.5394C219.094 96.5888 219.212 96.7868 219.163 96.9818C219.113 97.1764 218.916 97.2944 218.72 97.245C216.353 96.6448 213.768 97.1551 211.806 98.61C210.925 99.2635 210.19 100.092 209.637 101.029C210.554 102.203 210.895 103.808 210.507 105.252C210.387 105.698 210.082 106.275 209.587 106.554C209.309 106.712 209.007 106.75 208.715 106.666C208.075 106.482 207.72 105.783 207.766 104.797C207.825 103.513 208.171 102.258 208.753 101.126C207.765 100.138 206.258 99.7142 204.9 100.047C203.533 100.382 202.297 101.454 201.509 102.989C201.432 103.141 201.359 103.294 201.291 103.449C201.643 103.653 201.964 103.908 202.24 104.213C203.528 105.637 203.64 107.96 202.496 109.501C202.054 110.096 201.511 110.407 200.968 110.375C200.593 110.353 200.266 110.187 200.023 109.893C199.531 109.298 199.462 108.281 199.561 107.528C199.724 106.301 199.937 105.024 200.362 103.823C199.39 103.474 198.254 103.53 197.377 104.053C195.473 105.19 195.065 107.752 194.907 110.352C194.895 110.545 194.734 110.694 194.543 110.694Z" fill="#21211D"/>
</g>
<mask id="mask18_565_6130" style="mask-type:alpha" maskUnits="userSpaceOnUse" x="213" y="118" width="20" height="20">
<path fill-rule="evenodd" clip-rule="evenodd" d="M213.247 128.387C213.247 133.691 217.546 137.991 222.85 137.991C228.154 137.991 232.453 133.691 232.453 128.387C232.453 123.083 228.154 118.784 222.85 118.784C217.546 118.784 213.247 123.083 213.247 128.387Z" fill="white"/>
</mask>
<g mask="url(#mask18_565_6130)">
<path fill-rule="evenodd" clip-rule="evenodd" d="M235.381 134.963C235.18 134.963 235.018 134.802 235.017 134.601C235.008 132.677 233.676 130.841 231.85 130.235C230.023 129.63 227.858 130.308 226.702 131.846C226.601 131.981 226.421 132.028 226.266 131.962C226.111 131.894 226.023 131.73 226.052 131.564C226.372 129.762 226.613 127.24 225.016 126.157C223.75 125.298 221.926 125.894 220.895 126.965C219.757 128.147 219.234 129.84 218.772 131.334C218.72 131.504 218.553 131.611 218.376 131.588C218.199 131.564 218.066 131.416 218.06 131.239C218.003 129.473 217.417 127.942 216.41 126.927C215.28 125.788 213.525 125.384 212.236 125.966C211.542 126.28 210.98 126.934 210.731 127.716C210.514 128.401 210.569 129.076 210.887 129.617C210.989 129.79 210.931 130.014 210.758 130.115C210.585 130.217 210.361 130.159 210.26 129.986C209.836 129.265 209.756 128.38 210.037 127.496C210.347 126.52 211.057 125.7 211.936 125.303C213.517 124.589 215.569 125.046 216.927 126.414C217.731 127.224 218.297 128.314 218.582 129.573C218.985 128.46 219.514 127.35 220.37 126.46C221.611 125.172 223.841 124.48 225.424 125.554C227.024 126.639 227.143 128.732 226.937 130.555C228.338 129.396 230.34 128.968 232.078 129.544C234.193 130.245 235.735 132.37 235.745 134.598C235.746 134.799 235.583 134.963 235.382 134.963H235.381Z" fill="#21211D"/>
</g>
<mask id="mask19_565_6130" style="mask-type:alpha" maskUnits="userSpaceOnUse" x="368" y="198" width="62" height="15">
<path fill-rule="evenodd" clip-rule="evenodd" d="M368.784 198.559H429.388V212.764H368.784V198.559Z" fill="white"/>
</mask>
<g mask="url(#mask19_565_6130)">
<path fill-rule="evenodd" clip-rule="evenodd" d="M429.388 198.559H375.865C371.955 198.559 368.784 201.739 368.784 205.661C368.784 209.583 371.955 212.764 375.865 212.764H429.388V198.559Z" fill="#B6CCFC"/>
</g>
<path fill-rule="evenodd" clip-rule="evenodd" d="M429.388 200.639H402.754C399.989 200.639 397.746 202.887 397.746 205.661C397.746 208.435 399.989 210.685 402.754 210.685H429.388V200.639Z" fill="white"/>
<path fill-rule="evenodd" clip-rule="evenodd" d="M436.856 184.274H383.333C379.424 184.274 376.252 187.453 376.252 191.376C376.252 195.298 379.424 198.478 383.333 198.478H436.856V184.274Z" fill="#2E4C9E"/>
<path fill-rule="evenodd" clip-rule="evenodd" d="M436.856 186.353H410.222C407.459 186.353 405.216 188.602 405.216 191.376C405.216 194.149 407.459 196.398 410.222 196.398H436.856V186.353Z" fill="white"/>
<path fill-rule="evenodd" clip-rule="evenodd" d="M436.856 189.157H405.871C405.726 189.157 405.608 189.039 405.608 188.895C405.608 188.75 405.726 188.632 405.871 188.632H436.856C437.001 188.632 437.118 188.75 437.118 188.895C437.118 189.039 437.001 189.157 436.856 189.157Z" fill="#21211D"/>
<path fill-rule="evenodd" clip-rule="evenodd" d="M436.858 191.638H405.216C405.071 191.638 404.954 191.52 404.954 191.376C404.954 191.231 405.071 191.113 405.216 191.113H436.858C437.001 191.113 437.118 191.231 437.118 191.376C437.118 191.52 437.001 191.638 436.858 191.638Z" fill="#21211D"/>
<path fill-rule="evenodd" clip-rule="evenodd" d="M436.856 193.989H405.871C405.726 193.989 405.608 193.872 405.608 193.727C405.608 193.582 405.726 193.465 405.871 193.465H436.856C437.001 193.465 437.118 193.582 437.118 193.727C437.118 193.872 437.001 193.989 436.856 193.989Z" fill="#21211D"/>
<path fill-rule="evenodd" clip-rule="evenodd" d="M429.519 203.507H398.532C398.389 203.507 398.271 203.39 398.271 203.245C398.271 203.1 398.389 202.983 398.532 202.983H429.519C429.664 202.983 429.782 203.1 429.782 203.245C429.782 203.39 429.664 203.507 429.519 203.507Z" fill="#21211D"/>
<path fill-rule="evenodd" clip-rule="evenodd" d="M429.519 205.988H397.879C397.734 205.988 397.617 205.871 397.617 205.726C397.617 205.581 397.734 205.464 397.879 205.464H429.519C429.664 205.464 429.781 205.581 429.781 205.726C429.781 205.871 429.664 205.988 429.519 205.988Z" fill="#21211D"/>
<path fill-rule="evenodd" clip-rule="evenodd" d="M429.519 208.34H398.532C398.389 208.34 398.271 208.222 398.271 208.077C398.271 207.933 398.389 207.815 398.532 207.815H429.519C429.664 207.815 429.782 207.933 429.782 208.077C429.782 208.222 429.664 208.34 429.519 208.34Z" fill="#21211D"/>
<path fill-rule="evenodd" clip-rule="evenodd" d="M400.19 192.413H383.234C382.577 192.413 382.044 191.879 382.044 191.221C382.044 190.563 382.577 190.029 383.234 190.029H400.19C400.847 190.029 401.379 190.563 401.379 191.221C401.379 191.879 400.847 192.413 400.19 192.413Z" fill="#B6CCFC"/>
<path fill-rule="evenodd" clip-rule="evenodd" d="M393.091 206.183H379.602C378.945 206.183 378.413 205.65 378.413 204.991C378.413 204.333 378.945 203.799 379.602 203.799H393.091C393.748 203.799 394.28 204.333 394.28 204.991C394.28 205.65 393.748 206.183 393.091 206.183Z" fill="#2E4C9E"/>
<path fill-rule="evenodd" clip-rule="evenodd" d="M376.252 204.991C376.252 206.009 375.43 206.834 374.415 206.834C373.4 206.834 372.578 206.009 372.578 204.991C372.578 203.973 373.4 203.148 374.415 203.148C375.43 203.148 376.252 203.973 376.252 204.991Z" fill="#2E4C9E"/>
<path fill-rule="evenodd" clip-rule="evenodd" d="M254.167 343.965C253.963 343.965 253.777 343.856 253.725 343.691L215.952 224.887C215.467 223.367 213.868 222.828 212.643 222.828H212.634C211.404 222.833 209.802 223.376 209.329 224.901L172.389 343.688C172.328 343.883 172.081 344.001 171.839 343.953C171.594 343.906 171.445 343.709 171.506 343.512L208.443 224.726C208.939 223.136 210.582 222.106 212.631 222.101H212.643C214.686 222.101 216.33 223.123 216.833 224.708L254.609 343.512C254.67 343.706 254.523 343.903 254.278 343.953C254.242 343.96 254.203 343.965 254.167 343.965Z" fill="#21211D"/>
<mask id="mask20_565_6130" style="mask-type:alpha" maskUnits="userSpaceOnUse" x="365" y="222" width="84" height="122">
<path fill-rule="evenodd" clip-rule="evenodd" d="M365.453 222.137H448.635V343.965H365.453V222.137Z" fill="white"/>
</mask>
<g mask="url(#mask20_565_6130)">
<path fill-rule="evenodd" clip-rule="evenodd" d="M448.18 343.965C447.976 343.965 447.79 343.856 447.738 343.69L409.94 224.921C409.455 223.399 407.845 222.853 406.619 222.864C405.391 222.867 403.788 223.412 403.312 224.937L366.35 343.688C366.291 343.883 366.042 344.001 365.799 343.953C365.555 343.906 365.405 343.709 365.466 343.512L402.429 224.76C402.922 223.17 404.567 222.142 406.617 222.137H406.63C408.674 222.137 410.318 223.159 410.823 224.742L448.621 343.512C448.682 343.706 448.535 343.903 448.291 343.953C448.254 343.96 448.216 343.965 448.18 343.965Z" fill="#21211D"/>
</g>
<mask id="mask21_565_6130" style="mask-type:alpha" maskUnits="userSpaceOnUse" x="171" y="212" width="278" height="132">
<path fill-rule="evenodd" clip-rule="evenodd" d="M171.492 343.965H448.743V212.814H171.492V343.965Z" fill="white"/>
</mask>
<g mask="url(#mask21_565_6130)">
<path fill-rule="evenodd" clip-rule="evenodd" d="M185.083 225.725H435.153V212.814H185.083V225.725Z" fill="#066952"/>
<path fill-rule="evenodd" clip-rule="evenodd" d="M433.907 217.797H185.876C185.563 217.797 185.31 217.593 185.31 217.344C185.31 217.095 185.563 216.891 185.876 216.891H433.907C434.219 216.891 434.473 217.095 434.473 217.344C434.473 217.593 434.219 217.797 433.907 217.797Z" fill="white"/>
</g>
<path fill-rule="evenodd" clip-rule="evenodd" d="M215.376 77.2584L217.687 99.9004H222.24L224.55 77.2584H215.376Z" fill="#D6A47F"/>
<path fill-rule="evenodd" clip-rule="evenodd" d="M304.982 77.2584L307.293 99.9004H311.846L314.156 77.2584H304.982Z" fill="#D6A47F"/>
<path fill-rule="evenodd" clip-rule="evenodd" d="M217.653 74.6775H221.735V59.1616H217.653V74.6775Z" fill="#74262E"/>
<path fill-rule="evenodd" clip-rule="evenodd" d="M213.569 74.6775H217.653V59.1616L213.569 74.6775Z" fill="#74262E"/>
<path fill-rule="evenodd" clip-rule="evenodd" d="M267.277 74.6775H271.361V59.1616H267.277V74.6775Z" fill="#74262E"/>
<path fill-rule="evenodd" clip-rule="evenodd" d="M275.445 74.6775H271.361V59.1616L275.445 74.6775Z" fill="#74262E"/>
<path fill-rule="evenodd" clip-rule="evenodd" d="M234.861 73.1608H248.23V19.1462H234.861V73.1608Z" fill="#B6CCFC"/>
<path fill-rule="evenodd" clip-rule="evenodd" d="M241.545 63.3795C241.366 63.3795 241.221 63.2345 241.221 63.056V32.1049C241.221 31.9262 241.366 31.7812 241.545 31.7812C241.722 31.7812 241.867 31.9262 241.867 32.1049V63.056C241.867 63.2345 241.722 63.3795 241.545 63.3795Z" fill="#21211D"/>
<mask id="mask22_565_6130" style="mask-type:alpha" maskUnits="userSpaceOnUse" x="200" y="19" width="129" height="81">
<path fill-rule="evenodd" clip-rule="evenodd" d="M200.712 99.9004H328.82V19.146H200.712V99.9004Z" fill="white"/>
</mask>
<g mask="url(#mask22_565_6130)">
<path fill-rule="evenodd" clip-rule="evenodd" d="M248.264 73.1605H258.04V29.3528H248.264V73.1605Z" fill="#2E4C9E"/>
<path fill-rule="evenodd" clip-rule="evenodd" d="M253.152 65.1483C252.973 65.1483 252.828 65.0033 252.828 64.8248V39.9547C252.828 39.776 252.973 39.6312 253.152 39.6312C253.331 39.6312 253.475 39.776 253.475 39.9547V64.8248C253.475 65.0033 253.331 65.1483 253.152 65.1483Z" fill="#21211D"/>
<path fill-rule="evenodd" clip-rule="evenodd" d="M255.625 34.9928C255.625 36.3591 254.518 37.4665 253.152 37.4665C251.786 37.4665 250.678 36.3591 250.678 34.9928C250.678 33.6264 251.786 32.5188 253.152 32.5188C254.518 32.5188 255.625 33.6264 255.625 34.9928Z" fill="white"/>
<path fill-rule="evenodd" clip-rule="evenodd" d="M254.389 68.6196C254.389 69.3028 253.836 69.8564 253.152 69.8564C252.47 69.8564 251.915 69.3028 251.915 68.6196C251.915 67.9365 252.47 67.3826 253.152 67.3826C253.836 67.3826 254.389 67.9365 254.389 68.6196Z" fill="white"/>
<path fill-rule="evenodd" clip-rule="evenodd" d="M221.571 73.1605H234.94V29.3528H221.571V73.1605Z" fill="#EDC829"/>
<path fill-rule="evenodd" clip-rule="evenodd" d="M228.256 64.9728C228.077 64.9728 227.932 64.8278 227.932 64.6493V40.6718C227.932 40.4931 228.077 40.3484 228.256 40.3484C228.434 40.3484 228.579 40.4931 228.579 40.6718V64.6493C228.579 64.8278 228.434 64.9728 228.256 64.9728Z" fill="#21211D"/>
<path fill-rule="evenodd" clip-rule="evenodd" d="M230.729 34.9928C230.729 36.3591 229.622 37.4665 228.256 37.4665C226.89 37.4665 225.782 36.3591 225.782 34.9928C225.782 33.6264 226.89 32.5188 228.256 32.5188C229.622 32.5188 230.729 33.6264 230.729 34.9928Z" fill="white"/>
<path fill-rule="evenodd" clip-rule="evenodd" d="M231.089 70.3654H225.424C224.86 70.3654 224.405 69.9087 224.405 69.3456C224.405 68.7825 224.86 68.3259 225.424 68.3259H231.089C231.651 68.3259 232.108 68.7825 232.108 69.3456C232.108 69.9087 231.651 70.3654 231.089 70.3654Z" fill="white"/>
<path fill-rule="evenodd" clip-rule="evenodd" d="M258.015 73.1605H267.277V39.8224H258.015V73.1605Z" fill="#D5962F"/>
<path fill-rule="evenodd" clip-rule="evenodd" d="M262.647 63.7166C262.468 63.7166 262.323 63.5716 262.323 63.3931V47.1855C262.323 47.0068 262.468 46.8618 262.647 46.8618C262.826 46.8618 262.969 47.0068 262.969 47.1855V63.3931C262.969 63.5716 262.826 63.7166 262.647 63.7166Z" fill="#21211D"/>
<path fill-rule="evenodd" clip-rule="evenodd" d="M264.307 68.1947C264.307 69.1125 263.564 69.8564 262.647 69.8564C261.727 69.8564 260.984 69.1125 260.984 68.1947C260.984 67.2769 261.727 66.533 262.647 66.533C263.564 66.533 264.307 67.2769 264.307 68.1947Z" fill="white"/>
<path fill-rule="evenodd" clip-rule="evenodd" d="M264.566 44.1558H260.729C260.165 44.1558 259.707 43.6992 259.707 43.1361C259.707 42.573 260.165 42.1163 260.729 42.1163H264.566C265.13 42.1163 265.585 42.573 265.585 43.1361C265.585 43.6992 265.13 44.1558 264.566 44.1558Z" fill="white"/>
<path fill-rule="evenodd" clip-rule="evenodd" d="M238.655 28.3226H244.433V22.5443H238.655V28.3226Z" fill="white"/>
<path fill-rule="evenodd" clip-rule="evenodd" d="M238.655 69.4222H244.433V66.533H238.655V69.4222Z" fill="white"/>
<path fill-rule="evenodd" clip-rule="evenodd" d="M315.289 59.1615C315.289 67.1481 308.813 73.6225 300.826 73.6225C292.839 73.6225 286.365 67.1481 286.365 59.1615C286.365 51.1749 292.839 44.7003 300.826 44.7003C308.813 44.7003 315.289 51.1749 315.289 59.1615Z" fill="#FF6D7B"/>
<path fill-rule="evenodd" clip-rule="evenodd" d="M303.809 47.368H297.842L293.65 33.2966C293.482 32.7378 293.901 32.176 294.483 32.176H307.168C307.752 32.176 308.169 32.7378 308.004 33.2966L303.809 47.368Z" fill="#FF6D7B"/>
<path fill-rule="evenodd" clip-rule="evenodd" d="M307.111 36.6127H294.54C294.361 36.6127 294.216 36.4678 294.216 36.2893C294.216 36.1106 294.361 35.9658 294.54 35.9658H307.111C307.29 35.9658 307.435 36.1106 307.435 36.2893C307.435 36.4678 307.29 36.6127 307.111 36.6127Z" fill="#21211D"/>
</g>
<mask id="mask23_565_6130" style="mask-type:alpha" maskUnits="userSpaceOnUse" x="286" y="32" width="30" height="42">
<path fill-rule="evenodd" clip-rule="evenodd" d="M294.486 32.1761C293.901 32.1761 293.482 32.7379 293.65 33.2969L297.186 45.1635C290.961 46.7776 286.365 52.4327 286.365 59.1617C286.365 67.1485 292.839 73.6229 300.826 73.6229C308.813 73.6229 315.289 67.1485 315.289 59.1617C315.289 52.4327 310.69 46.7776 304.468 45.1635L308.004 33.2969C308.169 32.7379 307.753 32.1761 307.168 32.1761H294.486Z" fill="white"/>
</mask>
<g mask="url(#mask23_565_6130)">
<path fill-rule="evenodd" clip-rule="evenodd" d="M309.576 45.9375L294.544 60.6839L298.101 60.6132L294.986 65.2146L298.739 64.8726L296.474 69.9045L305.123 65.326L296.868 71.6097L305.854 68.4279L303.134 74.2857L321.576 62.9649L309.576 45.9375Z" fill="#2E4C9E"/>
</g>
<mask id="mask24_565_6130" style="mask-type:alpha" maskUnits="userSpaceOnUse" x="200" y="72" width="129" height="10">
<path fill-rule="evenodd" clip-rule="evenodd" d="M200.712 72.6713H328.82V81.8455H200.712V72.6713Z" fill="white"/>
</mask>
<g mask="url(#mask24_565_6130)">
<path fill-rule="evenodd" clip-rule="evenodd" d="M200.762 81.8455H328.771V72.6713H200.762V81.8455Z" fill="#F4BF8E"/>
<path fill-rule="evenodd" clip-rule="evenodd" d="M328.497 77.5819H201.036C200.857 77.5819 200.712 77.437 200.712 77.2585C200.712 77.0797 200.857 76.935 201.036 76.935H328.497C328.676 76.935 328.82 77.0797 328.82 77.2585C328.82 77.437 328.676 77.5819 328.497 77.5819Z" fill="#F4BF8E"/>
</g>
<path d="M114.411 143.501H47.3633V152.335H114.411V143.501Z" fill="#2E4C9E"/>
<mask id="mask25_565_6130" style="mask-type:alpha" maskUnits="userSpaceOnUse" x="10" y="276" width="47" height="69">
<path fill-rule="evenodd" clip-rule="evenodd" d="M10.4419 276.764H56.2264V344.735H10.4419V276.764Z" fill="white"/>
</mask>
<g mask="url(#mask25_565_6130)">
<path fill-rule="evenodd" clip-rule="evenodd" d="M56.2264 298.719C53.2758 301.633 50.0177 305.467 47.6547 309.976C45.7303 313.649 44.3965 317.768 44.3053 322.196C44.2991 322.537 44.2901 322.875 44.2778 323.207C43.7236 340.28 38.4193 344.735 38.4193 344.735L10.4419 297.787L21.0354 291.463L45.6512 276.764C48.0049 279.493 49.2383 285.561 51.461 289.286C53.3884 292.519 54.9932 295.726 56.2264 298.719Z" fill="#F62A26"/>
</g>
<mask id="mask26_565_6130" style="mask-type:alpha" maskUnits="userSpaceOnUse" x="10" y="291" width="35" height="54">
<path fill-rule="evenodd" clip-rule="evenodd" d="M10.4419 291.463H44.2778V344.735H10.4419V291.463Z" fill="white"/>
</mask>
<g mask="url(#mask26_565_6130)">
<path fill-rule="evenodd" clip-rule="evenodd" d="M44.2778 323.207C43.7236 340.28 38.4193 344.735 38.4193 344.735L10.4419 297.787L21.0354 291.463C22.1927 293.509 24.123 298.098 21.1938 302.215C21.1938 302.215 31.1784 318.517 33.3341 321.879C35.2953 324.936 38.7512 330.222 44.2778 323.207Z" fill="#EDE8D6"/>
</g>
<path d="M13.6765 296.171C13.8113 296.089 13.9844 296.124 14.0772 296.248L14.0947 296.273L40.8098 340.362C40.897 340.506 40.851 340.693 40.7072 340.78C40.5724 340.862 40.3993 340.827 40.3065 340.704L40.289 340.678L13.5739 296.589C13.4867 296.445 13.5327 296.258 13.6765 296.171Z" fill="#21211D"/>
<path fill-rule="evenodd" clip-rule="evenodd" d="M42.1778 292.899C40.45 293.946 38.2005 293.394 37.1536 291.666C36.1066 289.938 36.6586 287.689 38.3865 286.642C40.1143 285.595 42.3638 286.147 43.4107 287.875C44.4577 289.602 43.9057 291.852 42.1778 292.899Z" fill="white"/>
<path fill-rule="evenodd" clip-rule="evenodd" d="M43.6866 304.925C43.7942 304.796 43.9863 304.778 44.1154 304.886L48.1836 308.27C48.3129 308.377 48.3306 308.57 48.223 308.699C48.1154 308.828 47.9235 308.846 47.7942 308.738L43.7261 305.354C43.5967 305.246 43.579 305.054 43.6866 304.925Z" fill="black"/>
<path d="M41.0685 308.056C41.1673 307.933 41.3419 307.907 41.4715 307.991L41.4969 308.009L46.19 311.779C46.3211 311.885 46.342 312.076 46.2366 312.208C46.1379 312.331 45.9632 312.357 45.8337 312.273L45.8085 312.254L41.1154 308.484C40.9843 308.379 40.9632 308.187 41.0685 308.056Z" fill="#21211D"/>
<path d="M39.6625 312.623C39.7574 312.497 39.9311 312.466 40.0632 312.546L40.089 312.563L44.9307 316.216C45.065 316.317 45.0918 316.508 44.9903 316.643C44.8954 316.769 44.7216 316.8 44.5896 316.72L44.5638 316.702L39.7221 313.049C39.588 312.948 39.5612 312.757 39.6625 312.623Z" fill="#21211D"/>
<path fill-rule="evenodd" clip-rule="evenodd" d="M46.193 311.619L46.0385 311.149C45.9451 310.856 46.2935 310.625 46.5264 310.825L46.9962 311.233L47.2589 311.465C47.711 311.865 48.2085 312.314 48.7408 312.803L49.1236 313.156C50.6543 314.574 52.1781 316.058 53.6083 317.551C54.6788 318.669 55.6596 319.754 56.5305 320.792C58.3843 323.002 59.6861 324.934 60.3185 326.521C61.0814 328.436 60.8621 329.871 59.4806 330.634C58.4774 331.187 57.3985 331.076 56.2934 330.376C54.2763 329.099 52.1688 325.894 50.0317 321.321L49.8808 320.996C48.8873 318.841 47.9543 316.534 47.1087 314.227C46.8868 313.622 46.6829 313.049 46.4983 312.516L46.3203 311.997C46.2745 311.862 46.2321 311.736 46.193 311.619ZM47.2614 312.283L46.9737 312.027L47.0807 312.336C47.2623 312.86 47.4626 313.423 47.6807 314.017C48.521 316.31 49.4482 318.602 50.4339 320.74C52.5743 325.382 54.6881 328.638 56.6191 329.861C57.5489 330.45 58.3943 330.538 59.1864 330.1C60.246 329.516 60.4152 328.409 59.7527 326.746C59.175 325.297 57.9863 323.508 56.2927 321.458L56.0639 321.183C55.202 320.156 54.2303 319.081 53.1684 317.972C51.629 316.365 49.9789 314.767 48.3287 313.251C47.9543 312.907 47.5973 312.584 47.2614 312.283Z" fill="#21211D"/>
<path fill-rule="evenodd" clip-rule="evenodd" d="M45.6591 309.982L45.7062 309.791C45.7771 309.51 46.1633 309.478 46.2802 309.743L46.4643 310.172C46.5615 310.401 46.6659 310.652 46.7767 310.923L46.947 311.344C47.4463 312.587 47.9455 313.918 48.4114 315.285C48.8971 316.709 49.3188 318.09 49.6577 319.401C50.3497 322.075 50.6652 324.32 50.5114 326.005C50.3225 328.076 49.4092 329.29 47.6954 329.387C45.9583 329.484 44.8463 328.354 44.3115 326.262C43.8766 324.562 43.8178 322.242 44.0624 319.45C44.213 317.728 44.4737 315.894 44.813 314.021C45.0083 312.944 45.2174 311.921 45.4264 310.985C45.4815 310.739 45.5334 310.512 45.5818 310.306L45.6591 309.982ZM46.0836 310.84L45.9692 311.351C45.7791 312.215 45.59 313.15 45.4124 314.129C45.0763 315.985 44.818 317.802 44.669 319.503C44.1471 325.464 45.0323 328.926 47.6612 328.778C49.0257 328.702 49.7404 327.751 49.9048 325.949C50.0509 324.349 49.744 322.166 49.0681 319.553C48.7333 318.259 48.3161 316.892 47.8349 315.481C47.3726 314.126 46.8773 312.805 46.3819 311.571C46.3241 311.428 46.2677 311.288 46.2129 311.154L46.0836 310.84Z" fill="#21211D"/>
<path fill-rule="evenodd" clip-rule="evenodd" d="M97.1497 229.502L97.1361 229.466L97.1112 229.396C97.041 229.205 96.9798 229.01 96.9322 228.816C96.8802 228.616 96.819 228.419 96.7828 228.218L96.6808 227.697L97.041 229.074L97.1135 229.357L97.1497 229.497V229.502ZM87.1446 227.192L84.7753 182.306L86.3949 188.451L91.1562 206.497L95.0409 221.393L87.1446 227.192ZM138.871 222.673C138.796 222.081 138.706 221.495 138.59 220.913C138.475 220.33 138.359 219.746 138.212 219.175C138.062 218.602 137.904 218.031 137.734 217.465L137.618 217.082L137.571 216.944L137.473 216.668L135.91 212.271L129.679 194.678L123.5 177.064L120.41 168.26L117.348 159.446L114.356 150.827H47.3781L45.1402 230.236L43.8446 271.697L43.1378 292.427L42.7822 302.792L42.3994 313.16L92.06 312.548L91.4189 302.197L90.8074 291.843L90.3883 284.667C97.8338 277.912 105.313 271.203 112.802 264.503L126.739 252.081L127.609 251.308L128.143 250.844L128.812 250.241L129.473 249.63L130.107 248.987C131.792 247.27 133.267 245.342 134.515 243.29C135.768 241.244 136.771 239.052 137.521 236.787C137.904 235.654 138.201 234.497 138.461 233.332C138.694 232.163 138.891 230.988 138.996 229.801C139.222 227.429 139.19 225.031 138.871 222.673Z" fill="#2E4C9E"/>
<path fill-rule="evenodd" clip-rule="evenodd" d="M92.0603 312.823C92.0603 308.492 80.8751 305.013 67.2114 305.013C53.548 305.013 42.4385 308.524 42.4385 312.854C42.4385 317.185 53.548 320.696 67.2114 320.696C80.8751 320.696 92.0603 317.153 92.0603 312.823Z" fill="#21211D"/>
<path fill-rule="evenodd" clip-rule="evenodd" d="M109.504 344.619H55.2241V305.99C58.7747 305.366 62.858 305.013 67.1971 305.013C70.9608 305.013 74.5354 305.278 77.7388 305.75C78.7284 309.778 80.3545 314.541 83.0158 318.88C85.1838 322.415 88.0371 325.67 91.7945 328.018C92.8055 328.648 93.7586 329.269 94.6599 329.881C107.306 338.426 109.504 344.619 109.504 344.619Z" fill="#F62A26"/>
<path fill-rule="evenodd" clip-rule="evenodd" d="M109.504 344.619H55.2241V332.96C56.8928 333.179 63.3453 334.294 64.2679 338.517C64.2679 338.517 87.2665 338.535 89.9249 338.517C92.5862 338.496 94.3736 337.5 95.1623 335.161C95.6615 333.691 95.1227 331.386 94.6599 329.881C107.306 338.426 109.504 344.619 109.504 344.619Z" fill="#EDE8D6"/>
<path d="M107.147 340.948C107.315 340.948 107.452 341.084 107.452 341.252C107.452 341.411 107.331 341.541 107.176 341.556L107.147 341.557H55.5959C55.4279 341.557 55.2915 341.421 55.2915 341.252C55.2915 341.094 55.4122 340.964 55.5667 340.949L55.5959 340.948H107.147Z" fill="#21211D"/>
<path fill-rule="evenodd" clip-rule="evenodd" d="M67.4487 315.934C67.4487 317.954 65.811 319.592 63.7905 319.592C61.7702 319.592 60.1323 317.954 60.1323 315.934C60.1323 313.914 61.7702 312.276 63.7905 312.276C65.811 312.276 67.4487 313.914 67.4487 315.934Z" fill="white"/>
<path d="M83.2887 318.774C83.4477 318.719 83.621 318.804 83.6758 318.963C83.7272 319.112 83.6564 319.273 83.5161 319.338L83.4874 319.35L78.4846 321.075C78.3256 321.13 78.1521 321.046 78.0973 320.887C78.0459 320.737 78.117 320.576 78.257 320.511L78.286 320.499L83.2887 318.774Z" fill="#21211D"/>
<path d="M85.6749 322.287C85.8331 322.229 86.0077 322.311 86.0652 322.469C86.1194 322.617 86.051 322.78 85.9121 322.847L85.8833 322.859L80.2271 324.919C80.069 324.976 79.8943 324.895 79.8368 324.737C79.7829 324.589 79.8511 324.426 79.9899 324.359L80.0187 324.347L85.6749 322.287Z" fill="#21211D"/>
<path d="M88.8162 325.663C88.9723 325.601 89.1494 325.677 89.2119 325.833C89.2704 325.98 89.207 326.144 89.0701 326.216L89.0418 326.229L83.4087 328.477C83.2526 328.539 83.0753 328.463 83.013 328.307C82.9545 328.16 83.0177 327.995 83.1548 327.924L83.1831 327.911L88.8162 325.663Z" fill="#21211D"/>
<path fill-rule="evenodd" clip-rule="evenodd" d="M95.902 312.527C98.863 311.221 101.371 310.39 103.293 310.151C105.644 309.86 107.13 310.47 107.463 312.145C107.81 313.886 106.609 315.27 104.178 316.327C102.281 317.153 99.6531 317.777 96.4699 318.23L96.0604 318.287C93.6011 318.62 90.9683 318.836 88.3358 318.958C87.5682 318.993 86.8461 319.019 86.1824 319.035L85.7912 319.044C85.6376 319.048 85.4938 319.05 85.3601 319.052L85.0775 319.056L84.8231 319.058C84.5164 319.058 84.4015 318.656 84.662 318.494L85.0965 318.229L85.6614 317.891C85.894 317.752 86.1393 317.608 86.3964 317.458L86.8716 317.182C88.5743 316.199 90.3717 315.215 92.1827 314.298C93.4663 313.647 94.7112 313.052 95.902 312.527ZM95.9786 317.683C103.247 316.697 107.39 314.895 106.866 312.264L106.853 312.204C106.573 310.963 105.41 310.502 103.368 310.756C101.592 310.976 99.2549 311.736 96.495 312.932L96.148 313.084C94.9676 313.605 93.7325 314.195 92.4581 314.841C90.658 315.753 88.8699 316.731 87.1763 317.709L87.0159 317.802C86.8039 317.925 86.5994 318.044 86.4025 318.16L85.9432 318.432L86.1892 318.426C86.7765 318.411 87.4098 318.39 88.0801 318.36L88.3075 318.35C90.9235 318.228 93.5393 318.014 95.9786 317.683Z" fill="#21211D"/>
<path fill-rule="evenodd" clip-rule="evenodd" d="M85.4105 318.242L85.7575 318.218C88.2063 318.05 90.7152 317.982 93.0596 318.073C95.9908 318.187 98.3887 318.541 100.077 319.189C102.173 319.993 103.153 321.262 102.707 323.001C102.298 324.592 101.008 325.324 99.0445 325.292C97.4294 325.266 95.3666 324.732 92.9529 323.785C91.7567 323.316 90.4986 322.755 89.2014 322.121C87.7893 321.43 86.4051 320.691 85.1065 319.952C84.6517 319.693 84.2401 319.452 83.8788 319.237L83.6047 319.072L83.4285 318.964C83.1823 318.811 83.2683 318.433 83.5565 318.402L83.8462 318.373L84.2987 318.331C84.6412 318.301 85.0132 318.271 85.4105 318.242ZM99.859 319.757C98.2462 319.138 95.9064 318.793 93.036 318.682C90.7161 318.592 88.2278 318.659 85.7992 318.825C85.5072 318.845 85.2279 318.866 84.9624 318.887L84.5422 318.922L84.8326 319.091C84.9697 319.171 85.1119 319.253 85.2589 319.337L85.4077 319.422C86.6961 320.156 88.0693 320.889 89.4689 321.573C90.7521 322.201 91.9954 322.756 93.1753 323.218C98.2612 325.213 101.496 325.265 102.117 322.849C102.473 321.465 101.699 320.464 99.859 319.757Z" fill="#21211D"/>
<path d="M84.9649 150.523C85.1232 150.517 85.2578 150.633 85.2784 150.787L85.2809 150.816L85.7996 164.362C85.909 166.942 83.8466 169.095 81.2641 169.095C81.0958 169.095 80.9595 168.958 80.9595 168.79C80.9595 168.622 81.0958 168.485 81.2641 168.485C83.4753 168.485 85.2464 166.662 85.1934 164.461L85.1909 164.387L84.6722 150.839C84.6659 150.671 84.7968 150.53 84.9649 150.523Z" fill="#21211D"/>
<path d="M102.706 150.546C102.862 150.482 103.04 150.556 103.104 150.711C103.991 152.863 105.352 154.763 107.28 156.22C109.72 158.063 112.928 159.083 117.011 159.083C117.179 159.083 117.316 159.219 117.316 159.387C117.316 159.556 117.179 159.692 117.011 159.692C112.798 159.692 109.461 158.631 106.913 156.706C104.891 155.179 103.467 153.19 102.541 150.944C102.477 150.788 102.551 150.61 102.706 150.546Z" fill="#21211D"/>
<path d="M61.4318 150.714C61.4943 150.558 61.6716 150.482 61.8277 150.545C61.984 150.607 62.0599 150.785 61.9974 150.941C61.0945 153.196 59.6939 155.186 57.6934 156.714C55.1771 158.635 51.868 159.692 47.6775 159.692C47.5094 159.692 47.373 159.556 47.373 159.387C47.373 159.219 47.5094 159.083 47.6775 159.083C51.7377 159.083 54.9166 158.067 57.3237 156.23C59.2301 154.774 60.5674 152.873 61.4318 150.714Z" fill="#21211D"/>
<path d="M89.1055 182.259C89.2738 182.259 89.4102 182.395 89.4102 182.564C89.4102 182.722 89.2895 182.852 89.135 182.867L89.1055 182.868H82.4685C82.3004 182.868 82.1641 182.732 82.1641 182.564C82.1641 182.405 82.2848 182.275 82.4393 182.26L82.4685 182.259H89.1055Z" fill="#21211D"/>
<path d="M86.7245 182.273C86.8747 182.225 87.0346 182.3 87.0965 182.442L87.1073 182.471L99.9692 222.631C100.005 222.742 99.9737 222.862 99.8915 222.942L99.8679 222.963L88.1149 232.234C87.9828 232.338 87.7912 232.316 87.687 232.184C87.5894 232.06 87.6032 231.884 87.7139 231.777L87.7375 231.756L99.3247 222.616L86.5273 182.657C86.4792 182.506 86.5538 182.346 86.6953 182.285L86.7245 182.273Z" fill="#21211D"/>
<path d="M50.7936 159.097C50.9519 159.101 51.079 159.225 51.0896 159.38L51.0903 159.409L47.2539 310.724C47.2496 310.893 47.1098 311.025 46.9418 311.021C46.7834 311.017 46.6566 310.893 46.6457 310.738L46.645 310.709L50.4815 159.394C50.4858 159.226 50.6255 159.093 50.7936 159.097Z" fill="#21211D"/>
<path fill-rule="evenodd" clip-rule="evenodd" d="M87.1606 227.18L90.3558 284.61L91.5178 224.028L87.1606 227.18Z" fill="#21211D"/>
<path d="M65.8443 298.785C73.8398 298.63 82.3935 299.967 91.4447 303.088C91.6038 303.143 91.6882 303.316 91.6334 303.475C91.5786 303.634 91.4051 303.719 91.2461 303.664C82.2628 300.566 73.7802 299.241 65.8561 299.393C59.6537 299.513 54.1273 300.526 49.3359 302.138C47.5467 302.74 45.9878 303.385 44.6684 304.029L44.4233 304.15C44.0652 304.329 43.7494 304.496 43.4767 304.649L43.2857 304.758L43.1084 304.863C43.0968 304.87 43.0882 304.875 43.0821 304.879C42.9398 304.969 42.7518 304.926 42.6621 304.784C42.5724 304.642 42.6153 304.454 42.7575 304.364L42.8667 304.297L42.9797 304.231C43.02 304.208 43.0631 304.183 43.1086 304.157L43.1791 304.118C43.5222 303.925 43.9299 303.711 44.4011 303.482C45.7438 302.826 47.3269 302.171 49.1418 301.561C53.9903 299.929 59.5779 298.906 65.8443 298.785Z" fill="#21211D"/>
<path fill-rule="evenodd" clip-rule="evenodd" d="M36.8804 107.244L30.2993 103.951C28.8061 103.204 26.9891 103.772 26.1865 105.236L19.6813 117.108C18.8584 118.61 19.407 120.495 20.9079 121.321L27.3676 124.874L36.8804 107.244Z" fill="#D5962F"/>
<path fill-rule="evenodd" clip-rule="evenodd" d="M51.8367 85.9063C51.1055 81.9802 53.3137 78.2638 56.7592 77.6221C58.4427 77.3084 60.1619 77.765 61.5987 78.9087C63.011 80.0329 63.9825 81.6916 64.334 83.5789L63.2189 83.7864C62.9174 82.1675 62.0911 80.7505 60.8922 79.7959C59.7168 78.8605 58.3222 78.4842 56.9667 78.7372C54.1362 79.2643 52.335 82.3872 52.9518 85.6989L51.8367 85.9063Z" fill="#D5962F"/>
<path fill-rule="evenodd" clip-rule="evenodd" d="M66.0829 83.306C56.8 79.2686 45.9637 82.7956 40.8356 91.5236L20.7306 125.743C18.9317 128.804 20.0921 132.754 23.2683 134.342C28.2977 136.856 36.5233 139.69 47.0763 138.839C48.1837 138.749 49.1414 138.032 49.5183 136.987L67.6069 86.8396C68.1102 85.444 67.4434 83.8976 66.0829 83.306Z" fill="#D5962F"/>
<path fill-rule="evenodd" clip-rule="evenodd" d="M34.1314 131.888C34.09 131.888 34.0481 131.88 34.0078 131.861L20.6977 125.929C20.5441 125.861 20.475 125.681 20.5436 125.527C20.6116 125.374 20.7914 125.305 20.9455 125.373L34.2556 131.305C34.4094 131.374 34.4782 131.554 34.4098 131.707C34.3593 131.821 34.2481 131.888 34.1314 131.888Z" fill="#21211D"/>
<path fill-rule="evenodd" clip-rule="evenodd" d="M36.88 107.549C36.8392 107.549 36.7982 107.541 36.7584 107.523C36.6044 107.456 36.5339 107.277 36.6012 107.123C43.5952 91.1012 49.7597 85.9158 53.6995 84.3869C56.4341 83.3257 58.0711 84.0279 58.1393 84.0582C58.2929 84.1266 58.3622 84.3067 58.2938 84.4603C58.2252 84.6136 58.046 84.6827 57.8931 84.6152C57.8591 84.6007 55.5965 83.6765 51.9549 85.9541C48.5361 88.0922 43.194 93.5425 37.1593 107.366C37.1095 107.481 36.9976 107.549 36.88 107.549Z" fill="#21211D"/>
<path fill-rule="evenodd" clip-rule="evenodd" d="M38.2103 108.548C38.1638 108.548 38.1169 108.537 38.0728 108.515L34.787 106.848C34.637 106.772 34.577 106.589 34.6531 106.439C34.7292 106.289 34.9127 106.229 35.0627 106.305L38.3482 107.972C38.4982 108.048 38.5582 108.231 38.4821 108.381C38.4284 108.487 38.3213 108.548 38.2103 108.548Z" fill="#21211D"/>
<path fill-rule="evenodd" clip-rule="evenodd" d="M30.2714 109.807C30.2243 109.807 30.1767 109.797 30.1321 109.773L25.2201 107.241C25.0706 107.164 25.012 106.98 25.0892 106.831C25.1662 106.681 25.3499 106.623 25.4994 106.7L30.4111 109.232C30.5606 109.309 30.6193 109.493 30.5423 109.642C30.4881 109.747 30.3817 109.807 30.2714 109.807Z" fill="#21211D"/>
<path fill-rule="evenodd" clip-rule="evenodd" d="M2.43864 199.068L43.359 212.336L53.3856 181.413L9.11192 167.058L0.172837 194.627C-0.427647 196.479 0.586673 198.467 2.43864 199.068Z" fill="#D5962F"/>
<path fill-rule="evenodd" clip-rule="evenodd" d="M44.3366 212.522C44.0062 212.522 43.6739 212.47 43.3504 212.365C42.5406 212.102 41.8817 211.54 41.4948 210.782C41.1079 210.024 41.0393 209.16 41.3023 208.351L50.3548 180.43L50.934 180.618L41.8812 208.539C41.669 209.193 41.7245 209.892 42.0373 210.505C42.3501 211.119 42.8833 211.573 43.5384 211.786C44.1935 211.998 44.8918 211.942 45.505 211.63C46.1182 211.316 46.573 210.784 46.7855 210.129L55.8383 182.208L56.4174 182.396L47.3644 210.316C47.1021 211.126 46.5401 211.785 45.7818 212.172C45.3265 212.404 44.8334 212.522 44.3366 212.522Z" fill="#D5962F"/>
<path fill-rule="evenodd" clip-rule="evenodd" d="M55.8659 182.218L46.8976 209.877C46.4068 211.391 44.7811 212.221 43.2671 211.73C41.7528 211.239 40.9233 209.614 41.4142 208.099L50.3827 180.44" fill="white"/>
<mask id="mask27_565_6130" style="mask-type:alpha" maskUnits="userSpaceOnUse" x="0" y="167" width="54" height="46">
<path fill-rule="evenodd" clip-rule="evenodd" d="M9.11192 167.058L53.3856 181.413L43.3592 212.336L2.43864 199.068C0.586673 198.468 -0.427647 196.479 0.172837 194.628L9.11192 167.058Z" fill="white"/>
</mask>
<g mask="url(#mask27_565_6130)">
<path fill-rule="evenodd" clip-rule="evenodd" d="M-13.6488 180.196L43.2907 197.765L38.5152 212.336L-14.7012 195.443L-13.6488 180.196Z" fill="#BA7400"/>
</g>
<path fill-rule="evenodd" clip-rule="evenodd" d="M67.6456 92.8202L74.3721 90.8133L81.1059 88.8306L87.8444 86.8649C93.5475 85.2014 99.4928 87.9928 101.956 93.1962L102.028 93.3532L102.759 94.8921L103.518 96.472L105.064 99.6373C106.1 101.747 107.141 103.858 108.201 105.954C109.26 108.051 110.332 110.137 111.419 112.207C112.507 114.277 113.592 116.34 114.702 118.375C116.913 122.443 119.215 126.432 121.553 130.163C121.956 130.804 122.769 132.057 122.769 132.057L123.691 130.11C123.691 130.11 125.517 126.078 126.411 123.992C127.3 121.901 128.157 119.769 128.997 117.615C129.848 115.465 130.677 113.29 131.485 111.101C132.307 108.916 133.106 106.715 133.897 104.51L135.075 101.203L136.224 97.957L136.287 97.7774C138.158 92.4879 143.963 89.7167 149.253 91.5877C154.159 93.3233 156.897 98.4431 155.776 103.397L155.56 104.354L155.347 105.271L154.914 107.089C154.615 108.295 154.312 109.496 154.002 110.696C153.377 113.094 152.716 115.483 152.03 117.872C151.331 120.256 150.605 122.641 149.843 125.028C149.069 127.411 148.255 129.795 147.39 132.191C146.531 134.589 145.591 136.985 144.565 139.411C143.531 141.84 142.428 144.292 141.065 146.843C140.377 148.12 139.631 149.424 138.732 150.8C138.281 151.489 137.791 152.198 137.228 152.939C136.663 153.678 136.026 154.453 135.228 155.289C135.036 155.493 134.812 155.713 134.597 155.925L134.247 156.255L134.069 156.419L133.876 156.59C133.373 157.036 132.781 157.513 132.082 157.997C131.381 158.479 130.568 158.978 129.53 159.453C128.5 159.922 127.25 160.365 125.755 160.617C124.271 160.873 122.53 160.903 120.843 160.594C120.053 160.45 119.435 160.28 118.841 160.088C118.264 159.899 117.742 159.692 117.287 159.489C116.368 159.078 115.635 158.661 115 158.264C114.38 157.871 113.84 157.487 113.361 157.12C112.411 156.388 111.661 155.711 110.982 155.06C110.31 154.411 109.721 153.792 109.171 153.186C108.076 151.977 107.139 150.825 106.259 149.689C104.513 147.424 102.999 145.227 101.558 143.035C100.119 140.849 98.7797 138.666 97.4847 136.485C96.19 134.305 94.9433 132.126 93.7251 129.944C91.2844 125.586 88.988 121.204 86.758 116.803C85.6443 114.602 84.5416 112.399 83.4652 110.182L81.8651 106.844L81.0714 105.163L80.2657 103.433L94.4497 109.921L87.6928 111.822L80.931 113.706L74.1621 115.565L67.3849 117.396C61.1334 119.084 54.697 115.385 53.0086 109.134C51.3532 103.004 54.8961 96.6911 60.9272 94.8561L67.6456 92.8202Z" fill="#FFDDBA"/>
<path fill-rule="evenodd" clip-rule="evenodd" d="M153.701 94.1824L143.836 92.1477L145.396 84.5851L155.261 86.6198L153.701 94.1824Z" fill="#FFDDBA"/>
<mask id="mask28_565_6130" style="mask-type:alpha" maskUnits="userSpaceOnUse" x="147" y="80" width="25" height="11">
<path fill-rule="evenodd" clip-rule="evenodd" d="M147.808 80.7167H171V90.8944H147.808V80.7167Z" fill="white"/>
</mask>
<g mask="url(#mask28_565_6130)">
<path fill-rule="evenodd" clip-rule="evenodd" d="M147.808 86.1063C147.808 86.1063 170.165 78.2137 170.98 81.5305C171.709 84.491 152.74 90.8943 152.74 90.8943L147.808 86.1063Z" fill="#FFDDBA"/>
</g>
<path fill-rule="evenodd" clip-rule="evenodd" d="M55.9152 97.4662L39.0425 150.771H111.803L97.3755 97.5726C95.153 90.8708 84.4229 86.1693 75.2573 86.1693C66.1458 86.1693 58.1891 90.8164 55.9152 97.4662Z" fill="#E65ED4"/>
<path fill-rule="evenodd" clip-rule="evenodd" d="M80.4963 109.962C78.4568 109.652 76.422 109.313 74.3852 108.985C72.3478 108.663 70.3169 108.302 68.2823 107.962C66.2494 107.613 64.2135 107.28 62.1823 106.919L60.6588 106.652L60.2776 106.585L60.1825 106.568C60.0939 106.552 60.2534 106.582 60.3442 106.595C60.5442 106.626 60.746 106.649 60.9476 106.662C61.7622 106.731 62.5944 106.682 63.4026 106.524C64.2112 106.372 64.9931 106.106 65.7214 105.741C66.4521 105.383 67.1316 104.924 67.7382 104.379C68.958 103.299 69.8924 101.841 70.3624 100.302L69.0327 103.15C69.0445 103.127 68.8984 103.36 68.8128 103.498L68.5016 104.009L67.8508 105.116C67.4136 105.87 66.9758 106.657 66.5355 107.446C65.658 109.031 64.7981 110.668 63.953 112.322C62.2639 115.634 60.638 119.03 59.0766 122.477C55.9467 129.369 53.0722 136.451 50.3407 143.612C47.604 150.772 43.2439 164.072 40.8431 171.4C38.4278 178.725 36.1593 186.117 34.0307 193.561L34.0291 193.566C32.4333 199.148 26.6147 202.379 21.0328 200.783C15.587 199.226 12.3841 193.629 13.713 188.174C15.6178 180.403 17.6677 172.655 19.8954 164.939C22.1481 157.231 26.376 143.52 29.0144 135.885C30.3161 132.063 31.716 128.265 33.1521 124.471C34.5934 120.679 36.0979 116.9 37.6864 113.133C39.272 109.366 40.9427 105.613 42.7286 101.863C43.6242 99.9877 44.5436 98.1144 45.5208 96.2292C46.0112 95.2842 46.5113 94.3414 47.0425 93.3826C47.3046 92.9058 47.5793 92.4186 47.8586 91.9286L48.2999 91.17C48.4684 90.8871 48.5764 90.6991 48.851 90.2599L47.5216 93.1076C47.9204 91.8496 48.4854 90.6287 49.2104 89.5013C49.9387 88.3778 50.8135 87.3529 51.8067 86.464C52.8031 85.5806 53.9126 84.8322 55.1029 84.2394C56.2964 83.6514 57.5703 83.2222 58.8841 82.9655C60.1999 82.7127 61.5501 82.6423 62.8795 82.7442C63.2091 82.7732 63.5387 82.8113 63.8667 82.8582L64.3152 82.9279L64.6969 82.9911L66.2231 83.2444C68.2588 83.5778 70.2897 83.9384 72.3235 84.2838C74.3556 84.6381 76.3912 84.9711 78.4206 85.3426C80.4506 85.7088 85.223 86.0642 87.25 86.4477C93.7237 87.6725 97.9788 93.9131 96.754 100.387C95.5573 106.712 86.8085 110.915 80.4963 109.962Z" fill="#FFDDBA"/>
<path fill-rule="evenodd" clip-rule="evenodd" d="M27.6795 177.519L14.6802 201.834C13.8834 203.325 12.0284 203.888 10.5375 203.091C9.20905 202.38 8.61853 200.829 9.06974 199.445L17.5943 173.224C18.5339 170.334 21.6382 168.753 24.5283 169.692C27.4184 170.632 28.9994 173.736 28.0601 176.627C27.9611 176.93 27.8234 177.246 27.6795 177.519Z" fill="#FFDDBA"/>
<path fill-rule="evenodd" clip-rule="evenodd" d="M29.2383 186.182L18.6858 204.381C17.8595 205.806 16.0338 206.292 14.6083 205.465C13.3818 204.754 12.8524 203.301 13.2549 202.002L19.4761 181.906C20.352 179.077 23.3556 177.493 26.1849 178.369C29.0143 179.245 30.5976 182.249 29.7219 185.078C29.6028 185.462 29.4297 185.847 29.2383 186.182Z" fill="#FFDDBA"/>
<path fill-rule="evenodd" clip-rule="evenodd" d="M33.0215 187.961L23.5805 206.575C22.8568 208.002 21.1133 208.572 19.6861 207.849C18.4539 207.224 17.8613 205.836 18.1886 204.551L23.3289 184.322C24.0374 181.535 26.8715 179.849 29.6592 180.557C32.4471 181.266 34.1326 184.1 33.4243 186.888C33.3303 187.258 33.1855 187.633 33.0215 187.961Z" fill="#FFDDBA"/>
<path fill-rule="evenodd" clip-rule="evenodd" d="M35.5845 190.293L27.5832 207.965C26.9816 209.294 25.4164 209.884 24.0877 209.282C22.9368 208.761 22.3413 207.516 22.5934 206.329L26.6153 187.351C27.159 184.786 29.6789 183.147 32.2439 183.691C34.809 184.234 36.4478 186.754 35.9039 189.319C35.8335 189.653 35.7179 189.993 35.5845 190.293Z" fill="#FFDDBA"/>
<path fill-rule="evenodd" clip-rule="evenodd" d="M69.6288 102.018C69.5343 102.186 69.4337 102.353 69.3273 102.518L69.6347 101.86L70.3627 100.301C70.1801 100.892 69.9332 101.47 69.6288 102.018ZM60.1832 106.568L60.2228 106.577C60.1648 106.564 60.1284 106.558 60.1832 106.568ZM87.2503 86.4463C85.2223 86.0658 80.4506 85.7095 78.4199 85.3441C76.3917 84.9724 74.3547 84.6376 72.3236 84.2843C70.8562 84.0346 69.3914 83.7757 67.9206 83.5293C67.3543 83.4317 66.7876 83.3374 66.2213 83.243L64.6962 82.9902L64.3155 82.9293L63.8674 82.8593C63.5388 82.8106 63.2099 82.7741 62.8778 82.7435C62.0073 82.6767 61.1271 82.6858 60.253 82.768C59.7934 82.8135 59.3367 82.8776 58.8832 82.966C57.5708 83.2217 56.2949 83.6509 55.1012 84.2387C53.9138 84.8324 52.8023 85.5815 51.8065 86.4644C50.814 87.3537 49.9367 88.3769 49.2091 89.5004C48.8376 90.0789 48.5115 90.6787 48.2254 91.2969L47.8571 91.9272C47.58 92.4174 47.303 92.9046 47.0409 93.3828C46.5111 94.3419 46.0117 95.2828 45.5215 96.2298C44.5441 98.1146 43.6245 99.9875 42.7293 101.863C40.9419 105.614 39.2702 109.366 37.6867 113.133C36.0975 116.899 34.5932 120.678 33.153 124.472C31.7158 128.266 30.3148 132.063 29.0149 135.885C28.2751 138.028 27.5532 140.172 26.8501 142.322C31.9348 143.771 40.1045 146.183 48.3443 148.951C48.9989 147.163 49.6626 145.385 50.3419 143.613C51.252 141.226 52.178 138.847 53.1253 136.484C53.5303 135.471 53.9383 134.46 54.3523 133.452C55.8686 129.752 57.4367 126.089 59.0751 122.478C60.6371 119.031 62.263 115.632 63.9528 112.323C64.011 112.213 64.0654 112.1 64.1231 111.991C64.8783 110.52 65.5984 110.338 66.381 108.922C66.9992 109.026 67.6173 109.129 68.2384 109.236C68.488 109.279 68.7374 109.321 68.9873 109.364C70.7715 109.665 72.5736 109.943 74.3613 110.226C76.3983 110.555 78.4319 110.893 80.4721 111.203C86.7843 112.157 97.0148 107.175 98.2117 100.85C99.4357 94.3767 93.724 87.6733 87.2503 86.4463Z" fill="#E65ED4"/>
<path fill-rule="evenodd" clip-rule="evenodd" d="M35.6568 182.033C35.6568 182.033 40.8748 204.349 35.6745 205.185C31.5069 205.855 29.5439 186.696 29.5439 186.696L35.6568 182.033Z" fill="#FFDDBA"/>
<path fill-rule="evenodd" clip-rule="evenodd" d="M13.1945 203.496C13.1528 203.496 13.1107 203.488 13.0701 203.469C12.9166 203.401 12.8482 203.22 12.9168 203.067L14.7221 199.038C14.791 198.885 14.9708 198.816 15.1246 198.885C15.278 198.954 15.3466 199.134 15.2777 199.287L13.4727 203.316C13.4219 203.429 13.3109 203.496 13.1945 203.496Z" fill="#21211D"/>
<path fill-rule="evenodd" clip-rule="evenodd" d="M18.1217 205.358C18.0793 205.358 18.0365 205.349 17.9953 205.33C17.8426 205.26 17.7751 205.079 17.8449 204.927L19.5589 201.172C19.6285 201.019 19.8085 200.951 19.9623 201.021C20.1152 201.091 20.1827 201.272 20.1127 201.425L18.399 205.179C18.3478 205.291 18.2374 205.358 18.1217 205.358Z" fill="#21211D"/>
<path fill-rule="evenodd" clip-rule="evenodd" d="M22.6364 207.882C22.5947 207.882 22.5526 207.873 22.512 207.855C22.3585 207.787 22.2901 207.606 22.3587 207.453L24.164 203.424C24.2329 203.271 24.4127 203.202 24.5665 203.271C24.7199 203.34 24.7885 203.52 24.7196 203.673L22.9146 207.702C22.8638 207.815 22.7528 207.882 22.6364 207.882Z" fill="#21211D"/>
<path fill-rule="evenodd" clip-rule="evenodd" d="M118.469 139.053C118.447 139.072 118.455 139.054 118.513 138.998C118.535 138.978 118.572 138.944 118.619 138.904C118.547 138.983 118.491 139.038 118.469 139.053ZM122.748 132.015C122.407 131.492 121.891 130.701 121.553 130.164C119.215 126.432 116.913 122.443 114.702 118.375C112.493 114.298 110.32 110.146 108.201 105.954C107.141 103.858 106.1 101.748 105.064 99.6375L103.518 96.472L102.028 93.3532L101.959 93.2028C99.4846 88.0125 93.5511 85.2207 87.8444 86.8652C83.3477 88.1608 78.8623 89.4943 74.3721 90.8135L67.6456 92.8202L60.9272 94.8563C54.8961 96.6911 51.3532 103.004 53.0086 109.134C54.697 115.385 61.1334 119.084 67.3847 117.396L74.1621 115.565L80.9308 113.706C82.182 113.356 83.4333 113.008 84.6852 112.66C85.3702 114.043 86.0604 115.424 86.758 116.803C88.988 121.204 91.2842 125.586 93.7251 129.944C94.9433 132.126 96.1902 134.305 97.4845 136.485C98.7797 138.667 100.118 140.849 101.558 143.036C102.999 145.227 104.513 147.424 106.259 149.689C107.139 150.825 108.076 151.978 109.171 153.186C109.721 153.792 110.31 154.411 110.982 155.06C111.661 155.711 112.411 156.388 113.361 157.12L122.748 132.015Z" fill="#E65ED4"/>
<path fill-rule="evenodd" clip-rule="evenodd" d="M31.7431 199.741C31.7094 199.741 31.675 199.736 31.6414 199.724C31.4831 199.668 31.4 199.493 31.4559 199.335L33.1305 194.607C33.1867 194.448 33.3613 194.365 33.5194 194.422C33.6778 194.478 33.7607 194.652 33.7047 194.81L32.0304 199.538C31.986 199.663 31.8686 199.741 31.7431 199.741Z" fill="#21211D"/>
<path fill-rule="evenodd" clip-rule="evenodd" d="M148.089 76.2755L150.652 104.667C150.713 105.337 151.275 105.85 151.948 105.85H162.076C162.764 105.85 163.333 105.315 163.374 104.628L165.075 76.2755H148.089Z" fill="#D5962F"/>
<mask id="mask29_565_6130" style="mask-type:alpha" maskUnits="userSpaceOnUse" x="148" y="76" width="18" height="30">
<path fill-rule="evenodd" clip-rule="evenodd" d="M165.075 76.2755L163.374 104.628C163.333 105.315 162.764 105.85 162.076 105.85H151.948C151.275 105.85 150.713 105.337 150.652 104.667L148.089 76.2755H165.075Z" fill="white"/>
</mask>
<g mask="url(#mask29_565_6130)">
<path fill-rule="evenodd" clip-rule="evenodd" d="M137.975 77.032L150.535 74.638L160.613 109.126L149.724 111.922L137.975 77.032Z" fill="#BA7400"/>
</g>
<path fill-rule="evenodd" clip-rule="evenodd" d="M164.528 77.5784H148.761C148.049 77.5784 147.471 77.001 147.471 76.2888C147.471 75.5769 148.049 74.9995 148.761 74.9995H164.528C165.24 74.9995 165.818 75.5769 165.818 76.2888C165.818 77.001 165.24 77.5784 164.528 77.5784Z" fill="#EDE8D6"/>
<mask id="mask30_565_6130" style="mask-type:alpha" maskUnits="userSpaceOnUse" x="150" y="73" width="14" height="3">
<path fill-rule="evenodd" clip-rule="evenodd" d="M150.274 73.2823H163.309V75.3327H150.274V73.2823Z" fill="white"/>
</mask>
<g mask="url(#mask30_565_6130)">
<path fill-rule="evenodd" clip-rule="evenodd" d="M162.422 73.2823H151.16C150.671 73.2823 150.274 73.6792 150.274 74.1687V75.3327H163.309V74.1687C163.309 73.6792 162.912 73.2823 162.422 73.2823Z" fill="#EDE8D6"/>
</g>
<path fill-rule="evenodd" clip-rule="evenodd" d="M163.309 75.3631H150.274C150.106 75.3631 149.97 75.2267 149.97 75.0586C149.97 74.8904 150.106 74.7542 150.274 74.7542H163.309C163.477 74.7542 163.614 74.8904 163.614 75.0586C163.614 75.2267 163.477 75.3631 163.309 75.3631Z" fill="#21211D"/>
<path fill-rule="evenodd" clip-rule="evenodd" d="M146.3 90.3881C146.3 90.3881 150.774 95.1096 150.346 102.528L136.82 96.4827C136.82 96.4827 139.151 90.0522 141.716 84.2705C142.386 82.7606 143.733 81.6583 145.342 81.2878L152.16 79.718C153.063 79.5101 153.965 80.1575 154 81.0835C154.059 82.6251 153.099 84.8703 147.775 86.2237L146.3 90.3881Z" fill="#FFDDBA"/>
<path fill-rule="evenodd" clip-rule="evenodd" d="M149.631 103.062C149.597 103.062 149.562 103.057 149.529 103.045C149.37 102.988 149.287 102.814 149.344 102.656C151.427 96.7943 145.838 91.7916 145.781 91.7418C145.686 91.6579 145.652 91.5243 145.697 91.4056L146.688 88.7704C147.09 87.7021 147.633 86.5263 148.61 85.9045C148.621 85.8973 148.633 85.8907 148.646 85.8851L150.885 84.8513C151.037 84.7808 151.218 84.8472 151.289 85.0001C151.359 85.1525 151.293 85.3335 151.14 85.4039L148.92 86.4291C148.104 86.9583 147.622 88.0172 147.258 88.9846L146.339 91.4296C147.266 92.3214 151.934 97.1853 149.917 102.86C149.873 102.984 149.756 103.062 149.631 103.062Z" fill="#21211D"/>
<path fill-rule="evenodd" clip-rule="evenodd" d="M67.5547 83.5291C67.5547 83.5291 73.5174 100.029 83.8846 100.301C94.2519 100.573 93.0718 86.5467 93.0718 86.5467L67.5547 83.5291Z" fill="#FFDDBA"/>
<path fill-rule="evenodd" clip-rule="evenodd" d="M169.526 90.2293C168.135 94.4006 157.044 89.8907 157.476 87.7296C157.98 85.2039 171.046 85.6724 169.526 90.2293Z" fill="#FFDDBA"/>
<path fill-rule="evenodd" clip-rule="evenodd" d="M165.207 92.1567C165.197 92.1567 165.186 92.1562 165.175 92.1551C162.234 91.8554 158.411 90.1627 157.311 88.672C157.039 88.3046 156.935 87.9549 156.999 87.633C157.072 87.2672 157.33 86.9483 157.764 86.6853C159.387 85.7036 163.514 85.5872 166.421 86.4409C166.584 86.4882 166.674 86.6574 166.629 86.8187C166.581 86.9802 166.412 87.0722 166.251 87.0251C163.526 86.2255 159.555 86.3136 158.079 87.2065C157.797 87.3773 157.634 87.561 157.596 87.7524C157.559 87.935 157.687 88.1565 157.801 88.3103C158.698 89.5258 162.216 91.2414 165.238 91.5492C165.406 91.5664 165.526 91.7157 165.51 91.8831C165.494 92.0398 165.361 92.1567 165.207 92.1567Z" fill="#21211D"/>
<path fill-rule="evenodd" clip-rule="evenodd" d="M168.409 94.3858C167.018 98.5571 156.001 93.5036 156.359 91.886C156.92 89.3493 169.929 89.8289 168.409 94.3858Z" fill="#FFDDBA"/>
<path fill-rule="evenodd" clip-rule="evenodd" d="M164.436 96.2215C164.426 96.2215 164.415 96.221 164.405 96.2199C161.18 95.8921 157.077 93.8936 156.105 92.5479C155.906 92.2732 155.832 92.0161 155.883 91.7834C156 91.2534 156.494 90.8289 157.349 90.5215C159.996 89.5706 165.347 89.9215 167.587 91.6718C167.718 91.7755 167.741 91.9667 167.639 92.0992C167.535 92.2317 167.345 92.2553 167.211 92.1517C165.478 90.7977 160.485 90.042 157.555 91.0946C156.927 91.32 156.545 91.6115 156.478 91.915C156.476 91.9237 156.463 92.0041 156.598 92.1912C157.388 93.2834 161.309 95.2932 164.466 95.614C164.634 95.631 164.755 95.7805 164.739 95.9479C164.723 96.1046 164.59 96.2215 164.436 96.2215Z" fill="#21211D"/>
<path fill-rule="evenodd" clip-rule="evenodd" d="M167.263 98.5355C165.872 102.707 154.771 98.2814 155.212 96.0357C155.645 93.8302 168.783 93.9786 167.263 98.5355Z" fill="#FFDDBA"/>
<path fill-rule="evenodd" clip-rule="evenodd" d="M160.196 99.9061C160.166 99.9061 160.136 99.9016 160.106 99.8923C157.297 99.0182 154.46 97.3361 154.734 95.9404C154.822 95.4935 155.241 95.1272 155.979 94.8513C158.364 93.96 164.139 94.0793 166.481 95.9034C166.615 96.0067 166.638 96.1981 166.536 96.3306C166.432 96.4636 166.241 96.4872 166.108 96.3839C163.95 94.7041 158.402 94.596 156.192 95.4219C155.688 95.6103 155.374 95.8421 155.332 96.0577C155.182 96.8188 157.27 98.3718 160.287 99.3109C160.447 99.3607 160.537 99.5315 160.487 99.6921C160.446 99.8226 160.326 99.9061 160.196 99.9061Z" fill="#21211D"/>
<path fill-rule="evenodd" clip-rule="evenodd" d="M69.5074 94.2963C69.3156 91.6199 68.9717 88.9554 68.4906 86.3063C68.3137 85.3776 68.128 84.4519 67.9209 83.5293C62.4011 82.269 60.2535 82.768 60.2535 82.768C60.4578 83.2887 60.6558 83.8247 60.8476 84.3574C61.2617 85.4993 61.6271 86.6685 61.9804 87.841C62.6622 90.1917 63.2285 92.588 63.655 95.0089C64.0845 97.4326 64.3737 99.8778 64.5106 102.335C64.6417 104.792 64.5989 107.259 64.3828 109.71L64.2974 110.63L64.255 111.089L64.188 111.546L64.1237 111.991L63.9259 113.373C63.6854 114.579 63.4693 115.797 63.1343 116.984L62.9057 117.883C62.8269 118.181 62.7231 118.47 62.6319 118.766C62.4371 119.354 62.2663 119.95 62.0563 120.532L61.3833 122.262C61.3256 122.408 61.271 122.554 61.2128 122.697L61.015 123.117L60.622 123.961L60.2295 124.807C60.1015 125.093 59.937 125.355 59.7939 125.632L58.8955 127.274L57.8846 128.854C57.7111 129.113 57.5557 129.387 57.3702 129.64L56.8098 130.395C56.4322 130.894 56.0727 131.415 55.677 131.902L54.4742 133.311L53.312 136.331L54.0695 135.705L54.8247 135.078C55.0772 134.868 55.3026 134.633 55.5432 134.411L56.9682 133.056C57.428 132.59 57.8572 132.094 58.308 131.613L58.9716 130.882C59.1941 130.635 59.3857 130.37 59.5961 130.114L60.829 128.562L61.9589 126.93C62.1415 126.652 62.3458 126.387 62.5132 126.101L63.0217 125.249L63.5332 124.39L63.7889 123.961C63.8682 123.814 63.9411 123.665 64.0172 123.519L64.9307 121.741C65.22 121.141 65.4728 120.523 65.7439 119.911C65.8748 119.603 66.0207 119.302 66.1367 118.988L66.4869 118.05C66.9771 116.805 67.3454 115.52 67.7413 114.235L68.2315 112.289L68.3533 111.799L68.451 111.309L68.6487 110.322C68.7919 109.582 68.9196 108.836 69.0324 108.09C69.3246 106.184 69.5167 104.263 69.6141 102.338C69.6202 102.232 69.6232 102.125 69.6293 102.018C69.6293 101.967 69.6325 101.912 69.6352 101.86C69.736 99.3419 69.6902 96.8145 69.5074 94.2963Z" fill="#73262D"/>
<path fill-rule="evenodd" clip-rule="evenodd" d="M48.3446 149.255C48.3072 149.255 48.2694 149.248 48.2327 149.233C48.0762 149.171 47.9996 148.995 48.0615 148.838L63.8675 108.862C63.9296 108.705 64.1069 108.629 64.2625 108.691C64.419 108.753 64.4958 108.93 64.4338 109.086L48.6277 149.062C48.5804 149.182 48.4658 149.255 48.3446 149.255Z" fill="#21211D"/>
<path fill-rule="evenodd" clip-rule="evenodd" d="M95.1607 94.5247C95.2449 94.9166 95.3233 95.31 95.4026 95.703L100.668 112.69C100.705 112.278 100.947 110.12 100.978 109.706C101.331 104.633 101.513 98.6506 100.983 93.596C100.894 92.7679 100.797 91.9425 100.687 91.1173C98.8207 88.6662 96.0771 87.0371 93.0718 86.5469C93.1753 86.891 93.2788 87.2351 93.3823 87.5821C94.0643 89.8658 94.6522 92.1862 95.1607 94.5247Z" fill="#73262D"/>
<path fill-rule="evenodd" clip-rule="evenodd" d="M111.803 150.923H106.531C106.363 150.923 106.227 150.786 106.227 150.618C106.227 150.45 106.363 150.314 106.531 150.314H111.394L95.111 95.7902C95.0628 95.6289 95.1545 95.4593 95.3155 95.4112C95.4752 95.3632 95.6465 95.4545 95.6945 95.6158L112.095 150.531C112.122 150.623 112.105 150.723 112.047 150.8C111.99 150.877 111.899 150.923 111.803 150.923Z" fill="#21211D"/>
<path fill-rule="evenodd" clip-rule="evenodd" d="M50.3346 142.992C50.3081 142.992 50.2809 142.988 50.2542 142.981L28.6306 137.064C28.4682 137.02 28.3729 136.852 28.417 136.69C28.4617 136.528 28.6288 136.432 28.7912 136.477L50.4148 142.393C50.577 142.438 50.6723 142.605 50.6282 142.767C50.591 142.903 50.4685 142.992 50.3346 142.992Z" fill="#21211D"/>
<path fill-rule="evenodd" clip-rule="evenodd" d="M110.799 147.23C110.76 147.23 110.72 147.223 110.682 147.207C110.527 147.142 110.453 146.964 110.518 146.808L118.931 126.665C118.996 126.51 119.173 126.436 119.33 126.501C119.485 126.566 119.558 126.744 119.493 126.899L111.08 147.043C111.031 147.16 110.918 147.23 110.799 147.23Z" fill="#21211D"/>
<path fill-rule="evenodd" clip-rule="evenodd" d="M95.7836 75.5447C93.8435 77.5664 91.1915 77.8996 88.3891 77.3378C81.2365 75.904 73.068 68.6436 73.068 68.6436C70.9875 67.0104 68.7339 64.6067 67.875 62.0362C67.7901 61.7814 67.718 61.5234 67.6625 61.2654C67.3133 59.6717 67.065 59.8055 66.6437 57.1436C65.6572 50.9446 69.9098 45.8986 83.1111 46.4375C85.3255 46.5287 87.2298 47.7961 88.8235 49.1287C89.8263 49.9647 90.695 50.9543 91.3874 52.055C91.43 52.117 91.4692 52.1825 91.5082 52.2446C94.4608 56.5655 102.015 69.042 95.7836 75.5447Z" fill="#FFDDBA"/>
<path fill-rule="evenodd" clip-rule="evenodd" d="M85.6972 60.9845L88.6421 86.0338C89.2237 90.9809 85.6847 95.4628 80.7377 96.0443C75.7907 96.626 71.3089 93.0872 70.7272 88.1402C70.6665 87.6226 70.6549 87.0601 70.6812 86.5566L72.1642 61.3784C72.3848 57.6317 75.6008 54.7733 79.3476 54.9942C82.6884 55.1908 85.3221 57.7719 85.6972 60.9845Z" fill="#FFDDBA"/>
<path fill-rule="evenodd" clip-rule="evenodd" d="M75.6287 59.4431L77.239 63.9666C77.3042 64.1528 77.3368 64.3455 77.3368 64.5349C77.3368 65.211 76.9252 65.8511 76.2559 66.1091C75.4425 66.4226 74.5247 66.0668 74.1362 65.2894L73.3065 63.712C72.9962 63.1208 72.467 62.6766 71.8303 62.4772L67.875 62.0365C67.7902 61.7816 67.7182 61.5236 67.6627 61.2656C67.3132 59.6717 67.0649 59.8055 66.6436 57.1438C65.6574 50.9448 69.9097 45.8986 83.1113 46.4375C85.2899 46.8459 87.23 47.7963 88.8237 49.1289C89.8263 49.9649 90.6952 50.9546 91.3876 52.0552C85.2571 54.9197 80.4233 55.9582 77.5459 56.3338C76.0597 56.5265 75.1258 58.0322 75.6287 59.4431Z" fill="#21211D"/>
<path fill-rule="evenodd" clip-rule="evenodd" d="M73.8808 66.1968C73.7184 68.996 71.3176 71.1339 68.5182 70.9715C65.7189 70.8093 63.5813 68.4085 63.7435 65.609C63.9059 62.8098 66.3067 60.6719 69.106 60.8344C71.9054 60.9965 74.0433 63.3973 73.8808 66.1968Z" fill="#FFDDBA"/>
<mask id="mask31_565_6130" style="mask-type:alpha" maskUnits="userSpaceOnUse" x="81" y="38" width="15" height="15">
<path fill-rule="evenodd" clip-rule="evenodd" d="M81.0703 38.9175H95.0318V52.879H81.0703V38.9175Z" fill="white"/>
</mask>
<g mask="url(#mask31_565_6130)">
<path fill-rule="evenodd" clip-rule="evenodd" d="M94.8943 47.271C94.1362 51.0503 90.4578 53.4996 86.6785 52.7415C82.8991 51.9836 80.4498 48.3052 81.208 44.5259C81.9659 40.7465 85.6442 38.297 89.4236 39.0551C93.2032 39.8133 95.6524 43.4916 94.8943 47.271Z" fill="#21211D"/>
</g>
<path fill-rule="evenodd" clip-rule="evenodd" d="M87.5674 77.1553C87.5674 77.1553 85.4493 76.8019 82.6434 75.3599C82.3003 75.1835 81.9612 75.6009 82.2081 75.8972L88.0951 81.3779L87.5674 77.1553Z" fill="#21211D"/>
<path fill-rule="evenodd" clip-rule="evenodd" d="M71.6934 70.0606C71.6934 70.0606 72.3687 69.6579 72.8548 68.9453C72.9291 68.8366 73.0971 68.8676 73.1225 68.9967C73.2955 69.8772 73.4124 72.0673 71.4214 73.9854L71.6934 70.0606Z" fill="#21211D"/>
<path d="M66.3418 64.4107C66.4075 64.254 66.5807 64.1754 66.7398 64.2248L66.7692 64.2356L70.7558 65.9057C70.9223 65.9752 71.0007 66.1666 70.9309 66.3331C70.8654 66.4896 70.6919 66.5682 70.5332 66.5189L70.5035 66.5082L66.5169 64.8381C66.3506 64.7684 66.2722 64.577 66.3418 64.4107Z" fill="#21211D"/>
<path d="M68.4189 65.2922C68.4834 65.1236 68.6721 65.0391 68.8406 65.1035C68.9992 65.1642 69.0834 65.335 69.039 65.4953L69.0291 65.5252L68.4565 67.0238C68.3921 67.1924 68.2034 67.2769 68.0349 67.2125C67.8764 67.1518 67.7921 66.981 67.8365 66.8207L67.8462 66.7908L68.4189 65.2922Z" fill="#21211D"/>
<path fill-rule="evenodd" clip-rule="evenodd" d="M88.8988 67.3872C88.8974 67.3872 88.8959 67.3872 88.8945 67.3872L87.7184 67.3838C87.5304 67.3833 87.3785 67.2304 87.3789 67.0424C87.3794 66.8544 87.5261 66.6949 87.7205 66.7029L88.8965 66.706C88.8972 66.7063 88.8981 66.7063 88.8988 66.7063C89.1489 66.7063 89.3795 66.5923 89.5315 66.3935C89.6839 66.1941 89.7333 65.9409 89.6667 65.699L88.2537 60.5513C88.2041 60.3698 88.3106 60.1825 88.492 60.1327C88.6737 60.0831 88.8608 60.1895 88.9106 60.3709L90.3236 65.5184C90.4468 65.9676 90.3553 66.4372 90.0724 66.8071C89.7906 67.1758 89.3629 67.3872 88.8988 67.3872Z" fill="#21211D"/>
<mask id="mask32_565_6130" style="mask-type:alpha" maskUnits="userSpaceOnUse" x="90" y="56" width="9" height="3">
<path fill-rule="evenodd" clip-rule="evenodd" d="M90.5884 56.7469H98.5682V58.4598H90.5884V56.7469Z" fill="white"/>
</mask>
<g mask="url(#mask32_565_6130)">
<path fill-rule="evenodd" clip-rule="evenodd" d="M98.2275 58.4598C98.1695 58.4598 98.1104 58.4449 98.0567 58.4136C94.3577 56.2629 91.2495 58.2938 91.1188 58.3812C90.9632 58.4859 90.7514 58.4446 90.6465 58.2888C90.5417 58.133 90.5824 57.9219 90.7381 57.8168C90.8826 57.7191 94.321 55.454 98.3989 57.8249C98.5616 57.9194 98.6166 58.1278 98.5222 58.2904C98.459 58.3991 98.3448 58.4598 98.2275 58.4598Z" fill="#21211D"/>
</g>
<mask id="mask33_565_6130" style="mask-type:alpha" maskUnits="userSpaceOnUse" x="78" y="56" width="9" height="3">
<path fill-rule="evenodd" clip-rule="evenodd" d="M78.7354 56.7469H86.7155V58.4598H78.7354V56.7469Z" fill="white"/>
</mask>
<g mask="url(#mask33_565_6130)">
<path fill-rule="evenodd" clip-rule="evenodd" d="M79.0762 58.4598C78.9589 58.4598 78.8447 58.3991 78.7815 58.2904C78.6871 58.1278 78.7421 57.9194 78.9048 57.8249C82.9827 55.454 86.4213 57.7191 86.5656 57.8168C86.7215 57.9221 86.7625 58.1336 86.6571 58.2895C86.552 58.4451 86.3407 58.4861 86.1849 58.3812C86.0542 58.2936 82.9462 56.2629 79.247 58.4136C79.1933 58.4449 79.1342 58.4598 79.0762 58.4598Z" fill="#21211D"/>
</g>
<path fill-rule="evenodd" clip-rule="evenodd" d="M87.8006 68.8784V69.75C87.8006 69.9271 87.763 70.0975 87.6882 70.2472C87.5043 70.6456 87.0991 70.9213 86.6293 70.9213C85.9824 70.9213 85.458 70.3969 85.458 69.75V68.8784C85.458 68.6059 85.6793 68.3846 85.9516 68.3846H87.3068C87.5793 68.3846 87.8006 68.6059 87.8006 68.8784Z" fill="#21211D"/>
<path fill-rule="evenodd" clip-rule="evenodd" d="M87.6882 70.2472C87.5043 70.6456 87.0991 70.9213 86.6293 70.9213C85.9824 70.9213 85.458 70.3969 85.458 69.75V69.5697C85.6725 69.4845 85.904 69.4367 86.1457 69.4367C86.786 69.4367 87.3512 69.7568 87.6882 70.2472Z" fill="#F74BAD"/>
<path fill-rule="evenodd" clip-rule="evenodd" d="M85.7241 61.1271C85.6847 61.005 85.5764 60.9183 85.4482 60.9067L83.7083 60.7488L83.0202 59.1383C82.9695 59.0203 82.8542 58.944 82.7257 58.944C82.5973 58.944 82.4818 59.0203 82.431 59.1388L81.7429 60.7488L80.0028 60.9067C79.8748 60.9187 79.767 61.005 79.7272 61.1271C79.6875 61.2492 79.7242 61.3831 79.8209 61.4675L81.1361 62.6209L80.7483 64.3293C80.72 64.4548 80.7687 64.5848 80.8729 64.66C80.929 64.7006 80.9945 64.7212 81.0606 64.7212C81.1175 64.7212 81.1741 64.7058 81.2249 64.6754L82.7257 63.7784L84.2259 64.6754C84.3358 64.7416 84.4742 64.7354 84.5781 64.66C84.6823 64.5844 84.731 64.4546 84.7027 64.3293L84.3149 62.6209L85.6301 61.4678C85.7268 61.3831 85.7637 61.2494 85.7241 61.1271Z" fill="#FFC107"/>
<path fill-rule="evenodd" clip-rule="evenodd" d="M97.792 61.1271C97.7525 61.005 97.6443 60.9183 97.5161 60.9067L95.7762 60.7488L95.0881 59.1383C95.0373 59.0203 94.9218 58.944 94.7934 58.944C94.6652 58.944 94.5497 59.0203 94.4987 59.1388L93.8108 60.7488L92.0707 60.9067C91.9427 60.9187 91.8347 61.005 91.795 61.1271C91.7554 61.2492 91.7921 61.3831 91.8886 61.4675L93.2039 62.6209L92.8162 64.3293C92.7878 64.4548 92.8365 64.5848 92.9407 64.66C92.9967 64.7006 93.0624 64.7212 93.1283 64.7212C93.1854 64.7212 93.242 64.7058 93.2925 64.6754L94.7934 63.7784L96.2938 64.6754C96.4037 64.7416 96.5418 64.7354 96.646 64.66C96.7502 64.5844 96.7989 64.4546 96.7706 64.3293L96.3828 62.6209L97.6979 61.4678C97.7947 61.3831 97.8316 61.2494 97.792 61.1271Z" fill="#FFC107"/>
<path opacity="0.01" d="M83.2074 67.2159C84.3168 66.4145 85.6371 66.2777 87.0941 66.7875C88.5952 67.3126 89.6217 67.7706 90.1438 69.4572C90.2548 69.8158 90.0541 70.1963 89.6956 70.3073C89.3372 70.4183 88.9565 70.2176 88.8455 69.859C88.4464 68.5693 87.7229 68.4472 86.6454 68.0703C85.5898 67.7011 84.734 67.7896 84.0033 68.3176C83.6991 68.5373 83.2744 68.4689 83.0547 68.1647C82.8347 67.8605 82.9031 67.4358 83.2074 67.2159Z" fill="#21211D"/>
</svg>
