<svg width="46" height="46" viewBox="0 0 46 46" fill="none" xmlns="http://www.w3.org/2000/svg">
<path d="M23 0C18.451 0 14.0042 1.34893 10.2219 3.8762C6.43956 6.40347 3.4916 9.99558 1.75078 14.1983C0.00996518 18.401 -0.445511 23.0255 0.441949 27.4871C1.32941 31.9486 3.51995 36.0468 6.73655 39.2634C9.95316 42.4801 14.0514 44.6706 18.5129 45.558C22.9745 46.4455 27.599 45.99 31.8017 44.2492C36.0044 42.5084 39.5965 39.5604 42.1238 35.7781C44.6511 31.9958 46 27.549 46 23C45.9928 16.9022 43.5673 11.0562 39.2556 6.74445C34.9438 2.43267 29.0978 0.00716123 23 0ZM23 43.2941C18.9862 43.2941 15.0626 42.1039 11.7252 39.8739C8.38785 37.644 5.7867 34.4745 4.25069 30.7662C2.71468 27.058 2.31278 22.9775 3.09584 19.0408C3.87889 15.1041 5.81172 11.4881 8.6499 8.64989C11.4881 5.81171 15.1041 3.87888 19.0408 3.09583C22.9775 2.31277 27.058 2.71467 30.7662 4.25068C34.4745 5.78669 37.644 8.38784 39.8739 11.7252C42.1039 15.0625 43.2941 18.9862 43.2941 23C43.2882 28.3805 41.1481 33.5389 37.3435 37.3435C33.5389 41.1481 28.3805 43.2881 23 43.2941ZM30.9666 21.8725L20.143 14.6569C19.9392 14.5208 19.7022 14.4427 19.4574 14.4309C19.2125 14.4191 18.9691 14.474 18.7531 14.5898C18.5371 14.7056 18.3565 14.8779 18.2308 15.0882C18.1051 15.2986 18.0389 15.5392 18.0392 15.7843V30.2157C18.0389 30.4608 18.1051 30.7014 18.2308 30.9117C18.3565 31.1221 18.5371 31.2944 18.7531 31.4102C18.9691 31.526 19.2125 31.5809 19.4574 31.5691C19.7022 31.5572 19.9392 31.4792 20.143 31.3431L30.9666 24.1274C31.1526 24.004 31.3052 23.8365 31.4108 23.6398C31.5164 23.4431 31.5716 23.2233 31.5716 23C31.5716 22.7767 31.5164 22.5569 31.4108 22.3602C31.3052 22.1635 31.1526 21.996 30.9666 21.8725Z" fill="white"/>
</svg>
